<?xml version="1.0" standalone="no"?>
<!DOCTYPE svg PUBLIC "-//W3C//DTD SVG 1.1//EN" "http://www.w3.org/Graphics/SVG/1.1/DTD/svg11.dtd" >
<svg xmlns="http://www.w3.org/2000/svg" xmlns:xlink="http://www.w3.org/1999/xlink" version="1.1">
<metadata>
Created by FontForge 20170731 at Sun Nov  6 18:32:29 2016
 By Aleksey,,,
Copyright (c) 2015 by Colophon Foundry. All rights reserved.
</metadata>
<defs>
<font id="BasisGrotesque-MonoBoldItalic" horiz-adv-x="602" >
  <font-face 
    font-family="Basis Grotesque Mono Bold"
    font-weight="200"
    font-style="italic"
    font-stretch="normal"
    units-per-em="1000"
    panose-1="2 0 5 9 3 0 0 9 0 4"
    ascent="800"
    descent="-200"
    x-height="496"
    cap-height="700"
    bbox="-72 -218 681 934"
    underline-thickness="50"
    underline-position="-200"
    slope="-11"
    unicode-range="U+000D-FB02"
  />
<missing-glyph 
 />
    <glyph glyph-name="ff" unicode="ff" 
d="M56 394l20 102h58l18 90q15 82 63 123t121 41q56 0 93 -31l-62 -105q-12 20 -37 20q-40 0 -49 -43l-19 -95h118l18 90q15 82 63 123t121 41q56 0 93 -31l-62 -105q-12 20 -37 20q-40 0 -49 -43l-19 -95h94l-20 -102h-94l-76 -394h-127l75 394h-118l-76 -394h-128l76 394
h-58z" />
    <glyph glyph-name="fi" unicode="fi" 
d="M55 394l20 102h59l14 70q18 92 74.5 138t128.5 46q65 0 113 -31l-59 -107q-25 22 -55 22q-61 0 -74 -68l-14 -70h319l-96 -496h-128l76 394h-191l-76 -394h-128l76 394h-59zM461 568l26 132h140l-26 -132h-140z" />
    <glyph glyph-name="fl" unicode="fl" 
d="M400 496l-20 -102h-138l-76 -394h-128l76 394h-59l20 102h59l14 70q18 92 74.5 138t128.5 46q65 0 113 -31l-59 -107q-25 22 -55 22q-61 0 -74 -68l-14 -70h138zM357 0l136 700h128l-136 -700h-128z" />
    <glyph glyph-name=".notdef" 
 />
    <glyph glyph-name=".null" horiz-adv-x="0" 
 />
    <glyph glyph-name="nonmarkingreturn" 
 />
    <glyph glyph-name="NULL" 
 />
    <glyph glyph-name="NULL" 
 />
    <glyph glyph-name="CR" unicode="&#xd;" 
 />
    <glyph glyph-name="space" unicode=" " 
 />
    <glyph glyph-name="exclam" unicode="!" 
d="M265 457l48 243h132l-48 -243l-64 -249h-100zM176 0l27 138h132l-27 -138h-132z" />
    <glyph glyph-name="quotedbl" unicode="&#x22;" 
d="M384 621l15 79h120l-15 -79l-45 -167h-94zM214 621l15 79h120l-15 -79l-45 -167h-94z" />
    <glyph glyph-name="numbersign" unicode="#" 
d="M521 700l-30 -204h95v-94h-109l-16 -104h105v-94h-119l-30 -204h-110l30 204h-106l-30 -204h-110l30 204h-95v94h109l16 104h-105v94h119l30 204h110l-30 -204h106l30 204h110zM261 402l-16 -104h106l16 104h-106z" />
    <glyph glyph-name="dollar" unicode="$" 
d="M172 -100l18 96q-75 20 -121.5 77t-55.5 130l120 55q16 -106 81 -140l39 200q-72 21 -115 70t-43 118q0 88 64 144t171 63l17 87h104l-19 -95q128 -31 163 -166l-111 -59q-23 82 -75 106l-33 -173q90 -23 132.5 -69t42.5 -122q0 -103 -68 -165.5t-190 -69.5l-17 -87h-104
zM415 209q0 58 -63 82l-36 -187q45 8 72 36t27 69zM223 517q0 -46 54 -74l30 155q-39 -8 -61.5 -29t-22.5 -52z" />
    <glyph glyph-name="percent" unicode="%" 
d="M69 558q0 61 42.5 108.5t127.5 47.5q57 0 93.5 -35.5t36.5 -92.5q0 -64 -42.5 -113t-122.5 -49q-56 0 -95.5 37t-39.5 97zM229 638q-37 0 -58 -23t-21 -54q0 -26 18.5 -43.5t44.5 -17.5q35 0 55 22t20 57q0 26 -16.5 42.5t-42.5 16.5zM234 120q0 61 42.5 108.5
t127.5 47.5q57 0 93.5 -35.5t36.5 -92.5q0 -64 -42.5 -113t-122.5 -49q-56 0 -95.5 37t-39.5 97zM394 200q-37 0 -58 -23t-21 -54q0 -26 18.5 -43.5t44.5 -17.5q35 0 55 22t20 57q0 26 -16.5 42.5t-42.5 16.5zM77 153l-47 67l498 321l43 -65z" />
    <glyph glyph-name="ampersand" unicode="&#x26;" 
d="M495 583q0 -74 -43.5 -121t-136.5 -88l92 -161q31 58 57 155l87 -56q-33 -129 -86 -202l63 -110h-130l-17 29q-70 -43 -167 -43q-91 0 -150 58t-59 137q0 157 162 234q-22 55 -22 102q0 85 53 141t141 56q70 0 113 -34.5t43 -96.5zM242 96q50 0 88 26l-117 207
q-80 -48 -80 -124q0 -51 31.5 -80t77.5 -29zM257 526q0 -38 14 -70q115 45 115 108q0 54 -54 54q-35 0 -55 -26.5t-20 -65.5z" />
    <glyph glyph-name="quotesingle" unicode="'" 
d="M295 621l15 79h120l-15 -79l-45 -167h-94z" />
    <glyph glyph-name="parenleft" unicode="(" 
d="M321 -148h-112q-55 140 -55 310q0 137 58.5 285.5t160.5 252.5h113q-209 -261 -209 -547q0 -168 44 -301z" />
    <glyph glyph-name="parenright" unicode=")" 
d="M272 700h112q55 -140 55 -310q0 -137 -58.5 -285.5t-160.5 -252.5h-113q209 261 209 547q0 168 -44 301z" />
    <glyph glyph-name="asterisk" unicode="*" 
d="M425 700l-41 -110l101 67l35 -89l-108 -36l86 -35l-56 -94l-80 71l-5 -110h-103l39 110l-88 -63l-47 83l105 38l-86 36l56 94l83 -72l4 110h105z" />
    <glyph glyph-name="plus" unicode="+" 
d="M62 314l19 102h190l38 191h104l-38 -191h190l-19 -102h-190l-38 -191h-104l38 191h-190z" />
    <glyph glyph-name="comma" unicode="," 
d="M171 0l30 156h156l-30 -156l-159 -162l-29 28l89 134h-57z" />
    <glyph glyph-name="hyphen" unicode="-" 
d="M97 260l19 102h394l-19 -102h-394z" />
    <glyph glyph-name="period" unicode="." 
d="M172 0l31 156h156l-31 -156h-156z" />
    <glyph glyph-name="slash" unicode="/" 
d="M-8 -30l506 760h128l-507 -760h-127z" />
    <glyph glyph-name="zero" unicode="0" 
d="M595 419q0 -61 -11.5 -120t-38 -116.5t-65.5 -100.5t-98 -69.5t-131 -26.5q-110 0 -171 74.5t-61 207.5q0 74 20.5 150t60.5 143.5t109 110t155 42.5q231 0 231 -295zM272 108q78 0 134.5 91t56.5 210q0 20 -4 52l-258 -331q28 -22 71 -22zM151 277q0 -27 2 -39l259 332
q-27 22 -63 22q-58 0 -105 -51.5t-70 -122.5t-23 -141z" />
    <glyph glyph-name="one" unicode="1" 
d="M24 0l23 116h162l82 422q-53 -48 -156 -48l23 122q114 0 173 88h124l-114 -584h162l-23 -116h-456z" />
    <glyph glyph-name="two" unicode="2" 
d="M23 94l316 257q48 40 70 75.5t22 78.5q0 44 -27 68.5t-75 24.5q-46 0 -77 -30.5t-31 -73.5q0 -22 6 -38l-131 -24q-9 19 -9 53q0 99 66 164t180 65q105 0 168.5 -52.5t63.5 -144.5q0 -126 -141 -242l-187 -153h264l-24 -122h-472z" />
    <glyph glyph-name="three" unicode="3" 
d="M59 262l120 -30q-12 -18 -12 -47q0 -39 30 -63t82 -24q53 0 87 32.5t34 90.5q0 50 -41.5 77t-107.5 27l19 98q153 2 153 103q0 38 -25 59t-66 21q-43 0 -69.5 -25t-26.5 -74q0 -7 1 -13l-125 -21q-3 15 -3 29q0 93 61 152.5t172 59.5q103 0 157 -47.5t54 -122.5
q0 -58 -31.5 -101t-79.5 -62q40 -22 66 -61.5t26 -92.5q0 -108 -68.5 -174.5t-196.5 -66.5q-107 0 -169.5 55.5t-62.5 134.5q0 46 22 86z" />
    <glyph glyph-name="four" unicode="4" 
d="M17 116l24 122l390 462h132l-90 -462h71l-24 -122h-71l-23 -116h-132l23 116h-300zM389 489l-205 -251h157z" />
    <glyph glyph-name="five" unicode="5" 
d="M46 318l107 382h423l-24 -122h-328l-47 -159q62 59 156 59q100 0 154 -55t54 -156q0 -126 -77.5 -203.5t-212.5 -77.5q-105 0 -168.5 53.5t-63.5 130.5q0 42 17 78l118 -30q-8 -16 -8 -41q0 -33 31.5 -56t81.5 -23q70 0 110 42.5t40 113.5q0 60 -33 91t-86 31
q-44 0 -82 -23t-63 -62z" />
    <glyph glyph-name="six" unicode="6" 
d="M553 484l-112 26q7 17 7 41q0 27 -24 44t-65 17q-69 0 -121 -63t-71 -159q62 68 159 68q96 0 157.5 -55t61.5 -148q0 -119 -75 -194t-195 -75q-116 0 -184 76t-68 206q0 59 12.5 119.5t40.5 119.5t68 105t99 74t128 28q89 0 144 -43t55 -109q0 -44 -17 -78zM295 350
q-61 0 -99.5 -40t-38.5 -101q0 -50 35.5 -82.5t87.5 -32.5q60 0 98.5 39t38.5 102q0 56 -33 85.5t-89 29.5z" />
    <glyph glyph-name="seven" unicode="7" 
d="M546 584l-349 -584h-143l346 578h-327l24 122h472z" />
    <glyph glyph-name="eight" unicode="8" 
d="M255 -14q-102 0 -167 55t-65 138q0 69 41 122.5t109 81.5q-29 19 -49.5 54.5t-20.5 77.5q0 86 66.5 142.5t174.5 56.5q98 0 154.5 -48.5t56.5 -116.5q0 -63 -34 -109.5t-91 -70.5q39 -22 65.5 -62t26.5 -86q0 -111 -73 -173t-194 -62zM265 94q56 0 93 33t37 90
q0 46 -30.5 72.5t-77.5 26.5q-60 0 -95 -33.5t-35 -88.5q0 -46 31 -73t77 -27zM336 618q-49 0 -80 -29.5t-31 -75.5q0 -41 26 -65t62 -24q50 0 82.5 28.5t32.5 78.5q0 40 -25.5 63.5t-66.5 23.5z" />
    <glyph glyph-name="nine" unicode="9" 
d="M46 217l119 -28q-8 -19 -8 -36q0 -27 24.5 -46t65.5 -19q143 0 179 223q-56 -69 -150 -69q-100 0 -163 61.5t-63 151.5q0 117 76 188t201 71q121 0 183.5 -69.5t62.5 -191.5q0 -64 -9.5 -125.5t-33.5 -124.5t-60.5 -110.5t-95 -77t-131.5 -29.5q-91 0 -152 43.5
t-61 111.5q0 41 16 76zM300 350q63 0 103 38.5t40 100.5q0 51 -32.5 84t-87.5 33q-64 0 -104.5 -39.5t-40.5 -104.5q0 -51 34.5 -81.5t87.5 -30.5z" />
    <glyph glyph-name="colon" unicode=":" 
d="M238 340l31 156h156l-31 -156h-156zM172 0l31 156h156l-31 -156h-156z" />
    <glyph glyph-name="semicolon" unicode=";" 
d="M238 340l30 156h156l-30 -156h-156zM172 0l30 156h156l-30 -156l-159 -162l-29 28l89 134h-57z" />
    <glyph glyph-name="less" unicode="&#x3c;" 
d="M68 261l19 98l477 222l-25 -129l-324 -147l267 -147l-23 -120z" />
    <glyph glyph-name="equal" unicode="=" 
d="M39 197l20 102h484l-20 -102h-484zM78 401l20 102h484l-20 -102h-484z" />
    <glyph glyph-name="greater" unicode="&#x3e;" 
d="M537 358l-19 -98l-477 -222l25 129l324 147l-267 147l23 120z" />
    <glyph glyph-name="question" unicode="?" 
d="M326 208h-127l3 16q9 48 36 82.5t87 74.5q62 41 87 69.5t25 70.5q0 33 -27.5 56t-71.5 23q-50 0 -85 -31t-35 -79q0 -16 2 -24l-125 -26q-5 22 -5 43q0 99 69 165t185 66q105 0 164 -46.5t59 -125.5q0 -69 -36 -116.5t-115 -101.5q-46 -31 -65 -56t-25 -60zM156 0l27 138
h132l-27 -138h-132z" />
    <glyph glyph-name="at" unicode="@" 
d="M432 -17l27 -84q-74 -41 -185 -41q-122 0 -198 92.5t-76 247.5q0 77 15 150t47 140t78 117t113.5 79.5t148.5 29.5q95 0 154 -48t59 -146q0 -35 -7 -71l-79 -407h-94l10 51q-52 -65 -136 -65q-76 0 -119 58.5t-43 149.5q0 124 66.5 214t187.5 90q75 0 119 -61l4 18
q2 9 2 29q0 43 -35.5 72.5t-102.5 29.5q-88 0 -154.5 -59.5t-100.5 -157t-34 -217.5q0 -131 54.5 -189.5t133.5 -58.5q72 0 145 37zM338 118q47 0 84.5 36.5t54.5 84t17 93.5q0 52 -27.5 85t-68.5 33q-70 0 -111.5 -64t-41.5 -153q0 -56 25.5 -85.5t67.5 -29.5z" />
    <glyph glyph-name="A" unicode="A" 
d="M-59 0l376 700h123l107 -700h-140l-22 183h-204l-93 -183h-147zM316 448l-75 -147h130l-17 147q-3 32 -4 77z" />
    <glyph glyph-name="B" unicode="B" 
d="M3 0l136 700h222q101 0 153 -37.5t52 -107.5q0 -126 -131 -180q96 -48 96 -147q0 -109 -78.5 -168.5t-202.5 -59.5h-247zM195 312l-38 -194h96q64 0 104 27t40 83q0 84 -106 84h-96zM248 584l-30 -156h100q51 0 82.5 23.5t31.5 66.5q0 66 -87 66h-97z" />
    <glyph glyph-name="C" unicode="C" 
d="M445 249l117 -54q-46 -106 -114 -157.5t-175 -51.5q-118 0 -183.5 81.5t-65.5 211.5q0 59 13.5 119t43 117t71.5 101t103.5 71t133.5 27q98 0 156.5 -52t69.5 -139l-121 -53q-8 59 -39.5 90.5t-82.5 31.5q-89 0 -151.5 -95t-62.5 -209q0 -87 34.5 -133.5t93.5 -46.5
q56 0 92.5 36t66.5 105z" />
    <glyph glyph-name="D" unicode="D" 
d="M-3 0l136 700h163q132 0 205.5 -72t73.5 -203q0 -189 -105.5 -307t-303.5 -118h-169zM182 122q119 0 188 81.5t69 198.5q0 176 -168 176h-30l-89 -456h30z" />
    <glyph glyph-name="E" unicode="E" 
d="M13 0l137 700h452l-23 -118h-320l-32 -161h292l-23 -118h-292l-36 -185h323l-23 -118h-455z" />
    <glyph glyph-name="F" unicode="F" 
d="M12 0l137 700h469l-23 -118h-337l-36 -181h307l-23 -118h-307l-55 -283h-132z" />
    <glyph glyph-name="G" unicode="G" 
d="M443 0v109q-25 -55 -76.5 -89t-113.5 -34q-112 0 -169.5 76.5t-57.5 207.5q0 80 23 157.5t66 142t114 104.5t158 40q101 0 160 -50.5t73 -132.5l-116 -56q-28 123 -132 123q-52 0 -94.5 -31t-67 -80t-37.5 -102t-13 -104q0 -82 29.5 -127.5t87.5 -45.5q57 0 100.5 45.5
t60.5 112.5h-162l20 102h293l-72 -368h-74z" />
    <glyph glyph-name="H" unicode="H" 
d="M-9 0l136 700h132l-55 -282h240l55 282h132l-137 -700h-132l58 296h-239l-58 -296h-132z" />
    <glyph glyph-name="I" unicode="I" 
d="M142 584l23 116h428l-23 -116h-148l-91 -468h154l-23 -116h-440l23 116h154l91 468h-148z" />
    <glyph glyph-name="J" unicode="J" 
d="M620 700l-95 -486q-45 -228 -269 -228q-101 0 -155 55t-54 143q0 30 5 53l131 -16q-2 -12 -2 -27q0 -40 23.5 -63t65.5 -23q50 0 82 28.5t42 79.5l94 484h132z" />
    <glyph glyph-name="K" unicode="K" 
d="M662 700l-299 -272l159 -428h-149l-118 334l-67 -62l-52 -272h-132l136 700h132l-47 -246l45 42l213 204h179z" />
    <glyph glyph-name="L" unicode="L" 
d="M19 0l136 700h132l-113 -578h335l-24 -122h-466z" />
    <glyph glyph-name="M" unicode="M" 
d="M-35 0l136 700h137l34 -530l240 530h145l-137 -700h-122l74 377l-49 -117l-119 -260h-119l-22 260q-2 79 -4 115l-73 -375h-121z" />
    <glyph glyph-name="N" unicode="N" 
d="M-1 0l136 700h136l119 -412q10 -35 18 -64l93 476h122l-137 -700h-136l-119 413q-10 35 -18 64l-93 -477h-121z" />
    <glyph glyph-name="O" unicode="O" 
d="M599 433q0 -90 -21.5 -169.5t-62.5 -142t-108 -99t-152 -36.5q-109 0 -175.5 75t-66.5 209q0 117 38.5 216t119 163.5t189.5 64.5q115 0 177 -70t62 -211zM266 108q88 0 143.5 90t55.5 218q0 80 -29.5 128t-88.5 48q-62 0 -108.5 -46.5t-69 -115.5t-22.5 -147
q0 -86 32 -130.5t87 -44.5z" />
    <glyph glyph-name="P" unicode="P" 
d="M-11 0l136 700h238q108 0 168 -50t60 -145q0 -125 -81 -193t-219 -68h-123l-47 -244h-132zM234 582l-43 -220h119q71 0 109 34.5t38 94.5q0 91 -111 91h-112z" />
    <glyph glyph-name="Q" unicode="Q" 
d="M599 433q0 -147 -55.5 -261.5t-160.5 -160.5q23 -48 64 -89l-109 -87q-29 27 -54.5 72.5t-33.5 78.5q-108 2 -172.5 76.5t-64.5 207.5q0 117 38.5 216t119 163.5t189.5 64.5q115 0 177 -70t62 -211zM266 108q88 0 143.5 90t55.5 218q0 80 -29.5 128t-88.5 48
q-62 0 -108.5 -46.5t-69 -115.5t-22.5 -147q0 -86 32 -130.5t87 -44.5z" />
    <glyph glyph-name="R" unicode="R" 
d="M376 0l-103 284h-87l-55 -284h-132l136 700h246q105 0 162.5 -47t57.5 -130q0 -95 -53 -150.5t-141 -76.5l109 -296h-140zM244 584l-36 -184h127q62 0 96 29t34 78q0 37 -24.5 57t-69.5 20h-127z" />
    <glyph glyph-name="S" unicode="S" 
d="M344 598q-54 0 -88 -21.5t-34 -58.5t31.5 -60.5t109.5 -41.5q101 -23 145.5 -69t44.5 -125q0 -109 -77.5 -172.5t-211.5 -63.5q-106 0 -173.5 63t-78.5 154l120 55q23 -156 152 -156q59 0 96 29.5t37 77.5q0 43 -31.5 65t-106.5 38q-83 17 -134 67.5t-51 126.5
q0 94 72 151t189 57q101 0 162.5 -47t82.5 -128l-111 -59q-37 118 -145 118z" />
    <glyph glyph-name="T" unicode="T" 
d="M103 578l24 122h504l-24 -122h-186l-113 -578h-132l113 578h-186z" />
    <glyph glyph-name="U" unicode="U" 
d="M636 700l-87 -447q-53 -267 -298 -267q-105 0 -163 53t-58 150q0 32 8 75l84 436h132l-88 -452q-4 -20 -4 -41q0 -47 26.5 -73t75.5 -26q125 0 152 140l88 452h132z" />
    <glyph glyph-name="V" unicode="V" 
d="M177 0l-99 700h137l52 -430q4 -41 7 -78l39 78l220 430h143l-363 -700h-136z" />
    <glyph glyph-name="W" unicode="W" 
d="M42 0l31 700h127l-31 -359q-4 -36 -7 -69l23 70l128 358h127l-14 -351q-1 -34 -3 -70l19 69l107 352h132l-237 -700h-132l20 456l-158 -456h-132z" />
    <glyph glyph-name="X" unicode="X" 
d="M250 700l83 -218l163 218h155l-258 -328l149 -372h-150l-99 257l-194 -257h-151l294 380l-135 320h143z" />
    <glyph glyph-name="Y" unicode="Y" 
d="M362 274l-54 -274h-132l54 274l-136 426h142l70 -235q8 -26 12 -50l32 50l163 235h151z" />
    <glyph glyph-name="Z" unicode="Z" 
d="M113 578l24 122h483l-24 -122l-417 -456h345l-24 -122h-507l24 120l415 458h-319z" />
    <glyph glyph-name="bracketleft" unicode="[" 
d="M84 -150l165 850h282l-23 -118h-156l-119 -614h156l-23 -118h-282z" />
    <glyph glyph-name="backslash" unicode="\" 
d="M249 730l248 -760h-127l-248 760h127z" />
    <glyph glyph-name="bracketright" unicode="]" 
d="M509 700l-165 -850h-282l23 118h156l119 614h-156l23 118h282z" />
    <glyph glyph-name="asciicircum" unicode="^" 
d="M306 700h124l145 -270h-127l-93 172l-154 -172h-136z" />
    <glyph glyph-name="underscore" unicode="_" 
d="M-9 -109l19 102h458l-19 -102h-458z" />
    <glyph glyph-name="grave" unicode="`" 
d="M407 708l39 -158h-100l-96 158h157z" />
    <glyph glyph-name="a" unicode="a" 
d="M589 496l-97 -496h-128l12 61q-55 -75 -150 -75q-93 0 -150 64t-57 164q0 123 75 209.5t202 86.5q106 0 152 -75l13 61h128zM274 104q64 0 108 47t44 120q0 56 -33.5 88.5t-87.5 32.5q-69 0 -112.5 -47t-43.5 -118q0 -57 35.5 -90t89.5 -33z" />
    <glyph glyph-name="b" unicode="b" 
d="M-10 0l135 700h128l-50 -257q55 67 155 67q91 0 146 -58t55 -155q0 -137 -77.5 -224t-204.5 -87q-47 0 -89 22.5t-59 52.5l-12 -61h-127zM272 104q65 0 110 48t45 122q0 54 -33.5 86t-86.5 32q-70 0 -112 -50.5t-42 -119.5q0 -53 35.5 -85.5t83.5 -32.5z" />
    <glyph glyph-name="c" unicode="c" 
d="M434 194l107 -63q-89 -145 -254 -145q-101 0 -169 64.5t-68 170.5q0 120 77.5 204.5t217.5 84.5q159 0 213 -143l-112 -62q-32 87 -113 87q-68 0 -110.5 -48.5t-42.5 -113.5q0 -59 33 -92.5t86 -33.5q46 0 77.5 22t57.5 68z" />
    <glyph glyph-name="d" unicode="d" 
d="M630 700l-136 -700h-128l11 57q-43 -71 -141 -71q-96 0 -154 65.5t-58 160.5q0 134 75 216t209 82q104 0 144 -69l50 259h128zM276 104q66 0 108.5 47.5t42.5 116.5q0 59 -33.5 91.5t-87.5 32.5q-69 0 -110.5 -48t-41.5 -113q0 -56 34.5 -91.5t87.5 -35.5z" />
    <glyph glyph-name="e" unicode="e" 
d="M540 218h-381q0 -57 33 -90.5t84 -33.5q95 0 145 89l94 -55q-40 -71 -98.5 -106.5t-147.5 -35.5q-101 0 -165 64t-64 172q0 120 81.5 204t209.5 84q107 0 163.5 -54t56.5 -142q0 -36 -7 -75zM326 414q-50 0 -89 -28.5t-56 -75.5h258q0 48 -30 76t-83 28z" />
    <glyph glyph-name="f" unicode="f" 
d="M91 394l20 102h130l9 48q20 106 81 156t150 50q69 0 124 -38l-55 -105q-36 27 -78 27q-76 0 -93 -86l-10 -52h183l-20 -102h-183l-76 -394h-128l76 394h-130z" />
    <glyph glyph-name="g" unicode="g" 
d="M30 5l115 -37q-9 -18 -9 -35q0 -22 25 -36.5t69 -14.5q117 0 143 136l11 59q-41 -69 -138 -69q-86 0 -147.5 58t-61.5 160q0 118 74.5 201t200.5 83q50 0 87.5 -19t55.5 -49l11 54h128l-92 -473q-24 -127 -94 -184t-194 -57q-98 0 -153 42.5t-55 103.5q0 43 24 77z
M314 400q-65 0 -107 -48.5t-42 -118.5q0 -54 33 -84.5t82 -30.5q66 0 106 48t40 123q0 50 -31.5 80.5t-80.5 30.5z" />
    <glyph glyph-name="h" unicode="h" 
d="M544 319l-63 -319h-128l56 283q2 14 2 29q0 35 -21 57.5t-61 22.5q-55 0 -94.5 -37t-53.5 -108l-48 -247h-127l136 700h128l-53 -275q26 38 72.5 61.5t97.5 23.5q77 0 120 -38t43 -103q0 -21 -6 -50z" />
    <glyph glyph-name="i" unicode="i" 
d="M123 394l20 102h261l-76 -392h158l-21 -104h-444l21 104h158l56 290h-133zM283 568l26 132h141l-26 -132h-141z" />
    <glyph glyph-name="j" unicode="j" 
d="M182 394l20 102h278l-101 -522q-19 -97 -71 -140.5t-145 -43.5q-75 0 -117 36.5t-42 88.5q0 37 21 68l112 -42q-5 -10 -5 -18q0 -12 12.5 -18.5t31.5 -6.5q33 0 50 19t25 59l81 418h-150zM360 568l26 132h140l-26 -132h-140z" />
    <glyph glyph-name="k" unicode="k" 
d="M284 700l-69 -351l190 147h182l-251 -190l165 -306h-145l-123 227l-49 -38l-37 -189h-128l137 700h128z" />
    <glyph glyph-name="l" unicode="l" 
d="M145 596l21 104h277l-116 -596h169l-21 -104h-465l20 104h169l95 492h-149z" />
    <glyph glyph-name="m" unicode="m" 
d="M599 361l-70 -361h-125l69 354q1 5 1 14q0 34 -36 34q-23 0 -41 -17.5t-25 -55.5l-64 -329h-125l69 354q1 6 1 13q0 35 -36 35q-50 0 -63 -71l-64 -331h-124l95 496h125l-8 -43q39 57 112 57q34 0 58 -17.5t29 -44.5q44 62 118 62q53 0 80.5 -29.5t27.5 -81.5
q0 -15 -4 -38z" />
    <glyph glyph-name="n" unicode="n" 
d="M542 317l-62 -317h-128l57 292q4 16 4 28q0 34 -20.5 53t-58.5 19q-53 0 -89 -38t-48 -102l-49 -252h-128l96 496h128l-12 -67q61 81 168 81q71 0 109 -40.5t38 -106.5q0 -19 -5 -46z" />
    <glyph glyph-name="o" unicode="o" 
d="M568 275q0 -125 -83.5 -207t-216.5 -82q-104 0 -173.5 64.5t-69.5 168.5q0 125 81.5 208t218.5 83q107 0 175 -61.5t68 -173.5zM279 104q70 0 113.5 46.5t43.5 118.5q0 56 -35 89.5t-93 33.5q-69 0 -111 -47.5t-42 -110.5q0 -61 36 -95.5t88 -34.5z" />
    <glyph glyph-name="p" unicode="p" 
d="M-49 -204l135 700h128l-11 -53q21 30 62 48.5t90 18.5q93 0 149 -61t56 -159q0 -134 -77 -219t-206 -85q-49 0 -88 19.5t-61 49.5l-50 -259h-127zM308 392q-65 0 -109.5 -49.5t-44.5 -120.5q0 -53 35.5 -85.5t89.5 -32.5q64 0 106.5 49t42.5 118q0 57 -33 89t-87 32z" />
    <glyph glyph-name="q" unicode="q" 
d="M594 496l-136 -700h-128l50 259q-49 -69 -146 -69q-93 0 -151.5 63.5t-58.5 162.5q0 77 32 143.5t98.5 110.5t155.5 44q52 0 91 -21t54 -51l11 58h128zM313 392q-68 0 -112.5 -50t-44.5 -117q0 -55 32.5 -88t85.5 -33q69 0 112.5 49t43.5 118q0 57 -32 89t-85 32z" />
    <glyph glyph-name="r" unicode="r" 
d="M512 286l-107 37q7 16 7 28q0 49 -63 49q-48 0 -85.5 -39.5t-50.5 -104.5l-50 -256h-128l96 496h128l-13 -68q52 82 159 82q64 0 100.5 -32t36.5 -84q0 -56 -30 -108z" />
    <glyph glyph-name="s" unicode="s" 
d="M303 418q-36 0 -59 -14t-23 -38q0 -26 25 -41t85 -23q159 -21 159 -138q0 -84 -62 -131t-173 -47q-91 0 -148 44.5t-72 108.5l106 55q31 -102 124 -102q44 0 75 15t31 45q0 25 -25.5 36.5t-87.5 22.5q-70 12 -111.5 49.5t-41.5 95.5q0 72 60 113t154 41q152 0 201 -135
l-99 -50q-33 93 -118 93z" />
    <glyph glyph-name="t" unicode="t" 
d="M84 394l20 102h117l26 134h128l-26 -134h160l-20 -102h-160l-40 -207q-3 -15 -3 -27q0 -31 17 -46.5t42 -15.5q35 0 76 33l36 -100q-60 -45 -148 -45q-69 0 -111 40t-42 112q0 21 5 51l40 205h-117z" />
    <glyph glyph-name="u" unicode="u" 
d="M53 199l58 297h128l-57 -292q-3 -15 -3 -26q0 -74 82 -74q48 0 85 40t48 100l49 252h128l-96 -496h-128l12 67q-56 -81 -156 -81q-72 0 -115 40t-43 102q0 30 8 71z" />
    <glyph glyph-name="v" unicode="v" 
d="M615 496l-310 -496h-120l-124 496h132l77 -339l204 339h141z" />
    <glyph glyph-name="w" unicode="w" 
d="M401 496l2 -320l109 320h120l-192 -496h-128v331l-129 -331h-132l-9 496h127l-12 -311l125 311h119z" />
    <glyph glyph-name="x" unicode="x" 
d="M254 496l59 -124l109 124h155l-207 -232l124 -264h-143l-74 159l-130 -159h-159l233 272l-119 224h152z" />
    <glyph glyph-name="y" unicode="y" 
d="M-21 -191l50 110q24 -14 45 -14q45 0 73 47l33 55l-116 489h139l69 -338l197 338h145l-354 -585q-41 -68 -86.5 -95t-109.5 -27q-48 0 -85 20z" />
    <glyph glyph-name="z" unicode="z" 
d="M208 102h279l-20 -102h-439l20 102l319 292h-251l20 102h411l-20 -102z" />
    <glyph glyph-name="braceleft" unicode="{" 
d="M77 224l19 102h28q39 0 60.5 17t30.5 62l26 133q16 86 62 124t133 38h98l-23 -118h-60q-41 0 -62.5 -20t-30.5 -67l-21 -107q-10 -51 -30 -75t-59 -38q50 -18 50 -79q0 -11 -4 -34l-21 -107q-3 -15 -3 -27q0 -60 62 -60h60l-23 -118h-88q-143 0 -143 137q0 22 7 62l19 96
q4 20 4 28q0 51 -63 51h-28z" />
    <glyph glyph-name="bar" unicode="|" 
d="M160 -110l165 850h122l-165 -850h-122z" />
    <glyph glyph-name="braceright" unicode="}" 
d="M516 326l-19 -102h-28q-39 0 -60.5 -17t-30.5 -62l-26 -133q-16 -86 -62 -124t-133 -38h-98l23 118h60q41 0 62.5 20t30.5 67l21 107q10 51 30 75t59 38q-50 18 -50 79q0 11 4 34l21 107q3 15 3 27q0 60 -62 60h-60l23 118h88q143 0 143 -137q0 -22 -7 -62l-19 -96
q-4 -20 -4 -28q0 -51 63 -51h28z" />
    <glyph glyph-name="asciitilde" unicode="~" 
d="M237 317q-13 0 -23 -9t-10 -23q0 -7 3 -16l-91 -16q-7 14 -7 39q0 52 36 85t93 33q39 0 67 -16t47.5 -31.5t37.5 -15.5q29 0 29 32q0 7 -3 16l90 16q8 -16 8 -38q0 -56 -34 -87.5t-86 -31.5q-36 0 -61.5 10t-36.5 21.5t-26.5 21.5t-32.5 10z" />
    <glyph glyph-name="uni00A0" unicode="&#xa0;" 
 />
    <glyph glyph-name="exclamdown" unicode="&#xa1;" 
d="M316 39l-48 -243h-132l48 243l64 249h100zM405 496l-27 -138h-132l27 138h132z" />
    <glyph glyph-name="cent" unicode="&#xa2;" 
d="M430 194l107 -63q-86 -138 -236 -144l-18 -97h-100l21 108q-72 22 -115 81t-43 142q0 111 67 193t189 94l22 112h100l-23 -116q110 -24 153 -137l-112 -62q-22 57 -64 77l-54 -277q61 11 106 89zM176 230q0 -74 52 -108l50 261q-47 -16 -74.5 -59t-27.5 -94z" />
    <glyph glyph-name="sterling" unicode="&#xa3;" 
d="M51 397h68q-5 32 -5 60q0 110 67 183.5t195 73.5q98 0 157 -46t59 -121q0 -44 -23 -92l-118 25q11 24 11 48q0 37 -26 58.5t-70 21.5q-63 0 -93.5 -45t-30.5 -116q0 -22 4 -50h186l-19 -98h-162q-5 -112 -74 -189h325l-21 -110h-464l17 94q44 45 66 92.5t24 112.5h-92z
" />
    <glyph glyph-name="currency" unicode="&#xa4;" 
d="M523 350q0 -66 -32 -119l78 -77l-72 -72l-78 78q-54 -33 -118 -33t-118 33l-78 -78l-72 72l78 77q-32 53 -32 119t32 119l-78 77l72 72l78 -78q54 33 118 33t118 -33l78 78l72 -72l-78 -77q32 -53 32 -119zM301 224q53 0 86.5 35t33.5 91t-33.5 91t-86.5 35t-86.5 -35
t-33.5 -91t33.5 -91t86.5 -35z" />
    <glyph glyph-name="yen" unicode="&#xa5;" 
d="M48 112l20 102h150l12 60h-150l20 102h97l-103 324h136l72 -245q7 -39 11 -64l37 64l167 245h147l-229 -324h97l-20 -102h-150l-12 -60h150l-20 -102h-150l-22 -112h-132l22 112h-150z" />
    <glyph glyph-name="brokenbar" unicode="&#xa6;" 
d="M378 386h-122l69 354h122zM229 244h122l-69 -354h-122z" />
    <glyph glyph-name="section" unicode="&#xa7;" 
d="M96 318q0 79 68 127q-23 35 -23 83q0 80 58.5 133t160.5 53q78 0 133 -38.5t75 -100.5l-94 -61q-12 51 -45 77.5t-79 26.5q-41 0 -69 -21t-28 -57q0 -32 26 -54t89 -37q141 -33 141 -142q0 -83 -71 -131q23 -38 23 -81q0 -81 -58.5 -134.5t-161.5 -53.5q-81 0 -134 38.5
t-71 100.5l92 61q24 -104 123 -104q41 0 71 21.5t30 56.5q0 32 -27 53t-89 37q-64 16 -102 54.5t-38 92.5zM309 258q39 -12 61 -24q32 23 32 54q0 25 -23 41.5t-86 33.5q-30 8 -62 23q-29 -20 -29 -50q0 -28 22 -44t85 -34z" />
    <glyph glyph-name="dieresis" unicode="&#xa8;" 
d="M385 574l25 126h122l-25 -126h-122zM201 574l25 126h122l-25 -126h-122z" />
    <glyph glyph-name="copyright" unicode="&#xa9;" 
d="M20 351q0 116 82.5 198.5t198.5 82.5t198.5 -82.5t82.5 -198.5t-82.5 -198.5t-198.5 -82.5t-198.5 82.5t-82.5 198.5zM75 351q0 -94 66 -160.5t160 -66.5t160 66.5t66 160.5t-66 160.5t-160 66.5t-160 -66.5t-66 -160.5zM416 300l38 -24q-44 -99 -148 -99
q-74 0 -121 48.5t-47 125.5q0 75 48.5 124.5t119.5 49.5q109 0 147 -96l-42 -25q-14 36 -42 55t-62 19q-51 0 -84 -35t-33 -92q0 -58 32.5 -93t84.5 -35q39 0 64.5 19t44.5 58z" />
    <glyph glyph-name="ordfeminine" unicode="&#xaa;" 
d="M453 300h-89q-7 10 -7 29q0 13 2 21q-34 -57 -109 -57q-48 0 -79 29t-31 76q0 48 35 79t103 40l112 15l2 10q1 6 1 11q0 41 -60 41q-66 0 -66 -38q0 -3 1 -7l-88 -29q-3 10 -3 22q0 53 45 84t113 31q66 0 104.5 -27.5t38.5 -77.5q0 -14 -4 -36l-25 -128q-5 -27 -5 -43
q0 -25 9 -45zM274 365q80 0 102 96l2 9l-93 -12q-25 -3 -41 -17t-16 -36q0 -40 46 -40z" />
    <glyph glyph-name="guillemotleft" unicode="&#xab;" 
d="M249 489h155l-226 -219l134 -207h-136l-144 214zM452 489h155l-226 -219l134 -207h-136l-144 214z" />
    <glyph glyph-name="logicalnot" unicode="&#xac;" 
d="M488 174h-120l27 140h-319l20 102h439z" />
    <glyph glyph-name="registered" unicode="&#xae;" 
d="M20 351q0 116 82.5 198.5t198.5 82.5t198.5 -82.5t82.5 -198.5t-82.5 -198.5t-198.5 -82.5t-198.5 82.5t-82.5 198.5zM75 351q0 -94 66 -160.5t160 -66.5t160 66.5t66 160.5t-66 160.5t-160 66.5t-160 -66.5t-66 -160.5zM377 182l-83 147h-54v-147h-52v338h138
q51 0 79.5 -26.5t28.5 -69.5q0 -36 -23 -60.5t-59 -32.5l84 -149h-59zM240 473v-99h78q65 0 65 50q0 49 -65 49h-78z" />
    <glyph glyph-name="macron" unicode="&#xaf;" 
d="M230 588l19 94h248l-19 -94h-248z" />
    <glyph glyph-name="degree" unicode="&#xb0;" 
d="M213 575q0 58 40 98.5t100 40.5t100 -40.5t40 -98.5t-40 -98.5t-100 -40.5t-100 40.5t-40 98.5zM293 575q0 -27 16.5 -44t43.5 -17t43.5 17t16.5 44t-16.5 44t-43.5 17t-43.5 -17t-16.5 -44z" />
    <glyph glyph-name="plusminus" unicode="&#xb1;" 
d="M66 334l19 102h190l38 191h104l-38 -191h190l-19 -102h-190l-38 -191h-104l38 191h-190zM2 0l19 102h484l-19 -102h-484z" />
    <glyph glyph-name="twosuperior" unicode="&#xb2;" 
d="M187 399l157 129q43 35 43 70q0 38 -43 38q-22 0 -35 -15t-13 -35q0 -7 1 -12l-82 -11q-2 10 -2 24q0 49 35.5 84.5t101.5 35.5q54 0 89 -26.5t35 -71.5q0 -35 -17.5 -64t-56.5 -61l-79 -65h122l-13 -69h-252z" />
    <glyph glyph-name="threesuperior" unicode="&#xb3;" 
d="M202 486l79 -18q-5 -12 -5 -21q0 -15 12.5 -25t32.5 -10q25 0 40.5 12.5t15.5 36.5q0 44 -75 44l11 60q76 0 76 45q0 31 -40 31q-18 0 -30.5 -11t-12.5 -28q0 -6 1 -11l-79 -10q-2 9 -2 19q0 49 37 78t94 29q52 0 82.5 -23t30.5 -56q0 -59 -57 -86q49 -24 49 -78
q0 -55 -38.5 -88t-108.5 -33q-54 0 -89.5 28.5t-35.5 68.5q0 25 12 46z" />
    <glyph glyph-name="acute" unicode="&#xb4;" 
d="M231 550l101 158h159l-154 -158h-106z" />
    <glyph glyph-name="mu" unicode="&#xb5;" 
d="M-25 -204l137 700h128l-57 -292q-3 -15 -3 -26q0 -74 82 -74q48 0 85 40t48 100l49 252h128l-96 -496h-128l12 67q-56 -81 -156 -81q-35 0 -66 11q-1 -5 -4 -31.5t-5 -36.5l-26 -133h-128z" />
    <glyph glyph-name="paragraph" unicode="&#xb6;" 
d="M405 598l-139 -718h-112l88 452h-9q-70 0 -122 44.5t-52 114.5q0 99 64 154t174 55h343l-20 -102h-51l-139 -718h-112l139 718h-52z" />
    <glyph glyph-name="periodcentered" unicode="&#xb7;" 
d="M217 272l31 156h156l-31 -156h-156z" />
    <glyph glyph-name="cedilla" unicode="&#xb8;" 
d="M189 -112l-34 33l51 95h72l-53 -68q16 8 38 8q30 0 48.5 -18t18.5 -48q0 -44 -29 -69t-76 -25q-75 0 -90 61l70 17q3 -22 25 -22q12 0 20 8t8 22q0 24 -26 24q-22 0 -43 -18z" />
    <glyph glyph-name="onesuperior" unicode="&#xb9;" 
d="M172 350l14 72h94l36 182q-32 -24 -89 -24l15 77q61 0 97 43h80l-55 -278h94l-14 -72h-272z" />
    <glyph glyph-name="ordmasculine" unicode="&#xba;" 
d="M522 501q0 -87 -60 -147.5t-156 -60.5q-69 0 -118 42t-49 117q0 83 58 144t158 61q69 0 118 -40t49 -116zM318 380q46 0 78 32.5t32 79.5q0 38 -24.5 58t-61.5 20q-47 0 -78 -32.5t-31 -76.5q0 -39 24.5 -60t60.5 -21z" />
    <glyph glyph-name="guillemotright" unicode="&#xbb;" 
d="M346 63h-155l226 219l-134 207h136l144 -214zM143 63h-155l226 219l-134 207h136l144 -214z" />
    <glyph glyph-name="onequarter" unicode="&#xbc;" 
d="M99 122l-47 52l448 410l47 -52zM73 580l15 77q34 0 54 10t38 33h80l-68 -350h-84l49 254q-34 -24 -84 -24zM199 58l13 66l222 226h84l-44 -226h47l-13 -66h-47l-12 -58h-83l12 58h-179zM413 240l-115 -116h93z" />
    <glyph glyph-name="onehalf" unicode="&#xbd;" 
d="M73 580l15 77q34 0 54 10t38 33h80l-68 -350h-84l49 254q-34 -24 -84 -24zM99 122l-47 52l448 410l47 -52zM302 49l157 129q43 35 43 70q0 38 -43 38q-22 0 -35 -15t-13 -35q0 -7 1 -12l-82 -11q-2 10 -2 24q0 49 35.5 84.5t101.5 35.5q54 0 89 -26.5t35 -71.5
q0 -35 -17.5 -64t-56.5 -61l-79 -65h122l-13 -69h-252z" />
    <glyph glyph-name="threequarters" unicode="&#xbe;" 
d="M162 122l-47 52l448 410l47 -52zM246 58l13 66l222 226h84l-44 -226h47l-13 -66h-47l-12 -58h-83l12 58h-179zM460 240l-115 -116h93zM49 486l79 -18q-5 -12 -5 -21q0 -15 12.5 -25t32.5 -10q25 0 40.5 12.5t15.5 36.5q0 44 -75 44l11 60q76 0 76 45q0 31 -40 31
q-18 0 -30.5 -11t-12.5 -28q0 -6 1 -11l-79 -10q-2 9 -2 19q0 49 37 78t94 29q52 0 82.5 -23t30.5 -56q0 -59 -57 -86q49 -24 49 -78q0 -55 -38.5 -88t-108.5 -33q-54 0 -89.5 28.5t-35.5 68.5q0 25 12 46z" />
    <glyph glyph-name="questiondown" unicode="&#xbf;" 
d="M244 288h127l-3 -16q-9 -48 -36 -82.5t-87 -74.5q-62 -41 -87 -69.5t-25 -70.5q0 -33 27.5 -56t71.5 -23q50 0 85 31t35 79q0 16 -2 24l125 26q5 -22 5 -43q0 -99 -69 -165t-185 -66q-105 0 -164 46.5t-59 125.5q0 69 36 116.5t115 101.5q46 31 65 56t25 60zM414 496
l-27 -138h-132l27 138h132z" />
    <glyph glyph-name="Agrave" unicode="&#xc0;" 
d="M-59 0l376 700h123l107 -700h-140l-22 183h-204l-93 -183h-147zM316 448l-75 -147h130l-17 147q-3 32 -4 77zM396 912l39 -158h-100l-96 158h157z" />
    <glyph glyph-name="Aacute" unicode="&#xc1;" 
d="M-59 0l376 700h123l107 -700h-140l-22 183h-204l-93 -183h-147zM316 448l-75 -147h130l-17 147q-3 32 -4 77zM332 754l101 158h159l-154 -158h-106z" />
    <glyph glyph-name="Acircumflex" unicode="&#xc2;" 
d="M-59 0l376 700h123l107 -700h-140l-22 183h-204l-93 -183h-147zM316 448l-75 -147h130l-17 147q-3 32 -4 77zM218 754l144 157h94l81 -157h-93l-50 60l-72 -60h-104z" />
    <glyph glyph-name="Atilde" unicode="&#xc3;" 
d="M-59 0l376 700h123l107 -700h-140l-22 183h-204l-93 -183h-147zM316 448l-75 -147h130l-17 147q-3 32 -4 77zM317 820q-13 0 -21.5 -8.5t-8.5 -22.5q0 -8 3 -17l-77 -15q-6 15 -6 38q0 45 28.5 75.5t81.5 30.5q36 0 61 -16.5t42 -33t34 -16.5q30 0 30 30q0 9 -3 18l77 15
q7 -16 7 -39q0 -51 -29.5 -78t-81.5 -27q-27 0 -49.5 10.5t-35 22.5t-26.5 22.5t-26 10.5z" />
    <glyph glyph-name="Adieresis" unicode="&#xc4;" 
d="M-59 0l376 700h123l107 -700h-140l-22 183h-204l-93 -183h-147zM316 448l-75 -147h130l-17 147q-3 32 -4 77zM425 778l25 126h122l-25 -126h-122zM241 778l25 126h122l-25 -126h-122z" />
    <glyph glyph-name="Aring" unicode="&#xc5;" 
d="M-59 0l376 700h123l107 -700h-140l-22 183h-204l-93 -183h-147zM316 448l-75 -147h130l-17 147q-3 32 -4 77zM305 839q0 40 28 67.5t68 27.5t68 -27.5t28 -67.5t-28 -67.5t-68 -27.5t-68 27.5t-28 67.5zM368 839q0 -16 9 -25t24 -9t24 9t9 25t-9 25t-24 9t-24 -9t-9 -25z
" />
    <glyph glyph-name="AE" unicode="&#xc6;" 
d="M195 0l36 183h-84l-74 -183h-134l305 700h420l-23 -118h-212l-32 -161h184l-23 -118h-184l-36 -185h215l-23 -118h-335zM263 482l-69 -181h60l55 281h-9z" />
    <glyph glyph-name="Ccedilla" unicode="&#xc7;" 
d="M445 249l117 -54q-46 -106 -114 -157.5t-175 -51.5q-118 0 -183.5 81.5t-65.5 211.5q0 59 13.5 119t43 117t71.5 101t103.5 71t133.5 27q98 0 156.5 -52t69.5 -139l-121 -53q-8 59 -39.5 90.5t-82.5 31.5q-89 0 -151.5 -95t-62.5 -209q0 -87 34.5 -133.5t93.5 -46.5
q56 0 92.5 36t66.5 105zM221 -112l-34 33l51 95h72l-53 -68q16 8 38 8q30 0 48.5 -18t18.5 -48q0 -44 -29 -69t-76 -25q-75 0 -90 61l70 17q3 -22 25 -22q12 0 20 8t8 22q0 24 -26 24q-22 0 -43 -18z" />
    <glyph glyph-name="Egrave" unicode="&#xc8;" 
d="M13 0l137 700h452l-23 -118h-320l-32 -161h292l-23 -118h-292l-36 -185h323l-23 -118h-455zM405 912l39 -158h-100l-96 158h157z" />
    <glyph glyph-name="Eacute" unicode="&#xc9;" 
d="M13 0l137 700h452l-23 -118h-320l-32 -161h292l-23 -118h-292l-36 -185h323l-23 -118h-455zM297 754l101 158h159l-154 -158h-106z" />
    <glyph glyph-name="Ecircumflex" unicode="&#xca;" 
d="M13 0l137 700h452l-23 -118h-320l-32 -161h292l-23 -118h-292l-36 -185h323l-23 -118h-455zM225 754l144 157h94l81 -157h-93l-50 60l-72 -60h-104z" />
    <glyph glyph-name="Edieresis" unicode="&#xcb;" 
d="M13 0l137 700h452l-23 -118h-320l-32 -161h292l-23 -118h-292l-36 -185h323l-23 -118h-455zM421 778l25 126h122l-25 -126h-122zM237 778l25 126h122l-25 -126h-122z" />
    <glyph glyph-name="Igrave" unicode="&#xcc;" 
d="M142 584l23 116h428l-23 -116h-148l-91 -468h154l-23 -116h-440l23 116h154l91 468h-148zM397 912l39 -158h-100l-96 158h157z" />
    <glyph glyph-name="Iacute" unicode="&#xcd;" 
d="M142 584l23 116h428l-23 -116h-148l-91 -468h154l-23 -116h-440l23 116h154l91 468h-148zM326 754l101 158h159l-154 -158h-106z" />
    <glyph glyph-name="Icircumflex" unicode="&#xce;" 
d="M142 584l23 116h428l-23 -116h-148l-91 -468h154l-23 -116h-440l23 116h154l91 468h-148zM225 754l144 157h94l81 -157h-93l-50 60l-72 -60h-104z" />
    <glyph glyph-name="Idieresis" unicode="&#xcf;" 
d="M142 584l23 116h428l-23 -116h-148l-91 -468h154l-23 -116h-440l23 116h154l91 468h-148zM423 778l25 126h122l-25 -126h-122zM239 778l25 126h122l-25 -126h-122z" />
    <glyph glyph-name="Eth" unicode="&#xd0;" 
d="M14 295l21 110h54l56 295h163q132 0 205.5 -72t73.5 -203q0 -189 -105.5 -307t-303.5 -118h-169l57 295h-52zM194 122q119 0 188 81.5t69 198.5q0 176 -168 176h-30l-34 -173h108l-21 -110h-108l-34 -173h30z" />
    <glyph glyph-name="Ntilde" unicode="&#xd1;" 
d="M-1 0l136 700h136l119 -412q10 -35 18 -64l93 476h122l-137 -700h-136l-119 413q-10 35 -18 64l-93 -477h-121zM321 820q-13 0 -21.5 -8.5t-8.5 -22.5q0 -8 3 -17l-77 -15q-6 15 -6 38q0 45 28.5 75.5t81.5 30.5q36 0 61 -16.5t42 -33t34 -16.5q30 0 30 30q0 9 -3 18
l77 15q7 -16 7 -39q0 -51 -29.5 -78t-81.5 -27q-27 0 -49.5 10.5t-35 22.5t-26.5 22.5t-26 10.5z" />
    <glyph glyph-name="Ograve" unicode="&#xd2;" 
d="M599 433q0 -90 -21.5 -169.5t-62.5 -142t-108 -99t-152 -36.5q-109 0 -175.5 75t-66.5 209q0 117 38.5 216t119 163.5t189.5 64.5q115 0 177 -70t62 -211zM266 108q88 0 143.5 90t55.5 218q0 80 -29.5 128t-88.5 48q-62 0 -108.5 -46.5t-69 -115.5t-22.5 -147
q0 -86 32 -130.5t87 -44.5zM383 912l39 -158h-100l-96 158h157z" />
    <glyph glyph-name="Oacute" unicode="&#xd3;" 
d="M599 433q0 -90 -21.5 -169.5t-62.5 -142t-108 -99t-152 -36.5q-109 0 -175.5 75t-66.5 209q0 117 38.5 216t119 163.5t189.5 64.5q115 0 177 -70t62 -211zM266 108q88 0 143.5 90t55.5 218q0 80 -29.5 128t-88.5 48q-62 0 -108.5 -46.5t-69 -115.5t-22.5 -147
q0 -86 32 -130.5t87 -44.5zM309 754l101 158h159l-154 -158h-106z" />
    <glyph glyph-name="Ocircumflex" unicode="&#xd4;" 
d="M599 433q0 -90 -21.5 -169.5t-62.5 -142t-108 -99t-152 -36.5q-109 0 -175.5 75t-66.5 209q0 117 38.5 216t119 163.5t189.5 64.5q115 0 177 -70t62 -211zM266 108q88 0 143.5 90t55.5 218q0 80 -29.5 128t-88.5 48q-62 0 -108.5 -46.5t-69 -115.5t-22.5 -147
q0 -86 32 -130.5t87 -44.5zM210 754l144 157h94l81 -157h-93l-50 60l-72 -60h-104z" />
    <glyph glyph-name="Otilde" unicode="&#xd5;" 
d="M599 433q0 -90 -21.5 -169.5t-62.5 -142t-108 -99t-152 -36.5q-109 0 -175.5 75t-66.5 209q0 117 38.5 216t119 163.5t189.5 64.5q115 0 177 -70t62 -211zM266 108q88 0 143.5 90t55.5 218q0 80 -29.5 128t-88.5 48q-62 0 -108.5 -46.5t-69 -115.5t-22.5 -147
q0 -86 32 -130.5t87 -44.5zM318 820q-13 0 -21.5 -8.5t-8.5 -22.5q0 -8 3 -17l-77 -15q-6 15 -6 38q0 45 28.5 75.5t81.5 30.5q36 0 61 -16.5t42 -33t34 -16.5q30 0 30 30q0 9 -3 18l77 15q7 -16 7 -39q0 -51 -29.5 -78t-81.5 -27q-27 0 -49.5 10.5t-35 22.5t-26.5 22.5
t-26 10.5z" />
    <glyph glyph-name="Odieresis" unicode="&#xd6;" 
d="M599 433q0 -90 -21.5 -169.5t-62.5 -142t-108 -99t-152 -36.5q-109 0 -175.5 75t-66.5 209q0 117 38.5 216t119 163.5t189.5 64.5q115 0 177 -70t62 -211zM266 108q88 0 143.5 90t55.5 218q0 80 -29.5 128t-88.5 48q-62 0 -108.5 -46.5t-69 -115.5t-22.5 -147
q0 -86 32 -130.5t87 -44.5zM409 778l25 126h122l-25 -126h-122zM225 778l25 126h122l-25 -126h-122z" />
    <glyph glyph-name="multiply" unicode="&#xd7;" 
d="M139 157l-62 77l162 135l-106 131l83 70l105 -131l165 137l62 -77l-164 -137l107 -134l-83 -70l-107 134z" />
    <glyph glyph-name="Oslash" unicode="&#xd8;" 
d="M599 433q0 -90 -21.5 -169.5t-62.5 -142t-108 -99t-152 -36.5q-68 0 -125 33l-47 -66l-75 54l55 76q-50 73 -50 187q0 117 38.5 216t119 163.5t189.5 64.5q79 0 133 -33l48 67l75 -55l-57 -79q40 -69 40 -181zM147 283q0 -42 7 -70l259 357q-27 22 -66 22
q-62 0 -108.5 -46.5t-69 -115.5t-22.5 -147zM266 108q88 0 143.5 90t55.5 218q0 29 -5 59l-253 -350q26 -17 59 -17z" />
    <glyph glyph-name="Ugrave" unicode="&#xd9;" 
d="M636 700l-87 -447q-53 -267 -298 -267q-105 0 -163 53t-58 150q0 32 8 75l84 436h132l-88 -452q-4 -20 -4 -41q0 -47 26.5 -73t75.5 -26q125 0 152 140l88 452h132zM409 912l39 -158h-100l-96 158h157z" />
    <glyph glyph-name="Uacute" unicode="&#xda;" 
d="M636 700l-87 -447q-53 -267 -298 -267q-105 0 -163 53t-58 150q0 32 8 75l84 436h132l-88 -452q-4 -20 -4 -41q0 -47 26.5 -73t75.5 -26q125 0 152 140l88 452h132zM316 754l101 158h159l-154 -158h-106z" />
    <glyph glyph-name="Ucircumflex" unicode="&#xdb;" 
d="M636 700l-87 -447q-53 -267 -298 -267q-105 0 -163 53t-58 150q0 32 8 75l84 436h132l-88 -452q-4 -20 -4 -41q0 -47 26.5 -73t75.5 -26q125 0 152 140l88 452h132zM223 754l144 157h94l81 -157h-93l-50 60l-72 -60h-104z" />
    <glyph glyph-name="Udieresis" unicode="&#xdc;" 
d="M636 700l-87 -447q-53 -267 -298 -267q-105 0 -163 53t-58 150q0 32 8 75l84 436h132l-88 -452q-4 -20 -4 -41q0 -47 26.5 -73t75.5 -26q125 0 152 140l88 452h132zM422 778l25 126h122l-25 -126h-122zM238 778l25 126h122l-25 -126h-122z" />
    <glyph glyph-name="Yacute" unicode="&#xdd;" 
d="M362 274l-54 -274h-132l54 274l-136 426h142l70 -235q8 -26 12 -50l32 50l163 235h151zM306 754l101 158h159l-154 -158h-106z" />
    <glyph glyph-name="Thorn" unicode="&#xde;" 
d="M-11 0l136 700h132l-24 -122h106q108 0 168 -50t60 -145q0 -125 -81 -193t-219 -68h-122l-24 -122h-132zM210 460l-43 -220h119q71 0 109 34.5t38 94.5q0 91 -111 91h-112z" />
    <glyph glyph-name="germandbls" unicode="&#xdf;" 
d="M249 326l21 110h34q53 0 90.5 26.5t37.5 71.5q0 34 -21 52t-59 18q-91 0 -112 -107l-100 -497h-125l77 394h-56l20 102h56q19 106 87 162t170 56q89 0 141 -44.5t52 -113.5q0 -58 -34 -104t-89 -68q107 -48 107 -170q0 -97 -66 -162.5t-174 -65.5q-84 0 -137 44l68 99
q31 -33 77 -33q45 0 73.5 31t28.5 85q0 51 -39.5 82.5t-97.5 31.5h-30z" />
    <glyph glyph-name="agrave" unicode="&#xe0;" 
d="M589 496l-97 -496h-128l12 61q-55 -75 -150 -75q-93 0 -150 64t-57 164q0 123 75 209.5t202 86.5q106 0 152 -75l13 61h128zM274 104q64 0 108 47t44 120q0 56 -33.5 88.5t-87.5 32.5q-69 0 -112.5 -47t-43.5 -118q0 -57 35.5 -90t89.5 -33zM357 708l39 -158h-100
l-96 158h157z" />
    <glyph glyph-name="aacute" unicode="&#xe1;" 
d="M589 496l-97 -496h-128l12 61q-55 -75 -150 -75q-93 0 -150 64t-57 164q0 123 75 209.5t202 86.5q106 0 152 -75l13 61h128zM274 104q64 0 108 47t44 120q0 56 -33.5 88.5t-87.5 32.5q-69 0 -112.5 -47t-43.5 -118q0 -57 35.5 -90t89.5 -33zM263 550l101 158h159
l-154 -158h-106z" />
    <glyph glyph-name="acircumflex" unicode="&#xe2;" 
d="M589 496l-97 -496h-128l12 61q-55 -75 -150 -75q-93 0 -150 64t-57 164q0 123 75 209.5t202 86.5q106 0 152 -75l13 61h128zM274 104q64 0 108 47t44 120q0 56 -33.5 88.5t-87.5 32.5q-69 0 -112.5 -47t-43.5 -118q0 -57 35.5 -90t89.5 -33zM172 550l144 157h94l81 -157
h-93l-50 60l-72 -60h-104z" />
    <glyph glyph-name="atilde" unicode="&#xe3;" 
d="M589 496l-97 -496h-128l12 61q-55 -75 -150 -75q-93 0 -150 64t-57 164q0 123 75 209.5t202 86.5q106 0 152 -75l13 61h128zM274 104q64 0 108 47t44 120q0 56 -33.5 88.5t-87.5 32.5q-69 0 -112.5 -47t-43.5 -118q0 -57 35.5 -90t89.5 -33zM274 616q-13 0 -21.5 -8.5
t-8.5 -22.5q0 -8 3 -17l-77 -15q-6 15 -6 38q0 45 28.5 75.5t81.5 30.5q36 0 61 -16.5t42 -33t34 -16.5q30 0 30 30q0 9 -3 18l77 15q7 -16 7 -39q0 -51 -29.5 -78t-81.5 -27q-27 0 -49.5 10.5t-35 22.5t-26.5 22.5t-26 10.5z" />
    <glyph glyph-name="adieresis" unicode="&#xe4;" 
d="M589 496l-97 -496h-128l12 61q-55 -75 -150 -75q-93 0 -150 64t-57 164q0 123 75 209.5t202 86.5q106 0 152 -75l13 61h128zM274 104q64 0 108 47t44 120q0 56 -33.5 88.5t-87.5 32.5q-69 0 -112.5 -47t-43.5 -118q0 -57 35.5 -90t89.5 -33zM368 574l25 126h122l-25 -126
h-122zM184 574l25 126h122l-25 -126h-122z" />
    <glyph glyph-name="aring" unicode="&#xe5;" 
d="M589 496l-97 -496h-128l12 61q-55 -75 -150 -75q-93 0 -150 64t-57 164q0 123 75 209.5t202 86.5q106 0 152 -75l13 61h128zM274 104q64 0 108 47t44 120q0 56 -33.5 88.5t-87.5 32.5q-69 0 -112.5 -47t-43.5 -118q0 -57 35.5 -90t89.5 -33zM252 635q0 40 28 67.5
t68 27.5t68 -27.5t28 -67.5t-28 -67.5t-68 -27.5t-68 27.5t-28 67.5zM315 635q0 -16 9 -25t24 -9t24 9t9 25t-9 25t-24 9t-24 -9t-9 -25z" />
    <glyph glyph-name="ae" unicode="&#xe6;" 
d="M395 496l-9 -46q35 60 100 60q54 0 82 -42t28 -116q0 -42 -9 -90l-8 -44h-235q-2 -16 -2 -34q0 -88 55 -88q25 0 46 26t31 65l88 -30q-51 -171 -171 -171q-60 0 -86 50l-7 -36h-102l8 39q-26 -53 -90 -53q-56 0 -87 54.5t-31 152.5q0 49 12.5 101.5t37 102t68.5 81.5
t99 32q54 0 74 -43l6 29h102zM163 104q40 0 68 57.5t28 144.5q0 86 -49 86q-39 0 -68 -56t-29 -137q0 -95 50 -95zM445 408q-29 0 -49.5 -28t-31.5 -70h128q2 14 2 28q0 32 -12.5 51t-36.5 19z" />
    <glyph glyph-name="ccedilla" unicode="&#xe7;" 
d="M230 -112l-34 33l37 70q-82 16 -132.5 77.5t-50.5 152.5q0 120 77.5 204.5t217.5 84.5q159 0 213 -143l-112 -62q-32 87 -113 87q-68 0 -110.5 -48.5t-42.5 -113.5q0 -59 33 -92.5t86 -33.5q46 0 77.5 22t57.5 68l107 -63q-89 -142 -246 -145l-29 -38q16 8 38 8
q30 0 48.5 -18t18.5 -48q0 -44 -29 -69t-76 -25q-75 0 -90 61l70 17q3 -22 25 -22q12 0 20 8t8 22q0 24 -26 24q-22 0 -43 -18z" />
    <glyph glyph-name="egrave" unicode="&#xe8;" 
d="M540 218h-381q0 -57 33 -90.5t84 -33.5q95 0 145 89l94 -55q-40 -71 -98.5 -106.5t-147.5 -35.5q-101 0 -165 64t-64 172q0 120 81.5 204t209.5 84q107 0 163.5 -54t56.5 -142q0 -36 -7 -75zM326 414q-50 0 -89 -28.5t-56 -75.5h258q0 48 -30 76t-83 28zM360 708l39 -158
h-100l-96 158h157z" />
    <glyph glyph-name="eacute" unicode="&#xe9;" 
d="M540 218h-381q0 -57 33 -90.5t84 -33.5q95 0 145 89l94 -55q-40 -71 -98.5 -106.5t-147.5 -35.5q-101 0 -165 64t-64 172q0 120 81.5 204t209.5 84q107 0 163.5 -54t56.5 -142q0 -36 -7 -75zM326 414q-50 0 -89 -28.5t-56 -75.5h258q0 48 -30 76t-83 28zM280 550l101 158
h159l-154 -158h-106z" />
    <glyph glyph-name="ecircumflex" unicode="&#xea;" 
d="M540 218h-381q0 -57 33 -90.5t84 -33.5q95 0 145 89l94 -55q-40 -71 -98.5 -106.5t-147.5 -35.5q-101 0 -165 64t-64 172q0 120 81.5 204t209.5 84q107 0 163.5 -54t56.5 -142q0 -36 -7 -75zM326 414q-50 0 -89 -28.5t-56 -75.5h258q0 48 -30 76t-83 28zM181 550l144 157
h94l81 -157h-93l-50 60l-72 -60h-104z" />
    <glyph glyph-name="edieresis" unicode="&#xeb;" 
d="M540 218h-381q0 -57 33 -90.5t84 -33.5q95 0 145 89l94 -55q-40 -71 -98.5 -106.5t-147.5 -35.5q-101 0 -165 64t-64 172q0 120 81.5 204t209.5 84q107 0 163.5 -54t56.5 -142q0 -36 -7 -75zM326 414q-50 0 -89 -28.5t-56 -75.5h258q0 48 -30 76t-83 28zM381 574l25 126
h122l-25 -126h-122zM197 574l25 126h122l-25 -126h-122z" />
    <glyph glyph-name="igrave" unicode="&#xec;" 
d="M123 394l20 102h261l-76 -392h158l-21 -104h-444l21 104h158l56 290h-133zM368 708l39 -158h-100l-96 158h157z" />
    <glyph glyph-name="iacute" unicode="&#xed;" 
d="M123 394l20 102h261l-76 -392h158l-21 -104h-444l21 104h158l56 290h-133zM283 550l101 158h159l-154 -158h-106z" />
    <glyph glyph-name="icircumflex" unicode="&#xee;" 
d="M123 394l20 102h261l-76 -392h158l-21 -104h-444l21 104h158l56 290h-133zM182 550l144 157h94l81 -157h-93l-50 60l-72 -60h-104z" />
    <glyph glyph-name="idieresis" unicode="&#xef;" 
d="M123 394l20 102h261l-76 -392h158l-21 -104h-444l21 104h158l56 290h-133zM385 574l25 126h122l-25 -126h-122zM201 574l25 126h122l-25 -126h-122z" />
    <glyph glyph-name="eth" unicode="&#xf0;" 
d="M280 499l-25 78l77 29q-37 29 -97 48l49 96q106 -44 165 -102l110 39l27 -78l-81 -28q27 -40 43 -105.5t16 -137.5q0 -157 -80 -254.5t-230 -97.5q-89 0 -156 60t-67 151q0 110 75.5 187.5t191.5 77.5q97 0 150 -53q-16 89 -50 133zM306 356q-65 0 -107 -44.5t-42 -108.5
q0 -53 34 -82t82 -29q66 0 108.5 44t42.5 110q0 50 -33.5 80t-84.5 30z" />
    <glyph glyph-name="ntilde" unicode="&#xf1;" 
d="M542 317l-62 -317h-128l57 292q4 16 4 28q0 34 -20.5 53t-58.5 19q-53 0 -89 -38t-48 -102l-49 -252h-128l96 496h128l-12 -67q61 81 168 81q71 0 109 -40.5t38 -106.5q0 -19 -5 -46zM294 616q-13 0 -21.5 -8.5t-8.5 -22.5q0 -8 3 -17l-77 -15q-6 15 -6 38
q0 45 28.5 75.5t81.5 30.5q36 0 61 -16.5t42 -33t34 -16.5q30 0 30 30q0 9 -3 18l77 15q7 -16 7 -39q0 -51 -29.5 -78t-81.5 -27q-27 0 -49.5 10.5t-35 22.5t-26.5 22.5t-26 10.5z" />
    <glyph glyph-name="ograve" unicode="&#xf2;" 
d="M568 275q0 -125 -83.5 -207t-216.5 -82q-104 0 -173.5 64.5t-69.5 168.5q0 125 81.5 208t218.5 83q107 0 175 -61.5t68 -173.5zM279 104q70 0 113.5 46.5t43.5 118.5q0 56 -35 89.5t-93 33.5q-69 0 -111 -47.5t-42 -110.5q0 -61 36 -95.5t88 -34.5zM359 708l39 -158h-100
l-96 158h157z" />
    <glyph glyph-name="oacute" unicode="&#xf3;" 
d="M568 275q0 -125 -83.5 -207t-216.5 -82q-104 0 -173.5 64.5t-69.5 168.5q0 125 81.5 208t218.5 83q107 0 175 -61.5t68 -173.5zM279 104q70 0 113.5 46.5t43.5 118.5q0 56 -35 89.5t-93 33.5q-69 0 -111 -47.5t-42 -110.5q0 -61 36 -95.5t88 -34.5zM262 550l101 158h159
l-154 -158h-106z" />
    <glyph glyph-name="ocircumflex" unicode="&#xf4;" 
d="M568 275q0 -125 -83.5 -207t-216.5 -82q-104 0 -173.5 64.5t-69.5 168.5q0 125 81.5 208t218.5 83q107 0 175 -61.5t68 -173.5zM279 104q70 0 113.5 46.5t43.5 118.5q0 56 -35 89.5t-93 33.5q-69 0 -111 -47.5t-42 -110.5q0 -61 36 -95.5t88 -34.5zM182 550l144 157h94
l81 -157h-93l-50 60l-72 -60h-104z" />
    <glyph glyph-name="otilde" unicode="&#xf5;" 
d="M568 275q0 -125 -83.5 -207t-216.5 -82q-104 0 -173.5 64.5t-69.5 168.5q0 125 81.5 208t218.5 83q107 0 175 -61.5t68 -173.5zM279 104q70 0 113.5 46.5t43.5 118.5q0 56 -35 89.5t-93 33.5q-69 0 -111 -47.5t-42 -110.5q0 -61 36 -95.5t88 -34.5zM280 616
q-13 0 -21.5 -8.5t-8.5 -22.5q0 -8 3 -17l-77 -15q-6 15 -6 38q0 45 28.5 75.5t81.5 30.5q36 0 61 -16.5t42 -33t34 -16.5q30 0 30 30q0 9 -3 18l77 15q7 -16 7 -39q0 -51 -29.5 -78t-81.5 -27q-27 0 -49.5 10.5t-35 22.5t-26.5 22.5t-26 10.5z" />
    <glyph glyph-name="odieresis" unicode="&#xf6;" 
d="M568 275q0 -125 -83.5 -207t-216.5 -82q-104 0 -173.5 64.5t-69.5 168.5q0 125 81.5 208t218.5 83q107 0 175 -61.5t68 -173.5zM279 104q70 0 113.5 46.5t43.5 118.5q0 56 -35 89.5t-93 33.5q-69 0 -111 -47.5t-42 -110.5q0 -61 36 -95.5t88 -34.5zM378 574l25 126h122
l-25 -126h-122zM194 574l25 126h122l-25 -126h-122z" />
    <glyph glyph-name="divide" unicode="&#xf7;" 
d="M239 340l28 144h142l-28 -144h-142zM172 0l28 144h142l-28 -144h-142zM39 191l19 102h484l-19 -102h-484z" />
    <glyph glyph-name="oslash" unicode="&#xf8;" 
d="M542 494l-419 -544l-68 54l419 544zM568 275q0 -125 -83.5 -207t-216.5 -82q-104 0 -173.5 64.5t-69.5 168.5q0 125 81.5 208t218.5 83q107 0 175 -61.5t68 -173.5zM279 104q70 0 113.5 46.5t43.5 118.5q0 56 -35 89.5t-93 33.5q-69 0 -111 -47.5t-42 -110.5
q0 -61 36 -95.5t88 -34.5z" />
    <glyph glyph-name="ugrave" unicode="&#xf9;" 
d="M53 199l58 297h128l-57 -292q-3 -15 -3 -26q0 -74 82 -74q48 0 85 40t48 100l49 252h128l-96 -496h-128l12 67q-56 -81 -156 -81q-72 0 -115 40t-43 102q0 30 8 71zM371 708l39 -158h-100l-96 158h157z" />
    <glyph glyph-name="uacute" unicode="&#xfa;" 
d="M53 199l58 297h128l-57 -292q-3 -15 -3 -26q0 -74 82 -74q48 0 85 40t48 100l49 252h128l-96 -496h-128l12 67q-56 -81 -156 -81q-72 0 -115 40t-43 102q0 30 8 71zM284 550l101 158h159l-154 -158h-106z" />
    <glyph glyph-name="ucircumflex" unicode="&#xfb;" 
d="M53 199l58 297h128l-57 -292q-3 -15 -3 -26q0 -74 82 -74q48 0 85 40t48 100l49 252h128l-96 -496h-128l12 67q-56 -81 -156 -81q-72 0 -115 40t-43 102q0 30 8 71zM190 550l144 157h94l81 -157h-93l-50 60l-72 -60h-104z" />
    <glyph glyph-name="udieresis" unicode="&#xfc;" 
d="M53 199l58 297h128l-57 -292q-3 -15 -3 -26q0 -74 82 -74q48 0 85 40t48 100l49 252h128l-96 -496h-128l12 67q-56 -81 -156 -81q-72 0 -115 40t-43 102q0 30 8 71zM385 574l25 126h122l-25 -126h-122zM201 574l25 126h122l-25 -126h-122z" />
    <glyph glyph-name="yacute" unicode="&#xfd;" 
d="M-21 -191l50 110q24 -14 45 -14q45 0 73 47l33 55l-116 489h139l69 -338l197 338h145l-354 -585q-41 -68 -86.5 -95t-109.5 -27q-48 0 -85 20zM262 550l101 158h159l-154 -158h-106z" />
    <glyph glyph-name="thorn" unicode="&#xfe;" 
d="M-49 -204l174 904h128l-50 -257q21 30 62 48.5t90 18.5q93 0 149 -61t56 -159q0 -134 -77 -219t-206 -85q-49 0 -88 19.5t-61 49.5l-50 -259h-127zM308 392q-65 0 -109.5 -49.5t-44.5 -120.5q0 -53 35.5 -85.5t89.5 -32.5q64 0 106.5 49t42.5 118q0 57 -33 89t-87 32z
" />
    <glyph glyph-name="ydieresis" unicode="&#xff;" 
d="M-21 -191l50 110q24 -14 45 -14q45 0 73 47l33 55l-116 489h139l69 -338l197 338h145l-354 -585q-41 -68 -86.5 -95t-109.5 -27q-48 0 -85 20zM376 574l25 126h122l-25 -126h-122zM192 574l25 126h122l-25 -126h-122z" />
    <glyph glyph-name="dotlessi" unicode="&#x131;" 
d="M123 394l20 102h261l-76 -392h158l-21 -104h-444l21 104h158l56 290h-133z" />
    <glyph glyph-name="Lslash" unicode="&#x141;" 
d="M11 131l25 127l82 46l77 396h132l-61 -311l136 77l-24 -127l-137 -78l-27 -139h335l-24 -122h-466l34 178z" />
    <glyph glyph-name="lslash" unicode="&#x142;" 
d="M144 287l101 57l49 252h-149l21 104h277l-53 -274l102 58l-24 -120l-102 -58l-39 -202h169l-21 -104h-465l20 104h169l23 120l-101 -57z" />
    <glyph glyph-name="OE" unicode="&#x152;" 
d="M21 275q0 60 13 119.5t41.5 115t68.5 97.5t98 67.5t126 25.5h293l-23 -118h-170l-32 -161h154l-23 -118h-154l-36 -185h173l-23 -118h-276q-108 0 -169 70t-61 205zM335 578q-56 -10 -98.5 -61t-62 -114.5t-19.5 -126.5q0 -135 91 -154z" />
    <glyph glyph-name="oe" unicode="&#x153;" 
d="M542 218h-204l-22 -116q61 15 105 87l90 -55q-80 -148 -248 -148q-103 0 -164.5 62.5t-61.5 173.5q0 52 19 102.5t54.5 92.5t93 67.5t127.5 25.5q99 0 161.5 -55.5t62.5 -144.5q0 -21 -7 -59zM158 227q0 -92 54 -119l56 292q-50 -18 -80 -65t-30 -108zM441 310
q0 70 -67 92l-18 -92h85z" />
    <glyph glyph-name="Scaron" unicode="&#x160;" 
d="M344 598q-54 0 -88 -21.5t-34 -58.5t31.5 -60.5t109.5 -41.5q101 -23 145.5 -69t44.5 -125q0 -109 -77.5 -172.5t-211.5 -63.5q-106 0 -173.5 63t-78.5 154l120 55q23 -156 152 -156q59 0 96 29.5t37 77.5q0 43 -31.5 65t-106.5 38q-83 17 -134 67.5t-51 126.5
q0 94 72 151t189 57q101 0 162.5 -47t82.5 -128l-111 -59q-37 118 -145 118zM561 911l-144 -157h-94l-81 157h93l50 -60l72 60h104z" />
    <glyph glyph-name="scaron" unicode="&#x161;" 
d="M303 418q-36 0 -59 -14t-23 -38q0 -26 25 -41t85 -23q159 -21 159 -138q0 -84 -62 -131t-173 -47q-91 0 -148 44.5t-72 108.5l106 55q31 -102 124 -102q44 0 75 15t31 45q0 25 -25.5 36.5t-87.5 22.5q-70 12 -111.5 49.5t-41.5 95.5q0 72 60 113t154 41q152 0 201 -135
l-99 -50q-33 93 -118 93zM521 707l-144 -157h-94l-81 157h93l50 -60l72 60h104z" />
    <glyph glyph-name="Ydieresis" unicode="&#x178;" 
d="M362 274l-54 -274h-132l54 274l-136 426h142l70 -235q8 -26 12 -50l32 50l163 235h151zM419 778l25 126h122l-25 -126h-122zM235 778l25 126h122l-25 -126h-122z" />
    <glyph glyph-name="Zcaron" unicode="&#x17d;" 
d="M113 578l24 122h483l-24 -122l-417 -456h345l-24 -122h-507l24 120l415 458h-319zM566 911l-144 -157h-94l-81 157h93l50 -60l72 60h104z" />
    <glyph glyph-name="zcaron" unicode="&#x17e;" 
d="M208 102h279l-20 -102h-439l20 102l319 292h-251l20 102h411l-20 -102zM533 707l-144 -157h-94l-81 157h93l50 -60l72 60h104z" />
    <glyph glyph-name="florin" unicode="&#x192;" 
d="M346 394l-78 -406q-40 -206 -221 -206q-67 0 -119 36l59 104q27 -24 70 -24q65 0 82 88l79 408h-130l20 102h130l9 48q20 106 81 156t150 50q69 0 124 -38l-55 -105q-36 27 -78 27q-76 0 -93 -86l-10 -52h183l-20 -102h-183z" />
    <glyph glyph-name="circumflex" unicode="&#x2c6;" 
d="M188 550l144 157h94l81 -157h-93l-50 60l-72 -60h-104z" />
    <glyph glyph-name="caron" unicode="&#x2c7;" 
d="M538 707l-144 -157h-94l-81 157h93l50 -60l72 60h104z" />
    <glyph glyph-name="breve" unicode="&#x2d8;" 
d="M409 677h76q-16 -113 -131 -113q-44 0 -71.5 26t-27.5 66q0 9 2 21h77q-1 -3 -1 -10q0 -33 30 -33q34 0 46 43z" />
    <glyph glyph-name="dotaccent" unicode="&#x2d9;" 
d="M280 568l26 132h141l-26 -132h-141z" />
    <glyph glyph-name="ring" unicode="&#x2da;" 
d="M269 635q0 40 28 67.5t68 27.5t68 -27.5t28 -67.5t-28 -67.5t-68 -27.5t-68 27.5t-28 67.5zM332 635q0 -16 9 -25t24 -9t24 9t9 25t-9 25t-24 9t-24 -9t-9 -25z" />
    <glyph glyph-name="ogonek" unicode="&#x2db;" 
d="M143 -114q0 82 102 126l93 -12q-32 -14 -59.5 -36t-27.5 -47q0 -33 33 -33q9 0 22 2l-4 -77q-26 -7 -56 -7q-45 0 -74 22.5t-29 61.5z" />
    <glyph glyph-name="tilde" unicode="&#x2dc;" 
d="M290 616q-13 0 -21.5 -8.5t-8.5 -22.5q0 -8 3 -17l-77 -15q-6 15 -6 38q0 45 28.5 75.5t81.5 30.5q36 0 61 -16.5t42 -33t34 -16.5q30 0 30 30q0 9 -3 18l77 15q7 -16 7 -39q0 -51 -29.5 -78t-81.5 -27q-27 0 -49.5 10.5t-35 22.5t-26.5 22.5t-26 10.5z" />
    <glyph glyph-name="hungarumlaut" unicode="&#x2dd;" 
d="M153 550l97 158h156l-150 -158h-103zM341 550l99 158h156l-152 -158h-103z" />
    <glyph glyph-name="pi" unicode="&#x3c0;" 
d="M193 0h-128l76 394h-103l20 102h561l-20 -102h-103l-44 -230q-3 -14 -3 -24q0 -42 39 -42q19 0 38 6l-8 -104q-34 -14 -84 -14q-51 0 -84 32t-33 91q0 19 6 53l45 232h-99z" />
    <glyph glyph-name="endash" unicode="&#x2013;" 
d="M67 260l19 102h454l-19 -102h-454z" />
    <glyph glyph-name="emdash" unicode="&#x2014;" 
d="M23 260l19 102h542l-19 -102h-542z" />
    <glyph glyph-name="quoteleft" unicode="&#x2018;" 
d="M414 556l-27 -140h-140l27 140l161 151l21 -22l-96 -129h54z" />
    <glyph glyph-name="quoteright" unicode="&#x2019;" 
d="M277 560l27 140h140l-27 -140l-161 -151l-21 22l96 129h-54z" />
    <glyph glyph-name="quotesinglbase" unicode="&#x201a;" 
d="M179 0l27 140h140l-27 -140l-161 -151l-21 22l96 129h-54z" />
    <glyph glyph-name="quotedblleft" unicode="&#x201c;" 
d="M499 556l-27 -140h-140l27 140l161 151l21 -22l-96 -129h54zM319 556l-27 -140h-140l27 140l161 151l21 -22l-96 -129h54z" />
    <glyph glyph-name="quotedblright" unicode="&#x201d;" 
d="M187 560l27 140h140l-27 -140l-161 -151l-21 22l96 129h-54zM367 560l27 140h140l-27 -140l-161 -151l-21 22l96 129h-54z" />
    <glyph glyph-name="quotedblbase" unicode="&#x201e;" 
d="M86 0l27 140h140l-27 -140l-161 -151l-21 22l96 129h-54zM266 0l27 140h140l-27 -140l-161 -151l-21 22l96 129h-54z" />
    <glyph glyph-name="dagger" unicode="&#x2020;" 
d="M96 394l20 102h162l47 244h122l-47 -244h164l-20 -102h-164l-98 -504h-122l98 504h-162z" />
    <glyph glyph-name="daggerdbl" unicode="&#x2021;" 
d="M96 394l20 102h162l47 244h122l-47 -244h164l-20 -102h-164l-31 -158h164l-20 -102h-164l-47 -244h-122l47 244h-162l20 102h162l31 158h-162z" />
    <glyph glyph-name="bullet" unicode="&#x2022;" 
d="M168 275q0 51 36 87t87 36t87 -36t36 -87t-36 -87t-87 -36t-87 36t-36 87z" />
    <glyph glyph-name="ellipsis" unicode="&#x2026;" 
d="M-18 0l25 124h122l-25 -124h-122zM182 0l25 124h122l-25 -124h-122zM382 0l25 124h122l-25 -124h-122z" />
    <glyph glyph-name="perthousand" unicode="&#x2030;" 
d="M67 120q0 61 42.5 108.5t127.5 47.5q62 0 98 -41q44 41 121 41q57 0 93.5 -35.5t36.5 -92.5q0 -64 -42.5 -113t-122.5 -49q-64 0 -102 43q-45 -43 -117 -43q-56 0 -95.5 37t-39.5 97zM30 558q0 61 42.5 108.5t127.5 47.5q57 0 93.5 -35.5t36.5 -92.5q0 -64 -42.5 -113
t-122.5 -49q-56 0 -95.5 37t-39.5 97zM20 251l-23 77l529 171l23 -77zM227 200q-37 0 -58 -23t-21 -54q0 -26 18.5 -43.5t44.5 -17.5q35 0 55 22t20 57q0 26 -16.5 42.5t-42.5 16.5zM190 638q-37 0 -58 -23t-21 -54q0 -26 18.5 -43.5t44.5 -17.5q35 0 55 22t20 57
q0 26 -16.5 42.5t-42.5 16.5zM446 200q-37 0 -58 -23t-21 -54q0 -26 18.5 -43.5t44.5 -17.5q35 0 55 22t20 57q0 26 -16.5 42.5t-42.5 16.5z" />
    <glyph glyph-name="guilsinglleft" unicode="&#x2039;" 
d="M351 489h155l-226 -219l134 -207h-136l-144 214z" />
    <glyph glyph-name="guilsinglright" unicode="&#x203a;" 
d="M244 63h-155l226 219l-134 207h136l144 -214z" />
    <glyph glyph-name="fraction" unicode="&#x2044;" 
d="M78 153l-47 67l498 321l43 -65z" />
    <glyph glyph-name="Euro" unicode="&#x20ac;" 
d="M15 379l58 92h20q42 108 125.5 175.5t199.5 67.5q97 0 158 -48.5t79 -126.5l-125 -50q-18 103 -132 103q-110 0 -171 -121h270l-59 -92h-241q-5 -25 -7 -58h278l-59 -92h-217q20 -121 126 -121q57 0 96 34.5t68 102.5l110 -52q-45 -108 -113.5 -157.5t-172.5 -49.5
q-105 0 -168 66t-76 177h-76l58 92h16q4 38 7 58h-52z" />
    <glyph glyph-name="trademark" unicode="&#x2122;" 
d="M72 650l9 50h236l-9 -50h-89l-68 -350h-58l68 350h-89zM267 300l77 400h66l19 -344l143 344h72l-77 -400h-52l55 284l-121 -284h-58l-17 284l-55 -284h-52z" />
    <glyph glyph-name="Omega" unicode="&#x2126;" 
d="M526 96l-19 -96h-248l20 104q97 59 152 147.5t55 191.5q0 70 -38 109.5t-103 39.5q-94 0 -146 -78t-52 -178q0 -75 23 -137t65 -95l-20 -104h-247l19 96h115q-35 35 -60 100.5t-25 152.5q0 95 39 176.5t120.5 135t189.5 53.5q112 0 181 -66.5t69 -184.5q0 -213 -198 -367
h108z" />
    <glyph glyph-name="arrowleft" unicode="&#x2190;" 
d="M300 150l-80 -70l-187 232l275 231l62 -76l-126 -105h307l-19 -102h-320z" />
    <glyph glyph-name="arrowup" unicode="&#x2191;" 
d="M546 391l-83 -70l-86 107l-61 -312h-102l60 307l-126 -104l-59 73l276 229z" />
    <glyph glyph-name="arrowright" unicode="&#x2192;" 
d="M304 472l80 70l187 -232l-275 -231l-62 76l126 105h-307l19 102h320z" />
    <glyph glyph-name="arrowdown" unicode="&#x2193;" 
d="M82 349l83 70l86 -107l61 312h102l-60 -307l126 104l59 -73l-276 -229z" />
    <glyph glyph-name="arrowboth" unicode="&#x2194;" 
d="M349 472l80 70l187 -232l-275 -231l-62 76l126 105h-239l88 -110l-80 -70l-187 232l275 231l62 -76l-126 -105h239z" />
    <glyph glyph-name="arrowupdn" unicode="&#x2195;" 
d="M59 226l83 70l86 -107l62 317l-126 -104l-59 73l276 229l181 -230l-83 -70l-86 107l-62 -317l126 104l59 -73l-276 -229z" />
    <glyph glyph-name="uni2196" unicode="&#x2196;" 
d="M167 162h-100l64 327h327l-21 -106h-155l176 -218l-81 -70l-180 221z" />
    <glyph glyph-name="uni2197" unicode="&#x2197;" 
d="M481 161h-106l30 152l-261 -221l-58 72l257 218h-146l21 106h327z" />
    <glyph glyph-name="uni2198" unicode="&#x2198;" 
d="M434 435h100l-64 -327h-327l21 106h155l-176 218l81 70l180 -221z" />
    <glyph glyph-name="uni2199" unicode="&#x2199;" 
d="M120 435h106l-30 -152l261 221l58 -72l-257 -218h146l-21 -106h-327z" />
    <glyph glyph-name="partialdiff" unicode="&#x2202;" 
d="M326 614q-35 0 -61 -16t-26 -42q0 -6 1 -12l-116 -48q-9 22 -9 49q0 76 63 122.5t158 46.5q123 0 176.5 -82t53.5 -248q0 -83 -18 -153.5t-54.5 -126t-97 -87t-139.5 -31.5q-94 0 -157.5 60t-63.5 154q0 110 76.5 186t195.5 76q101 0 145 -61q0 99 -32.5 156t-94.5 57z
M312 356q-64 0 -106 -45t-42 -106q0 -51 32 -82t80 -31q64 0 107.5 43.5t43.5 107.5q0 52 -33 82.5t-82 30.5z" />
    <glyph glyph-name="Delta" unicode="&#x2206;" 
d="M546 0h-606l376 700h123zM315 448l-168 -330h245l-39 330q-3 32 -4 77z" />
    <glyph glyph-name="product" unicode="&#x220f;" 
d="M-27 -204l174 904h462l-175 -904h-132l152 782h-198l-153 -782h-130z" />
    <glyph glyph-name="summation" unicode="&#x2211;" 
d="M232 290l-130 288l24 122h494l-24 -122h-342l131 -301l-239 -275h346l-24 -122h-510l24 122z" />
    <glyph glyph-name="minus" unicode="&#x2212;" 
d="M64 314l19 102h484l-19 -102h-484z" />
    <glyph glyph-name="radical" unicode="&#x221a;" 
d="M281 0h-136l-26 256h-87l20 100h186l15 -164l254 508h125z" />
    <glyph glyph-name="infinity" unicode="&#x221e;" 
d="M19 270q0 82 41.5 140.5t120.5 58.5q45 0 74 -26t53 -72q36 48 71 73t86 25t84.5 -37t33.5 -96q0 -90 -41.5 -147.5t-121.5 -57.5q-78 0 -127 97q-71 -97 -157 -97q-50 0 -83.5 39t-33.5 100zM450 381q-26 0 -50 -21.5t-57 -64.5q17 -37 35 -56.5t45 -19.5q32 0 55 31
t23 69q0 27 -14 44.5t-37 17.5zM182 381q-38 0 -59.5 -31t-21.5 -69q0 -28 13.5 -45t36.5 -17q26 0 50 22t56 64q-18 38 -34.5 57t-40.5 19z" />
    <glyph glyph-name="integral" unicode="&#x222b;" 
d="M376 548l-108 -560q-40 -206 -221 -206q-67 0 -119 36l59 104q27 -24 70 -24q65 0 82 88l108 558q21 107 81.5 156.5t149.5 49.5q69 0 124 -38l-55 -105q-36 27 -78 27q-76 0 -93 -86z" />
    <glyph glyph-name="approxequal" unicode="&#x2248;" 
d="M262 425q-13 0 -23 -9t-10 -23q0 -7 3 -16l-91 -16q-7 14 -7 39q0 52 36 85t93 33q39 0 67 -16t47.5 -31.5t37.5 -15.5q29 0 29 32q0 7 -3 16l90 16q8 -16 8 -38q0 -56 -34 -87.5t-86 -31.5q-36 0 -61.5 10t-36.5 21.5t-26.5 21.5t-32.5 10zM217 241q-13 0 -23 -9
t-10 -23q0 -7 3 -16l-91 -16q-7 14 -7 39q0 52 36 85t93 33q39 0 67 -16t47.5 -31.5t37.5 -15.5q29 0 29 32q0 7 -3 16l90 16q8 -16 8 -38q0 -56 -34 -87.5t-86 -31.5q-36 0 -61.5 10t-36.5 21.5t-26.5 21.5t-32.5 10z" />
    <glyph glyph-name="notequal" unicode="&#x2260;" 
d="M53 104l72 90h-87l20 102h148l78 98h-207l20 102h268l124 156l80 -67l-71 -89h83l-20 -102h-145l-79 -98h205l-20 -102h-267l-125 -155z" />
    <glyph glyph-name="lessequal" unicode="&#x2264;" 
d="M2 0l19 102h484l-19 -102h-484zM97 371l19 98l477 222l-25 -129l-324 -147l267 -147l-23 -120z" />
    <glyph glyph-name="greaterequal" unicode="&#x2265;" 
d="M550 468l-19 -98l-477 -222l25 129l324 147l-267 147l23 120zM2 0l19 102h484l-19 -102h-484z" />
    <glyph glyph-name="lozenge" unicode="&#x25ca;" 
d="M587 350l-281 -350h-128l-144 350l281 350h128zM259 110l196 249l-93 231l-197 -245z" />
    <glyph glyph-name="apple" unicode="&#xf8ff;" 
d="M597 617v-595q0 -9 -6.5 -15.5t-15.5 -6.5q-3 0 -7 1l-267 77l-267 -77q-4 -1 -7 -1q-9 0 -15.5 6.5t-6.5 15.5v595q0 17 16 22l270 78q6 2 10 2t10 -2l270 -78q16 -5 16 -22zM279 366v303l-230 -67q6 -94 71.5 -161t158.5 -75zM323 669v-303q93 8 158.5 75t71.5 161z
M48 463v-412l231 67v204q-73 6 -134 43.5t-97 97.5zM554 51v412q-37 -60 -97.5 -97.5t-133.5 -43.5v-204z" />
    <glyph glyph-name="f_j" 
d="M276 566l-14 -70h319l-101 -522q-19 -97 -71 -140.5t-145 -43.5q-75 0 -117 36.5t-42 88.5q0 37 21 68l112 -42q-5 -10 -5 -18q0 -12 12.5 -18.5t31.5 -6.5q33 0 50 19t25 59l81 418h-191l-76 -394h-128l76 394h-59l20 102h59l14 70q18 92 74.5 138t128.5 46
q65 0 113 -31l-59 -107q-25 22 -55 22q-61 0 -74 -68zM461 568l26 132h140l-26 -132h-140z" />
  </font>
</defs>
</svg>
