<?xml version="1.0" standalone="no"?>
<!DOCTYPE svg PUBLIC "-//W3C//DTD SVG 1.1//EN" "http://www.w3.org/Graphics/SVG/1.1/DTD/svg11.dtd" >
<svg xmlns="http://www.w3.org/2000/svg" xmlns:xlink="http://www.w3.org/1999/xlink" version="1.1">
<metadata>
Created by FontForge 20170731 at Sun Nov  6 18:32:14 2016
 By Aleksey,,,
Copyright (c) 2015 by Colophon Foundry. All rights reserved.
</metadata>
<defs>
<font id="BasisGrotesque-MonoItalic" horiz-adv-x="602" >
  <font-face 
    font-family="Basis Grotesque Mono"
    font-weight="100"
    font-style="italic"
    font-stretch="normal"
    units-per-em="1000"
    panose-1="2 0 5 9 4 0 0 9 0 4"
    ascent="800"
    descent="-200"
    x-height="496"
    cap-height="700"
    bbox="-53 -218 675 934"
    underline-thickness="50"
    underline-position="-200"
    slope="-11"
    unicode-range="U+000D-FB02"
  />
<missing-glyph 
 />
    <glyph glyph-name="ff" unicode="ff" 
d="M482 496h115l-12 -62h-115l-84 -434h-80l84 434h-165l-84 -434h-80l84 434h-76l12 62h76l21 107q14 75 57 111t101 36q50 0 79 -27l-36 -58q-20 17 -47 17q-57 0 -74 -80l-21 -106h165l21 107q14 75 57 111t101 36q50 0 79 -27l-36 -58q-20 17 -47 17q-57 0 -74 -80z" />
    <glyph glyph-name="fi" unicode="fi" 
d="M236 496h324l-96 -496h-80l84 434h-244l-84 -434h-80l84 434h-76l12 62h76l20 103q14 73 65 112t117 39q52 0 94 -30l-35 -60q-30 22 -67 22q-78 0 -97 -99zM483 578l21 106h106l-21 -106h-106z" />
    <glyph glyph-name="fl" unicode="fl" 
d="M384 0l136 700h80l-136 -700h-80zM392 496l-12 -62h-156l-84 -434h-80l84 434h-76l12 62h76l20 103q14 73 65 112t117 39q52 0 94 -30l-35 -60q-30 22 -67 22q-78 0 -97 -99l-17 -87h156z" />
    <glyph glyph-name=".notdef" 
 />
    <glyph glyph-name=".null" horiz-adv-x="0" 
 />
    <glyph glyph-name="nonmarkingreturn" 
 />
    <glyph glyph-name="NULL" 
 />
    <glyph glyph-name="NULL" 
 />
    <glyph glyph-name="CR" unicode="&#xd;" 
 />
    <glyph glyph-name="space" unicode=" " 
 />
    <glyph glyph-name="exclam" unicode="!" 
d="M293 477l44 223h86l-44 -223l-67 -289h-64zM192 0l22 110h102l-22 -110h-102z" />
    <glyph glyph-name="quotedbl" unicode="&#x22;" 
d="M392 636l12 64h92l-12 -64l-44 -158h-66zM240 636l12 64h92l-12 -64l-44 -158h-66z" />
    <glyph glyph-name="numbersign" unicode="#" 
d="M292 700l-34 -222h140l34 222h76l-34 -222h109v-62h-118l-20 -132h118v-62h-128l-33 -222h-76l33 222h-140l-33 -222h-76l33 222h-108v62h118l20 132h-118v62h127l34 222h76zM249 416l-20 -132h140l20 132h-140z" />
    <glyph glyph-name="dollar" unicode="$" 
d="M184 -100l18 92q-77 16 -123 69.5t-56 124.5l74 34q27 -129 119 -154l52 268q-72 21 -114.5 67.5t-42.5 110.5q0 84 62 141t169 61l17 86h80l-18 -93q130 -27 164 -152l-71 -39q-31 95 -107 118l-48 -243q176 -37 176 -170q0 -101 -68.5 -164.5t-185.5 -69.5l-17 -87h-80
zM449 206q0 46 -24.5 71t-79.5 40l-50 -256q71 7 112.5 47t41.5 98zM192 519q0 -74 91 -108l45 230q-58 -6 -97 -38t-39 -84z" />
    <glyph glyph-name="percent" unicode="%" 
d="M69 554q0 63 43.5 111.5t122.5 48.5q60 0 96.5 -35.5t36.5 -90.5q0 -74 -46.5 -119t-119.5 -45q-54 0 -93.5 36.5t-39.5 93.5zM229 652q-43 0 -69.5 -28t-26.5 -66q0 -33 20.5 -52.5t56.5 -19.5q41 0 67.5 26t26.5 69q0 32 -21.5 51.5t-53.5 19.5zM234 116
q0 63 43.5 111.5t122.5 48.5q60 0 96.5 -35.5t36.5 -90.5q0 -74 -46.5 -119t-119.5 -45q-54 0 -93.5 36.5t-39.5 93.5zM394 214q-43 0 -69.5 -28t-26.5 -66q0 -33 20.5 -52.5t56.5 -19.5q41 0 67.5 26t26.5 69q0 32 -21.5 51.5t-53.5 19.5zM81 172l-34 48l475 305l33 -47z
" />
    <glyph glyph-name="ampersand" unicode="&#x26;" 
d="M513 0h-90l-28 49q-76 -63 -177 -63q-86 0 -143 50.5t-57 137.5q0 149 169 237q-25 52 -25 111q0 75 50.5 133.5t133.5 58.5q66 0 104 -34t38 -93q0 -125 -189 -200q-4 -2 -5 -2l117 -206q36 62 65 160l58 -36q-31 -121 -84 -193zM222 56q79 0 137 56l-138 239
q-122 -68 -122 -167q0 -61 35.5 -94.5t87.5 -33.5zM238 528q0 -42 23 -86q1 0 4.5 1.5t5.5 2.5q60 21 101.5 56.5t41.5 76.5q0 32 -20.5 50.5t-51.5 18.5q-46 0 -75 -35t-29 -85z" />
    <glyph glyph-name="quotesingle" unicode="'" 
d="M312 636l12 64h92l-12 -64l-44 -158h-66z" />
    <glyph glyph-name="parenleft" unicode="(" 
d="M307 -148h-73q-59 116 -59 291q0 166 58.5 309t155.5 248h83q-213 -259 -213 -556q0 -172 48 -292z" />
    <glyph glyph-name="parenright" unicode=")" 
d="M288 700h73q59 -116 59 -291q0 -166 -58.5 -309t-155.5 -248h-83q213 259 213 556q0 172 -48 292z" />
    <glyph glyph-name="asterisk" unicode="*" 
d="M269 376l40 124l-104 -71l-35 67l120 42l-99 40l43 70l90 -72l6 124h80l-40 -124l116 72l28 -69l-124 -41l97 -40l-44 -72l-87 78l-9 -128h-78z" />
    <glyph glyph-name="plus" unicode="+" 
d="M86 334l13 62h190l36 190h62l-36 -190h190l-13 -62h-190l-36 -190h-62l36 190h-190z" />
    <glyph glyph-name="comma" unicode="," 
d="M188 0l25 124h122l-25 -124l-125 -134l-21 22l77 112h-53z" />
    <glyph glyph-name="hyphen" unicode="-" 
d="M107 280l13 62h380l-13 -62h-380z" />
    <glyph glyph-name="period" unicode="." 
d="M188 0l25 124h122l-25 -124h-122z" />
    <glyph glyph-name="slash" unicode="/" 
d="M14 -30l504 760h86l-504 -760h-86z" />
    <glyph glyph-name="zero" unicode="0" 
d="M584 452q0 -81 -20 -160t-59 -149t-107 -113.5t-154 -43.5q-90 0 -150 70.5t-60 198.5q0 53 11.5 112t38.5 121.5t65 112t97 81.5t129 32q97 0 153 -68.5t56 -193.5zM252 60q62 0 111 35t77.5 93t43.5 125t15 137q0 42 -8 77l-332 -424q34 -43 93 -43zM118 261
q0 -45 8 -85l332 424q-34 40 -93 40t-108.5 -41t-78.5 -102t-44.5 -123.5t-15.5 -112.5z" />
    <glyph glyph-name="one" unicode="1" 
d="M490 68l-14 -68h-424l14 68h169l102 519q-31 -28 -67 -37.5t-93 -9.5l14 72q62 0 103 21.5t73 66.5h76l-124 -632h171z" />
    <glyph glyph-name="two" unicode="2" 
d="M29 55l319 264q65 53 94.5 97.5t29.5 102.5q0 60 -40 92.5t-99 32.5q-61 0 -103 -41.5t-42 -111.5q0 -15 2 -27l-78 -12q-4 20 -4 36q0 99 64 162.5t170 63.5q92 0 152.5 -52t60.5 -133q0 -75 -38 -134.5t-124 -130.5l-228 -190h312l-14 -74h-445z" />
    <glyph glyph-name="three" unicode="3" 
d="M76 244l73 -19q-8 -20 -8 -46q0 -52 39 -85.5t105 -33.5q72 0 115 41.5t43 109.5q0 131 -174 131l13 68q82 0 132 35t50 101q0 45 -33.5 71.5t-93.5 26.5q-56 0 -94 -34.5t-38 -89.5q0 -13 1 -20l-77 -11q-4 16 -4 32q0 79 62 136t158 57q93 0 146.5 -46t53.5 -116
q0 -58 -35.5 -104.5t-97.5 -68.5q117 -43 117 -159q0 -102 -67.5 -168t-182.5 -66q-97 0 -157.5 54t-60.5 130q0 44 15 74z" />
    <glyph glyph-name="four" unicode="4" 
d="M28 140l14 74l406 486h84l-95 -486h79l-14 -74h-79l-28 -140h-84l28 140h-311zM421 560l-287 -346h219z" />
    <glyph glyph-name="five" unicode="5" 
d="M60 322l107 378h400l-14 -74h-333l-68 -232q30 36 79.5 60t99.5 24q91 0 146.5 -53.5t55.5 -149.5q0 -123 -78 -206t-202 -83q-95 0 -154.5 50t-59.5 127q0 37 13 69l73 -18q-6 -21 -6 -40q0 -53 38.5 -83.5t101.5 -30.5q84 0 137 54t53 150q0 70 -40 107t-104 37
q-54 0 -102.5 -31t-73.5 -74z" />
    <glyph glyph-name="six" unicode="6" 
d="M560 496l-75 16q6 22 6 42q0 41 -32 63.5t-84 22.5q-83 0 -146.5 -77t-86.5 -210q30 48 82 76.5t112 28.5q87 0 148 -57t61 -147q0 -116 -75 -192t-187 -76q-108 0 -171 74t-63 199q0 58 13 120t40 122t65.5 107.5t94 76.5t119.5 29q82 0 136.5 -42t54.5 -110
q0 -32 -12 -66zM310 384q-77 0 -124.5 -50.5t-47.5 -125.5q0 -62 41 -105t112 -43q72 0 120 50.5t48 128.5q0 70 -41.5 107.5t-107.5 37.5z" />
    <glyph glyph-name="seven" unicode="7" 
d="M578 632l-372 -632h-84l369 626h-348l15 74h434z" />
    <glyph glyph-name="eight" unicode="8" 
d="M275 -14q-91 0 -153 53t-62 140q0 69 42 124t113 81q-76 47 -76 136q0 79 62.5 136.5t159.5 57.5q90 0 144.5 -46.5t54.5 -117.5q0 -120 -129 -184q41 -21 68 -60t27 -90q0 -106 -73 -168t-178 -62zM282 54q67 0 115 42t48 114q0 59 -39.5 94.5t-99.5 35.5
q-74 0 -118 -44.5t-44 -114.5q0 -57 39 -92t99 -35zM357 650q-61 0 -102 -38t-41 -95q0 -52 34.5 -82.5t84.5 -30.5q64 0 107 37t43 98q0 51 -35 81t-91 30z" />
    <glyph glyph-name="nine" unicode="9" 
d="M59 204l75 -16q-6 -23 -6 -42q0 -42 32 -64t86 -22q88 0 148.5 79t77.5 208q-31 -49 -81 -77t-113 -28q-89 0 -152.5 61t-63.5 152q0 115 74 187t184 72q114 0 176.5 -72t62.5 -200q0 -77 -17.5 -153.5t-53 -146t-99.5 -113t-146 -43.5q-83 0 -139.5 43.5t-56.5 114.5
q0 33 12 60zM297 316q77 0 123.5 50.5t46.5 125.5q0 62 -40.5 105t-110.5 43q-72 0 -120 -50.5t-48 -128.5q0 -70 41.5 -107.5t107.5 -37.5z" />
    <glyph glyph-name="colon" unicode=":" 
d="M258 360l25 124h122l-25 -124h-122zM188 0l25 124h122l-25 -124h-122z" />
    <glyph glyph-name="semicolon" unicode=";" 
d="M258 360l25 124h122l-25 -124h-122zM188 0l25 124h122l-25 -124l-125 -134l-21 22l77 112h-53z" />
    <glyph glyph-name="less" unicode="&#x3c;" 
d="M95 272l15 76l432 201l-17 -83l-349 -160l287 -162l-14 -73z" />
    <glyph glyph-name="equal" unicode="=" 
d="M65 224l12 62h442l-12 -62h-442zM102 414l12 62h442l-12 -62h-442z" />
    <glyph glyph-name="greater" unicode="&#x3e;" 
d="M513 348l-15 -76l-432 -201l17 83l349 160l-287 162l14 73z" />
    <glyph glyph-name="question" unicode="?" 
d="M304 195h-86l4 22q8 45 33.5 76t86.5 76q33 24 48.5 36.5t38 35t32 46t9.5 50.5q0 47 -34.5 77t-88.5 30q-65 0 -109 -41t-44 -102q0 -14 3 -29l-75 -13q-9 23 -9 49q0 87 67 146.5t172 59.5q91 0 146 -47t55 -120q0 -66 -40.5 -117t-128.5 -114q-37 -27 -55 -53t-25 -68
zM174 0l21 110h102l-21 -110h-102z" />
    <glyph glyph-name="at" unicode="@" 
d="M441 -34l22 -65q-82 -43 -185 -43q-116 0 -194.5 85t-78.5 255q0 89 23 176.5t68 165t122.5 126t176.5 48.5q107 0 162 -51.5t55 -145.5q0 -24 -7 -64l-80 -411h-80l13 65q-50 -79 -146 -79q-76 0 -122.5 57t-46.5 147q0 78 28.5 146.5t88.5 115t141 46.5
q45 0 79.5 -23.5t47.5 -60.5l4 21q4 20 4 41q0 58 -37.5 91t-113.5 33q-72 0 -131 -40t-94.5 -105t-54.5 -142t-19 -155q0 -138 54 -204t145 -66q83 0 156 36zM330 100q79 0 128 74.5t49 162.5q0 59 -29 95t-82 36q-80 0 -126 -71t-46 -165q0 -61 28 -96.5t78 -35.5z" />
    <glyph glyph-name="A" unicode="A" 
d="M451 0l-31 207h-270l-112 -207h-84l380 700h86l111 -700h-80zM333 549l-146 -272h223l-39 272q-5 35 -8 58z" />
    <glyph glyph-name="B" unicode="B" 
d="M13 0l137 700h217q89 0 138.5 -40.5t49.5 -106.5t-40.5 -114t-101.5 -66q104 -41 104 -145q0 -107 -76.5 -167.5t-198.5 -60.5h-229zM163 336l-52 -266h132q85 0 139 39t54 113q0 114 -141 114h-132zM220 630l-44 -224h137q66 0 112.5 35t46.5 97q0 92 -115 92h-137z" />
    <glyph glyph-name="C" unicode="C" 
d="M475 217l69 -31q-46 -106 -111.5 -153t-162.5 -47q-104 0 -168 77.5t-64 205.5q0 77 22 153.5t64 142.5t111.5 107.5t154.5 41.5t140.5 -49t70.5 -134l-74 -32q-28 141 -147 141q-61 0 -111.5 -35.5t-81 -90t-47 -115t-16.5 -115.5q0 -107 39.5 -165.5t116.5 -58.5
q68 0 114 40t81 117z" />
    <glyph glyph-name="D" unicode="D" 
d="M9 0l136 700h144q128 0 196 -74.5t68 -208.5q0 -79 -24.5 -152.5t-71 -133t-122.5 -95.5t-171 -36h-155zM177 74q97 1 164.5 52.5t96.5 126t29 163.5q0 108 -45 159t-138 51h-70l-107 -552h70z" />
    <glyph glyph-name="E" unicode="E" 
d="M29 0l137 700h424l-15 -74h-340l-44 -227h312l-14 -74h-312l-49 -251h343l-15 -74h-427z" />
    <glyph glyph-name="F" unicode="F" 
d="M30 0l137 700h440l-15 -74h-356l-48 -247h326l-14 -74h-326l-60 -305h-84z" />
    <glyph glyph-name="G" unicode="G" 
d="M447 0l5 113q-27 -55 -78 -91t-118 -36q-104 0 -161.5 75t-57.5 208q0 79 24 157t67.5 143t112.5 105t152 40q86 0 141.5 -48.5t72.5 -126.5l-75 -39q-34 140 -148 140q-78 0 -139.5 -56.5t-91.5 -139.5t-30 -172q0 -104 39 -158t110 -54q73 0 132 70.5t73 150.5h-189
l14 70h272l-69 -351h-58z" />
    <glyph glyph-name="H" unicode="H" 
d="M10 0l136 700h84l-60 -306h298l60 306h84l-137 -700h-84l63 320h-298l-63 -320h-83z" />
    <glyph glyph-name="I" unicode="I" 
d="M577 700l-14 -68h-156l-109 -564h162l-14 -68h-408l14 68h162l109 564h-156l14 68h396z" />
    <glyph glyph-name="J" unicode="J" 
d="M604 700l-93 -476q-23 -117 -91.5 -177.5t-173.5 -60.5q-78 0 -131.5 50t-53.5 130q0 26 6 51l81 -9q-4 -17 -4 -37q0 -52 32 -81.5t80 -29.5q66 0 111 42.5t61 125.5l92 472h84z" />
    <glyph glyph-name="K" unicode="K" 
d="M17 0l137 700h84l-61 -309l327 309h105l-276 -259l159 -441h-90l-135 378l-113 -107l-53 -271h-84z" />
    <glyph glyph-name="L" unicode="L" 
d="M33 0l137 700h84l-122 -626h354l-15 -74h-438z" />
    <glyph glyph-name="M" unicode="M" 
d="M-17 0l136 700h98l39 -618l282 618h101l-137 -700h-80l99 508l-48 -109l-188 -399h-86l-31 399q-3 91 -6 109l-99 -508h-80z" />
    <glyph glyph-name="N" unicode="N" 
d="M12 0l137 700h86l165 -505q15 -44 18 -59l111 564h80l-137 -700h-86l-165 506q-15 44 -18 59l-111 -565h-80z" />
    <glyph glyph-name="O" unicode="O" 
d="M586 432q0 -194 -89 -320t-242 -126q-102 0 -164.5 76.5t-62.5 207.5q0 77 22.5 154.5t63 143t105 106t140.5 40.5q111 0 169 -71.5t58 -210.5zM262 60q106 0 172 106t66 265q0 209 -150 209q-68 0 -123.5 -55.5t-84 -137.5t-28.5 -169q0 -110 39.5 -164t108.5 -54z" />
    <glyph glyph-name="P" unicode="P" 
d="M0 0l136 700h235q98 0 154.5 -50t56.5 -137q0 -112 -77 -180.5t-207 -68.5h-163l-52 -264h-83zM205 626l-56 -288h159q88 0 139 45.5t51 124.5q0 59 -37 88.5t-97 29.5h-159z" />
    <glyph glyph-name="Q" unicode="Q" 
d="M586 432q0 -148 -58.5 -264t-160.5 -160q18 -48 60 -95l-73 -54q-48 58 -67 129q-20 -2 -32 -2q-102 0 -164.5 75.5t-62.5 201.5q0 80 22.5 159t63.5 144.5t106 106.5t143 41q106 0 164.5 -72t58.5 -210zM262 60q106 0 172 107t66 264q0 209 -150 209q-54 0 -100.5 -38
t-75 -95t-44.5 -118t-16 -111q0 -110 40 -164t108 -54z" />
    <glyph glyph-name="R" unicode="R" 
d="M400 0l-112 304h-135l-60 -304h-83l136 700h240q97 0 149.5 -46.5t52.5 -129.5q0 -91 -62 -148.5t-151 -67.5l114 -308h-89zM215 626l-48 -248h161q80 0 128 35.5t48 104.5q0 108 -133 108h-156z" />
    <glyph glyph-name="S" unicode="S" 
d="M350 642q-66 0 -112 -33t-46 -90q0 -50 38.5 -79.5t121.5 -46.5q90 -18 136.5 -58.5t46.5 -113.5q0 -106 -75 -170.5t-201 -64.5q-102 0 -162.5 58t-73.5 142l74 34q34 -160 170 -160q83 0 132.5 41.5t49.5 104.5q0 54 -34.5 80t-115.5 41q-86 16 -137 65.5t-51 119.5
q0 87 67 144.5t180 57.5q92 0 150 -43t77 -116l-71 -39q-40 126 -164 126z" />
    <glyph glyph-name="T" unicode="T" 
d="M123 626l15 74h484l-15 -74h-200l-122 -626h-84l122 626h-200z" />
    <glyph glyph-name="U" unicode="U" 
d="M620 700l-91 -467q-47 -247 -285 -247q-91 0 -146.5 52.5t-55.5 137.5q0 29 8 72l88 452h84l-91 -470q-5 -27 -5 -46q0 -58 33 -91t95 -33q78 0 126.5 46t64.5 124l91 470h84z" />
    <glyph glyph-name="V" unicode="V" 
d="M196 0l-100 700h83l69 -528q6 -45 10 -82l41 82l274 528h89l-374 -700h-92z" />
    <glyph glyph-name="W" unicode="W" 
d="M675 700l-245 -700h-98l23 574l-201 -574h-98l29 700h77l-26 -485q-1 -32 -3 -73l25 74l174 484h92l-16 -484q0 -33 -3 -74l25 73l164 485h81z" />
    <glyph glyph-name="X" unicode="X" 
d="M225 700l103 -253l205 253h97l-267 -325l153 -375h-90l-122 306l-236 -306h-102l301 377l-136 323h94z" />
    <glyph glyph-name="Y" unicode="Y" 
d="M201 0l54 277l-142 423h83l98 -302q8 -25 12 -49l32 49l216 302h93l-308 -423l-54 -277h-84z" />
    <glyph glyph-name="Z" unicode="Z" 
d="M131 626l15 74h456l-15 -74l-472 -552h382l-15 -74h-478l14 72l475 554h-362z" />
    <glyph glyph-name="bracketleft" unicode="[" 
d="M101 -150l165 850h250l-13 -70h-172l-139 -710h172l-13 -70h-250z" />
    <glyph glyph-name="backslash" unicode="\" 
d="M225 730l250 -760h-81l-250 760h81z" />
    <glyph glyph-name="bracketright" unicode="]" 
d="M492 700l-165 -850h-250l13 70h172l139 710h-172l13 70h250z" />
    <glyph glyph-name="asciicircum" unicode="^" 
d="M331 700h84l134 -255h-80l-104 197l-180 -197h-86z" />
    <glyph glyph-name="underscore" unicode="_" 
d="M5 -69l13 62h442l-13 -62h-442z" />
    <glyph glyph-name="grave" unicode="`" 
d="M389 700l37 -138h-69l-73 138h105z" />
    <glyph glyph-name="a" unicode="a" 
d="M574 496l-97 -496h-80l17 80q-63 -94 -177 -94q-93 0 -148.5 63t-55.5 159q0 122 75 212t199 90q133 0 171 -95l16 81h80zM256 58q89 0 144.5 67t55.5 165q0 67 -40 107.5t-104 40.5q-89 0 -142.5 -65t-53.5 -154q0 -76 38 -118.5t102 -42.5z" />
    <glyph glyph-name="b" unicode="b" 
d="M6 0l135 700h80l-55 -283q31 43 79 68t103 25q93 0 146 -58.5t53 -149.5q0 -135 -79.5 -225.5t-208.5 -90.5q-55 0 -97 26.5t-61 65.5l-15 -78h-80zM266 58q87 0 142.5 68t55.5 161q0 72 -38.5 111.5t-99.5 39.5q-89 0 -146 -71t-57 -168q0 -63 43.5 -102t99.5 -39z" />
    <glyph glyph-name="c" unicode="c" 
d="M461 171l59 -35q-74 -150 -239 -150q-96 0 -159 65.5t-63 162.5q0 120 76.5 208t206.5 88q79 0 130.5 -39t72.5 -105l-66 -36q-38 110 -147 110q-88 0 -141 -68t-53 -156q0 -75 41.5 -117.5t108.5 -42.5q114 0 173 115z" />
    <glyph glyph-name="d" unicode="d" 
d="M617 700l-136 -700h-80l14 76q-60 -90 -172 -90q-92 0 -150 66t-58 158q0 122 75 211t204 89q62 0 105.5 -26.5t61.5 -68.5l56 285h80zM264 58q83 0 139 66.5t56 162.5q0 66 -42 108.5t-110 42.5q-82 0 -135.5 -64t-53.5 -157q0 -78 39.5 -118.5t106.5 -40.5z" />
    <glyph glyph-name="e" unicode="e" 
d="M528 235h-399q-1 -10 -1 -26q0 -69 35 -113t102 -44q65 0 105 32t70 89l60 -34q-41 -77 -98.5 -115t-143.5 -38q-94 0 -151.5 62.5t-57.5 161.5q0 116 78.5 208t205.5 92q99 0 152 -53t53 -140q0 -23 -8 -71zM328 444q-64 0 -115 -39t-73 -106h322q2 14 2 26
q0 56 -39 87.5t-97 31.5z" />
    <glyph glyph-name="f" unicode="f" 
d="M103 434l12 62h147l15 77q16 85 70.5 131t133.5 46q60 0 106 -34l-33 -61q-35 27 -80 27q-96 0 -117 -110l-15 -76h193l-12 -62h-193l-84 -434h-80l84 434h-147z" />
    <glyph glyph-name="g" unicode="g" 
d="M36 -14l71 -21q-11 -20 -11 -40q0 -33 32.5 -53t94.5 -20q78 0 124 47.5t60 117.5l17 80q-63 -89 -172 -89q-90 0 -147.5 58.5t-57.5 152.5q0 114 77 202.5t202 88.5q116 0 159 -93l16 79h80l-92 -470q-24 -121 -95 -182.5t-184 -61.5q-93 0 -143.5 38.5t-50.5 99.5
q0 39 20 66zM320 440q-82 0 -135.5 -65.5t-53.5 -156.5q0 -65 37 -102.5t105 -37.5q76 0 133.5 67t57.5 153q0 66 -40.5 104t-103.5 38z" />
    <glyph glyph-name="h" unicode="h" 
d="M522 312l-61 -312h-80l61 312q4 21 4 36q0 42 -28.5 67t-76.5 25q-69 0 -121.5 -46.5t-68.5 -129.5l-52 -264h-80l137 700h80l-55 -284q69 94 188 94q74 0 116 -39.5t42 -107.5q0 -25 -5 -51z" />
    <glyph glyph-name="i" unicode="i" 
d="M142 432l12 64h225l-84 -432h170l-12 -64h-420l12 64h170l71 368h-144zM302 578l21 106h106l-21 -106h-106z" />
    <glyph glyph-name="j" unicode="j" 
d="M199 432l13 64h245l-106 -543q-32 -163 -189 -163q-61 0 -101 32t-40 77q0 33 17 59l63 -26q-6 -12 -6 -25q0 -20 19.5 -33.5t50.5 -13.5q45 0 71 21.5t36 73.5l92 477h-165zM381 578l20 106h106l-20 -106h-106z" />
    <glyph glyph-name="k" unicode="k" 
d="M253 700l-80 -406l262 202h110l-239 -186l169 -310h-90l-143 261l-89 -69l-37 -192h-80l137 700h80z" />
    <glyph glyph-name="l" unicode="l" 
d="M162 636l13 64h245l-125 -636h179l-13 -64h-436l13 64h177l112 572h-165z" />
    <glyph glyph-name="m" unicode="m" 
d="M572 371l-72 -371h-80l70 362q4 19 4 29q0 23 -13 36t-37 13q-34 0 -61 -29.5t-38 -84.5l-63 -326h-80l71 366q3 15 3 28q0 46 -48 46q-36 0 -62 -29.5t-37 -86.5l-62 -324h-80l95 496h80l-9 -50q42 64 113 64q36 0 59 -18t30 -49q48 67 123 67q46 0 73 -24t27 -64
q0 -24 -6 -51z" />
    <glyph glyph-name="n" unicode="n" 
d="M517 312l-60 -312h-80l59 304q4 20 4 39q0 97 -97 97q-63 0 -115.5 -47.5t-67.5 -128.5l-51 -264h-80l96 496h80l-15 -79q75 93 183 93q69 0 110 -38.5t41 -104.5q0 -21 -7 -55z" />
    <glyph glyph-name="o" unicode="o" 
d="M551 294q0 -126 -81 -217t-217 -91q-91 0 -154 60t-63 162q0 54 18 106t52.5 96.5t92.5 72t130 27.5q97 0 159.5 -57t62.5 -159zM259 56q93 0 151 67.5t58 156.5q0 76 -39.5 118t-109.5 42q-87 0 -143.5 -70t-56.5 -163q0 -71 39.5 -111t100.5 -40z" />
    <glyph glyph-name="p" unicode="p" 
d="M-33 -204l135 700h80l-14 -78q29 43 80 67.5t108 24.5q87 0 139.5 -59t52.5 -158q0 -127 -78.5 -217t-202.5 -90q-56 0 -101 26t-65 68l-54 -284h-80zM322 438q-83 0 -140.5 -69t-57.5 -160q0 -69 43.5 -110t109.5 -41q80 0 133.5 65.5t53.5 156.5q0 73 -39 115.5
t-103 42.5z" />
    <glyph glyph-name="q" unicode="q" 
d="M577 496l-136 -700h-80l54 281q-61 -91 -176 -91q-91 0 -147 63t-56 159q0 119 76.5 210.5t206.5 91.5q57 0 99.5 -26t62.5 -71l16 83h80zM310 438q-83 0 -137 -66t-54 -157q0 -77 37 -117t100 -40q88 0 145.5 69t57.5 164q0 67 -40.5 107t-108.5 40z" />
    <glyph glyph-name="r" unicode="r" 
d="M501 323l-74 23q5 17 5 33q0 29 -21 46t-57 17q-62 0 -109 -53.5t-64 -141.5l-48 -247h-80l96 496h80l-14 -73q70 87 166 87q65 0 100 -33t35 -86q0 -36 -15 -68z" />
    <glyph glyph-name="s" unicode="s" 
d="M306 446q-47 0 -81 -19.5t-34 -60.5q0 -32 30 -51.5t98 -28.5q155 -20 155 -125q0 -80 -62 -127.5t-159 -47.5q-81 0 -133.5 43t-70.5 107l71 38q11 -53 45.5 -86.5t92.5 -33.5q59 0 97.5 23.5t38.5 70.5q0 35 -29 53.5t-94 26.5q-65 9 -109.5 44.5t-44.5 88.5
q0 67 54 108t142 41q72 0 123.5 -34t70.5 -97l-64 -32q-15 48 -51 73.5t-86 25.5z" />
    <glyph glyph-name="t" unicode="t" 
d="M101 434l12 62h133l26 134h80l-26 -134h172l-12 -62h-172l-50 -264q-5 -25 -5 -40q0 -76 72 -76q41 0 90 31l22 -59q-60 -40 -130 -40q-61 0 -97.5 38t-36.5 101q0 19 7 58l48 251h-133z" />
    <glyph glyph-name="u" unicode="u" 
d="M67 195l58 301h80l-59 -304q-4 -20 -4 -39q0 -46 26.5 -71.5t76.5 -25.5q58 0 110.5 51t66.5 125l51 264h80l-96 -496h-80l15 81q-67 -95 -180 -95q-69 0 -111 39.5t-42 102.5q0 27 8 67z" />
    <glyph glyph-name="v" unicode="v" 
d="M598 496l-315 -496h-80l-121 496h84l92 -403l247 403h93z" />
    <glyph glyph-name="w" unicode="w" 
d="M385 496l3 -401l151 401h76l-196 -496h-91l-5 400l-160 -400h-91l-14 496h80l-1 -401l158 401h90z" />
    <glyph glyph-name="x" unicode="x" 
d="M224 496l81 -168l145 168h92l-203 -231l125 -265h-83l-97 208l-171 -208h-99l235 272l-111 224h86z" />
    <glyph glyph-name="y" unicode="y" 
d="M149 -97l55 95l-113 498h86l85 -398l231 398h92l-367 -616q-29 -50 -64 -70t-83 -20q-43 0 -78 22l31 65q28 -19 59 -19q40 0 66 45z" />
    <glyph glyph-name="z" unicode="z" 
d="M151 70h315l-14 -70h-412l14 70l369 356h-287l14 70h384l-14 -70z" />
    <glyph glyph-name="braceleft" unicode="{" 
d="M97 240l13 70h25q75 0 91 83l30 156q15 78 55.5 114.5t120.5 36.5h67l-13 -70h-64q-71 0 -87 -80l-30 -152q-12 -57 -31.5 -82.5t-59.5 -40.5q50 -23 50 -77q0 -14 -6 -46l-29 -145q-3 -16 -3 -27q0 -28 15.5 -44t41.5 -16h64l-13 -70h-63q-55 0 -88.5 32t-33.5 90
q0 19 5 49l27 137q3 16 3 26q0 56 -62 56h-25z" />
    <glyph glyph-name="bar" unicode="|" 
d="M181 -110l165 850h80l-165 -850h-80z" />
    <glyph glyph-name="braceright" unicode="}" 
d="M495 310l-13 -70h-25q-75 0 -91 -83l-30 -156q-15 -78 -55.5 -114.5t-120.5 -36.5h-67l13 70h64q71 0 87 80l30 152q12 57 31.5 82.5t59.5 40.5q-50 23 -50 77q0 14 6 46l29 145q3 17 3 27q0 28 -15.5 44t-41.5 16h-64l13 70h63q55 0 88.5 -32t33.5 -90q0 -19 -5 -49
l-27 -137q-3 -17 -3 -26q0 -56 62 -56h25z" />
    <glyph glyph-name="asciitilde" unicode="~" 
d="M232 332q-17 0 -29 -11.5t-12 -29.5q0 -9 3 -17l-68 -12q-5 12 -5 31q0 45 33 75.5t82 30.5q31 0 57.5 -10.5t41 -23t32 -23t33.5 -10.5q17 0 28.5 11t11.5 29q0 10 -3 18l68 12q4 -12 4 -31q0 -46 -33 -76t-83 -30q-30 0 -56 10.5t-40 23t-31.5 23t-33.5 10.5z" />
    <glyph glyph-name="uni00A0" unicode="&#xa0;" 
 />
    <glyph glyph-name="exclamdown" unicode="&#xa1;" 
d="M289 19l-44 -223h-86l44 223l67 289h64zM390 496l-22 -110h-102l22 110h102z" />
    <glyph glyph-name="cent" unicode="&#xa2;" 
d="M461 171l59 -35q-73 -147 -232 -150l-18 -96h-74l20 105q-71 20 -114 80t-43 139q0 113 69 199t187 96l22 111h74l-22 -114q59 -11 99 -48t57 -92l-66 -36q-30 87 -104 105l-73 -379q104 7 159 115zM139 216q0 -57 24 -96t67 -54l71 371q-74 -12 -118 -77t-44 -144z" />
    <glyph glyph-name="sterling" unicode="&#xa3;" 
d="M44 316l12 64h79q-7 61 -7 95q0 99 65.5 169t185.5 70q90 0 144 -43.5t54 -107.5q0 -51 -22 -91l-73 17q14 37 14 62q0 40 -34 64.5t-91 24.5q-74 0 -116.5 -47.5t-42.5 -116.5q0 -15 6 -96h188l-12 -64h-172q-1 -136 -106 -242h355l-14 -74h-435l11 58q52 65 80 126
t28 132h-97z" />
    <glyph glyph-name="currency" unicode="&#xa4;" 
d="M523 350q0 -76 -40 -130l66 -66l-52 -52l-66 66q-58 -41 -130 -41t-130 41l-66 -66l-52 52l66 66q-40 54 -40 130t40 130l-66 66l52 52l66 -66q58 41 130 41t130 -41l66 66l52 -52l-66 -66q40 -54 40 -130zM301 195q65 0 106.5 43.5t41.5 111.5t-41.5 111.5t-106.5 43.5
t-106.5 -43.5t-41.5 -111.5t41.5 -111.5t106.5 -43.5z" />
    <glyph glyph-name="yen" unicode="&#xa5;" 
d="M86 277l12 62h137l-116 361h84l93 -304q8 -27 13 -49l31 49l212 304h89l-258 -361h137l-12 -62h-169l-14 -69h170l-12 -62h-170l-28 -146h-84l28 146h-168l12 62h168l14 69h-169z" />
    <glyph glyph-name="brokenbar" unicode="&#xa6;" 
d="M357 382h-80l69 358h80zM250 248h80l-69 -358h-80z" />
    <glyph glyph-name="section" unicode="&#xa7;" 
d="M105 325q0 79 74 124q-27 35 -27 84q0 81 59.5 131t149.5 50q73 0 126 -37.5t72 -94.5l-70 -45q-29 105 -137 105q-47 0 -82 -27t-35 -71q0 -39 27.5 -62.5t96.5 -41.5q72 -19 106 -53.5t34 -88.5q0 -80 -71 -126q24 -31 24 -82q0 -82 -61 -132.5t-150 -50.5
q-74 0 -125.5 37.5t-70.5 94.5l70 45q29 -105 133 -105q52 0 86.5 26t34.5 74q0 38 -27.5 61t-96.5 41q-67 17 -103.5 54.5t-36.5 89.5zM295 246q49 -14 79 -30q44 30 44 74q0 29 -25 49t-84 36q-47 12 -78 31q-45 -28 -45 -71q0 -32 24.5 -52t84.5 -37z" />
    <glyph glyph-name="dieresis" unicode="&#xa8;" 
d="M397 586l19 94h94l-19 -94h-94zM221 586l19 94h94l-19 -94h-94z" />
    <glyph glyph-name="copyright" unicode="&#xa9;" 
d="M20 351q0 116 82.5 198.5t198.5 82.5t198.5 -82.5t82.5 -198.5t-82.5 -198.5t-198.5 -82.5t-198.5 82.5t-82.5 198.5zM75 351q0 -94 66 -160.5t160 -66.5t160 66.5t66 160.5t-66 160.5t-160 66.5t-160 -66.5t-66 -160.5zM416 300l38 -24q-44 -99 -148 -99
q-74 0 -121 48.5t-47 125.5q0 75 48.5 124.5t119.5 49.5q109 0 147 -96l-42 -25q-14 36 -42 55t-62 19q-51 0 -84 -35t-33 -92q0 -58 32.5 -93t84.5 -35q39 0 64.5 19t44.5 58z" />
    <glyph glyph-name="ordfeminine" unicode="&#xaa;" 
d="M442 300h-62q-11 15 -11 35q0 9 3 24q-39 -66 -118 -66q-43 0 -74 28.5t-31 74.5q0 100 130 116l124 15l2 10q2 12 2 17q0 55 -74 55q-37 0 -59.5 -13t-22.5 -38q0 -4 1 -8l-57 -18q-3 10 -3 21q0 46 39.5 75t101.5 29q64 0 99 -27.5t35 -72.5q0 -21 -4 -41l-25 -127
q-5 -27 -5 -44q0 -27 9 -45zM276 348q42 0 74 34t41 86l2 11l-109 -13q-33 -4 -53 -21t-20 -45q0 -24 17.5 -38t47.5 -14z" />
    <glyph glyph-name="guillemotleft" unicode="&#xab;" 
d="M453 474h101l-213 -205l128 -193h-93l-131 199zM271 474h101l-213 -205l128 -193h-93l-131 199z" />
    <glyph glyph-name="logicalnot" unicode="&#xac;" 
d="M468 200h-78l26 134h-318l13 62h396z" />
    <glyph glyph-name="registered" unicode="&#xae;" 
d="M20 351q0 116 82.5 198.5t198.5 82.5t198.5 -82.5t82.5 -198.5t-82.5 -198.5t-198.5 -82.5t-198.5 82.5t-82.5 198.5zM75 351q0 -94 66 -160.5t160 -66.5t160 66.5t66 160.5t-66 160.5t-160 66.5t-160 -66.5t-66 -160.5zM377 182l-83 147h-54v-147h-52v338h138
q51 0 79.5 -26.5t28.5 -69.5q0 -36 -23 -60.5t-59 -32.5l84 -149h-59zM240 473v-99h78q65 0 65 50q0 49 -65 49h-78z" />
    <glyph glyph-name="macron" unicode="&#xaf;" 
d="M247 600l13 70h220l-13 -70h-220z" />
    <glyph glyph-name="degree" unicode="&#xb0;" 
d="M216 579q0 57 39.5 96t97.5 39t97.5 -39t39.5 -96t-39.5 -96t-97.5 -39t-97.5 39t-39.5 96zM278 579q0 -31 21.5 -53t53.5 -22t53.5 22t21.5 53t-21.5 53t-53.5 22t-53.5 -22t-21.5 -53z" />
    <glyph glyph-name="plusminus" unicode="&#xb1;" 
d="M86 334l13 62h190l36 190h62l-36 -190h190l-13 -62h-190l-36 -190h-62l36 190h-190zM22 0l13 62h442l-13 -62h-442z" />
    <glyph glyph-name="twosuperior" unicode="&#xb2;" 
d="M194 392l156 130q54 44 54 83q0 24 -16.5 38t-44.5 14q-29 0 -47.5 -19.5t-18.5 -48.5q0 -7 2 -13l-55 -7q-3 11 -3 22q0 50 34 83t94 33q51 0 83 -26t32 -68q0 -35 -17.5 -62t-58.5 -62l-99 -85h146l-10 -54h-239z" />
    <glyph glyph-name="threesuperior" unicode="&#xb3;" 
d="M213 477l51 -12q-5 -13 -5 -22q0 -22 17.5 -35t44.5 -13q32 0 52 16.5t20 45.5q0 58 -86 58l8 45q36 0 60 14t24 44q0 41 -54 41q-24 0 -40.5 -12.5t-16.5 -36.5q0 -6 1 -12l-52 -6q-3 10 -3 22q0 38 31.5 65.5t83.5 27.5q50 0 79 -23.5t29 -56.5q0 -60 -63 -85
q23 -7 40.5 -28t17.5 -51q0 -52 -37.5 -86t-96.5 -34q-50 0 -82.5 26t-32.5 66q0 22 10 42z" />
    <glyph glyph-name="acute" unicode="&#xb4;" 
d="M259 562l88 138h110l-127 -138h-71z" />
    <glyph glyph-name="mu" unicode="&#xb5;" 
d="M-11 -204l136 700h80l-59 -304q-4 -20 -4 -39q0 -45 27 -71t76 -26q58 0 110.5 51t66.5 125l51 264h80l-96 -496h-80l15 81q-67 -95 -180 -95q-62 0 -104 34q-6 -54 -11 -80l-28 -144h-80z" />
    <glyph glyph-name="paragraph" unicode="&#xb6;" 
d="M410 626l-145 -746h-84l93 478h-24q-69 0 -115 39.5t-46 106.5q0 84 59 140t161 56h304l-14 -74h-51l-145 -746h-84l145 746h-54z" />
    <glyph glyph-name="periodcentered" unicode="&#xb7;" 
d="M238 288l25 124h122l-25 -124h-122z" />
    <glyph glyph-name="cedilla" unicode="&#xb8;" 
d="M187 -104l-26 28l52 92h54l-51 -71q20 11 43 11q30 0 48 -18t18 -50q0 -42 -27.5 -67t-72.5 -25q-32 0 -55 16.5t-27 44.5l50 12q6 -27 35 -27q18 0 29 10.5t11 28.5q0 33 -35 33q-26 0 -46 -18z" />
    <glyph glyph-name="onesuperior" unicode="&#xb9;" 
d="M184 350l11 52h93l43 224q-29 -22 -88 -22l10 53q38 0 59.5 9t37.5 34h57l-58 -298h94l-11 -52h-248z" />
    <glyph glyph-name="ordmasculine" unicode="&#xba;" 
d="M515 502q0 -88 -59 -148.5t-149 -60.5q-67 0 -113.5 42.5t-46.5 110.5q0 88 56.5 149.5t156.5 61.5q68 0 111.5 -41.5t43.5 -113.5zM315 349q57 0 97 45t40 105q0 46 -28.5 74t-74.5 28q-62 0 -100.5 -44.5t-38.5 -103.5q0 -48 29 -76t76 -28z" />
    <glyph glyph-name="guillemotright" unicode="&#xbb;" 
d="M139 76h-101l213 205l-128 193h93l131 -199zM321 76h-101l213 205l-128 193h93l131 -199z" />
    <glyph glyph-name="onequarter" unicode="&#xbc;" 
d="M127 350l54 276q-29 -22 -81 -22l10 53q37 0 56 9.5t34 33.5h56l-69 -350h-60zM203 66l10 52l225 232h62l-46 -232h59l-10 -52h-59l-13 -66h-62l13 66h-179zM422 262l-141 -144h112zM97 130l-38 41l443 404l38 -41z" />
    <glyph glyph-name="onehalf" unicode="&#xbd;" 
d="M127 350l54 276q-29 -22 -81 -22l10 53q37 0 56 9.5t34 33.5h56l-69 -350h-60zM305 42l156 130q54 44 54 83q0 24 -16.5 38t-44.5 14q-29 0 -47.5 -19.5t-18.5 -48.5q0 -7 2 -13l-55 -7q-3 10 -3 22q0 50 34 83t94 33q51 0 83 -26t32 -68q0 -35 -17.5 -62t-58.5 -62
l-99 -85h146l-10 -54h-239zM97 130l-38 41l443 404l38 -41z" />
    <glyph glyph-name="threequarters" unicode="&#xbe;" 
d="M161 130l-38 41l443 404l38 -41zM251 66l10 52l225 232h62l-46 -232h59l-10 -52h-59l-13 -66h-62l13 66h-179zM469 262l-141 -144h112zM66 477l51 -12q-5 -13 -5 -22q0 -22 17.5 -35t44.5 -13q32 0 52 16.5t20 45.5q0 58 -86 58l8 45q36 0 60 14t24 44q0 41 -54 41
q-24 0 -40.5 -12.5t-16.5 -36.5q0 -6 1 -12l-52 -6q-3 10 -3 22q0 38 31.5 65.5t83.5 27.5q50 0 79 -23.5t29 -56.5q0 -60 -63 -85q23 -7 40.5 -28t17.5 -51q0 -52 -37.5 -86t-96.5 -34q-50 0 -82.5 26t-32.5 66q0 22 10 42z" />
    <glyph glyph-name="questiondown" unicode="&#xbf;" 
d="M269 301h86l-4 -22q-8 -45 -33.5 -76t-86.5 -76q-33 -24 -48.5 -36.5t-38 -35t-32 -46t-9.5 -50.5q0 -47 34.5 -77t88.5 -30q65 0 109 41t44 102q0 14 -3 29l75 13q9 -22 9 -49q0 -87 -67 -146.5t-172 -59.5q-91 0 -146 47t-55 120q0 66 40.5 117t128.5 114q37 27 55 53
t25 68zM399 496l-21 -110h-102l21 110h102z" />
    <glyph glyph-name="Agrave" unicode="&#xc0;" 
d="M451 0l-31 207h-270l-112 -207h-84l380 700h86l111 -700h-80zM333 549l-146 -272h223l-39 272q-5 35 -8 58zM382 904l37 -138h-69l-73 138h105z" />
    <glyph glyph-name="Aacute" unicode="&#xc1;" 
d="M451 0l-31 207h-270l-112 -207h-84l380 700h86l111 -700h-80zM333 549l-146 -272h223l-39 272q-5 35 -8 58zM357 766l88 138h110l-127 -138h-71z" />
    <glyph glyph-name="Acircumflex" unicode="&#xc2;" 
d="M451 0l-31 207h-270l-112 -207h-84l380 700h86l111 -700h-80zM333 549l-146 -272h223l-39 272q-5 35 -8 58zM249 766l127 138h68l73 -138h-66l-53 68l-79 -68h-70z" />
    <glyph glyph-name="Atilde" unicode="&#xc3;" 
d="M451 0l-31 207h-270l-112 -207h-84l380 700h86l111 -700h-80zM333 549l-146 -272h223l-39 272q-5 35 -8 58zM316 832q-15 0 -24 -10t-9 -23q0 -11 5 -19l-63 -12q-8 15 -8 33q0 38 26.5 65t75.5 27q28 0 50 -10.5t33 -23t26 -23t30 -10.5q33 0 33 33q0 11 -4 20l63 12
q7 -20 7 -38q0 -40 -27 -64t-70 -24q-31 0 -53.5 10.5t-33 23t-25.5 23t-32 10.5z" />
    <glyph glyph-name="Adieresis" unicode="&#xc4;" 
d="M451 0l-31 207h-270l-112 -207h-84l380 700h86l111 -700h-80zM333 549l-146 -272h223l-39 272q-5 35 -8 58zM438 790l19 94h94l-19 -94h-94zM262 790l19 94h94l-19 -94h-94z" />
    <glyph glyph-name="Aring" unicode="&#xc5;" 
d="M451 0l-31 207h-270l-112 -207h-84l380 700h86l111 -700h-80zM333 549l-146 -272h223l-39 272q-5 35 -8 58zM355 839q0 -20 13 -33.5t33 -13.5t33 13.5t13 33.5t-13 33.5t-33 13.5t-33 -13.5t-13 -33.5zM305 839q0 40 28 67.5t68 27.5t68 -27.5t28 -67.5t-27 -67.5
t-69 -27.5t-69 27.5t-27 67.5z" />
    <glyph glyph-name="AE" unicode="&#xc6;" 
d="M208 0l40 207h-115l-91 -207h-86l310 700h387l-15 -74h-224l-44 -227h196l-14 -74h-196l-49 -251h227l-15 -74h-311zM282 553l-119 -276h99l68 349h-18z" />
    <glyph glyph-name="Ccedilla" unicode="&#xc7;" 
d="M224 -104l-26 28l36 65q-89 13 -142.5 88.5t-53.5 191.5q0 77 22 153.5t64 142.5t111.5 107.5t154.5 41.5t140.5 -49t70.5 -134l-74 -32q-28 141 -147 141q-61 0 -111.5 -35.5t-81 -90t-47 -115t-16.5 -115.5q0 -107 39.5 -165.5t116.5 -58.5q68 0 114 40t81 117l69 -31
q-45 -102 -107.5 -149.5t-154.5 -50.5l-29 -41q20 11 43 11q30 0 48 -18t18 -50q0 -42 -27.5 -67t-72.5 -25q-32 0 -55 16.5t-27 44.5l50 12q6 -27 35 -27q18 0 29 10.5t11 28.5q0 33 -35 33q-26 0 -46 -18z" />
    <glyph glyph-name="Egrave" unicode="&#xc8;" 
d="M29 0l137 700h424l-15 -74h-340l-44 -227h312l-14 -74h-312l-49 -251h343l-15 -74h-427zM388 904l37 -138h-69l-73 138h105z" />
    <glyph glyph-name="Eacute" unicode="&#xc9;" 
d="M29 0l137 700h424l-15 -74h-340l-44 -227h312l-14 -74h-312l-49 -251h343l-15 -74h-427zM324 766l88 138h110l-127 -138h-71z" />
    <glyph glyph-name="Ecircumflex" unicode="&#xca;" 
d="M29 0l137 700h424l-15 -74h-340l-44 -227h312l-14 -74h-312l-49 -251h343l-15 -74h-427zM254 766l127 138h68l73 -138h-66l-53 68l-79 -68h-70z" />
    <glyph glyph-name="Edieresis" unicode="&#xcb;" 
d="M29 0l137 700h424l-15 -74h-340l-44 -227h312l-14 -74h-312l-49 -251h343l-15 -74h-427zM433 790l19 94h94l-19 -94h-94zM257 790l19 94h94l-19 -94h-94z" />
    <glyph glyph-name="Igrave" unicode="&#xcc;" 
d="M577 700l-14 -68h-156l-109 -564h162l-14 -68h-408l14 68h162l109 564h-156l14 68h396zM380 904l37 -138h-69l-73 138h105z" />
    <glyph glyph-name="Iacute" unicode="&#xcd;" 
d="M577 700l-14 -68h-156l-109 -564h162l-14 -68h-408l14 68h162l109 564h-156l14 68h396zM352 766l88 138h110l-127 -138h-71z" />
    <glyph glyph-name="Icircumflex" unicode="&#xce;" 
d="M577 700l-14 -68h-156l-109 -564h162l-14 -68h-408l14 68h162l109 564h-156l14 68h396zM255 766l127 138h68l73 -138h-66l-53 68l-79 -68h-70z" />
    <glyph glyph-name="Idieresis" unicode="&#xcf;" 
d="M577 700l-14 -68h-156l-109 -564h162l-14 -68h-408l14 68h162l109 564h-156l14 68h396zM435 790l19 94h94l-19 -94h-94zM259 790l19 94h94l-19 -94h-94z" />
    <glyph glyph-name="Eth" unicode="&#xd0;" 
d="M32 315l12 70h61l62 315h144q128 0 196 -74.5t68 -208.5q0 -79 -24.5 -152.5t-71 -133t-122.5 -95.5t-171 -36h-155l61 315h-60zM199 74q97 1 164.5 52.5t96.5 126t29 163.5q0 108 -45 159t-138 51h-70l-47 -241h110l-13 -70h-111l-46 -241h70z" />
    <glyph glyph-name="Ntilde" unicode="&#xd1;" 
d="M12 0l137 700h86l165 -505q15 -44 18 -59l111 564h80l-137 -700h-86l-165 506q-15 44 -18 59l-111 -565h-80zM319 832q-15 0 -24 -10t-9 -23q0 -11 5 -19l-63 -12q-8 15 -8 33q0 38 26.5 65t75.5 27q28 0 50 -10.5t33 -23t26 -23t30 -10.5q33 0 33 33q0 11 -4 20l63 12
q7 -20 7 -38q0 -40 -27 -64t-70 -24q-31 0 -53.5 10.5t-33 23t-25.5 23t-32 10.5z" />
    <glyph glyph-name="Ograve" unicode="&#xd2;" 
d="M586 432q0 -194 -89 -320t-242 -126q-102 0 -164.5 76.5t-62.5 207.5q0 77 22.5 154.5t63 143t105 106t140.5 40.5q111 0 169 -71.5t58 -210.5zM262 60q106 0 172 106t66 265q0 209 -150 209q-68 0 -123.5 -55.5t-84 -137.5t-28.5 -169q0 -110 39.5 -164t108.5 -54z
M365 904l37 -138h-69l-73 138h105z" />
    <glyph glyph-name="Oacute" unicode="&#xd3;" 
d="M586 432q0 -194 -89 -320t-242 -126q-102 0 -164.5 76.5t-62.5 207.5q0 77 22.5 154.5t63 143t105 106t140.5 40.5q111 0 169 -71.5t58 -210.5zM262 60q106 0 172 106t66 265q0 209 -150 209q-68 0 -123.5 -55.5t-84 -137.5t-28.5 -169q0 -110 39.5 -164t108.5 -54z
M334 766l88 138h110l-127 -138h-71z" />
    <glyph glyph-name="Ocircumflex" unicode="&#xd4;" 
d="M586 432q0 -194 -89 -320t-242 -126q-102 0 -164.5 76.5t-62.5 207.5q0 77 22.5 154.5t63 143t105 106t140.5 40.5q111 0 169 -71.5t58 -210.5zM262 60q106 0 172 106t66 265q0 209 -150 209q-68 0 -123.5 -55.5t-84 -137.5t-28.5 -169q0 -110 39.5 -164t108.5 -54z
M240 766l127 138h68l73 -138h-66l-53 68l-79 -68h-70z" />
    <glyph glyph-name="Otilde" unicode="&#xd5;" 
d="M586 432q0 -194 -89 -320t-242 -126q-102 0 -164.5 76.5t-62.5 207.5q0 77 22.5 154.5t63 143t105 106t140.5 40.5q111 0 169 -71.5t58 -210.5zM262 60q106 0 172 106t66 265q0 209 -150 209q-68 0 -123.5 -55.5t-84 -137.5t-28.5 -169q0 -110 39.5 -164t108.5 -54z
M315 832q-15 0 -24 -10t-9 -23q0 -11 5 -19l-63 -12q-8 15 -8 33q0 38 26.5 65t75.5 27q28 0 50 -10.5t33 -23t26 -23t30 -10.5q33 0 33 33q0 11 -4 20l63 12q7 -20 7 -38q0 -40 -27 -64t-70 -24q-31 0 -53.5 10.5t-33 23t-25.5 23t-32 10.5z" />
    <glyph glyph-name="Odieresis" unicode="&#xd6;" 
d="M586 432q0 -194 -89 -320t-242 -126q-102 0 -164.5 76.5t-62.5 207.5q0 77 22.5 154.5t63 143t105 106t140.5 40.5q111 0 169 -71.5t58 -210.5zM262 60q106 0 172 106t66 265q0 209 -150 209q-68 0 -123.5 -55.5t-84 -137.5t-28.5 -169q0 -110 39.5 -164t108.5 -54z
M421 790l19 94h94l-19 -94h-94zM245 790l19 94h94l-19 -94h-94z" />
    <glyph glyph-name="multiply" unicode="&#xd7;" 
d="M150 186l-38 48l160 134l-107 132l51 42l106 -132l160 134l38 -48l-159 -134l106 -131l-51 -42l-106 131z" />
    <glyph glyph-name="Oslash" unicode="&#xd8;" 
d="M586 432q0 -194 -89 -320t-242 -126q-74 0 -130 42l-49 -69l-56 41l57 80q-49 76 -49 190q0 77 22.5 154.5t63 143t105 106t140.5 40.5q85 0 139 -42l49 69l56 -41l-58 -82q41 -70 41 -186zM114 278q0 -73 17 -122l318 448q-36 36 -99 36q-68 0 -123.5 -55.5t-84 -137.5
t-28.5 -169zM262 60q106 0 172 106t66 265q0 59 -13 106l-316 -444q34 -33 91 -33z" />
    <glyph glyph-name="Ugrave" unicode="&#xd9;" 
d="M620 700l-91 -467q-47 -247 -285 -247q-91 0 -146.5 52.5t-55.5 137.5q0 29 8 72l88 452h84l-91 -470q-5 -27 -5 -46q0 -58 33 -91t95 -33q78 0 126.5 46t64.5 124l91 470h84zM391 904l37 -138h-69l-73 138h105z" />
    <glyph glyph-name="Uacute" unicode="&#xda;" 
d="M620 700l-91 -467q-47 -247 -285 -247q-91 0 -146.5 52.5t-55.5 137.5q0 29 8 72l88 452h84l-91 -470q-5 -27 -5 -46q0 -58 33 -91t95 -33q78 0 126.5 46t64.5 124l91 470h84zM344 766l88 138h110l-127 -138h-71z" />
    <glyph glyph-name="Ucircumflex" unicode="&#xdb;" 
d="M620 700l-91 -467q-47 -247 -285 -247q-91 0 -146.5 52.5t-55.5 137.5q0 29 8 72l88 452h84l-91 -470q-5 -27 -5 -46q0 -58 33 -91t95 -33q78 0 126.5 46t64.5 124l91 470h84zM253 766l127 138h68l73 -138h-66l-53 68l-79 -68h-70z" />
    <glyph glyph-name="Udieresis" unicode="&#xdc;" 
d="M620 700l-91 -467q-47 -247 -285 -247q-91 0 -146.5 52.5t-55.5 137.5q0 29 8 72l88 452h84l-91 -470q-5 -27 -5 -46q0 -58 33 -91t95 -33q78 0 126.5 46t64.5 124l91 470h84zM435 790l19 94h94l-19 -94h-94zM259 790l19 94h94l-19 -94h-94z" />
    <glyph glyph-name="Yacute" unicode="&#xdd;" 
d="M201 0l54 277l-142 423h83l98 -302q8 -25 12 -49l32 49l216 302h93l-308 -423l-54 -277h-84zM333 766l88 138h110l-127 -138h-71z" />
    <glyph glyph-name="Thorn" unicode="&#xde;" 
d="M0 0l136 700h84l-26 -132h151q98 0 154.5 -50t56.5 -137q0 -112 -77 -180.5t-207 -68.5h-163l-26 -132h-83zM179 494l-55 -288h158q88 0 139 45.5t51 124.5q0 59 -37 88.5t-97 29.5h-159z" />
    <glyph glyph-name="germandbls" unicode="&#xdf;" 
d="M265 349l13 66h23q72 0 120.5 37.5t48.5 98.5q0 44 -30.5 69.5t-79.5 25.5q-47 0 -86 -33t-52 -99l-100 -514h-80l85 434h-78l12 62h78l3 14q20 103 79.5 153.5t146.5 50.5q81 0 130 -41.5t49 -106.5q0 -67 -37.5 -114.5t-104.5 -68.5q121 -45 121 -163q0 -95 -63 -164.5
t-169 -69.5q-95 0 -145 53l49 60q43 -45 101 -45q65 0 106 46t41 114q0 64 -46 99.5t-116 35.5h-19z" />
    <glyph glyph-name="agrave" unicode="&#xe0;" 
d="M574 496l-97 -496h-80l17 80q-63 -94 -177 -94q-93 0 -148.5 63t-55.5 159q0 122 75 212t199 90q133 0 171 -95l16 81h80zM256 58q89 0 144.5 67t55.5 165q0 67 -40 107.5t-104 40.5q-89 0 -142.5 -65t-53.5 -154q0 -76 38 -118.5t102 -42.5zM338 700l37 -138h-69
l-73 138h105z" />
    <glyph glyph-name="aacute" unicode="&#xe1;" 
d="M574 496l-97 -496h-80l17 80q-63 -94 -177 -94q-93 0 -148.5 63t-55.5 159q0 122 75 212t199 90q133 0 171 -95l16 81h80zM256 58q89 0 144.5 67t55.5 165q0 67 -40 107.5t-104 40.5q-89 0 -142.5 -65t-53.5 -154q0 -76 38 -118.5t102 -42.5zM289 562l88 138h110
l-127 -138h-71z" />
    <glyph glyph-name="acircumflex" unicode="&#xe2;" 
d="M574 496l-97 -496h-80l17 80q-63 -94 -177 -94q-93 0 -148.5 63t-55.5 159q0 122 75 212t199 90q133 0 171 -95l16 81h80zM256 58q89 0 144.5 67t55.5 165q0 67 -40 107.5t-104 40.5q-89 0 -142.5 -65t-53.5 -154q0 -76 38 -118.5t102 -42.5zM202 562l127 138h68l73 -138
h-66l-53 68l-79 -68h-70z" />
    <glyph glyph-name="atilde" unicode="&#xe3;" 
d="M574 496l-97 -496h-80l17 80q-63 -94 -177 -94q-93 0 -148.5 63t-55.5 159q0 122 75 212t199 90q133 0 171 -95l16 81h80zM256 58q89 0 144.5 67t55.5 165q0 67 -40 107.5t-104 40.5q-89 0 -142.5 -65t-53.5 -154q0 -76 38 -118.5t102 -42.5zM272 628q-15 0 -24 -10
t-9 -23q0 -11 5 -19l-63 -12q-8 15 -8 33q0 38 26.5 65t75.5 27q28 0 50 -10.5t33 -23t26 -23t30 -10.5q33 0 33 33q0 11 -4 20l63 12q7 -20 7 -38q0 -40 -27 -64t-70 -24q-31 0 -53.5 10.5t-33 23t-25.5 23t-32 10.5z" />
    <glyph glyph-name="adieresis" unicode="&#xe4;" 
d="M574 496l-97 -496h-80l17 80q-63 -94 -177 -94q-93 0 -148.5 63t-55.5 159q0 122 75 212t199 90q133 0 171 -95l16 81h80zM256 58q89 0 144.5 67t55.5 165q0 67 -40 107.5t-104 40.5q-89 0 -142.5 -65t-53.5 -154q0 -76 38 -118.5t102 -42.5zM380 586l19 94h94l-19 -94
h-94zM204 586l19 94h94l-19 -94h-94z" />
    <glyph glyph-name="aring" unicode="&#xe5;" 
d="M574 496l-97 -496h-80l17 80q-63 -94 -177 -94q-93 0 -148.5 63t-55.5 159q0 122 75 212t199 90q133 0 171 -95l16 81h80zM256 58q89 0 144.5 67t55.5 165q0 67 -40 107.5t-104 40.5q-89 0 -142.5 -65t-53.5 -154q0 -76 38 -118.5t102 -42.5zM302 635q0 -20 13 -33.5
t33 -13.5t33 13.5t13 33.5t-13 33.5t-33 13.5t-33 -13.5t-13 -33.5zM252 635q0 40 28 67.5t68 27.5t68 -27.5t28 -67.5t-27 -67.5t-69 -27.5t-69 27.5t-27 67.5z" />
    <glyph glyph-name="ae" unicode="&#xe6;" 
d="M374 496l-9 -44q42 58 108 58q57 0 85 -39.5t28 -108.5q0 -34 -13 -106l-4 -21h-241q-9 -41 -9 -84q0 -45 17 -72t47 -27q64 0 107 118l58 -20q-57 -164 -172 -164q-30 0 -55 18.5t-33 50.5l-11 -55h-65l11 57q-15 -33 -42.5 -52t-58.5 -19q-53 0 -83 51t-30 135
q0 134 57.5 236t152.5 102q31 0 52 -16.5t29 -44.5l9 47h65zM156 58q50 0 85.5 78t35.5 182q0 120 -58 120q-53 0 -91 -77.5t-38 -178.5q0 -57 17 -90.5t49 -33.5zM454 444q-35 0 -67 -41t-45 -104h161q7 35 7 66q0 79 -56 79z" />
    <glyph glyph-name="ccedilla" unicode="&#xe7;" 
d="M230 -104l-26 28l37 66q-81 13 -131.5 75.5t-50.5 148.5q0 120 76.5 208t206.5 88q79 0 130.5 -39t72.5 -105l-66 -36q-38 110 -147 110q-88 0 -141 -68t-53 -156q0 -75 41.5 -117.5t108.5 -42.5q114 0 173 115l59 -35q-73 -147 -232 -150l-29 -41q20 11 43 11
q30 0 48 -18t18 -50q0 -42 -27.5 -67t-72.5 -25q-32 0 -55 16.5t-27 44.5l50 12q6 -27 35 -27q18 0 29 10.5t11 28.5q0 33 -35 33q-26 0 -46 -18z" />
    <glyph glyph-name="egrave" unicode="&#xe8;" 
d="M528 235h-399q-1 -10 -1 -26q0 -69 35 -113t102 -44q65 0 105 32t70 89l60 -34q-41 -77 -98.5 -115t-143.5 -38q-94 0 -151.5 62.5t-57.5 161.5q0 116 78.5 208t205.5 92q99 0 152 -53t53 -140q0 -23 -8 -71zM328 444q-64 0 -115 -39t-73 -106h322q2 14 2 26
q0 56 -39 87.5t-97 31.5zM342 700l37 -138h-69l-73 138h105z" />
    <glyph glyph-name="eacute" unicode="&#xe9;" 
d="M528 235h-399q-1 -10 -1 -26q0 -69 35 -113t102 -44q65 0 105 32t70 89l60 -34q-41 -77 -98.5 -115t-143.5 -38q-94 0 -151.5 62.5t-57.5 161.5q0 116 78.5 208t205.5 92q99 0 152 -53t53 -140q0 -23 -8 -71zM328 444q-64 0 -115 -39t-73 -106h322q2 14 2 26
q0 56 -39 87.5t-97 31.5zM307 562l88 138h110l-127 -138h-71z" />
    <glyph glyph-name="ecircumflex" unicode="&#xea;" 
d="M528 235h-399q-1 -10 -1 -26q0 -69 35 -113t102 -44q65 0 105 32t70 89l60 -34q-41 -77 -98.5 -115t-143.5 -38q-94 0 -151.5 62.5t-57.5 161.5q0 116 78.5 208t205.5 92q99 0 152 -53t53 -140q0 -23 -8 -71zM328 444q-64 0 -115 -39t-73 -106h322q2 14 2 26
q0 56 -39 87.5t-97 31.5zM211 562l127 138h68l73 -138h-66l-53 68l-79 -68h-70z" />
    <glyph glyph-name="edieresis" unicode="&#xeb;" 
d="M528 235h-399q-1 -10 -1 -26q0 -69 35 -113t102 -44q65 0 105 32t70 89l60 -34q-41 -77 -98.5 -115t-143.5 -38q-94 0 -151.5 62.5t-57.5 161.5q0 116 78.5 208t205.5 92q99 0 152 -53t53 -140q0 -23 -8 -71zM328 444q-64 0 -115 -39t-73 -106h322q2 14 2 26
q0 56 -39 87.5t-97 31.5zM394 586l19 94h94l-19 -94h-94zM218 586l19 94h94l-19 -94h-94z" />
    <glyph glyph-name="igrave" unicode="&#xec;" 
d="M142 432l12 64h225l-84 -432h170l-12 -64h-420l12 64h170l71 368h-144zM349 700l37 -138h-69l-73 138h105z" />
    <glyph glyph-name="iacute" unicode="&#xed;" 
d="M142 432l12 64h225l-84 -432h170l-12 -64h-420l12 64h170l71 368h-144zM308 562l88 138h110l-127 -138h-71z" />
    <glyph glyph-name="icircumflex" unicode="&#xee;" 
d="M142 432l12 64h225l-84 -432h170l-12 -64h-420l12 64h170l71 368h-144zM212 562l127 138h68l73 -138h-66l-53 68l-79 -68h-70z" />
    <glyph glyph-name="idieresis" unicode="&#xef;" 
d="M142 432l12 64h225l-84 -432h170l-12 -64h-420l12 64h170l71 368h-144zM397 586l19 94h94l-19 -94h-94zM221 586l19 94h94l-19 -94h-94z" />
    <glyph glyph-name="eth" unicode="&#xf0;" 
d="M284 512l-18 59l111 40q-51 46 -127 73l30 58q104 -33 172 -104l98 35l19 -59l-76 -27q61 -97 61 -231q0 -95 -30.5 -177t-99 -137.5t-162.5 -55.5q-91 0 -155.5 59t-64.5 153q0 115 77.5 189.5t196.5 74.5q54 0 99 -23.5t65 -66.5q0 107 -58 189zM269 56
q76 0 130.5 57.5t54.5 142.5q0 64 -43 100t-100 36q-79 0 -132.5 -55t-53.5 -136q0 -66 41.5 -105.5t102.5 -39.5z" />
    <glyph glyph-name="ntilde" unicode="&#xf1;" 
d="M517 312l-60 -312h-80l59 304q4 20 4 39q0 97 -97 97q-63 0 -115.5 -47.5t-67.5 -128.5l-51 -264h-80l96 496h80l-15 -79q75 93 183 93q69 0 110 -38.5t41 -104.5q0 -21 -7 -55zM292 628q-15 0 -24 -10t-9 -23q0 -11 5 -19l-63 -12q-8 15 -8 33q0 38 26.5 65t75.5 27
q28 0 50 -10.5t33 -23t26 -23t30 -10.5q33 0 33 33q0 11 -4 20l63 12q7 -20 7 -38q0 -40 -27 -64t-70 -24q-31 0 -53.5 10.5t-33 23t-25.5 23t-32 10.5z" />
    <glyph glyph-name="ograve" unicode="&#xf2;" 
d="M551 294q0 -126 -81 -217t-217 -91q-91 0 -154 60t-63 162q0 54 18 106t52.5 96.5t92.5 72t130 27.5q97 0 159.5 -57t62.5 -159zM259 56q93 0 151 67.5t58 156.5q0 76 -39.5 118t-109.5 42q-87 0 -143.5 -70t-56.5 -163q0 -71 39.5 -111t100.5 -40zM341 700l37 -138h-69
l-73 138h105z" />
    <glyph glyph-name="oacute" unicode="&#xf3;" 
d="M551 294q0 -126 -81 -217t-217 -91q-91 0 -154 60t-63 162q0 54 18 106t52.5 96.5t92.5 72t130 27.5q97 0 159.5 -57t62.5 -159zM259 56q93 0 151 67.5t58 156.5q0 76 -39.5 118t-109.5 42q-87 0 -143.5 -70t-56.5 -163q0 -71 39.5 -111t100.5 -40zM289 562l88 138h110
l-127 -138h-71z" />
    <glyph glyph-name="ocircumflex" unicode="&#xf4;" 
d="M551 294q0 -126 -81 -217t-217 -91q-91 0 -154 60t-63 162q0 54 18 106t52.5 96.5t92.5 72t130 27.5q97 0 159.5 -57t62.5 -159zM259 56q93 0 151 67.5t58 156.5q0 76 -39.5 118t-109.5 42q-87 0 -143.5 -70t-56.5 -163q0 -71 39.5 -111t100.5 -40zM212 562l127 138h68
l73 -138h-66l-53 68l-79 -68h-70z" />
    <glyph glyph-name="otilde" unicode="&#xf5;" 
d="M551 294q0 -126 -81 -217t-217 -91q-91 0 -154 60t-63 162q0 54 18 106t52.5 96.5t92.5 72t130 27.5q97 0 159.5 -57t62.5 -159zM259 56q93 0 151 67.5t58 156.5q0 76 -39.5 118t-109.5 42q-87 0 -143.5 -70t-56.5 -163q0 -71 39.5 -111t100.5 -40zM279 628
q-15 0 -24 -10t-9 -23q0 -11 5 -19l-63 -12q-8 15 -8 33q0 38 26.5 65t75.5 27q28 0 50 -10.5t33 -23t26 -23t30 -10.5q33 0 33 33q0 11 -4 20l63 12q7 -20 7 -38q0 -40 -27 -64t-70 -24q-31 0 -53.5 10.5t-33 23t-25.5 23t-32 10.5z" />
    <glyph glyph-name="odieresis" unicode="&#xf6;" 
d="M551 294q0 -126 -81 -217t-217 -91q-91 0 -154 60t-63 162q0 54 18 106t52.5 96.5t92.5 72t130 27.5q97 0 159.5 -57t62.5 -159zM259 56q93 0 151 67.5t58 156.5q0 76 -39.5 118t-109.5 42q-87 0 -143.5 -70t-56.5 -163q0 -71 39.5 -111t100.5 -40zM391 586l19 94h94
l-19 -94h-94zM215 586l19 94h94l-19 -94h-94z" />
    <glyph glyph-name="divide" unicode="&#xf7;" 
d="M258 360l22 110h108l-22 -110h-108zM191 14l22 110h108l-22 -110h-108zM62 211l13 62h442l-13 -62h-442z" />
    <glyph glyph-name="oslash" unicode="&#xf8;" 
d="M551 294q0 -124 -81 -216t-217 -92q-51 0 -99 21l-37 -48l-53 41l35 45q-63 60 -63 158q0 75 32 143.5t101 116t160 47.5q63 0 111 -24l40 51l53 -41l-38 -49q56 -58 56 -153zM119 207q0 -62 28 -99l246 316q-34 16 -74 16q-87 0 -143.5 -70t-56.5 -163zM259 56
q93 0 151 67.5t58 158.5q0 61 -25 98l-243 -313q25 -11 59 -11z" />
    <glyph glyph-name="ugrave" unicode="&#xf9;" 
d="M67 195l58 301h80l-59 -304q-4 -20 -4 -39q0 -46 26.5 -71.5t76.5 -25.5q58 0 110.5 51t66.5 125l51 264h80l-96 -496h-80l15 81q-67 -95 -180 -95q-69 0 -111 39.5t-42 102.5q0 27 8 67zM364 700l37 -138h-69l-73 138h105z" />
    <glyph glyph-name="uacute" unicode="&#xfa;" 
d="M67 195l58 301h80l-59 -304q-4 -20 -4 -39q0 -46 26.5 -71.5t76.5 -25.5q58 0 110.5 51t66.5 125l51 264h80l-96 -496h-80l15 81q-67 -95 -180 -95q-69 0 -111 39.5t-42 102.5q0 27 8 67zM301 562l88 138h110l-127 -138h-71z" />
    <glyph glyph-name="ucircumflex" unicode="&#xfb;" 
d="M67 195l58 301h80l-59 -304q-4 -20 -4 -39q0 -46 26.5 -71.5t76.5 -25.5q58 0 110.5 51t66.5 125l51 264h80l-96 -496h-80l15 81q-67 -95 -180 -95q-69 0 -111 39.5t-42 102.5q0 27 8 67zM219 562l127 138h68l73 -138h-66l-53 68l-79 -68h-70z" />
    <glyph glyph-name="udieresis" unicode="&#xfc;" 
d="M67 195l58 301h80l-59 -304q-4 -20 -4 -39q0 -46 26.5 -71.5t76.5 -25.5q58 0 110.5 51t66.5 125l51 264h80l-96 -496h-80l15 81q-67 -95 -180 -95q-69 0 -111 39.5t-42 102.5q0 27 8 67zM397 586l19 94h94l-19 -94h-94zM221 586l19 94h94l-19 -94h-94z" />
    <glyph glyph-name="yacute" unicode="&#xfd;" 
d="M149 -97l55 95l-113 498h86l85 -398l231 398h92l-367 -616q-29 -50 -64 -70t-83 -20q-43 0 -78 22l31 65q28 -19 59 -19q40 0 66 45zM289 562l88 138h110l-127 -138h-71z" />
    <glyph glyph-name="thorn" unicode="&#xfe;" 
d="M-34 -204l175 904h80l-55 -285q31 44 82 69.5t107 25.5q87 0 139.5 -59t52.5 -158q0 -123 -80 -215t-206 -92q-52 0 -96 26t-64 68l-55 -284h-80zM321 438q-83 0 -140.5 -69t-57.5 -160q0 -71 43 -111t108 -40q80 0 134.5 67t54.5 155q0 73 -39 115.5t-103 42.5z" />
    <glyph glyph-name="ydieresis" unicode="&#xff;" 
d="M149 -97l55 95l-113 498h86l85 -398l231 398h92l-367 -616q-29 -50 -64 -70t-83 -20q-43 0 -78 22l31 65q28 -19 59 -19q40 0 66 45zM388 586l19 94h94l-19 -94h-94zM212 586l19 94h94l-19 -94h-94z" />
    <glyph glyph-name="dotlessi" unicode="&#x131;" 
d="M142 432l12 64h225l-84 -432h170l-12 -64h-420l12 64h170l71 368h-144z" />
    <glyph glyph-name="Lslash" unicode="&#x141;" 
d="M6 157l18 89l92 52l79 402h84l-68 -349l148 84l-19 -89l-146 -83l-37 -189h354l-15 -74h-438l41 209z" />
    <glyph glyph-name="lslash" unicode="&#x142;" 
d="M162 636l13 64h245l-61 -308l118 66l-16 -82l-118 -66l-48 -246h179l-13 -64h-436l13 64h177l39 195l-117 -65l16 82l117 66l57 294h-165z" />
    <glyph glyph-name="OE" unicode="&#x152;" 
d="M245 0q-96 0 -154.5 69t-58.5 198q0 55 11.5 112.5t38.5 115.5t66 103t98.5 73.5t131.5 28.5h278l-15 -74h-194l-44 -227h180l-14 -74h-180l-49 -251h196l-15 -74h-276zM363 626q-61 -2 -110 -37.5t-77.5 -90.5t-43 -115t-14.5 -119q0 -91 37.5 -139.5t100.5 -50.5z" />
    <glyph glyph-name="oe" unicode="&#x153;" 
d="M537 230h-211l-34 -172q96 11 158 110l57 -36q-82 -146 -257 -146q-86 0 -147.5 60.5t-61.5 155.5q0 127 81 217.5t212 90.5q105 0 159 -53.5t54 -143.5q0 -30 -6 -63zM122 210q0 -58 26.5 -97.5t72.5 -52.5l73 378q-75 -14 -123.5 -78t-48.5 -150zM471 311q0 50 -29 83
t-76 42l-28 -142h132q1 6 1 17z" />
    <glyph glyph-name="Scaron" unicode="&#x160;" 
d="M350 642q-66 0 -112 -33t-46 -90q0 -50 38.5 -79.5t121.5 -46.5q90 -18 136.5 -58.5t46.5 -113.5q0 -106 -75 -170.5t-201 -64.5q-102 0 -162.5 58t-73.5 142l74 34q34 -160 170 -160q83 0 132.5 41.5t49.5 104.5q0 54 -34.5 80t-115.5 41q-86 16 -137 65.5t-51 119.5
q0 87 67 144.5t180 57.5q92 0 150 -43t77 -116l-71 -39q-40 126 -164 126zM531 904l-127 -138h-68l-73 138h66l53 -68l79 68h70z" />
    <glyph glyph-name="scaron" unicode="&#x161;" 
d="M306 446q-47 0 -81 -19.5t-34 -60.5q0 -32 30 -51.5t98 -28.5q155 -20 155 -125q0 -80 -62 -127.5t-159 -47.5q-81 0 -133.5 43t-70.5 107l71 38q11 -53 45.5 -86.5t92.5 -33.5q59 0 97.5 23.5t38.5 70.5q0 35 -29 53.5t-94 26.5q-65 9 -109.5 44.5t-44.5 88.5
q0 67 54 108t142 41q72 0 123.5 -34t70.5 -97l-64 -32q-15 48 -51 73.5t-86 25.5zM491 700l-127 -138h-68l-73 138h66l53 -68l79 68h70z" />
    <glyph glyph-name="Ydieresis" unicode="&#x178;" 
d="M201 0l54 277l-142 423h83l98 -302q8 -25 12 -49l32 49l216 302h93l-308 -423l-54 -277h-84zM431 790l19 94h94l-19 -94h-94zM255 790l19 94h94l-19 -94h-94z" />
    <glyph glyph-name="Zcaron" unicode="&#x17d;" 
d="M131 626l15 74h456l-15 -74l-472 -552h382l-15 -74h-478l14 72l475 554h-362zM538 904l-127 -138h-68l-73 138h66l53 -68l79 68h70z" />
    <glyph glyph-name="zcaron" unicode="&#x17e;" 
d="M151 70h315l-14 -70h-412l14 70l369 356h-287l14 70h384l-14 -70zM505 700l-127 -138h-68l-73 138h66l53 -68l79 68h70z" />
    <glyph glyph-name="florin" unicode="&#x192;" 
d="M330 434l-95 -491q-14 -76 -62.5 -118.5t-125.5 -42.5q-57 0 -100 34l38 62q35 -28 74 -28q78 0 99 110l92 474h-147l12 62h147l15 77q16 85 70.5 131t133.5 46q60 0 106 -34l-33 -61q-35 27 -80 27q-96 0 -117 -110l-15 -76h193l-12 -62h-193z" />
    <glyph glyph-name="circumflex" unicode="&#x2c6;" 
d="M219 562l127 138h68l73 -138h-66l-53 68l-79 -68h-70z" />
    <glyph glyph-name="caron" unicode="&#x2c7;" 
d="M512 700l-127 -138h-68l-73 138h66l53 -68l79 68h70z" />
    <glyph glyph-name="breve" unicode="&#x2d8;" 
d="M414 672h64q-8 -49 -42.5 -76.5t-83.5 -27.5q-37 0 -61.5 23t-24.5 60q0 7 2 21h64q-1 -4 -1 -11q0 -15 9 -24t24 -9q18 0 32 12t18 32z" />
    <glyph glyph-name="dotaccent" unicode="&#x2d9;" 
d="M300 578l21 106h106l-21 -106h-106z" />
    <glyph glyph-name="ring" unicode="&#x2da;" 
d="M319 635q0 -20 13 -33.5t33 -13.5t33 13.5t13 33.5t-13 33.5t-33 13.5t-33 -13.5t-13 -33.5zM269 635q0 40 28 67.5t68 27.5t68 -27.5t28 -67.5t-27 -67.5t-69 -27.5t-69 27.5t-27 67.5z" />
    <glyph glyph-name="ogonek" unicode="&#x2db;" 
d="M157 -115q0 42 28 74t74 50l63 -9q-34 -15 -61 -39.5t-27 -51.5q0 -36 41 -36q8 0 20 2l-4 -67q-19 -6 -45 -6q-39 0 -64 23.5t-25 59.5z" />
    <glyph glyph-name="tilde" unicode="&#x2dc;" 
d="M289 628q-15 0 -24 -10t-9 -23q0 -11 5 -19l-63 -12q-8 15 -8 33q0 38 26.5 65t75.5 27q28 0 50 -10.5t33 -23t26 -23t30 -10.5q33 0 33 33q0 11 -4 20l63 12q7 -20 7 -38q0 -40 -27 -64t-70 -24q-31 0 -53.5 10.5t-33 23t-25.5 23t-32 10.5z" />
    <glyph glyph-name="hungarumlaut" unicode="&#x2dd;" 
d="M196 562l88 138h110l-127 -138h-71zM352 562l88 138h110l-127 -138h-71z" />
    <glyph glyph-name="pi" unicode="&#x3c0;" 
d="M239 434l-84 -434h-80l84 434h-103l12 62h539l-12 -62h-103l-62 -317q-2 -12 -2 -16q0 -47 49 -47q15 0 35 6l-5 -65q-24 -9 -58 -9q-44 0 -72.5 26.5t-28.5 76.5q0 20 4 37l60 308h-173z" />
    <glyph glyph-name="endash" unicode="&#x2013;" 
d="M76 280l13 62h442l-13 -62h-442z" />
    <glyph glyph-name="emdash" unicode="&#x2014;" 
d="M34 280l13 62h526l-13 -62h-526z" />
    <glyph glyph-name="quoteleft" unicode="&#x2018;" 
d="M436 707l18 -19l-90 -119h44l-24 -120h-118l24 120z" />
    <glyph glyph-name="quoteright" unicode="&#x2019;" 
d="M264 442l-18 19l90 119h-44l24 120h118l-24 -120z" />
    <glyph glyph-name="quotesinglbase" unicode="&#x201a;" 
d="M162 -138l-18 19l90 119h-44l24 120h118l-24 -120z" />
    <glyph glyph-name="quotedblleft" unicode="&#x201c;" 
d="M345 707l18 -19l-90 -119h44l-24 -120h-118l24 120zM514 707l18 -19l-90 -119h44l-24 -120h-118l24 120z" />
    <glyph glyph-name="quotedblright" unicode="&#x201d;" 
d="M351 442l-18 19l90 119h-44l24 120h118l-24 -120zM182 442l-18 19l90 119h-44l24 120h118l-24 -120z" />
    <glyph glyph-name="quotedblbase" unicode="&#x201e;" 
d="M244 -138l-18 19l90 119h-44l24 120h118l-24 -120zM75 -138l-18 19l90 119h-44l24 120h118l-24 -120z" />
    <glyph glyph-name="dagger" unicode="&#x2020;" 
d="M115 428l14 68h169l48 244h80l-48 -244h171l-14 -68h-170l-104 -538h-80l104 538h-170z" />
    <glyph glyph-name="daggerdbl" unicode="&#x2021;" 
d="M115 428l14 68h169l48 244h80l-48 -244h171l-14 -68h-170l-44 -226h171l-14 -68h-170l-47 -244h-80l47 244h-170l14 68h169l44 226h-170z" />
    <glyph glyph-name="bullet" unicode="&#x2022;" 
d="M182 275q0 45 32 77t77 32t77 -32t32 -77t-32 -77t-77 -32t-77 32t-32 77z" />
    <glyph glyph-name="ellipsis" unicode="&#x2026;" 
d="M-18 0l25 124h122l-25 -124h-122zM182 0l25 124h122l-25 -124h-122zM382 0l25 124h122l-25 -124h-122z" />
    <glyph glyph-name="perthousand" unicode="&#x2030;" 
d="M55 116q0 63 43.5 111.5t122.5 48.5q73 0 110 -51q46 51 124 51q60 0 96.5 -35.5t36.5 -90.5q0 -74 -46.5 -119t-119.5 -45q-69 0 -108 52q-46 -52 -126 -52q-54 0 -93.5 36.5t-39.5 93.5zM30 554q0 63 43.5 111.5t122.5 48.5q60 0 96.5 -35.5t36.5 -90.5
q0 -74 -46.5 -119t-119.5 -45q-54 0 -93.5 36.5t-39.5 93.5zM190 652q-43 0 -69.5 -28t-26.5 -66q0 -33 20.5 -52.5t56.5 -19.5q41 0 67.5 26t26.5 69q0 32 -21.5 51.5t-53.5 19.5zM215 214q-43 0 -69.5 -28t-26.5 -66q0 -33 20.5 -52.5t56.5 -19.5q41 0 67.5 26t26.5 69
q0 32 -21.5 51.5t-53.5 19.5zM449 214q-43 0 -69.5 -28t-26.5 -66q0 -33 20.5 -52.5t56.5 -19.5q41 0 67.5 26t26.5 69q0 32 -21.5 51.5t-53.5 19.5zM15 263l-16 55l522 169l16 -56z" />
    <glyph glyph-name="guilsinglleft" unicode="&#x2039;" 
d="M364 474h101l-213 -205l128 -193h-93l-131 199z" />
    <glyph glyph-name="guilsinglright" unicode="&#x203a;" 
d="M228 76h-101l213 205l-128 193h93l131 -199z" />
    <glyph glyph-name="fraction" unicode="&#x2044;" 
d="M81 172l-34 48l475 305l33 -47z" />
    <glyph glyph-name="Euro" unicode="&#x20ac;" 
d="M503 219l63 -29q-36 -91 -102 -147.5t-158 -56.5q-105 0 -163.5 70.5t-64.5 187.5h-80l39 62h41q3 45 13 88h-64l39 62h43q40 112 118.5 185t190.5 73q94 0 147 -50.5t65 -130.5l-74 -31q-28 138 -145 138q-79 0 -133.5 -51t-84.5 -133h293l-40 -62h-271q-10 -41 -13 -88
h295l-40 -62h-255q5 -87 43.5 -135.5t108.5 -48.5q123 0 189 159z" />
    <glyph glyph-name="trademark" unicode="&#x2122;" 
d="M72 650l9 50h236l-9 -50h-89l-68 -350h-58l68 350h-89zM267 300l77 400h66l19 -344l143 344h72l-77 -400h-52l55 284l-121 -284h-58l-17 284l-55 -284h-52z" />
    <glyph glyph-name="Omega" unicode="&#x2126;" 
d="M497 74l-14 -74h-208l17 88q100 69 161.5 165.5t61.5 207.5q0 87 -41.5 133t-117.5 46q-56 0 -102.5 -28.5t-75 -73.5t-44 -96t-15.5 -101q0 -165 99 -253l-17 -88h-207l14 74h125q-98 120 -98 275q0 89 38 171t116 138t178 56q106 0 171.5 -64t65.5 -179
q0 -222 -229 -397h122z" />
    <glyph glyph-name="arrowleft" unicode="&#x2190;" 
d="M282 153l-54 -44l-162 202l241 202l40 -48l-147 -123h325l-13 -62h-332z" />
    <glyph glyph-name="arrowup" unicode="&#x2191;" 
d="M152 344l-39 51l242 202l162 -202l-53 -44l-98 120l-63 -327h-64l63 326z" />
    <glyph glyph-name="arrowright" unicode="&#x2192;" 
d="M324 469l54 44l162 -202l-241 -202l-40 48l146 123h-324l13 62h331z" />
    <glyph glyph-name="arrowdown" unicode="&#x2193;" 
d="M473 397l39 -51l-242 -202l-162 202l53 44l98 -120l63 327h64l-63 -326z" />
    <glyph glyph-name="arrowboth" unicode="&#x2194;" 
d="M371 469l54 44l162 -202l-241 -202l-40 48l146 123h-319l102 -127l-54 -44l-162 202l241 202l40 -48l-147 -123h319z" />
    <glyph glyph-name="arrowupdn" unicode="&#x2195;" 
d="M456 319l39 -51l-242 -202l-162 202l53 44l98 -120l63 315l-150 -126l-39 51l242 202l162 -202l-53 -44l-98 120l-63 -315z" />
    <glyph glyph-name="uni2196" unicode="&#x2196;" 
d="M168 185h-68l56 286h286l-13 -66h-176l188 -232l-53 -44l-186 230z" />
    <glyph glyph-name="uni2197" unicode="&#x2197;" 
d="M458 185h-68l33 170l-274 -228l-38 47l276 231h-172l13 66h286z" />
    <glyph glyph-name="uni2198" unicode="&#x2198;" 
d="M434 415h68l-56 -286h-286l13 66h176l-188 232l53 44l186 -230z" />
    <glyph glyph-name="uni2199" unicode="&#x2199;" 
d="M144 415h68l-33 -170l274 228l38 -47l-276 -231h172l-13 -66h-286z" />
    <glyph glyph-name="partialdiff" unicode="&#x2202;" 
d="M556 414q0 -86 -17 -160.5t-52 -135.5t-95 -96.5t-139 -35.5q-87 0 -148 55.5t-61 151.5q0 110 72 189.5t194 79.5q112 0 163 -83q3 28 3 60q0 205 -146 205q-44 0 -78 -21t-34 -60q0 -9 1 -13l-72 -28q-9 22 -9 45q0 62 57.5 104.5t140.5 42.5q117 0 168.5 -76
t51.5 -224zM260 56q83 0 134.5 59t51.5 142q0 68 -37 101.5t-95 33.5q-88 0 -137.5 -57t-49.5 -140q0 -67 38.5 -103t94.5 -36z" />
    <glyph glyph-name="Delta" unicode="&#x2206;" 
d="M531 0h-577l380 700h86zM333 549l-257 -479h365l-70 479q-5 38 -8 58z" />
    <glyph glyph-name="product" unicode="&#x220f;" 
d="M-17 -204l174 904h442l-175 -904h-84l161 830h-274l-161 -830h-83z" />
    <glyph glyph-name="summation" unicode="&#x2211;" 
d="M274 290l-147 336l14 74h465l-14 -74h-376l150 -347l-279 -325h386l-14 -74h-484l14 74z" />
    <glyph glyph-name="minus" unicode="&#x2212;" 
d="M88 334l13 62h442l-13 -62h-442z" />
    <glyph glyph-name="radical" unicode="&#x221a;" 
d="M255 0h-78l-26 294h-98l12 62h157l19 -225l290 569h81z" />
    <glyph glyph-name="infinity" unicode="&#x221e;" 
d="M24 274q0 70 40 127.5t115 57.5q45 0 74.5 -25.5t52.5 -74.5q81 100 154 100q52 0 84.5 -37.5t32.5 -97.5q0 -76 -39.5 -129.5t-115.5 -53.5q-77 0 -127 99q-80 -99 -157 -99q-50 0 -82 37t-32 96zM452 391q-28 0 -54 -24.5t-62 -72.5q19 -42 37.5 -63.5t46.5 -21.5
q38 0 62.5 33.5t24.5 76.5q0 72 -55 72zM184 391q-41 0 -65 -31.5t-24 -77.5q0 -73 54 -73q19 0 40.5 15.5t35.5 32t40 49.5q-20 42 -38 63.5t-43 21.5z" />
    <glyph glyph-name="integral" unicode="&#x222b;" 
d="M357 572l-122 -629q-14 -76 -62.5 -118.5t-125.5 -42.5q-57 0 -100 34l38 62q35 -28 74 -28q78 0 99 110l119 613q16 85 70.5 131t133.5 46q60 0 106 -34l-33 -61q-35 27 -80 27q-96 0 -117 -110z" />
    <glyph glyph-name="approxequal" unicode="&#x2248;" 
d="M257 440q-17 0 -29 -11.5t-12 -29.5q0 -9 3 -17l-68 -12q-5 12 -5 31q0 45 33 75.5t82 30.5q31 0 57.5 -10.5t41 -23t32 -23t33.5 -10.5q17 0 28.5 11t11.5 29q0 10 -3 18l68 12q4 -12 4 -31q0 -46 -33 -76t-83 -30q-30 0 -56 10.5t-40 23t-31.5 23t-33.5 10.5zM212 256
q-17 0 -29 -11.5t-12 -29.5q0 -9 3 -17l-68 -12q-5 12 -5 31q0 45 33 75.5t82 30.5q31 0 57.5 -10.5t41 -23t32 -23t33.5 -10.5q17 0 28.5 11t11.5 29q0 10 -3 18l68 12q4 -12 4 -31q0 -46 -33 -76t-83 -30q-30 0 -56 10.5t-40 23t-31.5 23t-33.5 10.5z" />
    <glyph glyph-name="notequal" unicode="&#x2260;" 
d="M551 414h-143l-101 -128h219l-12 -62h-255l-120 -152l-49 38l89 114h-107l12 62h143l101 128h-219l12 62h256l120 152l49 -38l-89 -114h106z" />
    <glyph glyph-name="lessequal" unicode="&#x2264;" 
d="M23 0l13 62h442l-13 -62h-442zM117 364l15 76l432 201l-17 -83l-349 -160l287 -162l-14 -73z" />
    <glyph glyph-name="greaterequal" unicode="&#x2265;" 
d="M23 0l13 62h442l-13 -62h-442zM532 440l-15 -76l-432 -201l17 83l349 160l-287 162l14 73z" />
    <glyph glyph-name="lozenge" unicode="&#x25ca;" 
d="M569 350l-284 -350h-86l-146 350l283 350h86zM251 66l232 290l-113 276l-231 -289z" />
    <glyph glyph-name="apple" unicode="&#xf8ff;" 
d="M597 617v-595q0 -9 -6.5 -15.5t-15.5 -6.5q-3 0 -7 1l-267 77l-267 -77q-4 -1 -7 -1q-9 0 -15.5 6.5t-6.5 15.5v595q0 17 16 22l270 78q6 2 10 2t10 -2l270 -78q16 -5 16 -22zM279 366v303l-230 -67q6 -94 71.5 -161t158.5 -75zM323 669v-303q93 8 158.5 75t71.5 161z
M48 463v-412l231 67v204q-73 6 -134 43.5t-97 97.5zM554 51v412q-37 -60 -97.5 -97.5t-133.5 -43.5v-204z" />
    <glyph glyph-name="f_j" 
d="M468 434h-244l-84 -434h-80l84 434h-76l12 62h76l20 103q14 73 65 112t117 39q52 0 94 -30l-35 -60q-30 22 -67 22q-78 0 -97 -99l-17 -87h324l-106 -544q-32 -163 -190 -163q-61 0 -101 32t-40 77q0 34 17 59l63 -26q-6 -12 -6 -25q0 -20 19.5 -33.5t50.5 -13.5
q45 0 71.5 21.5t36.5 73.5zM483 578l20 106h106l-20 -106h-106z" />
  </font>
</defs>
</svg>
