<?xml version="1.0" standalone="no"?>
<!DOCTYPE svg PUBLIC "-//W3C//DTD SVG 1.1//EN" "http://www.w3.org/Graphics/SVG/1.1/DTD/svg11.dtd" >
<svg xmlns="http://www.w3.org/2000/svg" xmlns:xlink="http://www.w3.org/1999/xlink" version="1.1">
<metadata>
Created by FontForge 20170731 at Sun Nov  6 18:39:55 2016
 By Aleksey,,,
Copyright (c) 2015 by Colophon Foundry. All rights reserved.
</metadata>
<defs>
<font id="BasisGrotesque-LightItalic" horiz-adv-x="770" >
  <font-face 
    font-family="Basis Grotesque Light"
    font-weight="300"
    font-style="italic"
    font-stretch="normal"
    units-per-em="1000"
    panose-1="2 0 5 3 4 0 0 9 0 4"
    ascent="800"
    descent="-200"
    x-height="496"
    cap-height="700"
    bbox="-120 -218 1141 934"
    underline-thickness="50"
    underline-position="-200"
    slope="-11"
    unicode-range="U+000D-FB04"
  />
<missing-glyph horiz-adv-x="500" 
 />
    <glyph glyph-name="ff" unicode="ff" horiz-adv-x="559" 
d="M190 452l-87 -452h-60l87 452h-78l9 44h78l22 113q27 141 164 141q22 0 38 -6l-9 -50q-17 6 -39 6q-34 0 -60 -23.5t-35 -72.5l-21 -108h194l22 113q27 141 164 141q22 0 38 -6l-9 -50q-17 6 -39 6q-34 0 -60 -23.5t-35 -72.5l-21 -108h117l-9 -44h-117l-87 -452h-60
l87 452h-194z" />
    <glyph glyph-name="fi" unicode="fi" horiz-adv-x="512" 
d="M318 0l88 452h-216l-87 -452h-60l87 452h-78l9 44h78l22 113q27 141 164 141q22 0 38 -6l-9 -50q-17 6 -39 6q-34 0 -60 -23.5t-35 -72.5l-21 -108h276l-97 -496h-60zM425 590l16 80h76l-16 -80h-76z" />
    <glyph glyph-name="fl" unicode="fl" horiz-adv-x="511" 
d="M52 452l9 44h78l22 113q27 141 164 141q22 0 38 -6l-9 -50q-17 6 -39 6q-34 0 -60 -23.5t-35 -72.5l-21 -108h117l-9 -44h-117l-87 -452h-60l87 452h-78zM317 0l137 700h60l-137 -700h-60z" />
    <glyph glyph-name="f_f_i" unicode="ffi" horiz-adv-x="785" 
d="M190 452l-87 -452h-60l87 452h-78l9 44h78l22 113q27 141 164 141q22 0 38 -6l-9 -50q-17 6 -39 6q-34 0 -60 -23.5t-35 -72.5l-21 -108h194l22 113q27 141 164 141q22 0 38 -6l-9 -50q-17 6 -39 6q-34 0 -60 -23.5t-35 -72.5l-21 -108h295l-97 -496h-60l88 452h-235
l-87 -452h-60l87 452h-194zM698 590l16 80h76l-16 -80h-76z" />
    <glyph glyph-name="f_f_l" unicode="ffl" horiz-adv-x="785" 
d="M591 0l137 700h60l-137 -700h-60zM190 452l-87 -452h-60l87 452h-78l9 44h78l22 113q27 141 164 141q22 0 38 -6l-9 -50q-17 6 -39 6q-34 0 -60 -23.5t-35 -72.5l-21 -108h194l22 113q27 141 164 141q22 0 38 -6l-9 -50q-17 6 -39 6q-34 0 -60 -23.5t-35 -72.5l-21 -108
h117l-9 -44h-117l-87 -452h-60l87 452h-194z" />
    <glyph glyph-name="f_j" unicode="fj" horiz-adv-x="512" 
d="M181 -203l15 52q18 -8 37 -8q55 0 68 69l105 542h-216l-87 -452h-60l87 452h-78l9 44h78l22 113q27 141 164 141q22 0 38 -6l-9 -50q-17 6 -39 6q-34 0 -60 -23.5t-35 -72.5l-21 -108h276l-114 -590q-22 -117 -131 -117q-27 0 -49 8zM425 590l16 80h76l-16 -80h-76z" />
    <glyph glyph-name="f_f_j" unicode="ffj" horiz-adv-x="788" 
d="M190 452l-87 -452h-60l87 452h-78l9 44h78l22 113q27 141 164 141q22 0 38 -6l-9 -50q-17 6 -39 6q-34 0 -60 -23.5t-35 -72.5l-21 -108h194l22 113q27 141 164 141q22 0 38 -6l-9 -50q-17 6 -39 6q-34 0 -60 -23.5t-35 -72.5l-21 -108h298l-114 -590q-22 -117 -131 -117
q-27 0 -49 8l15 52q18 -8 37 -8q55 0 68 69l105 542h-238l-87 -452h-60l87 452h-194zM701 590l16 80h76l-16 -80h-76z" />
    <glyph glyph-name=".notdef" horiz-adv-x="500" 
 />
    <glyph glyph-name=".null" horiz-adv-x="0" 
 />
    <glyph glyph-name="nonmarkingreturn" horiz-adv-x="333" 
 />
    <glyph glyph-name="NULL" horiz-adv-x="0" 
 />
    <glyph glyph-name="NULL" horiz-adv-x="0" 
 />
    <glyph glyph-name="CR" unicode="&#xd;" horiz-adv-x="289" 
 />
    <glyph glyph-name="space" unicode=" " horiz-adv-x="276" 
 />
    <glyph glyph-name="exclam" unicode="!" horiz-adv-x="258" 
d="M136 487l42 213h60l-42 -213l-72 -315h-38zM30 0l17 84h82l-17 -84h-82z" />
    <glyph glyph-name="quotedbl" unicode="&#x22;" horiz-adv-x="308" 
d="M251 652l10 48h64l-10 -48l-42 -149h-38zM131 652l10 48h64l-10 -48l-42 -149h-38z" />
    <glyph glyph-name="numbersign" unicode="#" horiz-adv-x="659" 
d="M356 0l43 232h-178l-43 -232h-56l43 232h-111v42h119l28 152h-127v42h135l43 232h56l-43 -232h178l43 232h56l-43 -232h111v-42h-119l-28 -152h127v-42h-135l-43 -232h-56zM257 426l-28 -152h178l28 152h-178z" />
    <glyph glyph-name="dollar" unicode="$" horiz-adv-x="640" 
d="M217 -100l17 91q-86 14 -135 73.5t-56 137.5l54 27q6 -72 43 -121t105 -62l58 298q-86 24 -125.5 67.5t-39.5 108.5q0 87 68 139.5t169 54.5l17 86h60l-18 -91q64 -12 108.5 -52t61.5 -108l-50 -30q-30 114 -130 137l-53 -273q169 -43 169 -169q0 -96 -67.5 -161
t-179.5 -67l-16 -86h-60zM480 201q0 52 -28 79t-92 48l-56 -286q76 4 126 48t50 111zM198 527q0 -47 26 -78t90 -51l51 264q-69 -2 -118 -38t-49 -97z" />
    <glyph glyph-name="percent" unicode="%" horiz-adv-x="885" 
d="M102 519q0 82 55 138.5t138 56.5q72 0 111.5 -42t39.5 -111q0 -80 -54.5 -138.5t-139.5 -58.5q-63 0 -106.5 44.5t-43.5 110.5zM289 664q-55 0 -94 -42t-39 -101q0 -49 29 -78t75 -29q55 0 93.5 42t38.5 99q0 52 -27.5 80.5t-75.5 28.5zM470 141q0 82 55 138.5t138 56.5
q72 0 111.5 -42t39.5 -111q0 -80 -54.5 -138.5t-139.5 -58.5q-63 0 -106.5 44.5t-43.5 110.5zM657 286q-55 0 -94 -42t-39 -101q0 -49 29 -78t75 -29q55 0 93.5 42t38.5 99q0 52 -27.5 80.5t-75.5 28.5zM193 4l-36 33l563 661l36 -33z" />
    <glyph glyph-name="ampersand" unicode="&#x26;" horiz-adv-x="630" 
d="M569 291q-33 -115 -87 -187l65 -104h-69l-36 59q-81 -73 -193 -73q-85 0 -139 57.5t-54 141.5q0 154 170 228q-29 60 -29 121q0 74 46.5 127t124.5 53q58 0 96.5 -33t38.5 -93q0 -69 -48 -114.5t-150 -83.5l149 -240q43 65 73 167zM258 36q92 0 157 67l-164 268
q-137 -56 -137 -183q0 -67 41 -109.5t103 -42.5zM255 537q0 -59 24 -104q91 33 128.5 64t37.5 85q0 34 -22 58t-59 24q-50 0 -79.5 -38.5t-29.5 -88.5z" />
    <glyph glyph-name="quotesingle" unicode="'" horiz-adv-x="188" 
d="M131 652l10 48h64l-10 -48l-42 -149h-38z" />
    <glyph glyph-name="parenleft" unicode="(" horiz-adv-x="326" 
d="M151 -148h-54q-40 120 -40 282q0 164 59.5 312.5t146.5 253.5h54q-81 -110 -140.5 -262.5t-59.5 -311.5q0 -133 34 -274z" />
    <glyph glyph-name="parenright" unicode=")" horiz-adv-x="326" 
d="M165 700h54q40 -120 40 -282q0 -164 -59.5 -312.5t-146.5 -253.5h-54q81 110 140.5 262.5t59.5 311.5q0 133 -34 274z" />
    <glyph glyph-name="asterisk" unicode="*" horiz-adv-x="394" 
d="M308 700l-36 -110l101 67l25 -61l-113 -40l93 -43l-40 -60l-79 69l-6 -110h-67l35 110l-94 -66l-32 57l114 43l-90 39l36 62l79 -67l6 110h68z" />
    <glyph glyph-name="plus" unicode="+" horiz-adv-x="487" 
d="M58 342l9 46h171l34 172h48l-34 -172h172l-9 -46h-172l-34 -173h-48l34 173h-171z" />
    <glyph glyph-name="comma" unicode="," horiz-adv-x="177" 
d="M-10 0l16 82h80l-16 -82l-85 -115l-14 10l53 105h-34z" />
    <glyph glyph-name="hyphen" unicode="-" horiz-adv-x="446" 
d="M46 288l9 46h350l-9 -46h-350z" />
    <glyph glyph-name="period" unicode="." horiz-adv-x="176" 
d="M-10 0l15 82h80l-15 -82h-80z" />
    <glyph glyph-name="slash" unicode="/" horiz-adv-x="474" 
d="M-60 -30l546 760h65l-546 -760h-65z" />
    <glyph glyph-name="zero" unicode="0" horiz-adv-x="706" 
d="M665 417q0 -115 -37.5 -211t-117.5 -158t-189 -62q-118 0 -193 83t-75 215q0 112 41.5 209.5t121.5 159t181 61.5q127 0 197.5 -79t70.5 -218zM322 38q88 0 153.5 52.5t97.5 135t32 181.5q0 118 -57 186.5t-155 68.5q-123 0 -201.5 -115t-78.5 -263q0 -114 58.5 -180
t150.5 -66z" />
    <glyph glyph-name="one" unicode="1" horiz-adv-x="344" 
d="M106 560l10 52q109 0 171 88h52l-137 -700h-58l120 616q-31 -31 -66 -43.5t-92 -12.5z" />
    <glyph glyph-name="two" unicode="2" horiz-adv-x="574" 
d="M13 41l322 269q129 108 129 214q0 64 -39 101t-104 37q-71 0 -115.5 -45t-44.5 -115q0 -24 5 -39l-58 -9q-7 19 -7 55q0 91 64 148t167 57q86 0 139 -50.5t53 -139.5q0 -126 -149 -251l-254 -213h335l-12 -60h-439z" />
    <glyph glyph-name="three" unicode="3" horiz-adv-x="575" 
d="M78 234l53 -13q-6 -19 -6 -47q0 -58 39.5 -97t110.5 -39q76 0 125.5 48.5t49.5 123.5q0 71 -49.5 104.5t-130.5 33.5l11 56q85 1 137.5 38.5t52.5 110.5q0 46 -35.5 77.5t-97.5 31.5q-61 0 -103.5 -40t-42.5 -97q0 -12 1 -21l-59 -9q-2 12 -2 26q0 81 59 137t153 56
q87 0 136 -44.5t49 -116.5q0 -58 -37 -106t-105 -68q53 -17 88 -56.5t35 -104.5q0 -102 -63 -167t-172 -65q-95 0 -152.5 54t-57.5 133q0 38 13 61z" />
    <glyph glyph-name="four" unicode="4" horiz-adv-x="565" 
d="M27 150l10 52l425 498h60l-97 -498h80l-10 -52h-80l-30 -150h-60l30 150h-328zM440 590l-336 -388h261z" />
    <glyph glyph-name="five" unicode="5" horiz-adv-x="584" 
d="M70 323l108 377h389l-10 -52h-336l-81 -267q35 45 87 71t103 26q87 0 140.5 -55.5t53.5 -150.5q0 -123 -73.5 -204.5t-192.5 -81.5q-87 0 -145.5 50.5t-58.5 128.5q0 34 11 59l55 -12q-6 -18 -6 -43q0 -60 40 -95.5t111 -35.5q88 0 143.5 62.5t55.5 168.5
q0 74 -43.5 114.5t-110.5 40.5q-59 0 -107.5 -35t-74.5 -82z" />
    <glyph glyph-name="six" unicode="6" horiz-adv-x="596" 
d="M549 500l-54 13q10 23 10 48q0 47 -34.5 74t-90.5 27q-90 0 -162 -88.5t-93 -234.5q24 50 84 84.5t121 34.5q87 0 146.5 -58t59.5 -146q0 -116 -71 -192t-177 -76q-103 0 -166.5 73t-63.5 200q0 58 13 120t40.5 122t65.5 107.5t92.5 76.5t117.5 29q77 0 126.5 -41.5
t49.5 -109.5q0 -29 -14 -63zM312 406q-79 0 -132.5 -59.5t-53.5 -139.5q0 -65 45.5 -117t121.5 -52q77 0 130 58t53 145q0 70 -47.5 117.5t-116.5 47.5z" />
    <glyph glyph-name="seven" unicode="7" horiz-adv-x="531" 
d="M555 654l-417 -654h-66l416 648h-378l11 52h443z" />
    <glyph glyph-name="eight" unicode="8" horiz-adv-x="564" 
d="M255 -14q-87 0 -146.5 53.5t-59.5 141.5q0 69 43 124.5t112 79.5q-32 20 -54 55t-22 81q0 77 59.5 135t151.5 58q87 0 140 -46.5t53 -117.5q0 -65 -36 -112.5t-95 -70.5q97 -50 97 -152q0 -106 -70 -167.5t-173 -61.5zM262 38q72 0 124 46t52 125q0 62 -43 100.5
t-110 38.5q-79 0 -127.5 -49t-48.5 -125q0 -59 43.5 -97.5t109.5 -38.5zM338 664q-64 0 -108 -42t-44 -101q0 -58 36 -91.5t92 -33.5q71 0 115.5 40t44.5 107q0 56 -39 88.5t-97 32.5z" />
    <glyph glyph-name="nine" unicode="9" horiz-adv-x="607" 
d="M81 198l54 -13q-7 -23 -7 -43q0 -47 35 -74.5t89 -27.5q95 0 161.5 85t91.5 240q-31 -55 -86.5 -89t-116.5 -34q-93 0 -156.5 59.5t-63.5 158.5q0 111 73 182.5t176 71.5q110 0 172 -72t62 -201q0 -78 -18.5 -155t-54 -146t-97.5 -111.5t-141 -42.5q-80 0 -132 41.5
t-52 109.5q0 28 11 61zM309 294q81 0 132 59.5t51 139.5q0 72 -43 120.5t-116 48.5q-82 0 -136.5 -57.5t-54.5 -138.5q0 -85 48.5 -128.5t118.5 -43.5z" />
    <glyph glyph-name="colon" unicode=":" horiz-adv-x="176" 
d="M67 390l16 82h80l-16 -82h-80zM-8 0l16 82h80l-16 -82h-80z" />
    <glyph glyph-name="semicolon" unicode=";" horiz-adv-x="176" 
d="M65 390l15 82h80l-15 -82h-80zM-11 0l16 82h80l-16 -82l-85 -115l-14 10l53 105h-34z" />
    <glyph glyph-name="less" unicode="&#x3c;" horiz-adv-x="498" 
d="M44 278l13 64l428 194l-10 -61l-375 -168l308 -168l-10 -55z" />
    <glyph glyph-name="equal" unicode="=" horiz-adv-x="487" 
d="M71 422l9 46h391l-9 -46h-391zM35 232l9 46h391l-9 -46h-391z" />
    <glyph glyph-name="greater" unicode="&#x3e;" horiz-adv-x="498" 
d="M459 342l-13 -64l-428 -194l10 61l375 168l-308 168l10 55z" />
    <glyph glyph-name="question" unicode="?" horiz-adv-x="525" 
d="M157 0l16 84h82l-16 -84h-82zM261 175h-60l2 13q10 62 33 95t89 80q39 28 62 49t43.5 56t20.5 73q0 58 -36 90.5t-95 32.5q-70 0 -113.5 -45t-43.5 -110q0 -18 3 -34l-55 -10q-6 20 -6 45q0 89 60 146.5t158 57.5q86 0 137 -47t51 -120q0 -65 -37.5 -116.5t-118.5 -109.5
q-44 -32 -64 -60t-30 -86z" />
    <glyph glyph-name="at" unicode="@" horiz-adv-x="938" 
d="M609 -44l20 -44q-102 -64 -223 -64q-96 0 -176.5 41.5t-132 126.5t-51.5 199q0 133 58.5 246.5t170 183t254.5 69.5q162 0 259.5 -91.5t97.5 -238.5q0 -142 -72 -249.5t-181 -107.5q-35 0 -56 21t-21 55q0 22 4 40q-26 -55 -74.5 -85.5t-105.5 -30.5q-67 0 -111 53.5
t-44 152.5q0 120 74 213.5t186 93.5q42 0 78.5 -24.5t47.5 -67.5l15 76h60l-76 -384q-2 -10 -2 -20q0 -41 39 -41q52 0 94.5 46t64.5 114t22 140q0 120 -80 200.5t-228 80.5q-115 0 -210.5 -60.5t-149.5 -161.5t-54 -217q0 -144 85 -232.5t213 -88.5q104 0 205 56zM394 79
q85 0 142.5 86.5t57.5 180.5q0 67 -31 103.5t-79 36.5q-87 0 -144 -79t-57 -173q0 -70 31 -112.5t80 -42.5z" />
    <glyph glyph-name="A" unicode="A" horiz-adv-x="636" 
d="M-52 0l415 700h67l141 -700h-60l-43 217h-326l-128 -217h-66zM458 267l-65 329q-2 11 -3.5 20.5t-2.5 14.5t-1 7q-11 -22 -23 -42l-193 -329h288z" />
    <glyph glyph-name="B" unicode="B" horiz-adv-x="625" 
d="M29 0l137 700h235q89 0 138.5 -41t49.5 -111q0 -62 -43.5 -110.5t-112.5 -64.5q47 -16 82 -55.5t35 -98.5q0 -101 -76.5 -160t-194.5 -59h-250zM157 346l-57 -294h165q103 0 164 43t61 127q0 124 -164 124h-169zM215 648l-48 -250h177q75 0 128.5 37.5t53.5 103.5
q0 109 -139 109h-172z" />
    <glyph glyph-name="C" unicode="C" horiz-adv-x="736" 
d="M607 199l42 -29q-112 -184 -306 -184q-133 0 -208.5 86t-75.5 224q0 108 49 203t142 155t209 60q96 0 162 -48t94 -131l-48 -29q-32 83 -86.5 119.5t-134.5 36.5q-139 0 -233 -111t-94 -253q0 -115 64 -187.5t166 -72.5q157 0 258 161z" />
    <glyph glyph-name="D" unicode="D" horiz-adv-x="671" 
d="M29 0l137 700h180q126 0 204 -74.5t78 -213.5q0 -181 -112 -296.5t-300 -115.5h-187zM214 52q168 2 261 102t93 258q0 122 -66 179t-179 57h-108l-115 -596h114z" />
    <glyph glyph-name="E" unicode="E" horiz-adv-x="573" 
d="M29 0l137 700h410l-11 -52h-350l-50 -260h322l-10 -52h-322l-55 -284h353l-11 -52h-413z" />
    <glyph glyph-name="F" unicode="F" horiz-adv-x="576" 
d="M29 0l137 700h424l-11 -52h-364l-54 -280h334l-10 -52h-334l-62 -316h-60z" />
    <glyph glyph-name="G" unicode="G" horiz-adv-x="751" 
d="M586 0v124q-49 -71 -110.5 -104.5t-146.5 -33.5q-123 0 -196.5 84.5t-73.5 213.5q0 185 113 307.5t286 122.5q195 0 263 -169l-47 -31q-58 148 -226 148q-140 0 -234.5 -110.5t-94.5 -265.5q0 -103 61.5 -175.5t159.5 -72.5q100 0 179 78t101 171h-258l10 52h320
l-66 -339h-40z" />
    <glyph glyph-name="H" unicode="H" horiz-adv-x="676" 
d="M33 0l137 700h60l-62 -317h371l62 317h60l-137 -700h-60l65 331h-371l-65 -331h-60z" />
    <glyph glyph-name="I" unicode="I" horiz-adv-x="236" 
d="M29 0l137 700h60l-137 -700h-60z" />
    <glyph glyph-name="J" unicode="J" horiz-adv-x="520" 
d="M532 700l-98 -505q-41 -209 -234 -209q-72 0 -122.5 45t-50.5 111q0 26 5 48l59 -6q-4 -17 -4 -36q0 -49 36.5 -79.5t85.5 -30.5q63 0 106 39t58 114l99 509h60z" />
    <glyph glyph-name="K" unicode="K" horiz-adv-x="593" 
d="M29 0l137 700h60l-65 -339l84 75l303 264h78l-290 -259l176 -441h-68l-158 399l-144 -125l-53 -274h-60z" />
    <glyph glyph-name="L" unicode="L" horiz-adv-x="555" 
d="M29 0l137 700h60l-126 -648h353l-11 -52h-413z" />
    <glyph glyph-name="M" unicode="M" horiz-adv-x="844" 
d="M32 0l137 700h66l137 -648l388 648h71l-137 -700h-58l114 586l-54 -90l-298 -496h-69l-106 498q-14 79 -17 97l-116 -595h-58z" />
    <glyph glyph-name="N" unicode="N" horiz-adv-x="684" 
d="M29 0l137 700h60l250 -562q17 -40 20 -55l120 617h58l-137 -700h-60l-250 562q-17 40 -20 55l-120 -617h-58z" />
    <glyph glyph-name="O" unicode="O" 
d="M728 404q0 -79 -24.5 -153t-70 -133.5t-119 -95.5t-163.5 -36q-131 0 -214.5 83.5t-83.5 225.5q0 106 45 200.5t134 156.5t202 62q136 0 215 -81.5t79 -228.5zM352 38q95 0 168.5 52.5t110.5 134t37 174.5q0 130 -64.5 196.5t-179.5 66.5q-89 0 -161.5 -54t-111 -136.5
t-38.5 -171.5q0 -120 68.5 -191t170.5 -71z" />
    <glyph glyph-name="P" unicode="P" horiz-adv-x="661" 
d="M29 0l137 700h255q106 0 161 -51t55 -142q0 -110 -75.5 -173.5t-200.5 -63.5h-219l-53 -270h-60zM215 648l-63 -326h211q102 0 158 50t56 136q0 68 -41 104t-120 36h-201z" />
    <glyph glyph-name="Q" unicode="Q" 
d="M728 404q0 -91 -30.5 -173t-94 -145.5t-151.5 -86.5q26 -51 60 -93l-49 -40q-46 56 -74 122q-26 -2 -38 -2q-131 0 -214.5 83.5t-83.5 225.5q0 106 45 200.5t134 156.5t202 62q136 0 215 -81.5t79 -228.5zM352 38q95 0 168.5 52.5t110.5 134t37 174.5q0 130 -64.5 196.5
t-179.5 66.5q-89 0 -161.5 -54t-111 -136.5t-38.5 -171.5q0 -120 68.5 -191t170.5 -71z" />
    <glyph glyph-name="R" unicode="R" horiz-adv-x="617" 
d="M450 0l-116 312h-183l-62 -312h-60l137 700h251q95 0 147 -46t52 -127q0 -86 -61.5 -144t-154.5 -69l114 -314h-64zM217 648l-56 -284h192q86 0 144.5 41.5t58.5 115.5q0 127 -148 127h-191z" />
    <glyph glyph-name="S" unicode="S" horiz-adv-x="640" 
d="M367 662q-71 0 -124 -36t-53 -99q0 -55 42.5 -88t131.5 -53q183 -40 183 -172q0 -101 -70.5 -164.5t-182.5 -63.5t-173.5 61.5t-72.5 154.5l58 29q6 -86 55 -139.5t136 -53.5q77 0 133.5 45t56.5 118q0 60 -38 88.5t-130 51.5q-95 24 -142 67t-47 112q0 89 69.5 141.5
t179.5 52.5q82 0 140 -42t80 -124l-51 -31q-40 145 -181 145z" />
    <glyph glyph-name="T" unicode="T" horiz-adv-x="534" 
d="M89 648l11 52h492l-11 -52h-216l-126 -648h-60l126 648h-216z" />
    <glyph glyph-name="U" unicode="U" horiz-adv-x="654" 
d="M656 700l-93 -482q-23 -116 -100 -174t-195 -58q-94 0 -150.5 53t-56.5 146q0 37 7 72l86 443h60l-91 -468q-4 -23 -4 -47q0 -65 41.5 -106t115.5 -41q91 0 150.5 48.5t75.5 130.5l94 483h60z" />
    <glyph glyph-name="V" unicode="V" horiz-adv-x="594" 
d="M202 0l-118 700h60l94 -569q7 -40 11 -77q6 16 15 36t16 32l6 11l315 567h65l-392 -700h-72z" />
    <glyph glyph-name="W" unicode="W" horiz-adv-x="872" 
d="M943 700l-331 -700h-68l-43 635l-290 -635h-69l-59 700h58l41 -561q4 -47 5 -72l33 73l257 560h73l38 -557q1 -47 1 -76l34 75l260 558h60z" />
    <glyph glyph-name="X" unicode="X" horiz-adv-x="550" 
d="M188 700l114 -267l212 267h76l-263 -321l159 -379h-64l-136 331l-259 -331h-75l309 388l-139 312h66z" />
    <glyph glyph-name="Y" unicode="Y" horiz-adv-x="526" 
d="M175 0l57 292l-151 408h67l106 -313q9 -25 14 -49l30 44l234 318h69l-309 -408l-57 -292h-60z" />
    <glyph glyph-name="Z" unicode="Z" horiz-adv-x="582" 
d="M121 646l11 54h465l-11 -54l-513 -592h415l-11 -54h-494l11 52l521 594h-394z" />
    <glyph glyph-name="bracketleft" unicode="[" horiz-adv-x="314" 
d="M1 -150l165 850h172l-10 -50h-114l-145 -750h114l-10 -50h-172z" />
    <glyph glyph-name="backslash" unicode="\" horiz-adv-x="474" 
d="M150 730l253 -760h-60l-253 760h60z" />
    <glyph glyph-name="bracketright" unicode="]" horiz-adv-x="314" 
d="M304 700l-165 -850h-171l10 50h113l145 750h-114l10 50h172z" />
    <glyph glyph-name="asciicircum" unicode="^" horiz-adv-x="414" 
d="M249 700h64l110 -243h-52l-94 204l-170 -204h-60z" />
    <glyph glyph-name="underscore" unicode="_" horiz-adv-x="422" 
d="M-60 -53l9 46h406l-9 -46h-406z" />
    <glyph glyph-name="grave" unicode="`" horiz-adv-x="276" 
d="M219 700l42 -138h-52l-72 138h82z" />
    <glyph glyph-name="a" unicode="a" horiz-adv-x="596" 
d="M498 496h60l-97 -496h-60l16 81q-61 -95 -174 -95q-95 0 -151 65t-56 165q0 126 77.5 210t196.5 84q61 0 105.5 -28t63.5 -81zM250 36q91 0 149.5 75.5t58.5 181.5q0 77 -40 122t-110 45q-92 0 -152 -71t-60 -174q0 -78 41.5 -128.5t112.5 -50.5z" />
    <glyph glyph-name="b" unicode="b" horiz-adv-x="594" 
d="M18 0l136 700h60l-54 -280q31 43 80.5 66.5t105.5 23.5q88 0 145.5 -58t57.5 -165q0 -123 -80 -212t-205 -89q-58 0 -103.5 30.5t-64.5 79.5l-18 -96h-60zM273 36q90 0 151.5 77.5t61.5 179.5q0 80 -41.5 123.5t-113.5 43.5q-91 0 -153 -77t-62 -178q0 -76 44.5 -122.5
t112.5 -46.5z" />
    <glyph glyph-name="c" unicode="c" horiz-adv-x="553" 
d="M455 162l40 -30q-81 -146 -237 -146q-98 0 -159 63t-61 169q0 115 79 203.5t211 88.5q71 0 122.5 -36.5t75.5 -99.5l-46 -26q-46 110 -163 110q-94 0 -155 -71t-61 -168q0 -85 45.5 -133t114.5 -48q65 0 110.5 31.5t83.5 92.5z" />
    <glyph glyph-name="d" unicode="d" horiz-adv-x="598" 
d="M601 700l-136 -700h-60l16 82q-23 -42 -71.5 -69t-101.5 -27q-95 0 -155.5 63t-60.5 170q0 131 76 211t194 80q63 0 109.5 -29t71.5 -80l58 299h60zM251 36q91 0 152 76t61 177q0 76 -48 123.5t-118 47.5q-87 0 -145 -68.5t-58 -172.5q0 -88 43 -135.5t113 -47.5z" />
    <glyph glyph-name="e" unicode="e" horiz-adv-x="569" 
d="M519 243h-427q-2 -10 -2 -33q0 -72 48 -123t122 -51q65 0 108.5 32t80.5 97l43 -28q-81 -151 -239 -151q-95 0 -158 61t-63 179q0 119 81 201.5t202 82.5q100 0 156.5 -56t56.5 -144q0 -18 -5 -48zM311 460q-74 0 -131 -45t-75 -122h363q2 15 2 30q0 59 -44.5 98
t-114.5 39z" />
    <glyph glyph-name="f" unicode="f" horiz-adv-x="305" 
d="M52 452l9 44h78l22 113q27 141 164 141q22 0 38 -6l-9 -50q-17 6 -39 6q-34 0 -60 -23.5t-35 -72.5l-21 -108h117l-9 -44h-117l-87 -452h-60l87 452h-78z" />
    <glyph glyph-name="g" unicode="g" horiz-adv-x="577" 
d="M29 -24l51 -15q-10 -17 -10 -42q0 -39 38 -63t96 -24q152 0 191 200l11 58q-54 -82 -170 -82q-87 0 -147 58t-60 162q0 116 71.5 199t194.5 83q62 0 110 -26t65 -68l16 80h60l-92 -471q-25 -123 -87.5 -183t-174.5 -60q-84 0 -132 38.5t-48 95.5q0 34 17 60zM291 460
q-88 0 -145 -70t-57 -163q0 -79 44.5 -124t114.5 -45q90 0 147 71.5t57 163.5q0 76 -44.5 121.5t-116.5 45.5z" />
    <glyph glyph-name="h" unicode="h" horiz-adv-x="565" 
d="M488 317l-62 -317h-60l64 325q4 20 4 36q0 47 -27 73t-78 26q-64 0 -121.5 -52.5t-72.5 -132.5l-54 -275h-60l137 700h60l-56 -283q75 93 186 93q67 0 106.5 -34t39.5 -102q0 -25 -6 -57z" />
    <glyph glyph-name="i" unicode="i" horiz-adv-x="210" 
d="M16 0l97 496h60l-97 -496h-60zM123 590l16 80h76l-16 -80h-76z" />
    <glyph glyph-name="j" unicode="j" horiz-adv-x="211" 
d="M-120 -203l15 52q18 -8 37 -8q55 0 68 69l114 586h60l-114 -590q-22 -117 -131 -117q-27 0 -49 8zM124 590l16 80h76l-16 -80h-76z" />
    <glyph glyph-name="k" unicode="k" horiz-adv-x="482" 
d="M19 0l137 700h60l-78 -400l232 196h80l-199 -170l144 -326h-65l-124 289l-85 -74l-42 -215h-60z" />
    <glyph glyph-name="l" unicode="l" horiz-adv-x="210" 
d="M16 0l137 700h60l-137 -700h-60z" />
    <glyph glyph-name="m" unicode="m" horiz-adv-x="803" 
d="M732 355l-69 -355h-60l68 351q5 23 5 38q0 34 -23.5 52.5t-66.5 18.5q-51 0 -98 -51t-66 -148l-51 -261h-60l68 349q3 18 3 27q0 38 -22.5 61t-61.5 23q-53 0 -99 -53t-64 -145l-51 -262h-60l96 496h60l-14 -74q24 38 65.5 63t92.5 25q44 0 74.5 -23t40.5 -64
q31 41 75 64t91 23q61 0 96 -30.5t35 -84.5q0 -19 -4 -40z" />
    <glyph glyph-name="n" unicode="n" horiz-adv-x="558" 
d="M486 326l-63 -326h-60l64 330q3 18 3 35q0 45 -29 70t-78 25q-63 0 -118 -51.5t-70 -127.5l-55 -281h-60l96 496h60l-15 -77q67 91 182 91q64 0 105.5 -35t41.5 -104q0 -21 -4 -45z" />
    <glyph glyph-name="o" unicode="o" horiz-adv-x="592" 
d="M546 291q0 -131 -80 -218t-202 -87q-94 0 -162 59t-68 167q0 126 80.5 212t206.5 86q95 0 160 -57t65 -162zM269 36q89 0 153 71.5t64 173.5q0 82 -47.5 130.5t-126.5 48.5q-94 0 -156 -75.5t-62 -170.5q0 -79 48.5 -128.5t126.5 -49.5z" />
    <glyph glyph-name="p" unicode="p" horiz-adv-x="594" 
d="M-20 -204l136 700h60l-14 -75q24 39 73.5 64t105.5 25q90 0 147 -60.5t57 -166.5q0 -118 -78 -207.5t-205 -89.5q-59 0 -104 29t-62 70l-56 -289h-60zM327 460q-84 0 -147.5 -75t-63.5 -181q0 -76 44 -122t117 -46q89 0 148.5 74.5t59.5 174.5q0 84 -43 129.5t-115 45.5z
" />
    <glyph glyph-name="q" unicode="q" horiz-adv-x="601" 
d="M563 496l-136 -700h-60l52 270q-27 -37 -73.5 -58.5t-101.5 -21.5q-90 0 -151 61t-61 170q0 127 80 210t200 83q60 0 106.5 -29t66.5 -77l18 92h60zM304 460q-88 0 -150 -69.5t-62 -173.5q0 -87 42 -134t113 -47q90 0 153.5 70.5t63.5 174.5q0 85 -43.5 132t-116.5 47z
" />
    <glyph glyph-name="r" unicode="r" horiz-adv-x="330" 
d="M347 506l-14 -52q-19 6 -43 6q-52 0 -97.5 -53.5t-61.5 -135.5l-53 -271h-60l96 496h60l-15 -81q57 95 156 95q16 0 32 -4z" />
    <glyph glyph-name="s" unicode="s" horiz-adv-x="478" 
d="M258 460q-41 0 -77 -22.5t-36 -61.5q0 -37 27 -57.5t94 -36.5q135 -32 135 -134q0 -73 -52.5 -117.5t-135.5 -44.5q-73 0 -122 41t-62 103l53 29q8 -53 42.5 -88t89.5 -35q59 0 93 29.5t34 78.5q0 40 -24 59.5t-89 36.5q-139 36 -139 131q0 62 48.5 100.5t123.5 38.5
q133 0 167 -119l-47 -24q-28 93 -123 93z" />
    <glyph glyph-name="t" unicode="t" horiz-adv-x="334" 
d="M59 452l9 44h86l26 134h60l-26 -134h119l-9 -44h-119l-64 -333q-3 -16 -3 -29q0 -25 15 -39.5t40 -14.5q17 0 38 6l-3 -48q-23 -8 -55 -8q-44 0 -69.5 24t-25.5 73q0 21 3 36l64 333h-86z" />
    <glyph glyph-name="u" unicode="u" horiz-adv-x="556" 
d="M54 181l61 315h60l-61 -314q-4 -21 -4 -41q0 -47 29 -76t81 -29q61 0 115 54.5t72 145.5l51 260h60l-96 -496h-60l15 77q-27 -43 -72.5 -67t-99.5 -24q-70 0 -112.5 40t-42.5 109q0 22 4 46z" />
    <glyph glyph-name="v" unicode="v" horiz-adv-x="474" 
d="M498 496l-287 -496h-60l-102 496h63l81 -423l241 423h64z" />
    <glyph glyph-name="w" unicode="w" horiz-adv-x="676" 
d="M409 496l36 -431l193 431h60l-229 -496h-71l-38 432l-195 -432h-72l-42 496h60l28 -431l196 431h74z" />
    <glyph glyph-name="x" unicode="x" horiz-adv-x="422" 
d="M135 496l76 -178l140 178h69l-185 -228l113 -268h-60l-91 222l-174 -222h-73l222 276l-101 220h64z" />
    <glyph glyph-name="y" unicode="y" horiz-adv-x="477" 
d="M-41 -202l19 53q18 -8 37 -8q24 0 39.5 11.5t32.5 41.5l65 111l-105 489h60l88 -418l245 418h68l-368 -617q-32 -53 -59.5 -71.5t-73.5 -18.5q-26 0 -48 9z" />
    <glyph glyph-name="z" unicode="z" horiz-adv-x="474" 
d="M65 50h318l-10 -50h-387l9 50l382 396h-293l10 50h362l-10 -50z" />
    <glyph glyph-name="braceleft" unicode="{" horiz-adv-x="360" 
d="M47 248l11 54q76 0 91 79l36 185q14 72 54 103t117 31h27l-10 -50h-36q-35 0 -60 -20t-32 -56l-37 -188q-10 -49 -28 -72.5t-58 -38.5q46 -21 46 -78q0 -18 -6 -48l-29 -151q-4 -17 -4 -35q0 -63 64 -63h35l-10 -50h-31q-55 0 -85.5 27.5t-30.5 83.5q0 19 8 57l28 146
q3 18 3 32q0 27 -15 39.5t-48 12.5z" />
    <glyph glyph-name="bar" unicode="|" horiz-adv-x="236" 
d="M8 -110l165 850h60l-165 -850h-60z" />
    <glyph glyph-name="braceright" unicode="}" horiz-adv-x="360" 
d="M302 302l-11 -54q-76 0 -91 -79l-36 -185q-14 -72 -54 -103t-117 -31h-27l10 50h36q35 0 60 20t32 56l37 188q10 49 28 72.5t58 38.5q-46 21 -46 78q0 18 6 48l29 151q4 17 4 35q0 63 -64 63h-35l10 50h31q55 0 85.5 -27.5t30.5 -83.5q0 -19 -8 -57l-28 -146
q-3 -18 -3 -32q0 -27 15 -39.5t48 -12.5z" />
    <glyph glyph-name="asciitilde" unicode="~" horiz-adv-x="427" 
d="M142 341q-19 0 -30.5 -12.5t-11.5 -32.5q0 -5 2 -13l-55 -9q-4 10 -4 28q0 38 25 64t73 26q37 0 64 -16.5t48.5 -33t43.5 -16.5q34 0 34 41q0 5 -2 13l55 11q4 -10 4 -29q0 -41 -25.5 -64t-71.5 -23q-36 0 -63 16.5t-47.5 33t-38.5 16.5z" />
    <glyph glyph-name="uni00A0" unicode="&#xa0;" horiz-adv-x="276" 
 />
    <glyph glyph-name="exclamdown" unicode="&#xa1;" horiz-adv-x="258" 
d="M103 9l-42 -213h-60l42 213l72 315h38zM209 496l-17 -84h-82l17 84h82z" />
    <glyph glyph-name="cent" unicode="&#xa2;" horiz-adv-x="562" 
d="M460 162l40 -30q-80 -143 -231 -146l-18 -96h-60l19 102q-76 15 -121.5 75t-45.5 151q0 110 72 196t195 95l22 111h60l-22 -113q57 -9 99 -43.5t62 -89.5l-46 -26q-39 92 -125 107l-81 -417q60 4 102.5 35t78.5 89zM106 219q0 -70 31 -115.5t83 -59.5l80 412
q-86 -9 -140 -78t-54 -159z" />
    <glyph glyph-name="sterling" unicode="&#xa3;" horiz-adv-x="556" 
d="M39 324l9 48h77q-5 40 -5 88q0 110 65.5 182t182.5 72q79 0 129 -42t50 -110q0 -44 -21 -84l-54 10q15 36 15 69q0 45 -32 75t-95 30q-82 0 -131 -55.5t-49 -146.5q0 -45 5 -88h200l-9 -48h-185q2 -22 2 -38q0 -53 -28.5 -118t-71.5 -114h358l-10 -54h-426l8 46
q53 60 81.5 119.5t28.5 140.5q0 12 -1 18h-93z" />
    <glyph glyph-name="currency" unicode="&#xa4;" horiz-adv-x="620" 
d="M532 350q0 -79 -43 -135l61 -62l-43 -43l-62 61q-61 -44 -135 -44t-135 44l-62 -61l-43 43l61 62q-43 56 -43 135t43 135l-61 62l43 43l62 -61q61 44 135 44t135 -44l62 61l43 -43l-61 -62q43 -56 43 -135zM310 180q71 0 116.5 47.5t45.5 122.5t-45.5 122.5t-116.5 47.5
t-116.5 -47.5t-45.5 -122.5t45.5 -122.5t116.5 -47.5z" />
    <glyph glyph-name="yen" unicode="&#xa5;" horiz-adv-x="534" 
d="M86 292l9 46h122l-120 362h64l98 -315q7 -23 12 -47l28 47l227 315h66l-261 -362h123l-9 -46h-150l-17 -88h150l-9 -46h-150l-31 -158h-60l31 158h-149l9 46h149l17 88h-149z" />
    <glyph glyph-name="brokenbar" unicode="&#xa6;" horiz-adv-x="236" 
d="M163 380h-60l70 360h60zM78 250h60l-70 -360h-60z" />
    <glyph glyph-name="section" unicode="&#xa7;" horiz-adv-x="511" 
d="M445 302q0 -82 -77 -133q29 -35 29 -82q0 -82 -57.5 -131t-142.5 -49q-70 0 -123 38t-69 93l53 33q15 -55 54 -83.5t94 -28.5q53 0 92 33t39 83q0 44 -29 69.5t-103 43.5q-67 16 -102.5 53.5t-35.5 87.5q0 75 74 120q-31 38 -31 90q0 78 60 126.5t145 48.5q70 0 123 -38
t69 -93l-53 -33q-15 55 -54 83.5t-94 28.5q-58 0 -97 -32t-39 -80q0 -45 31 -75t111 -48q69 -16 101 -49.5t32 -75.5zM243 241q43 -10 83 -34q56 27 56 86q0 63 -113 89q-52 12 -86 32q-53 -29 -53 -79q0 -35 25 -57.5t88 -36.5z" />
    <glyph glyph-name="dieresis" unicode="&#xa8;" horiz-adv-x="368" 
d="M271 594l15 76h80l-15 -76h-80zM123 594l15 76h80l-15 -76h-80z" />
    <glyph glyph-name="copyright" unicode="&#xa9;" horiz-adv-x="848" 
d="M60 350q0 151 107 257.5t257 106.5t257 -106.5t107 -257.5t-107 -257.5t-257 -106.5t-257 106.5t-107 257.5zM108 350q0 -132 92 -225t224 -93t224 93t92 225t-92 225t-224 93t-224 -93t-92 -225zM564 278l32 -21q-25 -52 -69 -81.5t-99 -29.5q-88 0 -143 57.5t-55 146.5
q0 88 56.5 146t138.5 58q61 0 105 -28t65 -78l-32 -21q-43 86 -138 86q-61 0 -104.5 -45t-43.5 -118t43 -117.5t107 -44.5q89 0 137 90z" />
    <glyph glyph-name="ordfeminine" unicode="&#xaa;" horiz-adv-x="374" 
d="M339 300h-50q-11 15 -11 38q0 5 2 23q-39 -68 -122 -68q-43 0 -73.5 28.5t-30.5 73.5q0 49 34 78t95 37l128 16l2 9q2 10 2 19q0 30 -22 46t-57 16q-40 0 -64 -14.5t-24 -37.5q0 -7 1 -12l-47 -15q-2 10 -2 21q0 43 37.5 71t95.5 28q61 0 96.5 -26.5t35.5 -73.5
q0 -18 -3 -33l-26 -135q-6 -27 -6 -45q0 -21 9 -44zM176 340q45 0 80 37.5t45 95.5l2 12l-119 -15q-35 -5 -56.5 -22.5t-21.5 -46.5q0 -28 19.5 -44.5t50.5 -16.5z" />
    <glyph glyph-name="guillemotleft" unicode="&#xab;" horiz-adv-x="466" 
d="M398 469h76l-196 -199l110 -189h-64l-114 194zM238 469h76l-196 -199l110 -189h-64l-114 194z" />
    <glyph glyph-name="logicalnot" unicode="&#xac;" horiz-adv-x="518" 
d="M425 208h-64l25 132h-331l10 50h395z" />
    <glyph glyph-name="registered" unicode="&#xae;" horiz-adv-x="848" 
d="M520 151l-98 173h-87v-173h-46v398h159q58 0 91 -31.5t33 -81.5q0 -44 -27.5 -72t-73.5 -37l99 -176h-50zM335 508v-145h111q38 0 59.5 20t21.5 53t-21.5 52.5t-59.5 19.5h-111zM60 350q0 151 107 257.5t257 106.5t257 -106.5t107 -257.5t-107 -257.5t-257 -106.5
t-257 106.5t-107 257.5zM108 350q0 -132 92 -225t224 -93t224 93t92 225t-92 225t-224 93t-224 -93t-92 -225z" />
    <glyph glyph-name="macron" unicode="&#xaf;" horiz-adv-x="302" 
d="M108 608l11 54h206l-11 -54h-206z" />
    <glyph glyph-name="degree" unicode="&#xb0;" horiz-adv-x="360" 
d="M98 579q0 57 39 96t97 39t97 -39t39 -96t-39 -96t-97 -39t-97 39t-39 96zM146 579q0 -38 24.5 -63.5t63.5 -25.5t63.5 25.5t24.5 63.5t-24.5 63.5t-63.5 25.5t-63.5 -25.5t-24.5 -63.5z" />
    <glyph glyph-name="plusminus" unicode="&#xb1;" horiz-adv-x="487" 
d="M52 319l9 46h171l34 172h48l-34 -172h172l-9 -46h-172l-34 -173h-48l34 173h-171zM-9 0l9 46h391l-9 -46h-391z" />
    <glyph glyph-name="twosuperior" unicode="&#xb2;" horiz-adv-x="334" 
d="M67 388l166 134q50 40 50 88q0 25 -17 40t-47 15q-34 0 -53.5 -19.5t-19.5 -49.5q0 -7 2 -17l-44 -6q-3 10 -3 24q0 47 35 78.5t89 31.5q47 0 76.5 -26.5t29.5 -67.5q0 -64 -72 -123l-114 -94h154l-8 -46h-231z" />
    <glyph glyph-name="threesuperior" unicode="&#xb3;" horiz-adv-x="335" 
d="M100 472l40 -9q-4 -11 -4 -24q0 -23 19.5 -37.5t48.5 -14.5q34 0 55 18.5t21 50.5q0 63 -85 63l7 39q38 0 62.5 15t24.5 45q0 47 -57 47q-26 0 -45 -13.5t-19 -34.5q0 -9 2 -16l-41 -4q-2 8 -2 18q0 37 30 64.5t78 27.5q47 0 73 -22t26 -56q0 -64 -65 -87q59 -19 59 -76
q0 -52 -35 -87.5t-91 -35.5q-46 0 -78 26t-32 64q0 24 8 39z" />
    <glyph glyph-name="acute" unicode="&#xb4;" horiz-adv-x="276" 
d="M120 562l87 138h89l-124 -138h-52z" />
    <glyph glyph-name="mu" unicode="&#xb5;" horiz-adv-x="556" 
d="M-22 -204l137 700h60l-61 -314q-4 -21 -4 -41q0 -47 29 -76t81 -29q61 0 115 54.5t72 145.5l51 260h60l-96 -496h-60l15 77q-27 -43 -72.5 -67t-99.5 -24q-81 0 -123 48q-8 -57 -11 -71l-33 -167h-60z" />
    <glyph glyph-name="paragraph" unicode="&#xb6;" horiz-adv-x="601" 
d="M434 648l-149 -768h-60l84 434h-43q-80 0 -133.5 45.5t-53.5 125.5q0 94 72 154.5t186 60.5h305l-10 -52h-60l-149 -768h-60l149 768h-78z" />
    <glyph glyph-name="periodcentered" unicode="&#xb7;" horiz-adv-x="176" 
d="M54 318l15 82h80l-15 -82h-80z" />
    <glyph glyph-name="cedilla" unicode="&#xb8;" horiz-adv-x="299" 
d="M47 -101l-23 26l49 91h48l-50 -75q22 15 47 15q29 0 47 -18t18 -52q0 -41 -26.5 -65.5t-74.5 -24.5q-64 0 -76 61l40 9q7 -30 42 -30q20 0 33.5 12t13.5 35q0 17 -11 26.5t-28 9.5q-22 0 -49 -20z" />
    <glyph glyph-name="onesuperior" unicode="&#xb9;" horiz-adv-x="239" 
d="M105 609l9 48q59 0 88 43h44l-69 -350h-48l55 282q-26 -23 -79 -23z" />
    <glyph glyph-name="ordmasculine" unicode="&#xba;" horiz-adv-x="454" 
d="M430 502q0 -89 -57.5 -149t-147.5 -60q-65 0 -112 44.5t-47 113.5q0 85 55 145.5t152 60.5q70 0 113.5 -43t43.5 -112zM230 335q66 0 109 48t43 115q0 52 -32 84.5t-83 32.5q-68 0 -110.5 -48t-42.5 -112q0 -55 33 -87.5t83 -32.5z" />
    <glyph glyph-name="guillemotright" unicode="&#xbb;" horiz-adv-x="466" 
d="M73 81h-76l196 199l-110 189h64l114 -194zM233 81h-76l196 199l-110 189h64l114 -194z" />
    <glyph glyph-name="onequarter" unicode="&#xbc;" horiz-adv-x="744" 
d="M386 70l9 44l214 236h52l-46 -236h40l-9 -44h-40l-14 -70h-50l14 70h-170zM595 271l-143 -157h113zM116 609l9 48q59 0 88 43h44l-69 -350h-48l55 282q-26 -23 -79 -23zM115 4l-36 33l563 661l36 -33z" />
    <glyph glyph-name="onehalf" unicode="&#xbd;" 
d="M115 609l9 48q59 0 88 43h44l-69 -350h-48l55 282q-26 -23 -79 -23zM113 3l-36 33l563 661l36 -33zM443 38l166 134q50 40 50 88q0 25 -17 40t-47 15q-34 0 -53.5 -19.5t-19.5 -49.5q0 -7 2 -17l-44 -6q-3 10 -3 24q0 47 35 78.5t89 31.5q47 0 76.5 -26.5t29.5 -67.5
q0 -64 -72 -123l-114 -94h154l-8 -46h-231z" />
    <glyph glyph-name="threequarters" unicode="&#xbe;" horiz-adv-x="813" 
d="M450 70l9 44l214 236h52l-46 -236h40l-9 -44h-40l-14 -70h-50l14 70h-170zM659 271l-143 -157h113zM167 3l-36 33l563 661l36 -33zM97 472l40 -9q-4 -11 -4 -24q0 -23 19.5 -37.5t48.5 -14.5q34 0 55 18.5t21 50.5q0 63 -85 63l7 39q38 0 62.5 15t24.5 45q0 47 -57 47
q-26 0 -45 -13.5t-19 -34.5q0 -9 2 -16l-41 -4q-2 8 -2 18q0 37 30 64.5t78 27.5q47 0 73 -22t26 -56q0 -64 -65 -87q59 -19 59 -76q0 -52 -35.5 -87.5t-90.5 -35.5q-46 0 -78 26t-32 64q0 24 8 39z" />
    <glyph glyph-name="questiondown" unicode="&#xbf;" horiz-adv-x="525" 
d="M351 496l-16 -84h-82l16 84h82zM247 321h60l-2 -13q-10 -62 -33 -95t-89 -80q-39 -28 -62 -49t-43.5 -56t-20.5 -73q0 -58 36 -90.5t95 -32.5q70 0 113.5 45t43.5 110q0 18 -3 34l55 10q6 -20 6 -45q0 -89 -60 -146.5t-158 -57.5q-86 0 -137 47t-51 120q0 65 37.5 116.5
t118.5 109.5q44 32 64 60t30 86z" />
    <glyph glyph-name="Agrave" unicode="&#xc0;" horiz-adv-x="636" 
d="M-52 0l415 700h67l141 -700h-60l-43 217h-326l-128 -217h-66zM458 267l-65 329q-2 11 -3.5 20.5t-2.5 14.5t-1 7q-11 -22 -23 -42l-193 -329h288zM384 904l42 -138h-52l-72 138h82z" />
    <glyph glyph-name="Aacute" unicode="&#xc1;" horiz-adv-x="636" 
d="M-52 0l415 700h67l141 -700h-60l-43 217h-326l-128 -217h-66zM458 267l-65 329q-2 11 -3.5 20.5t-2.5 14.5t-1 7q-11 -22 -23 -42l-193 -329h288zM380 766l87 138h89l-124 -138h-52z" />
    <glyph glyph-name="Acircumflex" unicode="&#xc2;" horiz-adv-x="636" 
d="M-52 0l415 700h67l141 -700h-60l-43 217h-326l-128 -217h-66zM458 267l-65 329q-2 11 -3.5 20.5t-2.5 14.5t-1 7q-11 -22 -23 -42l-193 -329h288zM271 766l126 138h54l73 -138h-50l-61 78l-86 -78h-56z" />
    <glyph glyph-name="Atilde" unicode="&#xc3;" horiz-adv-x="636" 
d="M-52 0l415 700h67l141 -700h-60l-43 217h-326l-128 -217h-66zM458 267l-65 329q-2 11 -3.5 20.5t-2.5 14.5t-1 7q-11 -22 -23 -42l-193 -329h288zM331 838q-17 0 -27.5 -11t-10.5 -27q0 -8 2 -16l-51 -10q-4 12 -4 27q0 38 23.5 62.5t69.5 24.5q35 0 58.5 -17t41.5 -34
t39 -17q17 0 27 10.5t10 26.5q0 7 -2 17l51 10q4 -18 4 -31q0 -40 -24 -61.5t-64 -21.5q-30 0 -52 10.5t-32 23.5t-25.5 23.5t-33.5 10.5z" />
    <glyph glyph-name="Adieresis" unicode="&#xc4;" horiz-adv-x="636" 
d="M-52 0l415 700h67l141 -700h-60l-43 217h-326l-128 -217h-66zM458 267l-65 329q-2 11 -3.5 20.5t-2.5 14.5t-1 7q-11 -22 -23 -42l-193 -329h288zM448 798l15 76h80l-15 -76h-80zM300 798l15 76h80l-15 -76h-80z" />
    <glyph glyph-name="Aring" unicode="&#xc5;" horiz-adv-x="636" 
d="M-52 0l415 700h67l141 -700h-60l-43 217h-326l-128 -217h-66zM458 267l-65 329q-2 11 -3.5 20.5t-2.5 14.5t-1 7q-11 -22 -23 -42l-193 -329h288zM312 839q0 40 28 67.5t68 27.5t68 -27.5t28 -67.5t-28 -67.5t-68 -27.5t-68 27.5t-28 67.5zM356 839q0 -22 15 -37.5
t37 -15.5t37 15.5t15 37.5t-15 37.5t-37 15.5t-37 -15.5t-15 -37.5z" />
    <glyph glyph-name="AE" unicode="&#xc6;" horiz-adv-x="910" 
d="M362 0l43 217h-250l-139 -217h-68l446 700h519l-11 -52h-354l-50 -260h326l-10 -52h-326l-55 -284h357l-11 -52h-417zM429 648l-243 -381h228l74 381h-59z" />
    <glyph glyph-name="Ccedilla" unicode="&#xc7;" horiz-adv-x="736" 
d="M278 -101l-23 26l35 65q-109 17 -170 99.5t-61 206.5q0 108 49 203t142 155t209 60q96 0 162 -48t94 -131l-48 -29q-32 83 -86.5 119.5t-134.5 36.5q-139 0 -233 -111t-94 -253q0 -115 64 -187.5t166 -72.5q157 0 258 161l42 -29q-112 -184 -306 -184h-11l-30 -45
q22 15 47 15q29 0 47 -18t18 -52q0 -41 -26.5 -65.5t-74.5 -24.5q-64 0 -76 61l40 9q7 -30 42 -30q20 0 33.5 12t13.5 35q0 17 -11 26.5t-28 9.5q-22 0 -49 -20z" />
    <glyph glyph-name="Egrave" unicode="&#xc8;" horiz-adv-x="573" 
d="M29 0l137 700h410l-11 -52h-350l-50 -260h322l-10 -52h-322l-55 -284h353l-11 -52h-413zM367 904l42 -138h-52l-72 138h82z" />
    <glyph glyph-name="Eacute" unicode="&#xc9;" horiz-adv-x="573" 
d="M29 0l137 700h410l-11 -52h-350l-50 -260h322l-10 -52h-322l-55 -284h353l-11 -52h-413zM324 766l87 138h89l-124 -138h-52z" />
    <glyph glyph-name="Ecircumflex" unicode="&#xca;" horiz-adv-x="573" 
d="M29 0l137 700h410l-11 -52h-350l-50 -260h322l-10 -52h-322l-55 -284h353l-11 -52h-413zM254 766l126 138h54l73 -138h-50l-61 78l-86 -78h-56z" />
    <glyph glyph-name="Edieresis" unicode="&#xcb;" horiz-adv-x="573" 
d="M29 0l137 700h410l-11 -52h-350l-50 -260h322l-10 -52h-322l-55 -284h353l-11 -52h-413zM423 798l15 76h80l-15 -76h-80zM275 798l15 76h80l-15 -76h-80z" />
    <glyph glyph-name="Igrave" unicode="&#xcc;" horiz-adv-x="236" 
d="M29 0l137 700h60l-137 -700h-60zM192 904l42 -138h-52l-72 138h82z" />
    <glyph glyph-name="Iacute" unicode="&#xcd;" horiz-adv-x="236" 
d="M29 0l137 700h60l-137 -700h-60zM178 766l87 138h89l-124 -138h-52z" />
    <glyph glyph-name="Icircumflex" unicode="&#xce;" horiz-adv-x="236" 
d="M29 0l137 700h60l-137 -700h-60zM80 766l126 138h54l73 -138h-50l-61 78l-86 -78h-56z" />
    <glyph glyph-name="Idieresis" unicode="&#xcf;" horiz-adv-x="236" 
d="M29 0l137 700h60l-137 -700h-60zM247 798l15 76h80l-15 -76h-80zM99 798l15 76h80l-15 -76h-80z" />
    <glyph glyph-name="Eth" unicode="&#xd0;" horiz-adv-x="696" 
d="M45 324l11 52h72l64 324h180q126 0 204 -74.5t78 -213.5q0 -181 -112 -296.5t-300 -115.5h-187l63 324h-73zM240 52q168 2 261 102t93 258q0 122 -66 179t-179 57h-108l-53 -272h154l-11 -52h-153l-52 -272h114z" />
    <glyph glyph-name="Ntilde" unicode="&#xd1;" horiz-adv-x="684" 
d="M29 0l137 700h60l250 -562q17 -40 20 -55l120 617h58l-137 -700h-60l-250 562q-17 40 -20 55l-120 -617h-58zM371 838q-17 0 -27.5 -11t-10.5 -27q0 -8 2 -16l-51 -10q-4 12 -4 27q0 38 23.5 62.5t69.5 24.5q35 0 58.5 -17t41.5 -34t39 -17q17 0 27 10.5t10 26.5
q0 7 -2 17l51 10q4 -18 4 -31q0 -40 -24 -61.5t-64 -21.5q-30 0 -52 10.5t-32 23.5t-25.5 23.5t-33.5 10.5z" />
    <glyph glyph-name="Ograve" unicode="&#xd2;" 
d="M728 404q0 -79 -24.5 -153t-70 -133.5t-119 -95.5t-163.5 -36q-131 0 -214.5 83.5t-83.5 225.5q0 106 45 200.5t134 156.5t202 62q136 0 215 -81.5t79 -228.5zM352 38q95 0 168.5 52.5t110.5 134t37 174.5q0 130 -64.5 196.5t-179.5 66.5q-89 0 -161.5 -54t-111 -136.5
t-38.5 -171.5q0 -120 68.5 -191t170.5 -71zM434 904l42 -138h-52l-72 138h82z" />
    <glyph glyph-name="Oacute" unicode="&#xd3;" 
d="M728 404q0 -79 -24.5 -153t-70 -133.5t-119 -95.5t-163.5 -36q-131 0 -214.5 83.5t-83.5 225.5q0 106 45 200.5t134 156.5t202 62q136 0 215 -81.5t79 -228.5zM352 38q95 0 168.5 52.5t110.5 134t37 174.5q0 130 -64.5 196.5t-179.5 66.5q-89 0 -161.5 -54t-111 -136.5
t-38.5 -171.5q0 -120 68.5 -191t170.5 -71zM416 766l87 138h89l-124 -138h-52z" />
    <glyph glyph-name="Ocircumflex" unicode="&#xd4;" 
d="M728 404q0 -79 -24.5 -153t-70 -133.5t-119 -95.5t-163.5 -36q-131 0 -214.5 83.5t-83.5 225.5q0 106 45 200.5t134 156.5t202 62q136 0 215 -81.5t79 -228.5zM352 38q95 0 168.5 52.5t110.5 134t37 174.5q0 130 -64.5 196.5t-179.5 66.5q-89 0 -161.5 -54t-111 -136.5
t-38.5 -171.5q0 -120 68.5 -191t170.5 -71zM318 766l126 138h54l73 -138h-50l-61 78l-86 -78h-56z" />
    <glyph glyph-name="Otilde" unicode="&#xd5;" 
d="M728 404q0 -79 -24.5 -153t-70 -133.5t-119 -95.5t-163.5 -36q-131 0 -214.5 83.5t-83.5 225.5q0 106 45 200.5t134 156.5t202 62q136 0 215 -81.5t79 -228.5zM352 38q95 0 168.5 52.5t110.5 134t37 174.5q0 130 -64.5 196.5t-179.5 66.5q-89 0 -161.5 -54t-111 -136.5
t-38.5 -171.5q0 -120 68.5 -191t170.5 -71zM386 838q-17 0 -27.5 -11t-10.5 -27q0 -8 2 -16l-51 -10q-4 12 -4 27q0 38 23.5 62.5t69.5 24.5q35 0 58.5 -17t41.5 -34t39 -17q17 0 27 10.5t10 26.5q0 7 -2 17l51 10q4 -18 4 -31q0 -40 -24 -61.5t-64 -21.5q-30 0 -52 10.5
t-32 23.5t-25.5 23.5t-33.5 10.5z" />
    <glyph glyph-name="Odieresis" unicode="&#xd6;" 
d="M728 404q0 -79 -24.5 -153t-70 -133.5t-119 -95.5t-163.5 -36q-131 0 -214.5 83.5t-83.5 225.5q0 106 45 200.5t134 156.5t202 62q136 0 215 -81.5t79 -228.5zM352 38q95 0 168.5 52.5t110.5 134t37 174.5q0 130 -64.5 196.5t-179.5 66.5q-89 0 -161.5 -54t-111 -136.5
t-38.5 -171.5q0 -120 68.5 -191t170.5 -71zM485 798l15 76h80l-15 -76h-80zM337 798l15 76h80l-15 -76h-80z" />
    <glyph glyph-name="multiply" unicode="&#xd7;" horiz-adv-x="481" 
d="M103 207l-28 36l147 123l-97 122l36 31l98 -122l146 122l29 -35l-147 -123l97 -119l-37 -30l-95 119z" />
    <glyph glyph-name="Oslash" unicode="&#xd8;" 
d="M728 404q0 -79 -24.5 -153t-70 -133.5t-119 -95.5t-163.5 -36q-88 0 -158 39l-38 -54l-44 31l39 55q-97 84 -97 238q0 106 45 200.5t134 156.5t202 62q90 0 156 -36l36 51l44 -31l-36 -51q94 -83 94 -243zM352 38q95 0 168.5 52.5t110.5 134t37 174.5q0 130 -68 200
l-374 -527q56 -34 126 -34zM113 300q0 -120 72 -194l371 525q-56 31 -132 31q-89 0 -161.5 -54t-111 -136.5t-38.5 -171.5z" />
    <glyph glyph-name="Ugrave" unicode="&#xd9;" horiz-adv-x="654" 
d="M656 700l-93 -482q-23 -116 -100 -174t-195 -58q-94 0 -150.5 53t-56.5 146q0 37 7 72l86 443h60l-91 -468q-4 -23 -4 -47q0 -65 41.5 -106t115.5 -41q91 0 150.5 48.5t75.5 130.5l94 483h60zM411 904l42 -138h-52l-72 138h82z" />
    <glyph glyph-name="Uacute" unicode="&#xda;" horiz-adv-x="654" 
d="M656 700l-93 -482q-23 -116 -100 -174t-195 -58q-94 0 -150.5 53t-56.5 146q0 37 7 72l86 443h60l-91 -468q-4 -23 -4 -47q0 -65 41.5 -106t115.5 -41q91 0 150.5 48.5t75.5 130.5l94 483h60zM374 766l87 138h89l-124 -138h-52z" />
    <glyph glyph-name="Ucircumflex" unicode="&#xdb;" horiz-adv-x="654" 
d="M656 700l-93 -482q-23 -116 -100 -174t-195 -58q-94 0 -150.5 53t-56.5 146q0 37 7 72l86 443h60l-91 -468q-4 -23 -4 -47q0 -65 41.5 -106t115.5 -41q91 0 150.5 48.5t75.5 130.5l94 483h60zM295 766l126 138h54l73 -138h-50l-61 78l-86 -78h-56z" />
    <glyph glyph-name="Udieresis" unicode="&#xdc;" horiz-adv-x="654" 
d="M656 700l-93 -482q-23 -116 -100 -174t-195 -58q-94 0 -150.5 53t-56.5 146q0 37 7 72l86 443h60l-91 -468q-4 -23 -4 -47q0 -65 41.5 -106t115.5 -41q91 0 150.5 48.5t75.5 130.5l94 483h60zM457 798l15 76h80l-15 -76h-80zM309 798l15 76h80l-15 -76h-80z" />
    <glyph glyph-name="Yacute" unicode="&#xdd;" horiz-adv-x="526" 
d="M175 0l57 292l-151 408h67l106 -313q9 -25 14 -49l30 44l234 318h69l-309 -408l-57 -292h-60zM313 766l87 138h89l-124 -138h-52z" />
    <glyph glyph-name="Thorn" unicode="&#xde;" horiz-adv-x="661" 
d="M89 0h-60l137 700h60l-27 -135h196q106 0 161 -51t55 -142q0 -110 -75.5 -173.5t-200.5 -63.5h-219zM189 513l-63 -326h211q102 0 158 50t56 136q0 68 -41 104t-120 36h-201z" />
    <glyph glyph-name="germandbls" unicode="&#xdf;" horiz-adv-x="584" 
d="M263 356l10 52h16q84 0 140 40t56 106q0 54 -33 82t-86 28q-54 0 -96 -37t-56 -110l-101 -517h-60l89 452h-84l8 44h84l3 18q34 200 218 200q75 0 123.5 -40t48.5 -118q0 -58 -41 -106t-105 -65q55 -22 88.5 -65.5t33.5 -103.5q0 -106 -62.5 -168t-166.5 -62
q-88 0 -142 54l35 48q45 -52 118 -52q69 0 113.5 46.5t44.5 122.5q0 71 -47.5 111t-129.5 40h-19z" />
    <glyph glyph-name="agrave" unicode="&#xe0;" horiz-adv-x="596" 
d="M498 496h60l-97 -496h-60l16 81q-61 -95 -174 -95q-95 0 -151 65t-56 165q0 126 77.5 210t196.5 84q61 0 105.5 -28t63.5 -81zM250 36q91 0 149.5 75.5t58.5 181.5q0 77 -40 122t-110 45q-92 0 -152 -71t-60 -174q0 -78 41.5 -128.5t112.5 -50.5zM320 700l42 -138h-52
l-72 138h82z" />
    <glyph glyph-name="aacute" unicode="&#xe1;" horiz-adv-x="596" 
d="M498 496h60l-97 -496h-60l16 81q-61 -95 -174 -95q-95 0 -151 65t-56 165q0 126 77.5 210t196.5 84q61 0 105.5 -28t63.5 -81zM250 36q91 0 149.5 75.5t58.5 181.5q0 77 -40 122t-110 45q-92 0 -152 -71t-60 -174q0 -78 41.5 -128.5t112.5 -50.5zM293 562l87 138h89
l-124 -138h-52z" />
    <glyph glyph-name="acircumflex" unicode="&#xe2;" horiz-adv-x="596" 
d="M498 496h60l-97 -496h-60l16 81q-61 -95 -174 -95q-95 0 -151 65t-56 165q0 126 77.5 210t196.5 84q61 0 105.5 -28t63.5 -81zM250 36q91 0 149.5 75.5t58.5 181.5q0 77 -40 122t-110 45q-92 0 -152 -71t-60 -174q0 -78 41.5 -128.5t112.5 -50.5zM196 562l126 138h54
l73 -138h-50l-61 78l-86 -78h-56z" />
    <glyph glyph-name="atilde" unicode="&#xe3;" horiz-adv-x="596" 
d="M498 496h60l-97 -496h-60l16 81q-61 -95 -174 -95q-95 0 -151 65t-56 165q0 126 77.5 210t196.5 84q61 0 105.5 -28t63.5 -81zM250 36q91 0 149.5 75.5t58.5 181.5q0 77 -40 122t-110 45q-92 0 -152 -71t-60 -174q0 -78 41.5 -128.5t112.5 -50.5zM272 634
q-17 0 -27.5 -11t-10.5 -27q0 -8 2 -16l-51 -10q-4 12 -4 27q0 38 23.5 62.5t69.5 24.5q35 0 58.5 -17t41.5 -34t39 -17q17 0 27 10.5t10 26.5q0 7 -2 17l51 10q4 -18 4 -31q0 -40 -24 -61.5t-64 -21.5q-30 0 -52 10.5t-32 23.5t-25.5 23.5t-33.5 10.5z" />
    <glyph glyph-name="adieresis" unicode="&#xe4;" horiz-adv-x="596" 
d="M498 496h60l-97 -496h-60l16 81q-61 -95 -174 -95q-95 0 -151 65t-56 165q0 126 77.5 210t196.5 84q61 0 105.5 -28t63.5 -81zM250 36q91 0 149.5 75.5t58.5 181.5q0 77 -40 122t-110 45q-92 0 -152 -71t-60 -174q0 -78 41.5 -128.5t112.5 -50.5zM369 594l15 76h80
l-15 -76h-80zM221 594l15 76h80l-15 -76h-80z" />
    <glyph glyph-name="aring" unicode="&#xe5;" horiz-adv-x="596" 
d="M498 496h60l-97 -496h-60l16 81q-61 -95 -174 -95q-95 0 -151 65t-56 165q0 126 77.5 210t196.5 84q61 0 105.5 -28t63.5 -81zM250 36q91 0 149.5 75.5t58.5 181.5q0 77 -40 122t-110 45q-92 0 -152 -71t-60 -174q0 -78 41.5 -128.5t112.5 -50.5zM230 635q0 40 28 67.5
t68 27.5t68 -27.5t28 -67.5t-28 -67.5t-68 -27.5t-68 27.5t-28 67.5zM274 635q0 -22 15 -37.5t37 -15.5t37 15.5t15 37.5t-15 37.5t-37 15.5t-37 -15.5t-15 -37.5z" />
    <glyph glyph-name="ae" unicode="&#xe6;" horiz-adv-x="986" 
d="M936 243h-425q-2 -10 -2 -33q0 -72 47 -123t121 -51q65 0 108.5 32t80.5 97l43 -28q-81 -151 -239 -151q-63 0 -114.5 28.5t-75.5 84.5l-19 -99h-60l16 81q-61 -95 -174 -95q-95 0 -151 65t-56 165q0 126 77.5 210t196.5 84q61 0 105.5 -28t63.5 -81l19 95h60l-12 -67
q67 81 186 81q100 0 156.5 -56t56.5 -144q0 -18 -5 -48zM250 36q91 0 149 75.5t58 181.5q0 77 -39.5 122t-109.5 45q-92 0 -152 -71t-60 -174q0 -78 41.5 -128.5t112.5 -50.5zM728 460q-74 0 -131 -45t-75 -122h363q2 15 2 30q0 59 -44.5 98t-114.5 39z" />
    <glyph glyph-name="ccedilla" unicode="&#xe7;" horiz-adv-x="553" 
d="M455 162l40 -30q-81 -146 -237 -146h-6l-30 -45q22 15 47 15q29 0 47 -18t18 -52q0 -41 -26.5 -65.5t-74.5 -24.5q-64 0 -76 61l40 9q7 -30 42 -30q20 0 33.5 12t13.5 35q0 17 -11 26.5t-28 9.5q-22 0 -49 -20l-23 26l35 66q-79 14 -125.5 74.5t-46.5 152.5
q0 115 79 203.5t211 88.5q71 0 122.5 -36.5t75.5 -99.5l-46 -26q-46 110 -163 110q-94 0 -155 -71t-61 -168q0 -85 45.5 -133t114.5 -48q65 0 110.5 31.5t83.5 92.5z" />
    <glyph glyph-name="egrave" unicode="&#xe8;" horiz-adv-x="569" 
d="M519 243h-427q-2 -10 -2 -33q0 -72 48 -123t122 -51q65 0 108.5 32t80.5 97l43 -28q-81 -151 -239 -151q-95 0 -158 61t-63 179q0 119 81 201.5t202 82.5q100 0 156.5 -56t56.5 -144q0 -18 -5 -48zM311 460q-74 0 -131 -45t-75 -122h363q2 15 2 30q0 59 -44.5 98
t-114.5 39zM314 700l42 -138h-52l-72 138h82z" />
    <glyph glyph-name="eacute" unicode="&#xe9;" horiz-adv-x="569" 
d="M519 243h-427q-2 -10 -2 -33q0 -72 48 -123t122 -51q65 0 108.5 32t80.5 97l43 -28q-81 -151 -239 -151q-95 0 -158 61t-63 179q0 119 81 201.5t202 82.5q100 0 156.5 -56t56.5 -144q0 -18 -5 -48zM311 460q-74 0 -131 -45t-75 -122h363q2 15 2 30q0 59 -44.5 98
t-114.5 39zM283 562l87 138h89l-124 -138h-52z" />
    <glyph glyph-name="ecircumflex" unicode="&#xea;" horiz-adv-x="569" 
d="M519 243h-427q-2 -10 -2 -33q0 -72 48 -123t122 -51q65 0 108.5 32t80.5 97l43 -28q-81 -151 -239 -151q-95 0 -158 61t-63 179q0 119 81 201.5t202 82.5q100 0 156.5 -56t56.5 -144q0 -18 -5 -48zM311 460q-74 0 -131 -45t-75 -122h363q2 15 2 30q0 59 -44.5 98
t-114.5 39zM197 562l126 138h54l73 -138h-50l-61 78l-86 -78h-56z" />
    <glyph glyph-name="edieresis" unicode="&#xeb;" horiz-adv-x="569" 
d="M519 243h-427q-2 -10 -2 -33q0 -72 48 -123t122 -51q65 0 108.5 32t80.5 97l43 -28q-81 -151 -239 -151q-95 0 -158 61t-63 179q0 119 81 201.5t202 82.5q100 0 156.5 -56t56.5 -144q0 -18 -5 -48zM311 460q-74 0 -131 -45t-75 -122h363q2 15 2 30q0 59 -44.5 98
t-114.5 39zM359 594l15 76h80l-15 -76h-80zM211 594l15 76h80l-15 -76h-80z" />
    <glyph glyph-name="igrave" unicode="&#xec;" horiz-adv-x="210" 
d="M16 0l97 496h60l-97 -496h-60zM139 700l42 -138h-52l-72 138h82z" />
    <glyph glyph-name="iacute" unicode="&#xed;" horiz-adv-x="210" 
d="M16 0l97 496h60l-97 -496h-60zM127 562l87 138h89l-124 -138h-52z" />
    <glyph glyph-name="icircumflex" unicode="&#xee;" horiz-adv-x="210" 
d="M16 0l97 496h60l-97 -496h-60zM25 562l126 138h54l73 -138h-50l-61 78l-86 -78h-56z" />
    <glyph glyph-name="idieresis" unicode="&#xef;" horiz-adv-x="210" 
d="M16 0l97 496h60l-97 -496h-60zM195 594l15 76h80l-15 -76h-80zM47 594l15 76h80l-15 -76h-80z" />
    <glyph glyph-name="eth" unicode="&#xf0;" horiz-adv-x="574" 
d="M274 520l-15 47l112 40q-52 47 -127 88l29 42q96 -48 154 -110l104 38l15 -45l-87 -32q71 -98 71 -235q0 -162 -74 -264.5t-214 -102.5q-83 0 -146 57.5t-63 152.5q0 107 74.5 186.5t194.5 79.5q58 0 107.5 -31t67.5 -75q-6 128 -71 212zM251 36q86 0 144 64.5t58 158.5
q0 69 -45 111t-117 42q-83 0 -141 -64.5t-58 -147.5q0 -78 46 -121t113 -43z" />
    <glyph glyph-name="ntilde" unicode="&#xf1;" horiz-adv-x="558" 
d="M486 326l-63 -326h-60l64 330q3 18 3 35q0 45 -29 70t-78 25q-63 0 -118 -51.5t-70 -127.5l-55 -281h-60l96 496h60l-15 -77q67 91 182 91q64 0 105.5 -35t41.5 -104q0 -21 -4 -45zM271 634q-17 0 -27.5 -11t-10.5 -27q0 -8 2 -16l-51 -10q-4 12 -4 27q0 38 23.5 62.5
t69.5 24.5q35 0 58.5 -17t41.5 -34t39 -17q17 0 27 10.5t10 26.5q0 7 -2 17l51 10q4 -18 4 -31q0 -40 -24 -61.5t-64 -21.5q-30 0 -52 10.5t-32 23.5t-25.5 23.5t-33.5 10.5z" />
    <glyph glyph-name="ograve" unicode="&#xf2;" horiz-adv-x="592" 
d="M546 291q0 -131 -80 -218t-202 -87q-94 0 -162 59t-68 167q0 126 80.5 212t206.5 86q95 0 160 -57t65 -162zM269 36q89 0 153 71.5t64 173.5q0 82 -47.5 130.5t-126.5 48.5q-94 0 -156 -75.5t-62 -170.5q0 -79 48.5 -128.5t126.5 -49.5zM321 700l42 -138h-52l-72 138h82z
" />
    <glyph glyph-name="oacute" unicode="&#xf3;" horiz-adv-x="592" 
d="M546 291q0 -131 -80 -218t-202 -87q-94 0 -162 59t-68 167q0 126 80.5 212t206.5 86q95 0 160 -57t65 -162zM269 36q89 0 153 71.5t64 173.5q0 82 -47.5 130.5t-126.5 48.5q-94 0 -156 -75.5t-62 -170.5q0 -79 48.5 -128.5t126.5 -49.5zM305 562l87 138h89l-124 -138h-52
z" />
    <glyph glyph-name="ocircumflex" unicode="&#xf4;" horiz-adv-x="592" 
d="M546 291q0 -131 -80 -218t-202 -87q-94 0 -162 59t-68 167q0 126 80.5 212t206.5 86q95 0 160 -57t65 -162zM269 36q89 0 153 71.5t64 173.5q0 82 -47.5 130.5t-126.5 48.5q-94 0 -156 -75.5t-62 -170.5q0 -79 48.5 -128.5t126.5 -49.5zM206 562l126 138h54l73 -138h-50
l-61 78l-86 -78h-56z" />
    <glyph glyph-name="otilde" unicode="&#xf5;" horiz-adv-x="592" 
d="M546 291q0 -131 -80 -218t-202 -87q-94 0 -162 59t-68 167q0 126 80.5 212t206.5 86q95 0 160 -57t65 -162zM269 36q89 0 153 71.5t64 173.5q0 82 -47.5 130.5t-126.5 48.5q-94 0 -156 -75.5t-62 -170.5q0 -79 48.5 -128.5t126.5 -49.5zM271 634q-17 0 -27.5 -11
t-10.5 -27q0 -8 2 -16l-51 -10q-4 12 -4 27q0 38 23.5 62.5t69.5 24.5q35 0 58.5 -17t41.5 -34t39 -17q17 0 27 10.5t10 26.5q0 7 -2 17l51 10q4 -18 4 -31q0 -40 -24 -61.5t-64 -21.5q-30 0 -52 10.5t-32 23.5t-25.5 23.5t-33.5 10.5z" />
    <glyph glyph-name="odieresis" unicode="&#xf6;" horiz-adv-x="592" 
d="M546 291q0 -131 -80 -218t-202 -87q-94 0 -162 59t-68 167q0 126 80.5 212t206.5 86q95 0 160 -57t65 -162zM269 36q89 0 153 71.5t64 173.5q0 82 -47.5 130.5t-126.5 48.5q-94 0 -156 -75.5t-62 -170.5q0 -79 48.5 -128.5t126.5 -49.5zM374 594l15 76h80l-15 -76h-80z
M226 594l15 76h80l-15 -76h-80z" />
    <glyph glyph-name="divide" unicode="&#xf7;" horiz-adv-x="487" 
d="M216 390l16 82h80l-16 -82h-80zM141 0l16 82h80l-16 -82h-80zM28 215l9 46h391l-9 -46h-391z" />
    <glyph glyph-name="oslash" unicode="&#xf8;" horiz-adv-x="592" 
d="M546 291q0 -131 -80 -218t-202 -87q-63 0 -119 28l-37 -48l-43 33l36 47q-67 62 -67 166q0 126 80.5 212t206.5 86q65 0 117 -28l39 50l43 -33l-37 -48q63 -60 63 -160zM94 214q0 -75 42 -123l268 347q-41 22 -92 22q-94 0 -156 -75.5t-62 -170.5zM269 36q89 0 153 71.5
t64 173.5q0 76 -40 122l-267 -346q37 -21 90 -21z" />
    <glyph glyph-name="ugrave" unicode="&#xf9;" horiz-adv-x="556" 
d="M54 181l61 315h60l-61 -314q-4 -21 -4 -41q0 -47 29 -76t81 -29q61 0 115 54.5t72 145.5l51 260h60l-96 -496h-60l15 77q-27 -43 -72.5 -67t-99.5 -24q-70 0 -112.5 40t-42.5 109q0 22 4 46zM324 700l42 -138h-52l-72 138h82z" />
    <glyph glyph-name="uacute" unicode="&#xfa;" horiz-adv-x="556" 
d="M54 181l61 315h60l-61 -314q-4 -21 -4 -41q0 -47 29 -76t81 -29q61 0 115 54.5t72 145.5l51 260h60l-96 -496h-60l15 77q-27 -43 -72.5 -67t-99.5 -24q-70 0 -112.5 40t-42.5 109q0 22 4 46zM286 562l87 138h89l-124 -138h-52z" />
    <glyph glyph-name="ucircumflex" unicode="&#xfb;" horiz-adv-x="556" 
d="M54 181l61 315h60l-61 -314q-4 -21 -4 -41q0 -47 29 -76t81 -29q61 0 115 54.5t72 145.5l51 260h60l-96 -496h-60l15 77q-27 -43 -72.5 -67t-99.5 -24q-70 0 -112.5 40t-42.5 109q0 22 4 46zM203 562l126 138h54l73 -138h-50l-61 78l-86 -78h-56z" />
    <glyph glyph-name="udieresis" unicode="&#xfc;" horiz-adv-x="556" 
d="M54 181l61 315h60l-61 -314q-4 -21 -4 -41q0 -47 29 -76t81 -29q61 0 115 54.5t72 145.5l51 260h60l-96 -496h-60l15 77q-27 -43 -72.5 -67t-99.5 -24q-70 0 -112.5 40t-42.5 109q0 22 4 46zM366 594l15 76h80l-15 -76h-80zM218 594l15 76h80l-15 -76h-80z" />
    <glyph glyph-name="yacute" unicode="&#xfd;" horiz-adv-x="477" 
d="M-41 -202l19 53q18 -8 37 -8q24 0 39.5 11.5t32.5 41.5l65 111l-105 489h60l88 -418l245 418h68l-368 -617q-32 -53 -59.5 -71.5t-73.5 -18.5q-26 0 -48 9zM240 562l87 138h89l-124 -138h-52z" />
    <glyph glyph-name="thorn" unicode="&#xfe;" horiz-adv-x="594" 
d="M-20 -204l175 904h60l-53 -279q24 39 73.5 64t105.5 25q90 0 147 -60.5t57 -166.5q0 -118 -78 -207.5t-205 -89.5q-59 0 -104 29t-62 70l-56 -289h-60zM327 460q-84 0 -147.5 -75t-63.5 -181q0 -76 44 -122t117 -46q89 0 148.5 74.5t59.5 174.5q0 84 -43 129.5t-115 45.5
z" />
    <glyph glyph-name="ydieresis" unicode="&#xff;" horiz-adv-x="477" 
d="M-41 -202l19 53q18 -8 37 -8q24 0 39.5 11.5t32.5 41.5l65 111l-105 489h60l88 -418l245 418h68l-368 -617q-32 -53 -59.5 -71.5t-73.5 -18.5q-26 0 -48 9zM326 594l15 76h80l-15 -76h-80zM178 594l15 76h80l-15 -76h-80z" />
    <glyph glyph-name="dotlessi" unicode="&#x131;" horiz-adv-x="210" 
d="M16 0l97 496h60l-97 -496h-60z" />
    <glyph glyph-name="Lslash" unicode="&#x141;" horiz-adv-x="562" 
d="M-15 169l15 70l93 53l80 408h60l-72 -370l185 106l-14 -70l-185 -105l-40 -209h353l-11 -52h-413l43 222z" />
    <glyph glyph-name="lslash" unicode="&#x142;" horiz-adv-x="242" 
d="M-5 176l13 65l81 45l81 414h60l-74 -377l82 46l-13 -65l-82 -46l-50 -258h-60l43 221z" />
    <glyph glyph-name="OE" unicode="&#x152;" horiz-adv-x="1138" 
d="M590 0l20 108q-104 -122 -259 -122q-131 0 -214.5 83.5t-83.5 225.5q0 106 45 200.5t134 156.5t202 62q191 0 263 -167l30 153h414l-11 -52h-354l-50 -260h326l-10 -52h-326l-55 -284h357l-11 -52h-417zM352 38q95 0 168.5 52.5t110.5 134t37 175.5q0 129 -64.5 195.5
t-177.5 66.5q-90 0 -163 -54t-111.5 -136t-38.5 -172q0 -120 68.5 -191t170.5 -71z" />
    <glyph glyph-name="oe" unicode="&#x153;" horiz-adv-x="1020" 
d="M970 243h-427q-2 -10 -2 -33q0 -72 48 -123t122 -51q65 0 108.5 32t80.5 97l43 -28q-81 -151 -239 -151q-69 0 -124 33.5t-80 99.5q-37 -62 -98.5 -97.5t-137.5 -35.5q-94 0 -162 59t-68 167q0 126 80.5 212t206.5 86q70 0 125.5 -33t81.5 -96q37 60 100 94.5t138 34.5
q100 0 156.5 -56t56.5 -144q0 -18 -5 -48zM269 36q89 0 153 71.5t64 173.5q0 82 -47.5 130.5t-126.5 48.5q-94 0 -156 -75.5t-62 -170.5q0 -79 48.5 -128.5t126.5 -49.5zM762 460q-74 0 -131 -45t-75 -122h363q2 15 2 30q0 59 -44.5 98t-114.5 39z" />
    <glyph glyph-name="Scaron" unicode="&#x160;" horiz-adv-x="640" 
d="M367 662q-71 0 -124 -36t-53 -99q0 -55 42.5 -88t131.5 -53q183 -40 183 -172q0 -101 -70.5 -164.5t-182.5 -63.5t-173.5 61.5t-72.5 154.5l58 29q6 -86 55 -139.5t136 -53.5q77 0 133.5 45t56.5 118q0 60 -38 88.5t-130 51.5q-95 24 -142 67t-47 112q0 89 69.5 141.5
t179.5 52.5q82 0 140 -42t80 -124l-51 -31q-40 145 -181 145zM536 904l-126 -138h-54l-73 138h50l61 -78l86 78h56z" />
    <glyph glyph-name="scaron" unicode="&#x161;" horiz-adv-x="478" 
d="M258 460q-41 0 -77 -22.5t-36 -61.5q0 -37 27 -57.5t94 -36.5q135 -32 135 -134q0 -73 -52.5 -117.5t-135.5 -44.5q-73 0 -122 41t-62 103l53 29q8 -53 42.5 -88t89.5 -35q59 0 93 29.5t34 78.5q0 40 -24 59.5t-89 36.5q-139 36 -139 131q0 62 48.5 100.5t123.5 38.5
q133 0 167 -119l-47 -24q-28 93 -123 93zM426 700l-126 -138h-54l-73 138h50l61 -78l86 78h56z" />
    <glyph glyph-name="Ydieresis" unicode="&#x178;" horiz-adv-x="526" 
d="M175 0l57 292l-151 408h67l106 -313q9 -25 14 -49l30 44l234 318h69l-309 -408l-57 -292h-60zM390 798l15 76h80l-15 -76h-80zM242 798l15 76h80l-15 -76h-80z" />
    <glyph glyph-name="Zcaron" unicode="&#x17d;" horiz-adv-x="582" 
d="M121 646l11 54h465l-11 -54l-513 -592h415l-11 -54h-494l11 52l521 594h-394zM512 904l-126 -138h-54l-73 138h50l61 -78l86 78h56z" />
    <glyph glyph-name="zcaron" unicode="&#x17e;" horiz-adv-x="474" 
d="M65 50h318l-10 -50h-387l9 50l382 396h-293l10 50h362l-10 -50zM439 700l-126 -138h-54l-73 138h50l61 -78l86 78h56z" />
    <glyph glyph-name="florin" unicode="&#x192;" horiz-adv-x="304" 
d="M190 452l-105 -544q-12 -64 -46.5 -95t-99.5 -31q-24 0 -42 5l16 52q16 -7 33 -7q30 0 51.5 21.5t28.5 59.5l104 539h-78l9 44h78l22 113q27 141 164 141q20 0 38 -5l-9 -52q-15 7 -39 7q-34 0 -60 -23.5t-35 -72.5l-21 -108h117l-9 -44h-117z" />
    <glyph glyph-name="circumflex" unicode="&#x2c6;" horiz-adv-x="354" 
d="M93 562l126 138h54l73 -138h-50l-61 78l-86 -78h-56z" />
    <glyph glyph-name="caron" unicode="&#x2c7;" horiz-adv-x="354" 
d="M378 700l-126 -138h-54l-73 138h50l61 -78l86 78h56z" />
    <glyph glyph-name="breve" unicode="&#x2d8;" horiz-adv-x="274" 
d="M241 669h57q-16 -99 -113 -99q-37 0 -60 24t-23 56q0 11 2 19h57q-1 -6 -1 -11q0 -34 32 -34q19 0 32 12t17 33z" />
    <glyph glyph-name="dotaccent" unicode="&#x2d9;" horiz-adv-x="210" 
d="M118 590l16 80h76l-16 -80h-76z" />
    <glyph glyph-name="ring" unicode="&#x2da;" horiz-adv-x="292" 
d="M115 635q0 40 28 67.5t68 27.5t68 -27.5t28 -67.5t-28 -67.5t-68 -27.5t-68 27.5t-28 67.5zM159 635q0 -22 15 -37.5t37 -15.5t37 15.5t15 37.5t-15 37.5t-37 15.5t-37 -15.5t-15 -37.5z" />
    <glyph glyph-name="ogonek" unicode="&#x2db;" horiz-adv-x="198" 
d="M-40 -118q0 85 101 126l50 -8q-35 -15 -63 -40t-28 -53q0 -20 13.5 -31.5t33.5 -11.5q6 0 18 2l-3 -58q-20 -6 -39 -6q-37 0 -60 20t-23 60z" />
    <glyph glyph-name="tilde" unicode="&#x2dc;" horiz-adv-x="463" 
d="M215 634q-17 0 -27.5 -11t-10.5 -27q0 -8 2 -16l-51 -10q-4 12 -4 27q0 38 23.5 62.5t69.5 24.5q35 0 58.5 -17t41.5 -34t39 -17q17 0 27 10.5t10 26.5q0 7 -2 17l51 10q4 -18 4 -31q0 -40 -24 -61.5t-64 -21.5q-30 0 -52 10.5t-32 23.5t-25.5 23.5t-33.5 10.5z" />
    <glyph glyph-name="hungarumlaut" unicode="&#x2dd;" horiz-adv-x="426" 
d="M119 562l89 138h92l-127 -138h-54zM262 562l89 138h92l-127 -138h-54z" />
    <glyph glyph-name="pi" unicode="&#x3c0;" horiz-adv-x="632" 
d="M67 496h562l-8 -42h-103l-68 -348q-2 -14 -2 -20q0 -23 14.5 -36.5t40.5 -13.5q15 0 33 5l-3 -48q-22 -7 -54 -7q-39 0 -65 23.5t-26 67.5q0 11 4 35l66 342h-234l-88 -454h-60l88 454h-105z" />
    <glyph glyph-name="endash" unicode="&#x2013;" horiz-adv-x="502" 
d="M46 288l9 46h406l-9 -46h-406z" />
    <glyph glyph-name="emdash" unicode="&#x2014;" 
d="M46 288l9 46h674l-9 -46h-674z" />
    <glyph glyph-name="quoteleft" unicode="&#x2018;" horiz-adv-x="189" 
d="M219 707l14 -15l-75 -100h31l-16 -82h-80l16 82z" />
    <glyph glyph-name="quoteright" unicode="&#x2019;" horiz-adv-x="189" 
d="M84 503l-14 15l75 100h-31l16 82h80l-16 -82z" />
    <glyph glyph-name="quotesinglbase" unicode="&#x201a;" horiz-adv-x="190" 
d="M-29 -115l-14 15l75 100h-31l16 82h80l-16 -82z" />
    <glyph glyph-name="quotedblleft" unicode="&#x201c;" horiz-adv-x="303" 
d="M219 707l14 -15l-75 -100h31l-16 -82h-80l16 82zM333 707l14 -15l-75 -100h31l-16 -82h-80l16 82z" />
    <glyph glyph-name="quotedblright" unicode="&#x201d;" horiz-adv-x="303" 
d="M198 503l-14 15l75 100h-31l16 82h80l-16 -82zM84 503l-14 15l75 100h-31l16 82h80l-16 -82z" />
    <glyph glyph-name="quotedblbase" unicode="&#x201e;" horiz-adv-x="304" 
d="M85 -115l-14 15l75 100h-31l16 82h80l-16 -82zM-29 -115l-14 15l75 100h-31l16 82h80l-16 -82z" />
    <glyph glyph-name="dagger" unicode="&#x2020;" horiz-adv-x="442" 
d="M76 444l10 52h144l47 244h58l-47 -244h144l-10 -52h-144l-108 -554h-58l108 554h-144z" />
    <glyph glyph-name="daggerdbl" unicode="&#x2021;" horiz-adv-x="442" 
d="M76 444l10 52h144l47 244h58l-47 -244h144l-10 -52h-144l-51 -258h144l-10 -52h-144l-47 -244h-58l47 244h-144l10 52h144l51 258h-144z" />
    <glyph glyph-name="bullet" unicode="&#x2022;" horiz-adv-x="262" 
d="M52 275q0 32 23.5 55.5t55.5 23.5t55.5 -23.5t23.5 -55.5t-23.5 -55.5t-55.5 -23.5t-55.5 23.5t-23.5 55.5z" />
    <glyph glyph-name="ellipsis" unicode="&#x2026;" horiz-adv-x="536" 
d="M-10 0l15 82h80l-15 -82h-80zM170 0l15 82h80l-15 -82h-80zM350 0l15 82h80l-15 -82h-80z" />
    <glyph glyph-name="perthousand" unicode="&#x2030;" horiz-adv-x="1172" 
d="M470 141q0 82 55 138.5t138 56.5q100 0 134 -73q57 73 153 73q72 0 111.5 -42t39.5 -111q0 -80 -54.5 -138.5t-139.5 -58.5q-42 0 -76.5 21t-52.5 55q-51 -76 -158 -76q-63 0 -106.5 44.5t-43.5 110.5zM102 519q0 82 55 138.5t138 56.5q72 0 111.5 -42t39.5 -111
q0 -80 -54.5 -138.5t-139.5 -58.5q-63 0 -106.5 44.5t-43.5 110.5zM289 664q-55 0 -94 -42t-39 -101q0 -49 29 -78t75 -29q55 0 93.5 42t38.5 99q0 52 -27.5 80.5t-75.5 28.5zM657 286q-55 0 -94 -42t-39 -101q0 -49 29 -78t75 -29q55 0 93.5 42t38.5 99q0 52 -27.5 80.5
t-75.5 28.5zM944 286q-55 0 -93.5 -42t-38.5 -101q0 -49 28.5 -78t74.5 -29q55 0 93.5 42t38.5 99q0 52 -27.5 80.5t-75.5 28.5zM193 4l-36 33l563 661l36 -33z" />
    <glyph glyph-name="guilsinglleft" unicode="&#x2039;" horiz-adv-x="306" 
d="M238 469h76l-196 -199l110 -189h-64l-114 194z" />
    <glyph glyph-name="guilsinglright" unicode="&#x203a;" horiz-adv-x="306" 
d="M73 81h-76l196 199l-110 189h64l114 -194z" />
    <glyph glyph-name="fraction" unicode="&#x2044;" horiz-adv-x="515" 
d="M3 4l-36 33l563 661l36 -33z" />
    <glyph glyph-name="Euro" unicode="&#x20ac;" horiz-adv-x="741" 
d="M61 401l31 48h49q41 117 131.5 191t219.5 74q94 0 153.5 -47.5t78.5 -138.5l-53 -20q-17 81 -64 117.5t-129 36.5q-95 0 -165.5 -58.5t-111.5 -154.5h301l-31 -48h-284q-12 -45 -14 -102h300l-31 -48h-268q8 -98 58 -155.5t141 -57.5q85 0 137.5 40.5t98.5 130.5l46 -18
q-93 -205 -285 -205q-112 0 -180 70t-76 195h-82l31 48h50q1 49 14 102h-66z" />
    <glyph glyph-name="trademark" unicode="&#x2122;" horiz-adv-x="841" 
d="M108 660l7 40h294l-7 -40h-123l-70 -360h-48l70 360h-123zM392 300l77 400h48l80 -356l218 356h48l-77 -400h-42l60 306l-190 -306h-48l-71 314l-61 -314h-42z" />
    <glyph glyph-name="Omega" unicode="&#x2126;" horiz-adv-x="780" 
d="M645 58l-11 -58h-242l13 68q116 52 196 147.5t80 211.5q0 109 -66.5 172t-176.5 63q-135 0 -227 -96.5t-92 -214.5q0 -185 153 -283l-13 -68h-241l11 58h176q-144 109 -144 287q0 152 108 260.5t277 108.5q137 0 216 -75.5t79 -208.5q0 -119 -71.5 -213t-196.5 -159h172z
" />
    <glyph glyph-name="arrowleft" unicode="&#x2190;" horiz-adv-x="542" 
d="M252 153l-40 -33l-154 191l229 191l30 -37l-157 -131h338l-9 -46h-346z" />
    <glyph glyph-name="arrowup" unicode="&#x2191;" horiz-adv-x="474" 
d="M441 394l-40 -32l-102 134l-66 -341h-48l67 340l-158 -133l-29 37l222 187z" />
    <glyph glyph-name="arrowright" unicode="&#x2192;" horiz-adv-x="542" 
d="M294 469l40 33l154 -191l-229 -191l-30 37l157 131h-338l9 46h346z" />
    <glyph glyph-name="arrowdown" unicode="&#x2193;" horiz-adv-x="474" 
d="M55 347l40 32l102 -134l66 341h48l-67 -340l158 133l29 -37l-222 -187z" />
    <glyph glyph-name="arrowboth" unicode="&#x2194;" horiz-adv-x="745" 
d="M497 469l40 33l154 -191l-229 -191l-30 37l157 131h-447l109 -135l-40 -33l-154 191l229 191l30 -37l-157 -131h447z" />
    <glyph glyph-name="arrowupdn" unicode="&#x2195;" horiz-adv-x="474" 
d="M37 224l40 32l102 -134l89 455l-158 -133l-29 37l222 187l154 -192l-40 -32l-102 134l-89 -455l158 133l29 -37l-222 -187z" />
    <glyph glyph-name="uni2196" unicode="&#x2196;" horiz-adv-x="499" 
d="M123 194h-51l53 271h271l-9 -48h-189l194 -244l-38 -32l-194 242z" />
    <glyph glyph-name="uni2197" unicode="&#x2197;" horiz-adv-x="499" 
d="M386 194h-50l35 183l-284 -240l-30 37l289 243h-187l9 48h271z" />
    <glyph glyph-name="uni2198" unicode="&#x2198;" horiz-adv-x="499" 
d="M377 412h51l-53 -271h-271l9 48h189l-194 244l38 32l194 -242z" />
    <glyph glyph-name="uni2199" unicode="&#x2199;" horiz-adv-x="499" 
d="M114 412h50l-35 -183l284 240l30 -37l-289 -243h187l-9 -48h-271z" />
    <glyph glyph-name="partialdiff" unicode="&#x2202;" horiz-adv-x="574" 
d="M545 418q0 -84 -16.5 -158.5t-50 -137t-92.5 -99.5t-136 -37q-90 0 -154 55.5t-64 153.5q0 111 76 189t196 78q58 0 105.5 -27t72.5 -72q3 29 3 64q0 233 -166 233q-49 0 -87 -23.5t-38 -62.5q0 -8 3 -23l-54 -21q-7 18 -7 38q0 64 54.5 105t137.5 41q217 0 217 -296z
M249 38q88 0 146.5 65t58.5 151q0 75 -44 115.5t-112 40.5q-88 0 -147 -62t-59 -149q0 -74 47.5 -117.5t109.5 -43.5z" />
    <glyph glyph-name="Delta" unicode="&#x2206;" horiz-adv-x="636" 
d="M-52 0l415 700h67l141 -700h-623zM363 596l-320 -546h458l-108 546q-7 32 -7 41l-3 -5q-3 -6 -8.5 -16t-11.5 -20z" />
    <glyph glyph-name="product" unicode="&#x220f;" horiz-adv-x="662" 
d="M-7 -204l175 904h480l-175 -904h-60l165 852h-360l-165 -852h-60z" />
    <glyph glyph-name="summation" unicode="&#x2211;" horiz-adv-x="562" 
d="M271 290l-158 354l11 56h461l-11 -56h-396l159 -364l-299 -348h410l-10 -52h-480l11 59z" />
    <glyph glyph-name="minus" unicode="&#x2212;" horiz-adv-x="487" 
d="M53 342l9 46h391l-9 -46h-391z" />
    <glyph glyph-name="radical" unicode="&#x221a;" horiz-adv-x="579" 
d="M238 0h-53l-49 304h-101l10 52h143l38 -269l348 613h58z" />
    <glyph glyph-name="infinity" unicode="&#x221e;" horiz-adv-x="774" 
d="M60 279q0 70 46.5 119.5t125.5 49.5q56 0 92.5 -28t69.5 -78q44 50 86 78t98 28q65 0 100.5 -35.5t35.5 -89.5q0 -77 -49 -124t-120 -47q-57 0 -93 27t-66 76q-41 -49 -84.5 -76t-103.5 -27q-66 0 -102 36t-36 91zM224 402q-46 0 -78 -34.5t-32 -82.5q0 -40 23 -63.5
t67 -23.5q74 0 155 102q-29 49 -59 75.5t-76 26.5zM573 402q-45 0 -79 -26t-75 -78q31 -49 59 -74.5t71 -25.5t77 33t34 90q0 36 -23 58.5t-64 22.5z" />
    <glyph glyph-name="integral" unicode="&#x222b;" horiz-adv-x="304" 
d="M220 604l-135 -696q-12 -64 -46.5 -95t-99.5 -31q-24 0 -42 5l16 52q16 -7 33 -7q30 0 51.5 21.5t28.5 59.5l135 696q27 141 164 141q20 0 38 -5l-9 -52q-15 7 -39 7q-34 0 -60 -23.5t-35 -72.5z" />
    <glyph glyph-name="approxequal" unicode="&#x2248;" horiz-adv-x="427" 
d="M138 280q-19 0 -30.5 -12.5t-11.5 -32.5q0 -5 2 -13l-55 -9q-4 10 -4 28q0 38 25 64t73 26q37 0 64 -16.5t48.5 -33t43.5 -16.5q34 0 34 41q0 5 -2 13l55 11q4 -10 4 -29q0 -41 -25.5 -64t-71.5 -23q-36 0 -63 16.5t-47.5 33t-38.5 16.5zM170 432q-19 0 -30.5 -12.5
t-11.5 -32.5q0 -5 2 -13l-55 -9q-4 10 -4 28q0 38 25 64t73 26q37 0 64 -16.5t48.5 -33t43.5 -16.5q34 0 34 41q0 5 -2 13l55 11q4 -10 4 -29q0 -41 -25.5 -64t-71.5 -23q-36 0 -63 16.5t-47.5 33t-38.5 16.5z" />
    <glyph glyph-name="notequal" unicode="&#x2260;" horiz-adv-x="487" 
d="M75 422l9 46h229l106 134l37 -30l-82 -104h101l-9 -46h-128l-114 -144h215l-9 -46h-242l-105 -134l-37 30l82 104h-89l9 46h116l113 144h-202z" />
    <glyph glyph-name="lessequal" unicode="&#x2264;" horiz-adv-x="493" 
d="M44 358l13 64l428 194l-10 -61l-375 -168l308 -168l-10 -55zM-5 0l9 46h391l-9 -46h-391z" />
    <glyph glyph-name="greaterequal" unicode="&#x2265;" horiz-adv-x="493" 
d="M484 422l-13 -64l-428 -194l10 61l375 168l-308 168l10 55zM-5 0l9 46h391l-9 -46h-391z" />
    <glyph glyph-name="lozenge" unicode="&#x25ca;" horiz-adv-x="560" 
d="M542 350l-287 -350h-68l-149 350l286 350h68zM227 50l250 308l-124 292l-249 -307z" />
    <glyph glyph-name="apple" unicode="&#xf8ff;" horiz-adv-x="780" 
d="M686 617v-595q0 -9 -6.5 -15.5t-15.5 -6.5q-3 0 -7 1l-267 77l-267 -77q-4 -1 -7 -1q-9 0 -15.5 6.5t-6.5 15.5v595q0 17 16 22l270 78q6 2 10 2t10 -2l270 -78q16 -5 16 -22zM368 366v303l-230 -67q6 -94 71.5 -161t158.5 -75zM412 669v-303q93 8 158.5 75t71.5 161z
M137 463v-412l231 67v204q-73 6 -134 43.5t-97 97.5zM643 51v412q-37 -60 -97.5 -97.5t-133.5 -43.5v-204z" />
    </font>
</defs>
</svg>
