<?xml version="1.0" standalone="no"?>
<!DOCTYPE svg PUBLIC "-//W3C//DTD SVG 1.1//EN" "http://www.w3.org/Graphics/SVG/1.1/DTD/svg11.dtd" >
<svg xmlns="http://www.w3.org/2000/svg" xmlns:xlink="http://www.w3.org/1999/xlink" version="1.1">
<metadata>
Created by FontForge 20170731 at Sun Nov  6 18:43:09 2016
 By Aleksey,,,
Copyright (c) 2015 by Colophon Foundry. All rights reserved.
</metadata>
<defs>
<font id="BasisGrotesque-OffWhiteItalic" horiz-adv-x="230" >
  <font-face 
    font-family="Basis Grotesque Off White"
    font-weight="350"
    font-style="italic"
    font-stretch="normal"
    units-per-em="1000"
    panose-1="2 0 5 3 3 0 0 9 0 4"
    ascent="800"
    descent="-200"
    x-height="496"
    cap-height="700"
    bbox="-116 -218 1154 934"
    underline-thickness="50"
    underline-position="-200"
    slope="-11"
    unicode-range="U+000D-FB04"
  />
<missing-glyph horiz-adv-x="500" 
 />
    <glyph glyph-name="ff" unicode="ff" horiz-adv-x="581" 
d="M203 442l-86 -442h-70l86 442h-78l10 54h78l21 107q28 147 169 147q23 0 41 -6l-11 -60q-15 6 -38 6q-33 0 -58 -23.5t-34 -67.5l-20 -103h194l21 107q28 147 169 147q23 0 41 -6l-11 -60q-15 6 -38 6q-33 0 -58 -23.5t-34 -67.5l-20 -103h111l-10 -54h-111l-86 -442h-70
l86 442h-194z" />
    <glyph glyph-name="fi" unicode="fi" horiz-adv-x="531" 
d="M323 0l85 442h-205l-86 -442h-70l86 442h-78l10 54h78l21 107q28 147 169 147q23 0 41 -6l-11 -60q-15 6 -38 6q-33 0 -58 -23.5t-34 -67.5l-20 -103h276l-96 -496h-70zM429 586l17 90h86l-17 -90h-86z" />
    <glyph glyph-name="fl" unicode="fl" horiz-adv-x="531" 
d="M55 442l10 54h78l21 107q28 147 169 147q23 0 41 -6l-11 -60q-15 6 -38 6q-33 0 -58 -23.5t-34 -67.5l-20 -103h115l-10 -54h-115l-86 -442h-70l86 442h-78zM322 0l137 700h70l-137 -700h-70z" />
    <glyph glyph-name="f_f_i" unicode="ffi" horiz-adv-x="797" 
d="M589 0l85 442h-207l-86 -442h-70l86 442h-194l-86 -442h-70l86 442h-78l10 54h78l21 107q28 147 169 147q23 0 41 -6l-11 -60q-15 6 -38 6q-33 0 -58 -23.5t-34 -67.5l-20 -103h194l21 107q28 147 169 147q23 0 41 -6l-11 -60q-15 6 -38 6q-33 0 -58 -23.5t-34 -67.5
l-20 -103h278l-96 -496h-70zM695 586l17 90h86l-17 -90h-86z" />
    <glyph glyph-name="f_f_l" unicode="ffl" horiz-adv-x="795" 
d="M203 442l-86 -442h-70l86 442h-78l10 54h78l21 107q28 147 169 147q23 0 41 -6l-11 -60q-15 6 -38 6q-33 0 -58 -23.5t-34 -67.5l-20 -103h195l21 107q28 147 169 147q23 0 41 -6l-11 -60q-15 6 -38 6q-33 0 -58 -23.5t-34 -67.5l-20 -103h115l-10 -54h-115l-86 -442h-70
l86 442h-195zM586 0l137 700h70l-137 -700h-70z" />
    <glyph glyph-name="f_j" unicode="fj" horiz-adv-x="533" 
d="M187 -203l18 63q17 -7 37 -7q29 0 45 17t23 54l100 518h-207l-86 -442h-70l86 442h-78l10 54h78l21 107q28 147 169 147q23 0 41 -6l-11 -60q-15 6 -38 6q-33 0 -58 -23.5t-34 -67.5l-20 -103h278l-114 -583q-25 -124 -138 -124q-30 0 -52 8zM430 586l18 90h86l-18 -90
h-86z" />
    <glyph glyph-name="f_f_j" unicode="ffj" horiz-adv-x="797" 
d="M55 442l10 54h78l21 107q28 147 169 147q23 0 41 -6l-11 -60q-15 6 -38 6q-33 0 -58 -23.5t-34 -67.5l-20 -103h194l21 107q28 147 169 147q23 0 41 -6l-11 -60q-15 6 -38 6q-33 0 -58 -23.5t-34 -67.5l-20 -103h278l-114 -583q-25 -124 -138 -124q-30 0 -52 8l18 63
q17 -7 37 -7q29 0 45 17t23 54l100 518h-207l-86 -442h-70l86 442h-194l-86 -442h-70l86 442h-78zM694 586l18 90h86l-18 -90h-86z" />
    <glyph glyph-name=".notdef" horiz-adv-x="500" 
 />
    <glyph glyph-name=".null" horiz-adv-x="0" 
 />
    <glyph glyph-name="nonmarkingreturn" horiz-adv-x="333" 
 />
    <glyph glyph-name="NULL" horiz-adv-x="0" 
 />
    <glyph glyph-name="NULL" horiz-adv-x="0" 
 />
    <glyph glyph-name="CR" unicode="&#xd;" horiz-adv-x="289" 
 />
    <glyph glyph-name="space" unicode=" " horiz-adv-x="276" 
 />
    <glyph glyph-name="exclam" unicode="!" horiz-adv-x="264" 
d="M128 479l43 221h76l-43 -221l-71 -297h-51zM28 0l19 93h88l-19 -93h-88z" />
    <glyph glyph-name="quotedbl" unicode="&#x22;" horiz-adv-x="344" 
d="M273 647l11 53h74l-11 -53l-44 -154h-46zM133 647l11 53h74l-11 -53l-44 -154h-46z" />
    <glyph glyph-name="numbersign" unicode="#" horiz-adv-x="659" 
d="M352 0l42 226h-170l-42 -226h-66l42 226h-104v54h114l26 140h-120v54h130l42 226h66l-42 -226h170l42 226h66l-42 -226h104v-54h-114l-26 -140h120v-54h-130l-42 -226h-66zM260 420l-26 -140h170l26 140h-170z" />
    <glyph glyph-name="dollar" unicode="$" horiz-adv-x="655" 
d="M220 -100l17 91q-85 16 -134.5 76t-56.5 135l67 34q6 -69 40 -117t97 -62l55 281q-165 44 -165 181q0 86 67 139.5t171 55.5l17 86h67l-18 -92q133 -27 169 -160l-59 -36q-28 107 -122 133l-50 -257q170 -45 170 -174q0 -97 -69 -160.5t-180 -67.5l-16 -86h-67zM476 202
q0 46 -26 73.5t-81 45.5l-53 -268q68 6 114 45t46 104zM212 524q0 -44 24 -71.5t82 -46.5l48 245q-66 -2 -110 -36t-44 -91z" />
    <glyph glyph-name="percent" unicode="%" horiz-adv-x="885" 
d="M101 519q0 82 55 138.5t138 56.5q73 0 113 -42t40 -111q0 -80 -55 -138.5t-138 -58.5q-66 0 -109.5 44.5t-43.5 110.5zM288 656q-52 0 -88.5 -38.5t-36.5 -96.5q0 -46 27 -72.5t71 -26.5q53 0 88.5 38.5t35.5 94.5q0 49 -25 75t-72 26zM469 141q0 82 55 138.5t138 56.5
q73 0 113 -42t40 -111q0 -80 -55 -138.5t-138 -58.5q-66 0 -109.5 44.5t-43.5 110.5zM656 278q-52 0 -88.5 -38.5t-36.5 -96.5q0 -46 27 -72.5t71 -26.5q53 0 88.5 38.5t35.5 94.5q0 49 -25 75t-72 26zM196 2l-42 37l565 659l42 -38z" />
    <glyph glyph-name="ampersand" unicode="&#x26;" horiz-adv-x="640" 
d="M528 323l50 -31q-32 -111 -89 -186l66 -106h-79l-34 55q-79 -69 -189 -69q-88 0 -143 57t-55 142q0 155 169 229q-28 53 -28 119q0 74 47 127.5t128 53.5q60 0 100 -33.5t40 -92.5q0 -130 -194 -202l138 -225q43 64 73 162zM261 48q87 0 149 59l-156 256
q-55 -25 -92 -67.5t-37 -105.5q0 -64 38.5 -103t97.5 -39zM264 536q0 -63 22 -99q87 32 123.5 60.5t36.5 82.5q0 32 -21.5 53t-56.5 21q-50 0 -77 -35t-27 -83z" />
    <glyph glyph-name="quotesingle" unicode="'" horiz-adv-x="204" 
d="M133 647l11 53h74l-11 -53l-44 -154h-46z" />
    <glyph glyph-name="parenleft" unicode="(" horiz-adv-x="340" 
d="M167 -148h-65q-40 110 -40 280q0 164 59 314t146 254h65q-82 -110 -140 -263.5t-58 -312.5q0 -144 33 -272z" />
    <glyph glyph-name="parenright" unicode=")" horiz-adv-x="340" 
d="M168 700h65q40 -110 40 -280q0 -164 -59 -314t-146 -254h-65q82 110 140 263.5t58 312.5q0 144 -33 272z" />
    <glyph glyph-name="asterisk" unicode="*" horiz-adv-x="434" 
d="M332 700l-37 -116l107 69l27 -65l-118 -41l94 -41l-40 -66l-85 70l-7 -116h-74l37 116l-97 -69l-35 63l118 43l-92 39l37 67l85 -69l6 116h74z" />
    <glyph glyph-name="plus" unicode="+" horiz-adv-x="506" 
d="M59 338l11 54h174l34 174h55l-34 -174h173l-11 -54h-173l-34 -174h-55l34 174h-174z" />
    <glyph glyph-name="comma" unicode="," horiz-adv-x="190" 
d="M-7 0l18 92h88l-18 -92l-91 -121l-18 12l56 109h-35z" />
    <glyph glyph-name="hyphen" unicode="-" horiz-adv-x="456" 
d="M46 284l11 54h358l-11 -54h-358z" />
    <glyph glyph-name="period" unicode="." horiz-adv-x="190" 
d="M-7 0l17 92h88l-17 -92h-88z" />
    <glyph glyph-name="slash" unicode="/" horiz-adv-x="496" 
d="M-54 -30l547 760h76l-547 -760h-76z" />
    <glyph glyph-name="zero" unicode="0" horiz-adv-x="716" 
d="M673 417q0 -115 -38.5 -211t-120 -158t-191.5 -62q-119 0 -194 83t-75 215q0 83 24.5 160t68.5 137.5t110.5 96.5t144.5 36q127 0 199 -79t72 -218zM328 50q122 0 195.5 104t73.5 251q0 116 -53 180.5t-147 64.5q-80 0 -142.5 -54.5t-93.5 -136.5t-31 -173
q0 -109 54.5 -172.5t143.5 -63.5z" />
    <glyph glyph-name="one" unicode="1" horiz-adv-x="362" 
d="M106 548l12 64q110 0 171 88h66l-137 -700h-74l116 596q-56 -48 -154 -48z" />
    <glyph glyph-name="two" unicode="2" horiz-adv-x="581" 
d="M13 47l321 268q64 54 93.5 103t29.5 104q0 61 -36 94.5t-99 33.5q-66 0 -109.5 -42.5t-43.5 -107.5q0 -22 3 -37l-66 -11q-7 26 -7 55q0 90 64.5 148.5t167.5 58.5q89 0 144.5 -50.5t55.5 -138.5q0 -127 -146 -250l-245 -206h324l-13 -69h-447z" />
    <glyph glyph-name="three" unicode="3" horiz-adv-x="590" 
d="M81 238l64 -15q-8 -17 -8 -47q0 -54 39.5 -88t107.5 -34q73 0 118 42.5t45 117.5q0 130 -174 130l12 64q83 0 133.5 36t50.5 105q0 45 -33 73t-93 28q-58 0 -98.5 -35t-40.5 -88q0 -16 1 -25l-68 -10q-3 15 -3 29q0 81 59 137t153 56q91 0 143 -45.5t52 -114.5
q0 -59 -36.5 -106.5t-100.5 -68.5q50 -17 83.5 -57t33.5 -101q0 -103 -65 -169t-177 -66q-95 0 -153.5 54t-58.5 132q0 40 14 66z" />
    <glyph glyph-name="four" unicode="4" horiz-adv-x="579" 
d="M28 144l13 66l420 490h75l-96 -490h80l-13 -66h-80l-28 -144h-76l28 144h-323zM435 575l-313 -365h242z" />
    <glyph glyph-name="five" unicode="5" horiz-adv-x="594" 
d="M73 323l107 377h395l-13 -66h-335l-72 -244q33 40 82.5 64t99.5 24q89 0 143 -55.5t54 -151.5q0 -123 -75 -204t-196 -81q-89 0 -148.5 51t-59.5 128q0 35 12 64l65 -16q-7 -17 -7 -44q0 -54 38.5 -84.5t105.5 -30.5q86 0 138.5 57t52.5 156q0 71 -40.5 108.5
t-105.5 37.5q-58 0 -105 -31.5t-72 -76.5z" />
    <glyph glyph-name="six" unicode="6" horiz-adv-x="607" 
d="M560 497l-65 16q8 21 8 44q0 43 -34 67t-87 24q-87 0 -155 -80.5t-89 -215.5q27 47 83.5 76.5t114.5 29.5q88 0 149 -57.5t61 -146.5q0 -116 -73.5 -192t-182.5 -76q-104 0 -168 73.5t-64 199.5q0 73 21.5 150.5t61 147t105 113.5t144.5 44t131 -42t52 -109
q0 -29 -13 -66zM315 394q-78 0 -128 -55t-50 -131q0 -63 43.5 -110.5t116.5 -47.5q74 0 123.5 54t49.5 137q0 68 -43.5 110.5t-111.5 42.5z" />
    <glyph glyph-name="seven" unicode="7" horiz-adv-x="539" 
d="M562 642l-410 -642h-79l408 634h-368l13 66h448z" />
    <glyph glyph-name="eight" unicode="8" horiz-adv-x="580" 
d="M264 -14q-88 0 -150 54t-62 141q0 68 43 123.5t112 79.5q-75 49 -75 134q0 80 61 138t156 58q89 0 142.5 -46.5t53.5 -117.5q0 -64 -35.5 -112t-93.5 -71q96 -53 96 -153q0 -105 -71.5 -166.5t-176.5 -61.5zM271 48q69 0 118 43.5t49 119.5q0 59 -40.5 96t-102.5 37
q-76 0 -121.5 -46.5t-45.5 -118.5q0 -58 40.5 -94.5t102.5 -36.5zM347 654q-63 0 -105 -39t-42 -96q0 -54 35 -86t87 -32q68 0 111.5 38t43.5 102q0 53 -36.5 83t-93.5 30z" />
    <glyph glyph-name="nine" unicode="9" horiz-adv-x="611" 
d="M77 200l65 -15q-7 -19 -7 -40q0 -45 32 -69t85 -24q90 0 154 78.5t89 224.5q-31 -51 -84 -82t-112 -31q-91 0 -155.5 60.5t-64.5 156.5q0 112 73 183.5t180 71.5q112 0 174.5 -72t62.5 -200q0 -77 -18.5 -154t-55 -146t-100 -112.5t-143.5 -43.5q-81 0 -134 41.5
t-53 109.5q0 32 12 63zM309 306q79 0 128 54t49 133q0 67 -41.5 112t-114.5 45q-76 0 -126.5 -53.5t-50.5 -132.5q0 -78 44 -118t112 -40z" />
    <glyph glyph-name="colon" unicode=":" horiz-adv-x="190" 
d="M68 382l18 92h88l-18 -92h-88zM-7 0l18 92h88l-18 -92h-88z" />
    <glyph glyph-name="semicolon" unicode=";" horiz-adv-x="190" 
d="M67 382l18 92h88l-18 -92h-88zM-7 0l18 92h88l-18 -92l-91 -121l-18 12l56 109h-35z" />
    <glyph glyph-name="less" unicode="&#x3c;" horiz-adv-x="517" 
d="M47 276l13 68l439 199l-14 -72l-369 -164l306 -163l-12 -67z" />
    <glyph glyph-name="equal" unicode="=" horiz-adv-x="506" 
d="M38 228l10 54h402l-10 -54h-402zM75 418l10 54h402l-10 -54h-402z" />
    <glyph glyph-name="greater" unicode="&#x3e;" horiz-adv-x="517" 
d="M472 344l-13 -68l-439 -199l14 72l369 164l-307 164l13 66z" />
    <glyph glyph-name="question" unicode="?" horiz-adv-x="536" 
d="M277 188h-76l2 13q8 53 33.5 87t88.5 79q59 42 90.5 80.5t31.5 93.5q0 51 -33.5 81t-90.5 30q-66 0 -107.5 -40t-41.5 -109q0 -14 3 -29l-68 -12q-5 27 -5 47q0 89 61 147t163 58q87 0 140 -47t53 -120q0 -66 -38 -117.5t-121 -110.5q-40 -29 -58.5 -56.5t-26.5 -74.5z
M159 0l18 93h88l-18 -93h-88z" />
    <glyph glyph-name="at" unicode="@" horiz-adv-x="947" 
d="M614 -36l24 -53q-109 -63 -237 -63q-91 0 -170 41t-130.5 126.5t-51.5 199.5q0 133 58 246t170.5 183t256.5 70q164 0 261.5 -91t97.5 -239q0 -93 -31.5 -174t-90.5 -132t-133 -51q-37 0 -57.5 21t-20.5 58q0 18 4 37q-26 -53 -74.5 -84.5t-102.5 -31.5
q-71 0 -115.5 55.5t-44.5 150.5q0 119 75 213t189 94q41 0 76.5 -22.5t46.5 -63.5l15 70h65l-76 -382q-2 -10 -2 -18q0 -37 37 -37q51 0 92.5 44t62.5 109.5t21 136.5q0 121 -79 199t-226 78q-114 0 -208 -60t-146.5 -159.5t-52.5 -214.5q0 -143 82 -227.5t209 -84.5
q113 0 206 56zM400 87q82 0 138 81.5t56 176.5q0 135 -105 135q-85 0 -139.5 -76t-54.5 -170q0 -69 28.5 -108t76.5 -39z" />
    <glyph glyph-name="A" unicode="A" horiz-adv-x="656" 
d="M515 0l-42 212h-316l-125 -212h-79l415 700h77l141 -700h-71zM361 563l-170 -291h269l-57 291q-7 36 -10 58z" />
    <glyph glyph-name="B" unicode="B" horiz-adv-x="641" 
d="M33 0l137 700h243q89 0 139.5 -41t50.5 -111q0 -62 -42.5 -110.5t-107.5 -65.5q46 -16 79 -54.5t33 -96.5q0 -101 -78 -161t-196 -60h-258zM174 341l-54 -279h160q98 0 155.5 40t57.5 120q0 119 -156 119h-163zM231 638l-46 -237h168q73 0 124.5 37t51.5 100
q0 100 -132 100h-166z" />
    <glyph glyph-name="C" unicode="C" horiz-adv-x="748" 
d="M605 208l54 -38q-113 -184 -311 -184q-133 0 -210.5 86t-77.5 224q0 108 49 203t142.5 155t210.5 60q99 0 165.5 -48t95.5 -131l-59 -37q-56 152 -213 152q-135 0 -225 -107t-90 -245q0 -110 60 -179t160 -69q152 0 249 158z" />
    <glyph glyph-name="D" unicode="D" horiz-adv-x="693" 
d="M33 0l137 700h185q131 0 210.5 -74.5t79.5 -213.5q0 -181 -114.5 -296.5t-304.5 -115.5h-193zM120 64h108q161 0 251 96.5t90 248.5q0 117 -62 172t-173 55h-103z" />
    <glyph glyph-name="E" unicode="E" horiz-adv-x="593" 
d="M33 0l137 700h424l-13 -64h-350l-47 -242h322l-12 -64h-322l-52 -266h353l-13 -64h-427z" />
    <glyph glyph-name="F" unicode="F" horiz-adv-x="593" 
d="M33 0l137 700h434l-13 -64h-360l-51 -262h330l-12 -64h-330l-61 -310h-74z" />
    <glyph glyph-name="G" unicode="G" horiz-adv-x="766" 
d="M586 0v119q-95 -133 -252 -133q-123 0 -198 84.5t-75 213.5q0 184 113 307t288 123q197 0 268 -169l-58 -38q-61 143 -220 143q-135 0 -225 -105.5t-90 -255.5q0 -102 58 -170.5t151 -68.5q97 0 173 72.5t99 160.5h-254l13 62h327l-68 -345h-50z" />
    <glyph glyph-name="H" unicode="H" horiz-adv-x="690" 
d="M35 0l137 700h74l-61 -311h353l61 311h74l-137 -700h-74l64 325h-353l-64 -325h-74z" />
    <glyph glyph-name="I" unicode="I" horiz-adv-x="260" 
d="M34 0l137 700h74l-137 -700h-74z" />
    <glyph glyph-name="J" unicode="J" horiz-adv-x="537" 
d="M546 700l-98 -502q-21 -106 -82.5 -159t-157.5 -53q-73 0 -125.5 46t-52.5 115q0 19 5 46l73 -8q-4 -16 -4 -32q0 -47 33.5 -75t80.5 -28q127 0 156 147l98 503h74z" />
    <glyph glyph-name="K" unicode="K" horiz-adv-x="619" 
d="M33 0l137 700h74l-64 -325l79 69l293 256h95l-293 -260l177 -440h-81l-155 390l-134 -117l-54 -273h-74z" />
    <glyph glyph-name="L" unicode="L" horiz-adv-x="573" 
d="M33 0l137 700h74l-124 -636h348l-13 -64h-422z" />
    <glyph glyph-name="M" unicode="M" horiz-adv-x="860" 
d="M843 700l-137 -700h-70l109 559l-57 -98l-278 -461h-78l-100 464q-14 66 -17 99l-110 -563h-70l137 700h76l133 -635l380 635h82z" />
    <glyph glyph-name="N" unicode="N" horiz-adv-x="708" 
d="M35 0l137 700h76l237 -543q17 -40 20 -55l117 598h70l-137 -700h-76l-238 545q-16 40 -19 55l-117 -600h-70z" />
    <glyph glyph-name="O" unicode="O" horiz-adv-x="788" 
d="M742 403q0 -80 -25.5 -153.5t-72 -133t-121 -95t-164.5 -35.5q-132 0 -216.5 84t-84.5 226q0 106 45 200.5t134.5 156t204.5 61.5q139 0 219.5 -82t80.5 -229zM362 50q136 0 220 104t84 246q0 120 -62.5 185t-170.5 65q-86 0 -156 -52t-106.5 -131.5t-36.5 -166.5
q0 -115 64.5 -182.5t163.5 -67.5z" />
    <glyph glyph-name="P" unicode="P" horiz-adv-x="678" 
d="M33 0l137 700h265q107 0 163.5 -51t56.5 -145q0 -111 -77.5 -174.5t-204.5 -63.5h-214l-52 -266h-74zM231 636l-59 -306h206q96 0 149.5 46t53.5 127q0 66 -40.5 99.5t-116.5 33.5h-193z" />
    <glyph glyph-name="Q" unicode="Q" horiz-adv-x="788" 
d="M742 403q0 -139 -73 -253t-203 -150q21 -48 60 -93l-60 -47q-45 56 -76 127q-16 -1 -31 -1q-132 0 -216.5 84t-84.5 226q0 106 45 200.5t134.5 156t204.5 61.5q139 0 219.5 -82t80.5 -229zM362 50q136 0 220 104t84 246q0 120 -62.5 185t-170.5 65q-86 0 -156 -52
t-106.5 -131.5t-36.5 -166.5q0 -116 64.5 -183t163.5 -67z" />
    <glyph glyph-name="R" unicode="R" horiz-adv-x="640" 
d="M454 0l-114 306h-173l-60 -306h-74l137 700h257q96 0 150 -46.5t54 -127.5q0 -85 -63.5 -145t-151.5 -71l114 -310h-76zM231 636l-52 -266h186q81 0 136.5 40.5t55.5 110.5q0 61 -35.5 88t-104.5 27h-186z" />
    <glyph glyph-name="S" unicode="S" horiz-adv-x="646" 
d="M368 652q-67 0 -116.5 -34.5t-49.5 -93.5q0 -50 42 -81t129 -51q183 -42 183 -178q0 -100 -72.5 -164t-187.5 -64q-111 0 -174 61.5t-75 154.5l67 34q10 -81 57.5 -133.5t129.5 -52.5q73 0 126 41.5t53 110.5q0 56 -38 85t-122 49q-190 45 -190 183q0 88 69 141.5
t177 53.5q89 0 147.5 -42.5t80.5 -123.5l-59 -36q-42 140 -177 140z" />
    <glyph glyph-name="T" unicode="T" horiz-adv-x="558" 
d="M91 636l13 64h508l-13 -64h-217l-124 -636h-74l124 636h-217z" />
    <glyph glyph-name="U" unicode="U" horiz-adv-x="670" 
d="M668 700l-92 -475q-23 -119 -101.5 -179t-200.5 -60q-93 0 -151.5 54.5t-58.5 147.5q0 38 7 72l85 440h74l-91 -466q-5 -25 -5 -46q0 -60 39.5 -99t111.5 -39q88 0 144.5 46.5t72.5 127.5l92 476h74z" />
    <glyph glyph-name="V" unicode="V" horiz-adv-x="610" 
d="M205 0l-120 700h72l92 -551q5 -35 9 -74l38 76l304 549h79l-393 -700h-81z" />
    <glyph glyph-name="W" unicode="W" horiz-adv-x="892" 
d="M957 700l-331 -700h-81l-42 608l-277 -608h-82l-58 700h70l40 -542q3 -45 4 -70l31 71l245 541h86l35 -541q3 -48 4 -73l32 72l250 542h74z" />
    <glyph glyph-name="X" unicode="X" horiz-adv-x="577" 
d="M208 700l110 -258l205 258h89l-265 -322l158 -378h-79l-129 320l-249 -320h-90l309 387l-139 313h80z" />
    <glyph glyph-name="Y" unicode="Y" horiz-adv-x="552" 
d="M180 0l57 289l-150 411h76l105 -304q8 -26 14 -50l31 48l223 306h85l-310 -411l-57 -289h-74z" />
    <glyph glyph-name="Z" unicode="Z" horiz-adv-x="584" 
d="M120 636l13 64h470l-13 -64l-501 -572h410l-13 -64h-500l13 62l505 574h-384z" />
    <glyph glyph-name="bracketleft" unicode="[" horiz-adv-x="323" 
d="M3 -150l165 850h177l-12 -62h-107l-141 -726h107l-12 -62h-177z" />
    <glyph glyph-name="backslash" unicode="\" horiz-adv-x="496" 
d="M166 730l253 -760h-70l-253 760h70z" />
    <glyph glyph-name="bracketright" unicode="]" horiz-adv-x="323" 
d="M311 700l-165 -850h-176l12 62h106l141 726h-107l12 62h177z" />
    <glyph glyph-name="asciicircum" unicode="^" horiz-adv-x="456" 
d="M265 700h74l114 -250h-63l-93 202l-170 -202h-70z" />
    <glyph glyph-name="underscore" unicode="_" horiz-adv-x="437" 
d="M-60 -61l11 54h417l-11 -54h-417z" />
    <glyph glyph-name="grave" unicode="`" horiz-adv-x="297" 
d="M236 700l38 -138h-61l-72 138h95z" />
    <glyph glyph-name="a" unicode="a" horiz-adv-x="609" 
d="M497 496h70l-97 -496h-70l15 78q-59 -92 -171 -92q-94 0 -150.5 64.5t-56.5 164.5q0 125 78 210t197 85q60 0 104 -27t62 -77zM258 48q88 0 143.5 70.5t55.5 173.5q0 73 -40 114.5t-109 41.5q-85 0 -142 -66.5t-57 -165.5q0 -75 41 -121.5t108 -46.5z" />
    <glyph glyph-name="b" unicode="b" horiz-adv-x="607" 
d="M21 0l136 700h70l-54 -277q68 87 183 87q89 0 146 -58t57 -163q0 -124 -80 -213.5t-205 -89.5q-57 0 -101.5 29t-64.5 73l-17 -88h-70zM282 48q87 0 146 71.5t59 169.5q0 77 -40.5 118t-109.5 41q-88 0 -148 -72.5t-60 -167.5q0 -75 43.5 -117.5t109.5 -42.5z" />
    <glyph glyph-name="c" unicode="c" horiz-adv-x="557" 
d="M451 167l50 -36q-83 -145 -240 -145q-99 0 -160 63t-61 168q0 116 78 204.5t208 88.5q153 0 204 -136l-54 -32q-46 106 -156 106q-89 0 -148.5 -69.5t-59.5 -160.5q0 -81 43.5 -125.5t111.5 -44.5q115 0 184 119z" />
    <glyph glyph-name="d" unicode="d" horiz-adv-x="607" 
d="M606 700l-136 -700h-70l15 76q-23 -39 -70 -64.5t-99 -25.5q-95 0 -155.5 63.5t-60.5 169.5q0 129 76 210t196 81q61 0 107 -27.5t70 -74.5l57 292h70zM255 48q86 0 144.5 69.5t58.5 168.5q0 74 -45.5 118t-113.5 44q-85 0 -141 -64.5t-56 -162.5q0 -81 43 -127t110 -46z
" />
    <glyph glyph-name="e" unicode="e" horiz-adv-x="574" 
d="M523 238h-418q-2 -20 -2 -33q0 -65 43.5 -112t115.5 -47q62 0 104.5 30.5t78.5 91.5l50 -33q-82 -149 -240 -149q-96 0 -159 61t-63 178q0 120 81.5 202.5t203.5 82.5q100 0 157 -56t57 -143q0 -19 -5 -49zM313 450q-69 0 -122.5 -41.5t-73.5 -112.5h345q2 14 2 23
q0 59 -41 95t-110 36z" />
    <glyph glyph-name="f" unicode="f" horiz-adv-x="317" 
d="M55 442l10 54h78l21 107q28 147 169 147q23 0 41 -6l-11 -60q-15 6 -38 6q-33 0 -58 -23.5t-34 -67.5l-20 -103h115l-10 -54h-115l-86 -442h-70l86 442h-78z" />
    <glyph glyph-name="g" unicode="g" horiz-adv-x="587" 
d="M29 -19l60 -18q-10 -17 -10 -41q0 -37 36 -57.5t94 -20.5q80 0 123 48t60 135l12 62q-50 -81 -166 -81q-87 0 -147.5 58t-60.5 161q0 117 72 200t196 83q60 0 106.5 -25.5t63.5 -65.5l16 77h70l-92 -471q-24 -123 -88.5 -183t-177.5 -60q-86 0 -135.5 39.5t-49.5 96.5
q0 34 18 63zM295 450q-85 0 -139 -66.5t-54 -155.5q0 -160 150 -160q88 0 142.5 67.5t54.5 157.5q0 72 -43 114.5t-111 42.5z" />
    <glyph glyph-name="h" unicode="h" horiz-adv-x="577" 
d="M500 317l-62 -317h-70l63 322q3 16 3 33q0 93 -102 93q-62 0 -116.5 -49t-70.5 -129l-53 -270h-70l137 700h70l-55 -280q75 90 182 90q69 0 109.5 -34t40.5 -101q0 -26 -6 -58z" />
    <glyph glyph-name="i" unicode="i" 
d="M22 0l96 496h70l-96 -496h-70zM128 586l17 90h86l-17 -90h-86z" />
    <glyph glyph-name="j" unicode="j" 
d="M-116 -203l18 63q17 -7 37 -7q29 0 45 17t23 54l111 572h70l-114 -583q-25 -124 -138 -124q-30 0 -52 8zM127 586l18 90h86l-18 -90h-86z" />
    <glyph glyph-name="k" unicode="k" horiz-adv-x="495" 
d="M227 700l-76 -392l221 188h92l-200 -170l142 -326h-74l-121 280l-79 -67l-42 -213h-70l137 700h70z" />
    <glyph glyph-name="l" unicode="l" 
d="M21 0l137 700h70l-137 -700h-70z" />
    <glyph glyph-name="m" unicode="m" horiz-adv-x="816" 
d="M746 353l-68 -353h-72l66 342q4 24 4 34q0 35 -22.5 53.5t-63.5 18.5q-49 0 -92.5 -45.5t-61.5 -134.5l-52 -268h-72l67 343q3 18 3 28q0 77 -78 77q-51 0 -96 -48t-61 -134l-52 -266h-72l96 496h72l-14 -72q59 86 158 86q45 0 75 -22t41 -63q30 40 74 62.5t91 22.5
q62 0 98 -31.5t36 -86.5q0 -19 -4 -39z" />
    <glyph glyph-name="n" unicode="n" horiz-adv-x="571" 
d="M496 324l-63 -324h-70l63 327q3 16 3 34q0 40 -27.5 63.5t-74.5 23.5q-62 0 -114 -48.5t-67 -124.5l-53 -275h-70l96 496h70l-14 -76q67 90 177 90q68 0 108.5 -35t40.5 -105q0 -21 -5 -46z" />
    <glyph glyph-name="o" unicode="o" horiz-adv-x="602" 
d="M554 290q0 -131 -81 -217.5t-206 -86.5q-94 0 -162 60t-68 165q0 127 81 213t208 86q96 0 162 -57t66 -163zM274 48q86 0 147 67t61 165q0 77 -47 122.5t-118 45.5q-89 0 -148.5 -71.5t-59.5 -161.5q0 -75 45.5 -121t119.5 -46z" />
    <glyph glyph-name="p" unicode="p" horiz-adv-x="608" 
d="M-18 -204l136 700h70l-14 -74q26 39 74.5 63.5t104.5 24.5q90 0 147 -60t57 -164q0 -121 -78 -210.5t-205 -89.5q-59 0 -103.5 27.5t-62.5 68.5l-56 -286h-70zM333 448q-81 0 -142 -70.5t-61 -170.5q0 -73 43.5 -116t112.5 -43q86 0 142.5 69.5t56.5 164.5q0 80 -41 123
t-111 43z" />
    <glyph glyph-name="q" unicode="q" horiz-adv-x="618" 
d="M576 496l-136 -700h-70l53 269q-61 -79 -174 -79q-89 0 -150.5 61.5t-61.5 169.5q0 126 79.5 209.5t201.5 83.5q60 0 106 -28t65 -74l17 88h70zM312 448q-85 0 -144 -65.5t-59 -165.5q0 -82 40.5 -125.5t110.5 -43.5q86 0 147 66t61 166q0 80 -42.5 124t-113.5 44z" />
    <glyph glyph-name="r" unicode="r" horiz-adv-x="348" 
d="M362 506l-19 -64q-19 6 -42 6q-51 0 -96.5 -50.5t-60.5 -130.5l-52 -267h-70l96 496h70l-15 -78q58 92 156 92q21 0 33 -4z" />
    <glyph glyph-name="s" unicode="s" horiz-adv-x="491" 
d="M263 450q-41 0 -74 -19.5t-33 -57.5q0 -33 27 -52.5t93 -34.5q135 -31 135 -134q0 -75 -53.5 -120.5t-139.5 -45.5q-74 0 -124 41.5t-63 104.5l60 32q11 -52 43.5 -84t87.5 -32q54 0 86.5 26t32.5 69q0 40 -23.5 58t-86.5 34q-140 35 -140 136q0 61 49.5 100t125.5 39
q134 0 171 -119l-54 -28q-31 87 -120 87z" />
    <glyph glyph-name="t" unicode="t" horiz-adv-x="340" 
d="M59 442l10 54h84l26 134h72l-26 -134h114l-10 -54h-114l-61 -314q-4 -20 -4 -32q0 -48 55 -48q17 0 37 6l-4 -59q-27 -9 -60 -9q-46 0 -73 25.5t-27 75.5q0 19 3 35l62 320h-84z" />
    <glyph glyph-name="u" unicode="u" horiz-adv-x="571" 
d="M58 181l61 315h70l-60 -310q-5 -29 -5 -44q0 -44 28.5 -69t76.5 -25q60 0 111.5 51.5t68.5 136.5l50 260h70l-96 -496h-70l14 76q-55 -90 -168 -90q-72 0 -113.5 40t-41.5 110q0 21 4 45z" />
    <glyph glyph-name="v" unicode="v" horiz-adv-x="494" 
d="M516 496l-290 -496h-72l-101 496h74l77 -411l231 411h81z" />
    <glyph glyph-name="w" unicode="w" horiz-adv-x="682" 
d="M416 496l35 -413l185 413h72l-231 -496h-81l-36 415l-188 -415h-82l-42 496h72l25 -413l187 413h84z" />
    <glyph glyph-name="x" unicode="x" horiz-adv-x="434" 
d="M145 496l73 -171l134 171h81l-187 -229l114 -267h-72l-87 213l-166 -213h-87l223 275l-100 221h74z" />
    <glyph glyph-name="y" unicode="y" horiz-adv-x="494" 
d="M-38 -201l22 63q19 -9 41 -9t36.5 11t31.5 40l59 101l-104 491h74l83 -403l236 403h80l-366 -616q-31 -52 -62 -71.5t-79 -19.5q-32 0 -52 10z" />
    <glyph glyph-name="z" unicode="z" horiz-adv-x="484" 
d="M86 64h307l-13 -64h-391l12 64l363 368h-280l13 64h366l-13 -64z" />
    <glyph glyph-name="braceleft" unicode="{" horiz-adv-x="368" 
d="M48 243l13 64q75 0 90 78l34 170q16 78 55.5 111.5t115.5 33.5h33l-12 -62h-33q-73 0 -88 -77l-34 -174q-9 -49 -28.5 -72.5t-60.5 -39.5q48 -21 48 -77q0 -21 -4 -44l-30 -152q-3 -18 -3 -32q0 -58 58 -58h34l-12 -62h-32q-118 0 -118 113q0 17 7 57l27 141q3 18 3 29
q0 29 -15.5 41t-47.5 12z" />
    <glyph glyph-name="bar" unicode="|" horiz-adv-x="256" 
d="M12 -110l165 850h72l-165 -850h-72z" />
    <glyph glyph-name="braceright" unicode="}" horiz-adv-x="368" 
d="M309 307l-13 -64q-75 0 -90 -78l-34 -170q-16 -78 -55.5 -111.5t-115.5 -33.5h-33l12 62h33q73 0 88 77l34 174q9 49 28.5 72.5t60.5 39.5q-48 21 -48 77q0 21 4 44l30 152q3 18 3 32q0 58 -58 58h-34l12 62h32q118 0 118 -113q0 -17 -7 -57l-27 -141q-3 -18 -3 -29
q0 -29 15.5 -41t47.5 -12z" />
    <glyph glyph-name="asciitilde" unicode="~" horiz-adv-x="447" 
d="M152 335q-39 0 -39 -39q0 -6 3 -15l-61 -11q-6 14 -6 30q0 41 26.5 68.5t74.5 27.5q38 0 65.5 -17t48.5 -33.5t42 -16.5q33 0 33 37q0 8 -3 16l61 12q6 -14 6 -28q0 -45 -27.5 -71.5t-72.5 -26.5q-38 0 -66 17t-47.5 33.5t-37.5 16.5z" />
    <glyph glyph-name="uni00A0" unicode="&#xa0;" horiz-adv-x="276" 
 />
    <glyph glyph-name="exclamdown" unicode="&#xa1;" horiz-adv-x="264" 
d="M114 17l-43 -221h-76l43 221l71 297h51zM214 496l-19 -93h-88l19 93h88z" />
    <glyph glyph-name="cent" unicode="&#xa2;" horiz-adv-x="569" 
d="M455 167l50 -36q-81 -140 -228 -144l-18 -97h-68l19 102q-76 16 -121 75.5t-45 149.5q0 111 72 198t194 94l22 111h68l-22 -114q114 -20 156 -132l-54 -32q-38 86 -114 102l-77 -395q102 8 166 118zM116 218q0 -65 29 -107.5t77 -56.5l76 392q-80 -11 -131 -78t-51 -150z
" />
    <glyph glyph-name="sterling" unicode="&#xa3;" horiz-adv-x="565" 
d="M39 319l11 58h75q-5 40 -5 81q0 110 66.5 183t184.5 73q83 0 134 -42.5t51 -112.5q0 -45 -21 -85l-66 13q15 33 15 70q0 40 -32 65.5t-90 25.5q-78 0 -123 -52t-45 -139q0 -25 5 -80h194l-11 -58h-179v-5q0 -132 -99 -248h358l-13 -66h-433l10 50q54 70 79.5 130.5
t25.5 134.5v4h-92z" />
    <glyph glyph-name="currency" unicode="&#xa4;" horiz-adv-x="636" 
d="M538 350q0 -80 -42 -130l68 -68l-48 -48l-68 68q-56 -45 -130 -45t-130 45l-68 -68l-48 48l68 68q-42 50 -42 130q0 81 42 130l-68 68l48 48l68 -68q56 45 130 45t130 -45l68 68l48 -48l-68 -68q42 -50 42 -130zM318 189q67 0 109.5 45t42.5 116t-42.5 116t-109.5 45
t-109.5 -45t-42.5 -116t42.5 -116t109.5 -45z" />
    <glyph glyph-name="yen" unicode="&#xa5;" horiz-adv-x="552" 
d="M89 289l10 54h120l-118 357h76l93 -305q7 -21 13 -43l31 47l214 301h81l-259 -357h119l-10 -54h-148l-16 -83h148l-11 -54h-148l-30 -152h-74l30 152h-148l11 54h148l16 83h-148z" />
    <glyph glyph-name="brokenbar" unicode="&#xa6;" horiz-adv-x="256" 
d="M179 381h-72l70 359h72zM82 249h72l-70 -359h-72z" />
    <glyph glyph-name="section" unicode="&#xa7;" horiz-adv-x="523" 
d="M69 326q0 77 73 123q-28 36 -28 88q0 79 59.5 128t147.5 49q71 0 124 -38t70 -94l-61 -38q-33 108 -143 108q-51 0 -88 -30t-37 -76q0 -42 29 -67.5t103 -44.5q136 -35 136 -134q0 -81 -74 -130q28 -36 28 -81q0 -81 -60 -131.5t-146 -50.5q-72 0 -124.5 37.5t-70.5 94.5
l63 39q28 -109 141 -109q51 0 88 29.5t37 79.5q0 40 -28 64t-99 42q-68 17 -104 54.5t-36 87.5zM251 244q43 -11 81 -32q50 28 50 79q0 30 -25 50.5t-85 36.5q-52 14 -83 32q-48 -28 -48 -74q0 -35 24.5 -56t85.5 -36z" />
    <glyph glyph-name="dieresis" unicode="&#xa8;" horiz-adv-x="390" 
d="M280 590l17 86h87l-17 -86h-87zM127 590l17 86h87l-17 -86h-87z" />
    <glyph glyph-name="copyright" unicode="&#xa9;" horiz-adv-x="848" 
d="M60 350q0 151 107 257.5t257 106.5t257 -106.5t107 -257.5t-107 -257.5t-257 -106.5t-257 106.5t-107 257.5zM116 350q0 -128 90 -219t218 -91t218 91t90 219t-90 219t-218 91t-218 -91t-90 -219zM560 282l38 -25q-55 -111 -173 -111q-85 0 -141 57.5t-56 146.5
q0 88 58 146t139 58q62 0 106.5 -28t64.5 -78l-41 -25q-42 83 -129 83q-61 0 -102 -42.5t-41 -113.5t40 -113.5t103 -42.5q85 0 134 88z" />
    <glyph glyph-name="ordfeminine" unicode="&#xaa;" horiz-adv-x="385" 
d="M347 300h-56q-11 16 -11 37q0 13 2 23q-21 -34 -54 -50.5t-66 -16.5q-43 0 -74 28.5t-31 74.5q0 49 34 78t96 37l126 16l2 10q2 10 2 17q0 28 -21 43t-56 15q-38 0 -61 -13.5t-23 -36.5q0 -6 1 -11l-52 -16q-3 11 -3 20q0 45 38.5 73.5t98.5 28.5q62 0 97.5 -27t35.5 -73
q0 -18 -4 -37l-25 -131q-5 -22 -5 -44q0 -27 9 -45zM182 345q44 0 76.5 35t42.5 91l2 11l-113 -14q-34 -4 -54.5 -21.5t-20.5 -45.5q0 -26 18 -41t49 -15z" />
    <glyph glyph-name="guillemotleft" unicode="&#xab;" horiz-adv-x="503" 
d="M419 472h86l-197 -201l113 -193h-76l-117 197zM247 472h86l-197 -201l113 -193h-76l-117 197z" />
    <glyph glyph-name="logicalnot" unicode="&#xac;" horiz-adv-x="534" 
d="M437 203h-74l26 133h-331l11 58h405z" />
    <glyph glyph-name="registered" unicode="&#xae;" horiz-adv-x="848" 
d="M514 151l-98 173h-74v-173h-55v398h161q59 0 93 -31.5t34 -81.5q0 -42 -28 -71t-71 -38l99 -176h-61zM342 501v-131h97q41 0 61.5 18t20.5 48t-20.5 47.5t-61.5 17.5h-97zM60 350q0 151 107 257.5t257 106.5t257 -106.5t107 -257.5t-107 -257.5t-257 -106.5t-257 106.5
t-107 257.5zM116 350q0 -128 90 -219t218 -91t218 91t90 219t-90 219t-218 91t-218 -91t-90 -219z" />
    <glyph glyph-name="macron" unicode="&#xaf;" horiz-adv-x="316" 
d="M111 604l12 62h214l-12 -62h-214z" />
    <glyph glyph-name="degree" unicode="&#xb0;" horiz-adv-x="357" 
d="M96 579q0 57 39 96t97 39t97 -39t39 -96t-39 -96t-97 -39t-97 39t-39 96zM152 579q0 -34 22.5 -57.5t57.5 -23.5t57.5 23.5t22.5 57.5t-22.5 57.5t-57.5 23.5t-57.5 -23.5t-22.5 -57.5z" />
    <glyph glyph-name="plusminus" unicode="&#xb1;" horiz-adv-x="506" 
d="M58 338l11 54h174l34 174h55l-34 -174h173l-11 -54h-173l-34 -174h-55l34 174h-174zM-6 0l11 54h402l-11 -54h-402z" />
    <glyph glyph-name="twosuperior" unicode="&#xb2;" horiz-adv-x="339" 
d="M67 389l164 133q50 40 50 85q0 52 -61 52q-31 0 -49 -17.5t-18 -44.5q0 -10 2 -18l-51 -7q-3 12 -3 25q0 47 34 78.5t90 31.5q49 0 79.5 -26.5t30.5 -68.5q0 -66 -72 -124l-106 -87h147l-10 -51h-234z" />
    <glyph glyph-name="threesuperior" unicode="&#xb3;" horiz-adv-x="346" 
d="M103 475l46 -11q-5 -10 -5 -24q0 -22 18.5 -35.5t46.5 -13.5q31 0 52 19.5t21 52.5q0 53 -85 53l8 43q37 0 61.5 14.5t24.5 43.5q0 45 -54 45q-25 0 -43 -13.5t-18 -34.5q0 -7 1 -14l-46 -5q-2 12 -2 20q0 37 31 64.5t79 27.5t75.5 -22.5t27.5 -55.5q0 -62 -63 -87
q56 -21 56 -75t-36.5 -89t-93.5 -35q-47 0 -79 26t-32 65q0 22 9 41z" />
    <glyph glyph-name="acute" unicode="&#xb4;" horiz-adv-x="297" 
d="M124 562l88 138h100l-125 -138h-63z" />
    <glyph glyph-name="mu" unicode="&#xb5;" horiz-adv-x="571" 
d="M-18 -204l137 700h70l-60 -310q-5 -29 -5 -44q0 -44 28.5 -69t76.5 -25q60 0 111.5 51.5t68.5 136.5l50 260h70l-96 -496h-70l14 76q-55 -90 -168 -90q-74 0 -115 41l-12 -80l-30 -151h-70z" />
    <glyph glyph-name="paragraph" unicode="&#xb6;" horiz-adv-x="623" 
d="M435 636l-147 -756h-74l84 431h-28q-80 0 -134 46.5t-54 126.5q0 95 72 155.5t189 60.5h314l-12 -64h-52l-147 -756h-74l147 756h-84z" />
    <glyph glyph-name="periodcentered" unicode="&#xb7;" horiz-adv-x="190" 
d="M56 310l17 92h88l-17 -92h-88z" />
    <glyph glyph-name="cedilla" unicode="&#xb8;" horiz-adv-x="304" 
d="M48 -103l-24 28l49 91h53l-50 -72q19 12 44 12q28 0 46.5 -18t18.5 -51q0 -41 -27 -66t-74 -25q-32 0 -52.5 17t-25.5 44l45 11q6 -28 38 -28q19 0 31 11.5t12 31.5q0 16 -10 24.5t-26 8.5q-24 0 -48 -19z" />
    <glyph glyph-name="onesuperior" unicode="&#xb9;" horiz-adv-x="251" 
d="M106 606l10 51q62 0 88 43h51l-69 -350h-55l54 275q-27 -19 -79 -19z" />
    <glyph glyph-name="ordmasculine" unicode="&#xba;" horiz-adv-x="458" 
d="M433 502q0 -88 -58.5 -148.5t-148.5 -60.5q-66 0 -112.5 43.5t-46.5 111.5q0 87 55.5 148t154.5 61q69 0 112.5 -42t43.5 -113zM232 345q62 0 102.5 46t40.5 112q0 46 -29.5 74t-77.5 28q-63 0 -103 -45.5t-40 -105.5q0 -50 30 -79.5t77 -29.5z" />
    <glyph glyph-name="guillemotright" unicode="&#xbb;" horiz-adv-x="503" 
d="M89 78h-86l197 201l-113 193h76l117 -197zM261 78h-86l197 201l-113 193h76l117 -197z" />
    <glyph glyph-name="onequarter" unicode="&#xbc;" horiz-adv-x="750" 
d="M384 68l9 46l213 236h57l-46 -234h40l-9 -48h-40l-14 -68h-56l14 68h-168zM590 264l-135 -148h106zM111 606l10 51q62 0 88 43h51l-69 -350h-55l54 275q-27 -19 -79 -19zM116 2l-42 37l565 659l42 -38z" />
    <glyph glyph-name="onehalf" unicode="&#xbd;" horiz-adv-x="775" 
d="M113 606l10 51q62 0 88 43h51l-69 -350h-55l54 275q-27 -19 -79 -19zM121 2l-42 37l565 659l42 -38zM444 39l164 133q50 40 50 85q0 52 -61 52q-31 0 -49 -17.5t-18 -44.5q0 -10 2 -18l-51 -7q-3 12 -3 25q0 47 34 78.5t90 31.5q49 0 79.5 -26.5t30.5 -68.5
q0 -66 -72 -124l-106 -87h147l-10 -51h-234z" />
    <glyph glyph-name="threequarters" unicode="&#xbe;" horiz-adv-x="819" 
d="M454 68l9 46l213 236h57l-46 -234h40l-9 -48h-40l-14 -68h-56l14 68h-168zM660 264l-135 -148h106zM171 0l-42 37l565 659l42 -38zM101 475l46 -11q-5 -10 -5 -24q0 -22 18.5 -35.5t46.5 -13.5q31 0 52 19.5t21 52.5q0 53 -85 53l8 43q37 0 61.5 14.5t24.5 43.5
q0 45 -54 45q-25 0 -43 -13.5t-18 -34.5q0 -7 1 -14l-46 -5q-2 12 -2 20q0 37 31 64.5t79 27.5t75.5 -22.5t27.5 -55.5q0 -62 -63 -87q56 -21 56 -75t-36.5 -89t-93.5 -35q-47 0 -79 26t-32 65q0 22 9 41z" />
    <glyph glyph-name="questiondown" unicode="&#xbf;" horiz-adv-x="536" 
d="M241 308h76l-2 -13q-8 -53 -33.5 -87t-88.5 -79q-59 -42 -90.5 -80.5t-31.5 -93.5q0 -51 33.5 -81t90.5 -30q66 0 107.5 40t41.5 109q0 14 -3 29l68 12q5 -27 5 -47q0 -89 -61 -147t-163 -58q-87 0 -140 47t-53 120q0 66 38 117.5t121 110.5q40 29 58.5 56.5t26.5 74.5z
M359 496l-18 -93h-88l18 93h88z" />
    <glyph glyph-name="Agrave" unicode="&#xc0;" horiz-adv-x="656" 
d="M515 0l-42 212h-316l-125 -212h-79l415 700h77l141 -700h-71zM361 563l-170 -291h269l-57 291q-7 36 -10 58zM402 904l38 -138h-61l-72 138h95z" />
    <glyph glyph-name="Aacute" unicode="&#xc1;" horiz-adv-x="656" 
d="M515 0l-42 212h-316l-125 -212h-79l415 700h77l141 -700h-71zM361 563l-170 -291h269l-57 291q-7 36 -10 58zM384 766l88 138h100l-125 -138h-63z" />
    <glyph glyph-name="Acircumflex" unicode="&#xc2;" horiz-adv-x="656" 
d="M515 0l-42 212h-316l-125 -212h-79l415 700h77l141 -700h-71zM361 563l-170 -291h269l-57 291q-7 36 -10 58zM277 766l127 138h61l73 -138h-58l-57 73l-82 -73h-64z" />
    <glyph glyph-name="Atilde" unicode="&#xc3;" horiz-adv-x="656" 
d="M515 0l-42 212h-316l-125 -212h-79l415 700h77l141 -700h-71zM361 563l-170 -291h269l-57 291q-7 36 -10 58zM339 834q-14 0 -24 -10t-10 -25q0 -8 3 -17l-56 -11q-5 15 -5 32q0 37 24.5 62.5t69.5 25.5q28 0 50 -10.5t33 -23t26 -23t31 -10.5q35 0 35 34q0 8 -2 18
l57 11q5 -17 5 -34q0 -40 -25 -63t-67 -23q-30 0 -52.5 10.5t-32.5 23t-25.5 23t-34.5 10.5z" />
    <glyph glyph-name="Adieresis" unicode="&#xc4;" horiz-adv-x="656" 
d="M515 0l-42 212h-316l-125 -212h-79l415 700h77l141 -700h-71zM361 563l-170 -291h269l-57 291q-7 36 -10 58zM456 794l17 86h87l-17 -86h-87zM303 794l17 86h87l-17 -86h-87z" />
    <glyph glyph-name="Aring" unicode="&#xc5;" horiz-adv-x="656" 
d="M515 0l-42 212h-316l-125 -212h-79l415 700h77l141 -700h-71zM361 563l-170 -291h269l-57 291q-7 36 -10 58zM369 839q0 -21 14 -35.5t35 -14.5t35 14.5t14 35.5t-14 35.5t-35 14.5t-35 -14.5t-14 -35.5zM322 839q0 40 28 67.5t68 27.5t68 -27.5t28 -67.5t-27 -67.5
t-69 -27.5t-69 27.5t-27 67.5z" />
    <glyph glyph-name="AE" unicode="&#xc6;" horiz-adv-x="928" 
d="M368 0l42 212h-242l-135 -212h-80l444 700h531l-13 -64h-349l-47 -242h321l-12 -64h-321l-52 -266h352l-13 -64h-426zM436 636l-231 -364h216l71 364h-56z" />
    <glyph glyph-name="Ccedilla" unicode="&#xc7;" horiz-adv-x="748" 
d="M283 -103l-24 28l35 66q-110 17 -172 99.5t-62 205.5q0 108 49 203t142.5 155t210.5 60q99 0 165.5 -48t95.5 -131l-59 -37q-56 152 -213 152q-135 0 -225 -107t-90 -245q0 -110 60 -179t160 -69q152 0 249 158l54 -38q-113 -184 -311 -184h-8l-29 -42q19 12 44 12
q28 0 46.5 -18t18.5 -51q0 -41 -27 -66t-74 -25q-32 0 -52.5 17t-25.5 44l45 11q6 -28 38 -28q19 0 31 11.5t12 31.5q0 16 -10 24.5t-26 8.5q-24 0 -48 -19z" />
    <glyph glyph-name="Egrave" unicode="&#xc8;" horiz-adv-x="593" 
d="M33 0l137 700h424l-13 -64h-350l-47 -242h322l-12 -64h-322l-52 -266h353l-13 -64h-427zM389 904l38 -138h-61l-72 138h95z" />
    <glyph glyph-name="Eacute" unicode="&#xc9;" horiz-adv-x="593" 
d="M33 0l137 700h424l-13 -64h-350l-47 -242h322l-12 -64h-322l-52 -266h353l-13 -64h-427zM332 766l88 138h100l-125 -138h-63z" />
    <glyph glyph-name="Ecircumflex" unicode="&#xca;" horiz-adv-x="593" 
d="M33 0l137 700h424l-13 -64h-350l-47 -242h322l-12 -64h-322l-52 -266h353l-13 -64h-427zM264 766l127 138h61l73 -138h-58l-57 73l-82 -73h-64z" />
    <glyph glyph-name="Edieresis" unicode="&#xcb;" horiz-adv-x="593" 
d="M33 0l137 700h424l-13 -64h-350l-47 -242h322l-12 -64h-322l-52 -266h353l-13 -64h-427zM435 794l17 86h87l-17 -86h-87zM282 794l17 86h87l-17 -86h-87z" />
    <glyph glyph-name="Igrave" unicode="&#xcc;" horiz-adv-x="260" 
d="M34 0l137 700h74l-137 -700h-74zM212 904l38 -138h-61l-72 138h95z" />
    <glyph glyph-name="Iacute" unicode="&#xcd;" horiz-adv-x="260" 
d="M34 0l137 700h74l-137 -700h-74zM182 766l88 138h100l-125 -138h-63z" />
    <glyph glyph-name="Icircumflex" unicode="&#xce;" horiz-adv-x="260" 
d="M34 0l137 700h74l-137 -700h-74zM87 766l127 138h61l73 -138h-58l-57 73l-82 -73h-64z" />
    <glyph glyph-name="Idieresis" unicode="&#xcf;" horiz-adv-x="260" 
d="M34 0l137 700h74l-137 -700h-74zM257 794l17 86h87l-17 -86h-87zM104 794l17 86h87l-17 -86h-87z" />
    <glyph glyph-name="Eth" unicode="&#xd0;" horiz-adv-x="715" 
d="M55 0l62 319h-71l12 62h71l63 319h185q131 0 210.5 -74.5t79.5 -213.5q0 -181 -114.5 -296.5t-304.5 -115.5h-193zM142 64h108q161 0 251 96.5t90 248.5q0 117 -62 172t-173 55h-103l-50 -255h156l-12 -62h-156z" />
    <glyph glyph-name="Ntilde" unicode="&#xd1;" horiz-adv-x="708" 
d="M35 0l137 700h76l237 -543q17 -40 20 -55l117 598h70l-137 -700h-76l-238 545q-16 40 -19 55l-117 -600h-70zM381 834q-14 0 -24 -10t-10 -25q0 -8 3 -17l-56 -11q-5 15 -5 32q0 37 24.5 62.5t69.5 25.5q28 0 50 -10.5t33 -23t26 -23t31 -10.5q35 0 35 34q0 8 -2 18
l57 11q5 -17 5 -34q0 -40 -25 -63t-67 -23q-30 0 -52.5 10.5t-32.5 23t-25.5 23t-34.5 10.5z" />
    <glyph glyph-name="Ograve" unicode="&#xd2;" horiz-adv-x="788" 
d="M742 403q0 -80 -25.5 -153.5t-72 -133t-121 -95t-164.5 -35.5q-132 0 -216.5 84t-84.5 226q0 106 45 200.5t134.5 156t204.5 61.5q139 0 219.5 -82t80.5 -229zM362 50q136 0 220 104t84 246q0 120 -62.5 185t-170.5 65q-86 0 -156 -52t-106.5 -131.5t-36.5 -166.5
q0 -115 64.5 -182.5t163.5 -67.5zM451 904l38 -138h-61l-72 138h95z" />
    <glyph glyph-name="Oacute" unicode="&#xd3;" horiz-adv-x="788" 
d="M742 403q0 -80 -25.5 -153.5t-72 -133t-121 -95t-164.5 -35.5q-132 0 -216.5 84t-84.5 226q0 106 45 200.5t134.5 156t204.5 61.5q139 0 219.5 -82t80.5 -229zM362 50q136 0 220 104t84 246q0 120 -62.5 185t-170.5 65q-86 0 -156 -52t-106.5 -131.5t-36.5 -166.5
q0 -115 64.5 -182.5t163.5 -67.5zM420 766l88 138h100l-125 -138h-63z" />
    <glyph glyph-name="Ocircumflex" unicode="&#xd4;" horiz-adv-x="788" 
d="M742 403q0 -80 -25.5 -153.5t-72 -133t-121 -95t-164.5 -35.5q-132 0 -216.5 84t-84.5 226q0 106 45 200.5t134.5 156t204.5 61.5q139 0 219.5 -82t80.5 -229zM362 50q136 0 220 104t84 246q0 120 -62.5 185t-170.5 65q-86 0 -156 -52t-106.5 -131.5t-36.5 -166.5
q0 -115 64.5 -182.5t163.5 -67.5zM322 766l127 138h61l73 -138h-58l-57 73l-82 -73h-64z" />
    <glyph glyph-name="Otilde" unicode="&#xd5;" horiz-adv-x="788" 
d="M742 403q0 -80 -25.5 -153.5t-72 -133t-121 -95t-164.5 -35.5q-132 0 -216.5 84t-84.5 226q0 106 45 200.5t134.5 156t204.5 61.5q139 0 219.5 -82t80.5 -229zM362 50q136 0 220 104t84 246q0 120 -62.5 185t-170.5 65q-86 0 -156 -52t-106.5 -131.5t-36.5 -166.5
q0 -115 64.5 -182.5t163.5 -67.5zM394 834q-14 0 -24 -10t-10 -25q0 -8 3 -17l-56 -11q-5 15 -5 32q0 37 24.5 62.5t69.5 25.5q28 0 50 -10.5t33 -23t26 -23t31 -10.5q35 0 35 34q0 8 -2 18l57 11q5 -17 5 -34q0 -40 -25 -63t-67 -23q-30 0 -52.5 10.5t-32.5 23t-25.5 23
t-34.5 10.5z" />
    <glyph glyph-name="Odieresis" unicode="&#xd6;" horiz-adv-x="788" 
d="M742 403q0 -80 -25.5 -153.5t-72 -133t-121 -95t-164.5 -35.5q-132 0 -216.5 84t-84.5 226q0 106 45 200.5t134.5 156t204.5 61.5q139 0 219.5 -82t80.5 -229zM362 50q136 0 220 104t84 246q0 120 -62.5 185t-170.5 65q-86 0 -156 -52t-106.5 -131.5t-36.5 -166.5
q0 -115 64.5 -182.5t163.5 -67.5zM492 794l17 86h87l-17 -86h-87zM339 794l17 86h87l-17 -86h-87z" />
    <glyph glyph-name="multiply" unicode="&#xd7;" horiz-adv-x="506" 
d="M131 490l44 36l99 -123l146 123l33 -41l-145 -123l95 -120l-43 -36l-97 119l-148 -124l-33 42l147 125z" />
    <glyph glyph-name="Oslash" unicode="&#xd8;" horiz-adv-x="788" 
d="M742 403q0 -80 -25.5 -153.5t-72 -133t-121 -95t-164.5 -35.5q-85 0 -154 36l-40 -57l-51 36l40 57q-96 85 -96 238q0 106 45 200.5t134.5 156t204.5 61.5q90 0 154 -34l39 55l50 -36l-38 -53q95 -84 95 -243zM362 50q136 0 220 104t84 246q0 118 -62 185l-358 -506
q50 -29 116 -29zM134 300q0 -113 63 -182l357 504q-53 28 -121 28q-86 0 -156 -52t-106.5 -131.5t-36.5 -166.5z" />
    <glyph glyph-name="Ugrave" unicode="&#xd9;" horiz-adv-x="670" 
d="M668 700l-92 -475q-23 -119 -101.5 -179t-200.5 -60q-93 0 -151.5 54.5t-58.5 147.5q0 38 7 72l85 440h74l-91 -466q-5 -25 -5 -46q0 -60 39.5 -99t111.5 -39q88 0 144.5 46.5t72.5 127.5l92 476h74zM428 904l38 -138h-61l-72 138h95z" />
    <glyph glyph-name="Uacute" unicode="&#xda;" horiz-adv-x="670" 
d="M668 700l-92 -475q-23 -119 -101.5 -179t-200.5 -60q-93 0 -151.5 54.5t-58.5 147.5q0 38 7 72l85 440h74l-91 -466q-5 -25 -5 -46q0 -60 39.5 -99t111.5 -39q88 0 144.5 46.5t72.5 127.5l92 476h74zM376 766l88 138h100l-125 -138h-63z" />
    <glyph glyph-name="Ucircumflex" unicode="&#xdb;" horiz-adv-x="670" 
d="M668 700l-92 -475q-23 -119 -101.5 -179t-200.5 -60q-93 0 -151.5 54.5t-58.5 147.5q0 38 7 72l85 440h74l-91 -466q-5 -25 -5 -46q0 -60 39.5 -99t111.5 -39q88 0 144.5 46.5t72.5 127.5l92 476h74zM298 766l127 138h61l73 -138h-58l-57 73l-82 -73h-64z" />
    <glyph glyph-name="Udieresis" unicode="&#xdc;" horiz-adv-x="670" 
d="M668 700l-92 -475q-23 -119 -101.5 -179t-200.5 -60q-93 0 -151.5 54.5t-58.5 147.5q0 38 7 72l85 440h74l-91 -466q-5 -25 -5 -46q0 -60 39.5 -99t111.5 -39q88 0 144.5 46.5t72.5 127.5l92 476h74zM463 794l17 86h87l-17 -86h-87zM310 794l17 86h87l-17 -86h-87z" />
    <glyph glyph-name="Yacute" unicode="&#xdd;" horiz-adv-x="552" 
d="M180 0l57 289l-150 411h76l105 -304q8 -26 14 -50l31 48l223 306h85l-310 -411l-57 -289h-74zM321 766l88 138h100l-125 -138h-63z" />
    <glyph glyph-name="Thorn" unicode="&#xde;" horiz-adv-x="678" 
d="M170 700h74l-26 -133h191q107 0 163.5 -51t56.5 -145q0 -111 -77.5 -174.5t-204.5 -63.5h-214l-26 -133h-74zM205 503l-59 -306h206q96 0 149.5 46t53.5 127q0 66 -40.5 99.5t-116.5 33.5h-193z" />
    <glyph glyph-name="germandbls" unicode="&#xdf;" horiz-adv-x="594" 
d="M266 353l12 60h16q83 0 136.5 38t53.5 103q0 47 -32 73.5t-83 26.5t-91.5 -35t-53.5 -104l-101 -515h-70l86 442h-80l11 54h80l3 15q40 203 225 203q76 0 125 -40.5t49 -117.5q0 -58 -40 -106t-101 -65q53 -23 85.5 -66t32.5 -105q0 -104 -63.5 -166t-166.5 -62
q-88 0 -143 53l40 55q43 -48 113 -48q66 0 108 43t42 117q0 67 -47 107t-123 40h-23z" />
    <glyph glyph-name="agrave" unicode="&#xe0;" horiz-adv-x="609" 
d="M497 496h70l-97 -496h-70l15 78q-59 -92 -171 -92q-94 0 -150.5 64.5t-56.5 164.5q0 125 78 210t197 85q60 0 104 -27t62 -77zM258 48q88 0 143.5 70.5t55.5 173.5q0 73 -40 114.5t-109 41.5q-85 0 -142 -66.5t-57 -165.5q0 -75 41 -121.5t108 -46.5zM336 700l38 -138
h-61l-72 138h95z" />
    <glyph glyph-name="aacute" unicode="&#xe1;" horiz-adv-x="609" 
d="M497 496h70l-97 -496h-70l15 78q-59 -92 -171 -92q-94 0 -150.5 64.5t-56.5 164.5q0 125 78 210t197 85q60 0 104 -27t62 -77zM258 48q88 0 143.5 70.5t55.5 173.5q0 73 -40 114.5t-109 41.5q-85 0 -142 -66.5t-57 -165.5q0 -75 41 -121.5t108 -46.5zM294 562l88 138h100
l-125 -138h-63z" />
    <glyph glyph-name="acircumflex" unicode="&#xe2;" horiz-adv-x="609" 
d="M497 496h70l-97 -496h-70l15 78q-59 -92 -171 -92q-94 0 -150.5 64.5t-56.5 164.5q0 125 78 210t197 85q60 0 104 -27t62 -77zM258 48q88 0 143.5 70.5t55.5 173.5q0 73 -40 114.5t-109 41.5q-85 0 -142 -66.5t-57 -165.5q0 -75 41 -121.5t108 -46.5zM198 562l127 138h61
l73 -138h-58l-57 73l-82 -73h-64z" />
    <glyph glyph-name="atilde" unicode="&#xe3;" horiz-adv-x="609" 
d="M497 496h70l-97 -496h-70l15 78q-59 -92 -171 -92q-94 0 -150.5 64.5t-56.5 164.5q0 125 78 210t197 85q60 0 104 -27t62 -77zM258 48q88 0 143.5 70.5t55.5 173.5q0 73 -40 114.5t-109 41.5q-85 0 -142 -66.5t-57 -165.5q0 -75 41 -121.5t108 -46.5zM276 630
q-14 0 -24 -10t-10 -25q0 -8 3 -17l-56 -11q-5 15 -5 32q0 37 24.5 62.5t69.5 25.5q28 0 50 -10.5t33 -23t26 -23t31 -10.5q35 0 35 34q0 8 -2 18l57 11q5 -17 5 -34q0 -40 -25 -63t-67 -23q-30 0 -52.5 10.5t-32.5 23t-25.5 23t-34.5 10.5z" />
    <glyph glyph-name="adieresis" unicode="&#xe4;" horiz-adv-x="609" 
d="M497 496h70l-97 -496h-70l15 78q-59 -92 -171 -92q-94 0 -150.5 64.5t-56.5 164.5q0 125 78 210t197 85q60 0 104 -27t62 -77zM258 48q88 0 143.5 70.5t55.5 173.5q0 73 -40 114.5t-109 41.5q-85 0 -142 -66.5t-57 -165.5q0 -75 41 -121.5t108 -46.5zM373 590l17 86h87
l-17 -86h-87zM220 590l17 86h87l-17 -86h-87z" />
    <glyph glyph-name="aring" unicode="&#xe5;" horiz-adv-x="609" 
d="M497 496h70l-97 -496h-70l15 78q-59 -92 -171 -92q-94 0 -150.5 64.5t-56.5 164.5q0 125 78 210t197 85q60 0 104 -27t62 -77zM258 48q88 0 143.5 70.5t55.5 173.5q0 73 -40 114.5t-109 41.5q-85 0 -142 -66.5t-57 -165.5q0 -75 41 -121.5t108 -46.5zM283 635
q0 -21 14 -35.5t35 -14.5t35 14.5t14 35.5t-14 35.5t-35 14.5t-35 -14.5t-14 -35.5zM236 635q0 40 28 67.5t68 27.5t68 -27.5t28 -67.5t-27 -67.5t-69 -27.5t-69 27.5t-27 67.5z" />
    <glyph glyph-name="ae" unicode="&#xe6;" horiz-adv-x="986" 
d="M497 496h70l-14 -69q26 37 74.5 60t106.5 23q95 0 152.5 -56.5t57.5 -142.5q0 -19 -5 -49l-4 -24h-418q-2 -20 -2 -33q0 -65 43.5 -112t115.5 -47q62 0 104.5 30.5t78.5 91.5l50 -33q-82 -149 -239 -149q-65 0 -111.5 29t-68.5 74l-18 -89h-70l15 78q-59 -92 -171 -92
q-94 0 -150.5 64.5t-56.5 164.5q0 125 78 210t197 85q60 0 104 -27t62 -77zM258 48q88 0 143.5 70.5t55.5 173.5q0 73 -40 114.5t-109 41.5q-85 0 -142 -66.5t-57 -165.5q0 -75 41 -121.5t108 -46.5zM725 450q-69 0 -122.5 -41.5t-73.5 -112.5h345q2 14 2 23q0 59 -41 95
t-110 36z" />
    <glyph glyph-name="ccedilla" unicode="&#xe7;" horiz-adv-x="557" 
d="M202 -103l-24 28l35 65q-79 15 -126 75t-47 152q0 116 78 204.5t208 88.5q153 0 204 -136l-54 -32q-46 106 -156 106q-89 0 -148.5 -69.5t-59.5 -160.5q0 -81 43.5 -125.5t111.5 -44.5q115 0 184 119l50 -36q-83 -145 -242 -145l-29 -42q19 12 44 12q28 0 46.5 -18
t18.5 -51q0 -41 -27 -66t-74 -25q-32 0 -52.5 17t-25.5 44l45 11q6 -28 38 -28q19 0 31 11.5t12 31.5q0 16 -10 24.5t-26 8.5q-24 0 -48 -19z" />
    <glyph glyph-name="egrave" unicode="&#xe8;" horiz-adv-x="574" 
d="M523 238h-418q-2 -20 -2 -33q0 -65 43.5 -112t115.5 -47q62 0 104.5 30.5t78.5 91.5l50 -33q-82 -149 -240 -149q-96 0 -159 61t-63 178q0 120 81.5 202.5t203.5 82.5q100 0 157 -56t57 -143q0 -19 -5 -49zM313 450q-69 0 -122.5 -41.5t-73.5 -112.5h345q2 14 2 23
q0 59 -41 95t-110 36zM326 700l38 -138h-61l-72 138h95z" />
    <glyph glyph-name="eacute" unicode="&#xe9;" horiz-adv-x="574" 
d="M523 238h-418q-2 -20 -2 -33q0 -65 43.5 -112t115.5 -47q62 0 104.5 30.5t78.5 91.5l50 -33q-82 -149 -240 -149q-96 0 -159 61t-63 178q0 120 81.5 202.5t203.5 82.5q100 0 157 -56t57 -143q0 -19 -5 -49zM313 450q-69 0 -122.5 -41.5t-73.5 -112.5h345q2 14 2 23
q0 59 -41 95t-110 36zM282 562l88 138h100l-125 -138h-63z" />
    <glyph glyph-name="ecircumflex" unicode="&#xea;" horiz-adv-x="574" 
d="M523 238h-418q-2 -20 -2 -33q0 -65 43.5 -112t115.5 -47q62 0 104.5 30.5t78.5 91.5l50 -33q-82 -149 -240 -149q-96 0 -159 61t-63 178q0 120 81.5 202.5t203.5 82.5q100 0 157 -56t57 -143q0 -19 -5 -49zM313 450q-69 0 -122.5 -41.5t-73.5 -112.5h345q2 14 2 23
q0 59 -41 95t-110 36zM197 562l127 138h61l73 -138h-58l-57 73l-82 -73h-64z" />
    <glyph glyph-name="edieresis" unicode="&#xeb;" horiz-adv-x="574" 
d="M523 238h-418q-2 -20 -2 -33q0 -65 43.5 -112t115.5 -47q62 0 104.5 30.5t78.5 91.5l50 -33q-82 -149 -240 -149q-96 0 -159 61t-63 178q0 120 81.5 202.5t203.5 82.5q100 0 157 -56t57 -143q0 -19 -5 -49zM313 450q-69 0 -122.5 -41.5t-73.5 -112.5h345q2 14 2 23
q0 59 -41 95t-110 36zM361 590l17 86h87l-17 -86h-87zM208 590l17 86h87l-17 -86h-87z" />
    <glyph glyph-name="igrave" unicode="&#xec;" 
d="M22 0l96 496h70l-96 -496h-70zM158 700l38 -138h-61l-72 138h95z" />
    <glyph glyph-name="iacute" unicode="&#xed;" 
d="M22 0l96 496h70l-96 -496h-70zM132 562l88 138h100l-125 -138h-63z" />
    <glyph glyph-name="icircumflex" unicode="&#xee;" 
d="M22 0l96 496h70l-96 -496h-70zM31 562l127 138h61l73 -138h-58l-57 73l-82 -73h-64z" />
    <glyph glyph-name="idieresis" unicode="&#xef;" 
d="M22 0l96 496h70l-96 -496h-70zM203 590l17 86h87l-17 -86h-87zM50 590l17 86h87l-17 -86h-87z" />
    <glyph glyph-name="eth" unicode="&#xf0;" horiz-adv-x="580" 
d="M258 568l105 38q-49 49 -121 84l35 50q97 -49 154 -109l106 38l18 -51l-87 -32q69 -98 69 -234q0 -162 -75 -264t-216 -102q-86 0 -149 57t-63 153q0 108 75.5 187t195.5 79q57 0 103.5 -27.5t66.5 -69.5q-8 110 -73 197l-126 -45zM254 46q83 0 139 62t56 158
q0 61 -43 98.5t-110 37.5q-82 0 -136 -60.5t-54 -142.5q0 -71 43 -112t105 -41z" />
    <glyph glyph-name="ntilde" unicode="&#xf1;" horiz-adv-x="571" 
d="M496 324l-63 -324h-70l63 327q3 16 3 34q0 40 -27.5 63.5t-74.5 23.5q-62 0 -114 -48.5t-67 -124.5l-53 -275h-70l96 496h70l-14 -76q67 90 177 90q68 0 108.5 -35t40.5 -105q0 -21 -5 -46zM276 630q-14 0 -24 -10t-10 -25q0 -8 3 -17l-56 -11q-5 15 -5 32
q0 37 24.5 62.5t69.5 25.5q28 0 50 -10.5t33 -23t26 -23t31 -10.5q35 0 35 34q0 8 -2 18l57 11q5 -17 5 -34q0 -40 -25 -63t-67 -23q-30 0 -52.5 10.5t-32.5 23t-25.5 23t-34.5 10.5z" />
    <glyph glyph-name="ograve" unicode="&#xf2;" horiz-adv-x="602" 
d="M554 290q0 -131 -81 -217.5t-206 -86.5q-94 0 -162 60t-68 165q0 127 81 213t208 86q96 0 162 -57t66 -163zM274 48q86 0 147 67t61 165q0 77 -47 122.5t-118 45.5q-89 0 -148.5 -71.5t-59.5 -161.5q0 -75 45.5 -121t119.5 -46zM334 700l38 -138h-61l-72 138h95z" />
    <glyph glyph-name="oacute" unicode="&#xf3;" horiz-adv-x="602" 
d="M554 290q0 -131 -81 -217.5t-206 -86.5q-94 0 -162 60t-68 165q0 127 81 213t208 86q96 0 162 -57t66 -163zM274 48q86 0 147 67t61 165q0 77 -47 122.5t-118 45.5q-89 0 -148.5 -71.5t-59.5 -161.5q0 -75 45.5 -121t119.5 -46zM305 562l88 138h100l-125 -138h-63z" />
    <glyph glyph-name="ocircumflex" unicode="&#xf4;" horiz-adv-x="602" 
d="M554 290q0 -131 -81 -217.5t-206 -86.5q-94 0 -162 60t-68 165q0 127 81 213t208 86q96 0 162 -57t66 -163zM274 48q86 0 147 67t61 165q0 77 -47 122.5t-118 45.5q-89 0 -148.5 -71.5t-59.5 -161.5q0 -75 45.5 -121t119.5 -46zM210 562l127 138h61l73 -138h-58l-57 73
l-82 -73h-64z" />
    <glyph glyph-name="otilde" unicode="&#xf5;" horiz-adv-x="602" 
d="M554 290q0 -131 -81 -217.5t-206 -86.5q-94 0 -162 60t-68 165q0 127 81 213t208 86q96 0 162 -57t66 -163zM274 48q86 0 147 67t61 165q0 77 -47 122.5t-118 45.5q-89 0 -148.5 -71.5t-59.5 -161.5q0 -75 45.5 -121t119.5 -46zM274 630q-14 0 -24 -10t-10 -25
q0 -8 3 -17l-56 -11q-5 15 -5 32q0 37 24.5 62.5t69.5 25.5q28 0 50 -10.5t33 -23t26 -23t31 -10.5q35 0 35 34q0 8 -2 18l57 11q5 -17 5 -34q0 -40 -25 -63t-67 -23q-30 0 -52.5 10.5t-32.5 23t-25.5 23t-34.5 10.5z" />
    <glyph glyph-name="odieresis" unicode="&#xf6;" horiz-adv-x="602" 
d="M554 290q0 -131 -81 -217.5t-206 -86.5q-94 0 -162 60t-68 165q0 127 81 213t208 86q96 0 162 -57t66 -163zM274 48q86 0 147 67t61 165q0 77 -47 122.5t-118 45.5q-89 0 -148.5 -71.5t-59.5 -161.5q0 -75 45.5 -121t119.5 -46zM377 590l17 86h87l-17 -86h-87zM224 590
l17 86h87l-17 -86h-87z" />
    <glyph glyph-name="divide" unicode="&#xf7;" horiz-adv-x="506" 
d="M222 382l18 92h88l-18 -92h-88zM147 0l18 92h88l-18 -92h-88zM31 210l11 54h402l-11 -54h-402z" />
    <glyph glyph-name="oslash" unicode="&#xf8;" horiz-adv-x="602" 
d="M553 290q0 -131 -81 -217.5t-206 -86.5q-62 0 -114 26l-38 -49l-48 38l36 47q-66 63 -66 163q0 127 81 213t208 86q62 0 113 -24l38 49l48 -38l-35 -46q64 -59 64 -161zM108 215q0 -68 37 -111l250 326q-36 18 -79 18q-89 0 -148.5 -71.5t-59.5 -161.5zM273 48
q86 0 147 67t61 165q0 67 -37 112l-251 -327q36 -17 80 -17z" />
    <glyph glyph-name="ugrave" unicode="&#xf9;" horiz-adv-x="571" 
d="M58 181l61 315h70l-60 -310q-5 -29 -5 -44q0 -44 28.5 -69t76.5 -25q60 0 111.5 51.5t68.5 136.5l50 260h70l-96 -496h-70l14 76q-55 -90 -168 -90q-72 0 -113.5 40t-41.5 110q0 21 4 45zM340 700l38 -138h-61l-72 138h95z" />
    <glyph glyph-name="uacute" unicode="&#xfa;" horiz-adv-x="571" 
d="M58 181l61 315h70l-60 -310q-5 -29 -5 -44q0 -44 28.5 -69t76.5 -25q60 0 111.5 51.5t68.5 136.5l50 260h70l-96 -496h-70l14 76q-55 -90 -168 -90q-72 0 -113.5 40t-41.5 110q0 21 4 45zM289 562l88 138h100l-125 -138h-63z" />
    <glyph glyph-name="ucircumflex" unicode="&#xfb;" horiz-adv-x="571" 
d="M58 181l61 315h70l-60 -310q-5 -29 -5 -44q0 -44 28.5 -69t76.5 -25q60 0 111.5 51.5t68.5 136.5l50 260h70l-96 -496h-70l14 76q-55 -90 -168 -90q-72 0 -113.5 40t-41.5 110q0 21 4 45zM206 562l127 138h61l73 -138h-58l-57 73l-82 -73h-64z" />
    <glyph glyph-name="udieresis" unicode="&#xfc;" horiz-adv-x="571" 
d="M58 181l61 315h70l-60 -310q-5 -29 -5 -44q0 -44 28.5 -69t76.5 -25q60 0 111.5 51.5t68.5 136.5l50 260h70l-96 -496h-70l14 76q-55 -90 -168 -90q-72 0 -113.5 40t-41.5 110q0 21 4 45zM372 590l17 86h87l-17 -86h-87zM219 590l17 86h87l-17 -86h-87z" />
    <glyph glyph-name="yacute" unicode="&#xfd;" horiz-adv-x="494" 
d="M-38 -201l22 63q19 -9 41 -9t36.5 11t31.5 40l59 101l-104 491h74l83 -403l236 403h80l-366 -616q-31 -52 -62 -71.5t-79 -19.5q-32 0 -52 10zM244 562l88 138h100l-125 -138h-63z" />
    <glyph glyph-name="thorn" unicode="&#xfe;" horiz-adv-x="608" 
d="M-17 -204l176 904h70l-54 -278q26 39 74.5 63.5t104.5 24.5q90 0 147 -60t57 -164q0 -121 -78 -210.5t-205 -89.5q-59 0 -103.5 27.5t-62.5 68.5l-56 -286h-70zM334 448q-81 0 -142 -70.5t-61 -170.5q0 -73 43.5 -116t112.5 -43q86 0 142.5 69.5t56.5 164.5q0 80 -41 123
t-111 43z" />
    <glyph glyph-name="ydieresis" unicode="&#xff;" horiz-adv-x="494" 
d="M-38 -201l22 63q19 -9 41 -9t36.5 11t31.5 40l59 101l-104 491h74l83 -403l236 403h80l-366 -616q-31 -52 -62 -71.5t-79 -19.5q-32 0 -52 10zM333 590l17 86h87l-17 -86h-87zM180 590l17 86h87l-17 -86h-87z" />
    <glyph glyph-name="dotlessi" unicode="&#x131;" 
d="M22 0l96 496h70l-96 -496h-70z" />
    <glyph glyph-name="Lslash" unicode="&#x141;" horiz-adv-x="577" 
d="M-10 161l16 79l93 53l80 407h74l-70 -360l181 103l-16 -80l-181 -102l-38 -197h348l-13 -64h-422l42 214z" />
    <glyph glyph-name="lslash" unicode="&#x142;" horiz-adv-x="262" 
d="M0 168l14 73l81 45l81 414h70l-72 -369l81 46l-14 -74l-82 -46l-50 -257h-70l41 213z" />
    <glyph glyph-name="OE" unicode="&#x152;" horiz-adv-x="1157" 
d="M442 714q93 0 161 -43t99 -117l29 146h423l-13 -64h-349l-47 -242h321l-12 -64h-320l-53 -266h352l-13 -64h-426l20 104q-111 -118 -255 -118q-132 0 -216.5 84t-84.5 226q0 106 45 200.5t134.5 156t204.5 61.5zM362 50q136 0 220 104t84 246q0 120 -62.5 185t-170.5 65
q-86 0 -156 -52t-106.5 -131.5t-36.5 -166.5q0 -115 64.5 -182.5t163.5 -67.5z" />
    <glyph glyph-name="oe" unicode="&#x153;" horiz-adv-x="1016" 
d="M967 238h-413q-2 -20 -2 -33q0 -66 42 -112.5t114 -46.5q61 0 103 30t78 92l50 -33q-42 -77 -99.5 -113t-138.5 -36q-66 0 -117.5 33t-78.5 95q-37 -61 -99 -94.5t-139 -33.5q-94 0 -162 60t-68 165q0 127 81 213t208 86q69 0 125.5 -30.5t83.5 -90.5q87 121 229 121
q100 0 156 -56t56 -143q0 -19 -5 -49zM274 48q86 0 147 67t61 165q0 77 -47 122.5t-118 45.5q-89 0 -148.5 -71.5t-59.5 -161.5q0 -75 45.5 -121t119.5 -46zM759 450q-69 0 -121 -41.5t-72 -112.5h340q2 14 2 23q0 59 -40 95t-109 36z" />
    <glyph glyph-name="Scaron" unicode="&#x160;" horiz-adv-x="646" 
d="M369 652q-67 0 -116.5 -34.5t-49.5 -93.5q0 -50 42 -81t129 -51q183 -42 183 -178q0 -100 -72.5 -164t-187.5 -64q-111 0 -174 61.5t-75 154.5l67 34q10 -81 57.5 -133.5t129.5 -52.5q73 0 126 41.5t53 110.5q0 56 -38 85t-122 49q-190 45 -190 183q0 88 69 141.5
t177 53.5q89 0 147.5 -42.5t80.5 -123.5l-59 -36q-42 140 -177 140zM546 904l-127 -138h-61l-73 138h58l57 -73l82 73h64z" />
    <glyph glyph-name="scaron" unicode="&#x161;" horiz-adv-x="491" 
d="M263 450q-41 0 -74 -19.5t-33 -57.5q0 -33 27 -52.5t93 -34.5q135 -31 135 -134q0 -75 -53.5 -120.5t-139.5 -45.5q-74 0 -124 41.5t-63 104.5l60 32q11 -52 43.5 -84t87.5 -32q54 0 86.5 26t32.5 69q0 40 -23.5 58t-86.5 34q-140 35 -140 136q0 61 49.5 100t125.5 39
q134 0 171 -119l-54 -28q-31 87 -120 87zM438 700l-127 -138h-61l-73 138h58l57 -73l82 73h64z" />
    <glyph glyph-name="Ydieresis" unicode="&#x178;" horiz-adv-x="552" 
d="M180 0l57 289l-150 411h76l105 -304q8 -26 14 -50l31 48l223 306h85l-310 -411l-57 -289h-74zM401 794l17 86h87l-17 -86h-87zM248 794l17 86h87l-17 -86h-87z" />
    <glyph glyph-name="Zcaron" unicode="&#x17d;" horiz-adv-x="584" 
d="M120 636l13 64h470l-13 -64l-501 -572h410l-13 -64h-500l13 62l505 574h-384zM520 904l-127 -138h-61l-73 138h58l57 -73l82 73h64z" />
    <glyph glyph-name="zcaron" unicode="&#x17e;" horiz-adv-x="484" 
d="M86 64h307l-13 -64h-391l12 64l363 368h-280l13 64h366l-13 -64zM448 700l-127 -138h-61l-73 138h58l57 -73l82 73h64z" />
    <glyph glyph-name="florin" unicode="&#x192;" horiz-adv-x="316" 
d="M54 442l10 54h79l21 107q13 69 56.5 108t116.5 39q19 0 39 -6l-11 -59q-14 5 -37 5q-35 0 -61.5 -23.5t-35.5 -67.5l-20 -103h116l-10 -54h-116l-102 -524q-26 -136 -149 -136q-30 0 -47 6l19 60q16 -6 33 -6q60 0 76 78l102 522h-79z" />
    <glyph glyph-name="circumflex" unicode="&#x2c6;" horiz-adv-x="378" 
d="M100 562l127 138h61l73 -138h-58l-57 73l-82 -73h-64z" />
    <glyph glyph-name="caron" unicode="&#x2c7;" horiz-adv-x="378" 
d="M387 700l-127 -138h-61l-73 138h58l57 -73l82 73h64z" />
    <glyph glyph-name="breve" unicode="&#x2d8;" horiz-adv-x="286" 
d="M242 671h61q-17 -102 -115 -102q-41 0 -64.5 23.5t-23.5 57.5q0 11 2 21h61q-2 -6 -2 -13q0 -14 9 -23t24 -9q19 0 31.5 12.5t16.5 32.5z" />
    <glyph glyph-name="dotaccent" unicode="&#x2d9;" 
d="M125 586l17 90h86l-17 -90h-86z" />
    <glyph glyph-name="ring" unicode="&#x2da;" horiz-adv-x="292" 
d="M156 635q0 -21 14 -35.5t35 -14.5t35 14.5t14 35.5t-14 35.5t-35 14.5t-35 -14.5t-14 -35.5zM109 635q0 40 28 67.5t68 27.5t68 -27.5t28 -67.5t-27 -67.5t-69 -27.5t-69 27.5t-27 67.5z" />
    <glyph glyph-name="ogonek" unicode="&#x2db;" horiz-adv-x="208" 
d="M-47 -117q0 84 102 126l56 -9q-88 -39 -88 -92q0 -18 12 -29t31 -11q6 0 19 2l-3 -62q-21 -6 -43 -6q-38 0 -62 22t-24 59z" />
    <glyph glyph-name="tilde" unicode="&#x2dc;" horiz-adv-x="472" 
d="M217 630q-14 0 -24 -10t-10 -25q0 -8 3 -17l-56 -11q-5 15 -5 32q0 37 24.5 62.5t69.5 25.5q28 0 50 -10.5t33 -23t26 -23t31 -10.5q35 0 35 34q0 8 -2 18l57 11q5 -17 5 -34q0 -40 -25 -63t-67 -23q-30 0 -52.5 10.5t-32.5 23t-25.5 23t-34.5 10.5z" />
    <glyph glyph-name="hungarumlaut" unicode="&#x2dd;" horiz-adv-x="455" 
d="M280 562l86 138h101l-126 -138h-61zM124 562l91 138h97l-126 -138h-62z" />
    <glyph glyph-name="pi" unicode="&#x3c0;" horiz-adv-x="649" 
d="M236 442l-86 -442h-70l86 442h-106l10 54h573l-10 -54h-104l-64 -327q-3 -13 -3 -24q0 -45 55 -45q15 0 35 6l-4 -57q-27 -9 -61 -9q-41 0 -68 24.5t-27 70.5q0 17 3 34l64 327h-223z" />
    <glyph glyph-name="endash" unicode="&#x2013;" horiz-adv-x="517" 
d="M46 284l11 54h419l-11 -54h-419z" />
    <glyph glyph-name="emdash" unicode="&#x2014;" horiz-adv-x="797" 
d="M46 284l11 54h699l-11 -54h-699z" />
    <glyph glyph-name="quoteleft" unicode="&#x2018;" horiz-adv-x="196" 
d="M226 707l15 -17l-77 -105h35l-18 -92h-89l18 92z" />
    <glyph glyph-name="quoteright" unicode="&#x2019;" horiz-adv-x="196" 
d="M86 486l-15 17l77 105h-35l18 92h89l-18 -92z" />
    <glyph glyph-name="quotesinglbase" unicode="&#x201a;" horiz-adv-x="196" 
d="M-31 -122l-15 17l77 105h-35l18 92h89l-18 -92z" />
    <glyph glyph-name="quotedblleft" unicode="&#x201c;" horiz-adv-x="332" 
d="M224 707l15 -17l-77 -105h35l-18 -92h-89l18 92zM361 707l15 -17l-77 -105h35l-18 -92h-89l18 92z" />
    <glyph glyph-name="quotedblright" unicode="&#x201d;" horiz-adv-x="332" 
d="M223 486l-15 17l77 105h-35l18 92h89l-18 -92zM86 486l-15 17l77 105h-35l18 92h89l-18 -92z" />
    <glyph glyph-name="quotedblbase" unicode="&#x201e;" horiz-adv-x="332" 
d="M106 -122l-15 17l77 105h-35l18 92h89l-18 -92zM-31 -122l-15 17l77 105h-35l18 92h89l-18 -92z" />
    <glyph glyph-name="dagger" unicode="&#x2020;" horiz-adv-x="456" 
d="M77 434l12 62h141l47 244h72l-47 -244h141l-12 -62h-141l-106 -544h-72l106 544h-141z" />
    <glyph glyph-name="daggerdbl" unicode="&#x2021;" horiz-adv-x="456" 
d="M18 134l12 62h141l47 238h-141l12 62h141l47 244h72l-47 -244h141l-12 -62h-141l-47 -238h141l-12 -62h-141l-47 -244h-72l47 244h-141z" />
    <glyph glyph-name="bullet" unicode="&#x2022;" horiz-adv-x="286" 
d="M57 275q0 35 25.5 60.5t60.5 25.5t60.5 -25.5t25.5 -60.5t-25.5 -60.5t-60.5 -25.5t-60.5 25.5t-25.5 60.5z" />
    <glyph glyph-name="ellipsis" unicode="&#x2026;" horiz-adv-x="550" 
d="M354 0l17 92h88l-17 -92h-88zM174 0l17 92h88l-17 -92h-88zM-6 0l17 92h88l-17 -92h-88z" />
    <glyph glyph-name="perthousand" unicode="&#x2030;" horiz-adv-x="1164" 
d="M469 141q0 82 55 138.5t138 56.5q94 0 133 -69q56 69 149 69q73 0 113 -42t40 -111q0 -80 -55 -138.5t-138 -58.5q-90 0 -132 73q-56 -73 -150 -73q-66 0 -109.5 44.5t-43.5 110.5zM101 519q0 82 55 138.5t138 56.5q73 0 113 -42t40 -111q0 -80 -55 -138.5t-138 -58.5
q-66 0 -109.5 44.5t-43.5 110.5zM938 278q-52 0 -88.5 -38.5t-36.5 -96.5q0 -46 27 -72.5t71 -26.5q53 0 88.5 38.5t35.5 94.5q0 49 -25 75t-72 26zM288 656q-52 0 -88.5 -38.5t-36.5 -96.5q0 -46 27 -72.5t71 -26.5q53 0 88.5 38.5t35.5 94.5q0 49 -25 75t-72 26zM656 278
q-52 0 -88.5 -38.5t-36.5 -96.5q0 -46 27 -72.5t71 -26.5q53 0 88.5 38.5t35.5 94.5q0 49 -25 75t-72 26zM196 2l-42 37l565 659l42 -38z" />
    <glyph glyph-name="guilsinglleft" unicode="&#x2039;" horiz-adv-x="328" 
d="M245 472h86l-197 -201l113 -193h-76l-117 197z" />
    <glyph glyph-name="guilsinglright" unicode="&#x203a;" horiz-adv-x="328" 
d="M87 78h-86l197 201l-113 193h76l117 -197z" />
    <glyph glyph-name="fraction" unicode="&#x2044;" horiz-adv-x="529" 
d="M12 2l-42 37l565 659l42 -38z" />
    <glyph glyph-name="Euro" unicode="&#x20ac;" horiz-adv-x="759" 
d="M70 397l36 56h45q42 116 132.5 188.5t219.5 72.5q94 0 155.5 -48t80.5 -141l-64 -23q-18 77 -61 112.5t-119 35.5q-96 0 -163.5 -54t-104.5 -143h298l-36 -56h-278q-12 -51 -13 -94h298l-36 -56h-261q8 -93 55.5 -145t134.5 -52q79 0 133.5 41t97.5 126l57 -22
q-96 -209 -293 -209q-108 0 -180 66.5t-81 194.5h-82l36 56h45q3 51 13 94h-65z" />
    <glyph glyph-name="trademark" unicode="&#x2122;" horiz-adv-x="848" 
d="M109 652l8 48h297l-9 -48h-120l-68 -352h-56l68 352h-120zM391 300l77 400h54l80 -346l213 346h55l-77 -400h-50l58 298l-182 -298h-54l-66 298l-58 -298h-50z" />
    <glyph glyph-name="Omega" unicode="&#x2126;" horiz-adv-x="788" 
d="M657 68l-13 -68h-251l15 80q111 47 187 139t76 204q0 105 -61 165t-169 60q-131 0 -217.5 -91.5t-86.5 -207.5q0 -101 41 -167.5t104 -101.5l-15 -80h-250l13 68h166q-56 44 -94.5 114.5t-38.5 162.5q0 153 107 261t276 108q140 0 220.5 -76t80.5 -207q0 -116 -69.5 -210
t-183.5 -153h163z" />
    <glyph glyph-name="arrowleft" unicode="&#x2190;" horiz-adv-x="559" 
d="M269 153l-46 -38l-159 196l236 198l35 -44l-151 -126h330l-11 -56h-338z" />
    <glyph glyph-name="arrowup" unicode="&#x2191;" horiz-adv-x="496" 
d="M103 354l-36 43l232 195l158 -196l-46 -39l-100 125l-65 -337h-56l66 338z" />
    <glyph glyph-name="arrowright" unicode="&#x2192;" horiz-adv-x="559" 
d="M295 469l46 38l159 -196l-236 -198l-35 44l151 126h-330l11 56h338z" />
    <glyph glyph-name="arrowdown" unicode="&#x2193;" horiz-adv-x="496" 
d="M416 387l36 -43l-232 -195l-158 196l46 39l100 -125l65 337h56l-66 -338z" />
    <glyph glyph-name="arrowboth" unicode="&#x2194;" horiz-adv-x="766" 
d="M502 469l46 38l159 -196l-236 -198l-35 44l151 126h-424l104 -130l-46 -38l-159 196l236 198l35 -44l-151 -126h424z" />
    <glyph glyph-name="arrowupdn" unicode="&#x2195;" horiz-adv-x="496" 
d="M397 266l36 -43l-232 -195l-158 196l46 39l100 -125l82 425l-153 -129l-36 43l232 195l158 -196l-46 -39l-100 125l-82 -425z" />
    <glyph glyph-name="uni2196" unicode="&#x2196;" horiz-adv-x="518" 
d="M133 188h-59l54 280h280l-12 -60h-181l189 -234l-45 -38l-190 235z" />
    <glyph glyph-name="uni2197" unicode="&#x2197;" horiz-adv-x="518" 
d="M399 188h-59l34 178l-279 -234l-35 42l279 234h-176l12 60h278z" />
    <glyph glyph-name="uni2198" unicode="&#x2198;" horiz-adv-x="518" 
d="M384 412h59l-54 -280h-280l12 60h181l-189 234l45 38l190 -235z" />
    <glyph glyph-name="uni2199" unicode="&#x2199;" horiz-adv-x="518" 
d="M118 412h59l-34 -178l279 234l35 -42l-279 -234h176l-12 -60h-278z" />
    <glyph glyph-name="partialdiff" unicode="&#x2202;" horiz-adv-x="583" 
d="M552 416q0 -85 -17.5 -159.5t-52 -136.5t-94.5 -98t-138 -36q-89 0 -152 56t-63 153q0 110 75 188.5t196 78.5q56 0 101.5 -25t68.5 -65q6 34 6 64q0 214 -159 214q-47 0 -83 -21.5t-36 -58.5q0 -12 2 -20l-63 -25q-7 18 -7 44q0 61 56 103t139 42q221 0 221 -298z
M254 48q85 0 140.5 61.5t55.5 146.5q0 71 -41 107.5t-104 36.5q-87 0 -142.5 -59t-55.5 -145q0 -71 43.5 -109.5t103.5 -38.5z" />
    <glyph glyph-name="Delta" unicode="&#x2206;" horiz-adv-x="656" 
d="M-47 0l415 700h77l141 -700h-633zM361 563l-295 -503h437l-100 503q-7 36 -10 58z" />
    <glyph glyph-name="product" unicode="&#x220f;" horiz-adv-x="672" 
d="M-7 -204l175 904h490l-175 -904h-74l163 840h-342l-163 -840h-74z" />
    <glyph glyph-name="summation" unicode="&#x2211;" horiz-adv-x="569" 
d="M263 290l-153 346l12 64h470l-12 -64h-391l155 -358l-289 -334h403l-12 -64h-490l12 64z" />
    <glyph glyph-name="minus" unicode="&#x2212;" horiz-adv-x="506" 
d="M56 338l11 54h402l-11 -54h-402z" />
    <glyph glyph-name="radical" unicode="&#x221a;" horiz-adv-x="594" 
d="M248 0h-68l-45 300h-99l11 56h149l36 -257l340 601h72z" />
    <glyph glyph-name="infinity" unicode="&#x221e;" horiz-adv-x="774" 
d="M53 280q0 71 50 122.5t132 51.5q55 0 91 -27t65 -75q98 102 192 102q64 0 100.5 -37.5t36.5 -93.5q0 -77 -51.5 -127t-128.5 -50q-56 0 -92 26t-65 73q-42 -47 -86.5 -73t-104.5 -26q-64 0 -101.5 38t-37.5 96zM229 396q-48 0 -78 -32t-30 -80q0 -36 21 -58t59 -22
q39 0 72 24.5t76 74.5q-25 44 -52.5 68.5t-67.5 24.5zM572 396q-27 0 -55 -16.5t-45.5 -34t-46.5 -52.5q26 -43 52.5 -66t66.5 -23q41 0 74.5 34t33.5 80q0 34 -21 56t-59 22z" />
    <glyph glyph-name="integral" unicode="&#x222b;" horiz-adv-x="316" 
d="M31 -80l133 683q13 69 56.5 108t116.5 39q19 0 39 -6l-11 -59q-14 5 -37 5q-35 0 -61.5 -23.5t-35.5 -67.5l-132 -681q-26 -136 -149 -136q-30 0 -47 6l19 60q16 -6 33 -6q60 0 76 78z" />
    <glyph glyph-name="approxequal" unicode="&#x2248;" horiz-adv-x="447" 
d="M148 273q-39 0 -39 -39q0 -6 3 -15l-61 -11q-6 14 -6 30q0 41 26.5 68.5t74.5 27.5q38 0 65.5 -17t48.5 -33.5t42 -16.5q33 0 33 37q0 8 -3 16l61 12q6 -14 6 -28q0 -45 -27.5 -71.5t-72.5 -26.5q-38 0 -66 17t-47.5 33.5t-37.5 16.5zM180 429q-39 0 -39 -39q0 -6 3 -15
l-61 -11q-6 14 -6 30q0 41 26.5 68.5t74.5 27.5q38 0 65.5 -17t48.5 -33.5t42 -16.5q33 0 33 37q0 8 -3 16l61 12q6 -14 6 -28q0 -45 -27.5 -71.5t-72.5 -26.5q-38 0 -66 17t-47.5 33.5t-37.5 16.5z" />
    <glyph glyph-name="notequal" unicode="&#x2260;" horiz-adv-x="506" 
d="M75 418l10 54h237l108 138l43 -34l-82 -104h96l-10 -54h-128l-107 -136h208l-10 -54h-241l-107 -136l-43 33l81 103h-92l10 54h124l107 136h-204z" />
    <glyph glyph-name="lessequal" unicode="&#x2264;" horiz-adv-x="506" 
d="M44 356l13 68l439 199l-14 -72l-369 -164l306 -163l-12 -67zM-5 0l11 54h402l-11 -54h-402z" />
    <glyph glyph-name="greaterequal" unicode="&#x2265;" horiz-adv-x="506" 
d="M496 424l-13 -68l-439 -199l14 72l369 164l-307 164l13 66zM-5 0l11 54h402l-11 -54h-402z" />
    <glyph glyph-name="lozenge" unicode="&#x25ca;" horiz-adv-x="580" 
d="M557 350l-288 -350h-76l-150 350l286 350h76zM238 60l244 298l-121 282l-241 -298z" />
    <glyph glyph-name="apple" unicode="&#xf8ff;" horiz-adv-x="780" 
d="M686 617v-595q0 -9 -6.5 -15.5t-15.5 -6.5q-3 0 -7 1l-267 77l-267 -77q-4 -1 -7 -1q-9 0 -15.5 6.5t-6.5 15.5v595q0 17 16 22l270 78q6 2 10 2t10 -2l270 -78q16 -5 16 -22zM368 366v303l-230 -67q6 -94 71.5 -161t158.5 -75zM412 669v-303q93 8 158.5 75t71.5 161z
M137 463v-412l231 67v204q-73 6 -134 43.5t-97 97.5zM643 51v412q-37 -60 -97.5 -97.5t-133.5 -43.5v-204z" />
    </font>
</defs>
</svg>
