<?xml version="1.0" standalone="no"?>
<!DOCTYPE svg PUBLIC "-//W3C//DTD SVG 1.1//EN" "http://www.w3.org/Graphics/SVG/1.1/DTD/svg11.dtd" >
<svg xmlns="http://www.w3.org/2000/svg" xmlns:xlink="http://www.w3.org/1999/xlink" version="1.1">
<metadata>
Created by FontForge 20170731 at Sun Nov  6 18:31:01 2016
 By Aleksey,,,
Copyright (c) 2015 by Colophon Foundry. All rights reserved.
</metadata>
<defs>
<font id="BasisGrotesque-Black" horiz-adv-x="629" >
  <font-face 
    font-family="Basis Grotesque Black"
    font-weight="900"
    font-stretch="normal"
    units-per-em="1000"
    panose-1="2 0 5 3 3 0 0 2 0 4"
    ascent="800"
    descent="-200"
    x-height="496"
    cap-height="700"
    bbox="-60 -218 1129 940"
    underline-thickness="50"
    underline-position="-200"
    unicode-range="U+000D-FB04"
  />
<missing-glyph horiz-adv-x="500" 
 />
    <glyph glyph-name="ff" unicode="ff" horiz-adv-x="653" 
d="M237 380v-380h-150v380h-70v116h70v64q0 92 54 141t137 49q35 0 71 -14l-28 -130q-17 6 -35 6q-22 0 -35.5 -15.5t-13.5 -39.5v-61h143v64q0 92 54 141t137 49q35 0 71 -14l-28 -130q-17 6 -35 6q-22 0 -35.5 -15.5t-13.5 -39.5v-61h106v-116h-106v-380h-150v380h-143z
" />
    <glyph glyph-name="fi" unicode="fi" horiz-adv-x="624" 
d="M418 0v380h-181v-380h-150v380h-70v116h70v64q0 92 54 141t137 49q35 0 71 -14l-28 -130q-17 6 -35 6q-22 0 -35.5 -15.5t-13.5 -39.5v-61h331v-496h-150zM412 554v160h162v-160h-162z" />
    <glyph glyph-name="fl" unicode="fl" horiz-adv-x="624" 
d="M17 380v116h70v64q0 92 54 141t137 49q35 0 71 -14l-28 -130q-17 6 -35 6q-22 0 -35.5 -15.5t-13.5 -39.5v-61h106v-116h-106v-380h-150v380h-70zM418 0v700h150v-700h-150z" />
    <glyph glyph-name="f_f_i" unicode="ffi" horiz-adv-x="917" 
d="M711 0v380h-181v-380h-150v380h-143v-380h-150v380h-70v116h70v64q0 92 54 141t137 49q35 0 71 -14l-28 -130q-17 6 -35 6q-22 0 -35.5 -15.5t-13.5 -39.5v-61h143v64q0 92 54 141t137 49q35 0 71 -14l-28 -130q-17 6 -35 6q-22 0 -35.5 -15.5t-13.5 -39.5v-61h331v-496
h-150zM705 554v160h162v-160h-162z" />
    <glyph glyph-name="f_f_l" unicode="ffl" horiz-adv-x="917" 
d="M237 380v-380h-150v380h-70v116h70v64q0 92 54 141t137 49q35 0 71 -14l-28 -130q-17 6 -35 6q-22 0 -35.5 -15.5t-13.5 -39.5v-61h143v64q0 92 54 141t137 49q35 0 71 -14l-28 -130q-17 6 -35 6q-22 0 -35.5 -15.5t-13.5 -39.5v-61h106v-116h-106v-380h-150v380h-143z
M711 0v700h150v-700h-150z" />
    <glyph glyph-name="f_j" unicode="fj" horiz-adv-x="624" 
d="M302 -198l21 129q19 -8 39 -8q30 0 43 17.5t13 53.5v386h-181v-380h-150v380h-70v116h70v64q0 92 54 141t137 49q35 0 71 -14l-28 -130q-17 6 -35 6q-22 0 -35.5 -15.5t-13.5 -39.5v-61h331v-527q0 -87 -47 -133.5t-128 -46.5q-44 0 -91 13zM412 554v160h162v-160h-162z
" />
    <glyph glyph-name="f_f_j" unicode="ffj" horiz-adv-x="917" 
d="M595 -198l21 129q19 -8 39 -8q30 0 43 17.5t13 53.5v386h-181v-380h-150v380h-143v-380h-150v380h-70v116h70v64q0 92 54 141t137 49q35 0 71 -14l-28 -130q-17 6 -35 6q-22 0 -35.5 -15.5t-13.5 -39.5v-61h143v64q0 92 54 141t137 49q35 0 71 -14l-28 -130q-17 6 -35 6
q-22 0 -35.5 -15.5t-13.5 -39.5v-61h331v-527q0 -87 -47 -133.5t-128 -46.5q-44 0 -91 13zM705 554v160h162v-160h-162z" />
    <glyph glyph-name=".notdef" horiz-adv-x="500" 
 />
    <glyph glyph-name=".null" horiz-adv-x="0" 
 />
    <glyph glyph-name="nonmarkingreturn" horiz-adv-x="333" 
 />
    <glyph glyph-name="NULL" horiz-adv-x="0" 
 />
    <glyph glyph-name="NULL" horiz-adv-x="0" 
 />
    <glyph glyph-name="CR" unicode="&#xd;" horiz-adv-x="289" 
 />
    <glyph glyph-name="space" unicode=" " horiz-adv-x="276" 
 />
    <glyph glyph-name="exclam" unicode="!" horiz-adv-x="292" 
d="M65 443v257h162v-257l-16 -223h-130zM72 0v156h150v-156h-150z" />
    <glyph glyph-name="quotedbl" unicode="&#x22;" horiz-adv-x="416" 
d="M230 607v93h140v-93l-15 -171h-110zM46 607v93h140v-93l-15 -171h-110z" />
    <glyph glyph-name="numbersign" unicode="#" horiz-adv-x="666" 
d="M579 700l-37 -199h88v-104h-107l-17 -94h104v-104h-123l-36 -199h-120l36 199h-120l-36 -199h-120l36 199h-87v104h106l17 94h-103v104h122l37 199h120l-37 -199h120l37 199h120zM283 397l-17 -94h120l17 94h-120z" />
    <glyph glyph-name="dollar" unicode="$" horiz-adv-x="656" 
d="M281 -100v91q-191 28 -242 222l137 66q28 -114 105 -141v166q-100 22 -154 74.5t-54 134.5t56 134.5t152 63.5v89h112v-92q148 -25 204 -177l-121 -72q-28 79 -83 107v-144q112 -24 164 -74.5t52 -136.5q0 -84 -58 -146.5t-158 -75.5v-89h-112zM450 200q0 47 -57 74v-140
q57 16 57 66zM219 516q0 -39 62 -62v125q-29 -7 -45.5 -23.5t-16.5 -39.5z" />
    <glyph glyph-name="percent" unicode="%" horiz-adv-x="867" 
d="M38 539q0 76 49 125.5t126 49.5t126 -49.5t49 -125.5t-49 -125.5t-126 -49.5t-126 49.5t-49 125.5zM144 539q0 -33 19.5 -54t49.5 -21t49.5 21t19.5 54t-19.5 54t-49.5 21t-49.5 -21t-19.5 -54zM479 161q0 76 49 125.5t126 49.5t126 -49.5t49 -125.5t-49 -125.5
t-126 -49.5t-126 49.5t-49 125.5zM585 161q0 -33 19.5 -54t49.5 -21t49.5 21t19.5 54t-19.5 54t-49.5 21t-49.5 -21t-19.5 -54zM256 -10l-80 55l435 665l80 -55z" />
    <glyph glyph-name="ampersand" unicode="&#x26;" horiz-adv-x="679" 
d="M648 0h-171l-24 31q-72 -45 -164 -45q-109 0 -176.5 60.5t-67.5 158.5q0 130 126 206q-39 66 -39 126q0 80 52 128.5t133 48.5q82 0 130.5 -41.5t48.5 -111.5q0 -61 -33.5 -102t-105.5 -79l101 -132q22 53 34 129l131 -71q-24 -104 -74 -178zM309 124q35 0 64 15
l-130 173q-41 -36 -41 -89q0 -40 30 -69.5t77 -29.5zM260 542q0 -32 29 -73q45 23 63 42t18 45q0 22 -15 35t-38 13t-40 -16.5t-17 -45.5z" />
    <glyph glyph-name="quotesingle" unicode="'" horiz-adv-x="232" 
d="M46 607v93h140v-93l-15 -171h-110z" />
    <glyph glyph-name="parenleft" unicode="(" horiz-adv-x="362" 
d="M294 -148h-128q-110 194 -110 424t110 424h128q-39 -69 -66.5 -196t-27.5 -228t27.5 -228t66.5 -196z" />
    <glyph glyph-name="parenright" unicode=")" horiz-adv-x="362" 
d="M196 -148h-128q39 69 66.5 196t27.5 228t-27.5 228t-66.5 196h128q110 -194 110 -424t-110 -424z" />
    <glyph glyph-name="asterisk" unicode="*" horiz-adv-x="438" 
d="M277 700l-17 -100l79 63l58 -100l-93 -34l93 -34l-58 -100l-79 63l17 -100h-116l17 100l-79 -63l-58 100l93 34l-93 34l58 100l79 -63l-17 100h116z" />
    <glyph glyph-name="plus" unicode="+" horiz-adv-x="582" 
d="M230 620h122v-194h194v-122h-194v-194h-122v194h-194v122h194v194z" />
    <glyph glyph-name="comma" unicode="," horiz-adv-x="226" 
d="M36 0v154h154v-154l-111 -167l-35 14l42 153h-50z" />
    <glyph glyph-name="hyphen" unicode="-" horiz-adv-x="484" 
d="M36 250v122h412v-122h-412z" />
    <glyph glyph-name="period" unicode="." horiz-adv-x="226" 
d="M36 0v154h154v-154h-154z" />
    <glyph glyph-name="slash" unicode="/" horiz-adv-x="566" 
d="M5 -30l400 760h156l-400 -760h-156z" />
    <glyph glyph-name="zero" unicode="0" horiz-adv-x="728" 
d="M688 350q0 -164 -90 -264t-234 -100q-145 0 -234.5 99t-89.5 265t89.5 265t234.5 99q144 0 234 -100t90 -264zM364 136q73 0 117.5 57.5t44.5 156.5t-44.5 156.5t-117.5 57.5t-117.5 -57.5t-44.5 -156.5t44.5 -156.5t117.5 -57.5z" />
    <glyph glyph-name="one" unicode="1" horiz-adv-x="413" 
d="M41 462v150q117 0 156 88h154v-700h-162v509q-44 -47 -148 -47z" />
    <glyph glyph-name="two" unicode="2" horiz-adv-x="591" 
d="M42 110l265 255q42 40 57 67.5t15 60.5q0 37 -23.5 60t-64.5 23q-36 0 -60.5 -22t-24.5 -59q0 -21 9 -44l-157 -30q-14 37 -14 79q0 87 67 150.5t180 63.5q115 0 179.5 -56t64.5 -147q0 -66 -28.5 -119t-92.5 -115l-140 -135h261v-142h-493v110z" />
    <glyph glyph-name="three" unicode="3" horiz-adv-x="604" 
d="M55 272l149 -37q-4 -12 -4 -29q0 -43 28 -67.5t76 -24.5q97 0 97 95q0 55 -43.5 83t-121.5 28v108q68 0 105 24t37 68q0 33 -21.5 52.5t-61.5 19.5q-33 0 -57 -18t-24 -51q0 -18 6 -32l-148 -33q-10 23 -10 55q0 83 61.5 142t172.5 59q114 0 174 -49t60 -125
q0 -56 -27 -95.5t-71 -59.5q58 -20 94.5 -64.5t36.5 -111.5q0 -101 -72 -162t-191 -61q-126 0 -191 62.5t-65 158.5q0 37 11 65z" />
    <glyph glyph-name="four" unicode="4" horiz-adv-x="626" 
d="M36 108v130l335 462h162v-452h67v-140h-67v-108h-156v108h-341zM377 490l-177 -242h177v242z" />
    <glyph glyph-name="five" unicode="5" horiz-adv-x="618" 
d="M51 314l33 386h453v-140h-339l-15 -130q67 48 152 48q115 0 179 -64.5t64 -173.5q0 -112 -75 -183t-198 -71q-124 0 -192.5 62t-68.5 153q0 33 10 55l152 -36q-3 -10 -3 -23q0 -77 105 -77q53 0 84 31t31 89q0 55 -31 85.5t-84 30.5q-86 0 -134 -72z" />
    <glyph glyph-name="six" unicode="6" horiz-adv-x="624" 
d="M547 476l-145 34q7 15 7 32q0 21 -18.5 35.5t-55.5 14.5q-59 0 -98 -50t-46 -139q61 55 151 55q109 0 177 -65t68 -168q0 -102 -76 -170.5t-190 -68.5q-126 0 -203.5 86t-77.5 237q0 130 41 230q35 83 101 129t151 46q108 0 167 -49t59 -132q0 -27 -12 -57zM319 336
q-51 0 -84 -30.5t-33 -83.5q0 -52 33.5 -83t83.5 -31t84 31t34 83q0 53 -33.5 83.5t-84.5 30.5z" />
    <glyph glyph-name="seven" unicode="7" horiz-adv-x="557" 
d="M524 566l-252 -566h-163l252 560h-329v140h492v-134z" />
    <glyph glyph-name="eight" unicode="8" horiz-adv-x="606" 
d="M303 -14q-121 0 -191.5 58.5t-70.5 155.5q0 60 33.5 106t82.5 69q-94 53 -94 153q0 81 66 133.5t174 52.5t174 -52.5t66 -133.5q0 -100 -94 -153q49 -23 82.5 -69t33.5 -106q0 -97 -70.5 -155.5t-191.5 -58.5zM303 118q46 0 74.5 26.5t28.5 67.5q0 42 -29 68t-74 26
t-74 -26t-29 -68q0 -41 28.5 -67.5t74.5 -26.5zM215 514q0 -38 25.5 -60t62.5 -22t62.5 22t25.5 60q0 37 -25.5 57.5t-62.5 20.5t-62.5 -20.5t-25.5 -57.5z" />
    <glyph glyph-name="nine" unicode="9" horiz-adv-x="632" 
d="M84 224l145 -34q-7 -15 -7 -32q0 -21 19.5 -35.5t56.5 -14.5q58 0 96.5 49.5t45.5 139.5q-58 -55 -151 -55q-109 0 -177 65t-68 168q0 102 76 170.5t190 68.5q130 0 205.5 -85.5t75.5 -237.5q0 -133 -40 -231q-35 -83 -99.5 -128.5t-149.5 -45.5q-108 0 -169 49.5
t-61 131.5q0 27 12 57zM312 364q51 0 84 30.5t33 83.5q0 52 -33.5 83t-83.5 31t-84 -31t-34 -83q0 -53 33.5 -83.5t84.5 -30.5z" />
    <glyph glyph-name="colon" unicode=":" horiz-adv-x="226" 
d="M36 336v154h154v-154h-154zM36 0v154h154v-154h-154z" />
    <glyph glyph-name="semicolon" unicode=";" horiz-adv-x="226" 
d="M36 0v154h154v-154l-111 -167l-35 14l42 153h-50zM36 336v154h154v-154h-154z" />
    <glyph glyph-name="less" unicode="&#x3c;" horiz-adv-x="535" 
d="M36 253v114l455 227v-158l-269 -126l269 -126v-158z" />
    <glyph glyph-name="equal" unicode="=" horiz-adv-x="582" 
d="M36 174v122h510v-122h-510zM36 382v122h510v-122h-510z" />
    <glyph glyph-name="greater" unicode="&#x3e;" horiz-adv-x="535" 
d="M499 367v-114l-455 -227v158l269 126l-269 126v158z" />
    <glyph glyph-name="question" unicode="?" horiz-adv-x="557" 
d="M343 212h-146v16q0 52 20 84.5t70 73.5q78 63 78 117q0 34 -21.5 55.5t-64.5 21.5q-38 0 -65 -22t-27 -58q0 -20 7 -37l-143 -31q-14 30 -14 72q0 83 66.5 146.5t174.5 63.5q113 0 176 -52t63 -138q0 -116 -102 -199q-41 -34 -56.5 -57.5t-15.5 -55.5zM195 0v156h150
v-156h-150z" />
    <glyph glyph-name="at" unicode="@" horiz-adv-x="956" 
d="M650 3l55 -92q-55 -34 -111 -48.5t-137 -14.5q-64 0 -124 15.5t-113.5 49t-93 81.5t-63 119t-23.5 156q0 187 131 316t330 129q80 0 152.5 -23t131 -67.5t93 -117.5t34.5 -165q0 -134 -74.5 -224t-178.5 -90q-45 0 -71 21t-30 58q-53 -79 -149 -79q-86 0 -137 58.5
t-51 155.5q0 71 23 129.5t60.5 94.5t81.5 55.5t89 19.5q78 0 115 -48l5 32h113l-54 -348q-1 -7 -1 -14q0 -36 32 -36q42 0 73.5 59t31.5 150q0 128 -75 200.5t-221 72.5q-138 0 -235 -96t-97 -250q0 -150 88.5 -230t215.5 -80q103 0 184 51zM426 126q57 0 98 57t41 147
q0 109 -80 109q-56 0 -98.5 -58t-42.5 -142q0 -54 23 -83.5t59 -29.5z" />
    <glyph glyph-name="A" unicode="A" horiz-adv-x="732" 
d="M5 0l285 700h152l285 -700h-176l-63 169h-244l-63 -169h-176zM337 421l-42 -114h142l-42 114q-16 41 -29 83z" />
    <glyph glyph-name="B" unicode="B" horiz-adv-x="668" 
d="M65 0v700h300q108 0 170.5 -45.5t62.5 -126.5q0 -52 -23.5 -85.5t-67.5 -60.5q120 -50 120 -172q0 -96 -72.5 -153t-179.5 -57h-310zM227 304v-170h143q102 0 102 84q0 40 -25.5 63t-76.5 23h-143zM227 574v-138h135q41 0 63.5 19t22.5 51t-22.5 50t-63.5 18h-135z" />
    <glyph glyph-name="C" unicode="C" horiz-adv-x="771" 
d="M597 269l131 -94q-63 -98 -138 -143.5t-185 -45.5q-160 0 -262 101t-102 263t104.5 263t263.5 101q112 0 194 -50.5t119 -133.5l-135 -94q-60 128 -183 128q-84 0 -142.5 -59t-58.5 -155q0 -94 58.5 -154t143.5 -60q65 0 110.5 33t81.5 100z" />
    <glyph glyph-name="D" unicode="D" horiz-adv-x="722" 
d="M65 0v700h226q175 0 282.5 -89.5t107.5 -260.5t-107.5 -260.5t-282.5 -89.5h-226zM306 146q100 0 156.5 53.5t56.5 150.5t-56.5 150.5t-156.5 53.5h-79v-408h79z" />
    <glyph glyph-name="E" unicode="E" 
d="M65 0v700h511v-142h-349v-127h321v-138h-321v-151h352v-142h-514z" />
    <glyph glyph-name="F" unicode="F" horiz-adv-x="639" 
d="M227 273v-273h-162v700h530v-142h-368v-147h339v-138h-339z" />
    <glyph glyph-name="G" unicode="G" horiz-adv-x="783" 
d="M628 0l-28 85q-70 -99 -211 -99q-151 0 -249.5 102.5t-98.5 261.5q0 158 107 261t263 103q105 0 188 -46.5t123 -124.5l-124 -90q-70 119 -190 119q-87 0 -146 -62.5t-59 -159.5q0 -96 58.5 -159t137.5 -63q71 0 117 37t56 93h-212v122h371v-380h-103z" />
    <glyph glyph-name="H" unicode="H" horiz-adv-x="724" 
d="M65 0v700h162v-268h270v268h162v-700h-162v282h-270v-282h-162z" />
    <glyph glyph-name="I" unicode="I" horiz-adv-x="292" 
d="M65 0v700h162v-700h-162z" />
    <glyph glyph-name="J" unicode="J" horiz-adv-x="570" 
d="M521 700v-481q0 -104 -66 -168.5t-177 -64.5q-110 0 -175 67t-65 184l159 -18q1 -41 21.5 -66t59.5 -25q40 0 60.5 28t20.5 75v469h162z" />
    <glyph glyph-name="K" unicode="K" horiz-adv-x="682" 
d="M657 700l-255 -264l263 -436h-184l-192 320l-62 -65v-255h-162v700h162v-240l40 45l188 195h202z" />
    <glyph glyph-name="L" unicode="L" horiz-adv-x="615" 
d="M578 150v-150h-513v700h162v-550h351z" />
    <glyph glyph-name="M" unicode="M" horiz-adv-x="894" 
d="M65 0v700h175l207 -511l207 511h175v-700h-158v383l-34 -105l-117 -278h-146l-117 278q-28 87 -34 105v-383h-158z" />
    <glyph glyph-name="N" unicode="N" horiz-adv-x="736" 
d="M65 0v700h162l256 -397q24 -40 30 -55v452h158v-700h-162l-256 400q-24 40 -30 55v-455h-158z" />
    <glyph glyph-name="O" unicode="O" horiz-adv-x="818" 
d="M777 350q0 -154 -104.5 -259t-263.5 -105t-263.5 105t-104.5 259t104.5 259t263.5 105t263.5 -105t104.5 -259zM409 136q88 0 147 58t59 156t-59 156t-147 58t-147 -58t-59 -156t59 -156t147 -58z" />
    <glyph glyph-name="P" unicode="P" horiz-adv-x="706" 
d="M65 0v700h327q128 0 201 -59t73 -172t-73 -172t-201 -59h-165v-238h-162zM227 566v-194h161q59 0 87.5 26t28.5 71t-28.5 71t-87.5 26h-161z" />
    <glyph glyph-name="Q" unicode="Q" horiz-adv-x="818" 
d="M777 350q0 -111 -57 -200t-154 -132q30 -47 88 -95l-115 -104q-80 75 -130 167q-159 0 -263.5 105t-104.5 259t104.5 259t263.5 105t263.5 -105t104.5 -259zM409 136q88 0 147 58t59 156t-59 156t-147 58t-147 -58t-59 -156t59 -156t147 -58z" />
    <glyph glyph-name="R" unicode="R" horiz-adv-x="677" 
d="M470 0l-156 276h-87v-276h-162v700h305q125 0 193.5 -54t68.5 -152q0 -76 -39 -124t-113 -80l164 -290h-174zM227 568v-160h159q45 0 67 21.5t22 58.5t-22 58.5t-67 21.5h-159z" />
    <glyph glyph-name="S" unicode="S" horiz-adv-x="656" 
d="M219 516q0 -29 37.5 -51t128.5 -41q116 -24 170 -75t54 -138q0 -95 -70 -160t-193 -65q-246 0 -307 227l137 66q20 -75 59.5 -113t110.5 -38q47 0 75.5 20.5t28.5 51.5q0 40 -38 64t-119 39q-220 42 -220 210q0 91 69 146t183 55q199 0 272 -183l-121 -72
q-42 123 -154 123q-45 0 -74 -18t-29 -48z" />
    <glyph glyph-name="T" unicode="T" horiz-adv-x="604" 
d="M14 558v142h576v-142h-207v-558h-162v558h-207z" />
    <glyph glyph-name="U" unicode="U" horiz-adv-x="712" 
d="M656 700v-424q0 -133 -83.5 -211.5t-216.5 -78.5t-216.5 78.5t-83.5 211.5v424h162v-404q0 -79 38 -119.5t100 -40.5t100 40.5t38 119.5v404h162z" />
    <glyph glyph-name="V" unicode="V" horiz-adv-x="688" 
d="M263 0l-261 700h180l136 -393q15 -54 26 -91l26 91l136 393h180l-261 -700h-162z" />
    <glyph glyph-name="W" unicode="W" horiz-adv-x="968" 
d="M196 0l-192 700h171l94 -390q12 -54 17 -79l16 80l98 389h168l98 -389l16 -80l17 79l94 390h171l-192 -700h-171l-117 457l-117 -457h-171z" />
    <glyph glyph-name="X" unicode="X" horiz-adv-x="652" 
d="M213 700l114 -191l122 191h171l-200 -321l229 -379h-182l-140 238l-138 -238h-186l233 374l-204 326h181z" />
    <glyph glyph-name="Y" unicode="Y" horiz-adv-x="633" 
d="M398 266v-266h-162v266l-233 434h182l112 -223q11 -28 20 -52l20 52l112 223h181z" />
    <glyph glyph-name="Z" unicode="Z" horiz-adv-x="626" 
d="M47 558v142h527v-142l-345 -416h364v-142h-562v140l350 418h-334z" />
    <glyph glyph-name="bracketleft" unicode="[" horiz-adv-x="356" 
d="M65 -150v850h251v-132h-107v-586h107v-132h-251z" />
    <glyph glyph-name="backslash" unicode="\" horiz-adv-x="566" 
d="M161 730l400 -760h-156l-400 760h156z" />
    <glyph glyph-name="bracketright" unicode="]" horiz-adv-x="356" 
d="M291 700v-850h-251v132h107v586h-107v132h251z" />
    <glyph glyph-name="asciicircum" unicode="^" horiz-adv-x="526" 
d="M198 700h130l182 -278h-147l-100 157l-100 -157h-147z" />
    <glyph glyph-name="underscore" unicode="_" horiz-adv-x="534" 
d="M6 -129v122h522v-122h-522z" />
    <glyph glyph-name="grave" unicode="`" horiz-adv-x="340" 
d="M228 714l66 -164h-118l-130 164h182z" />
    <glyph glyph-name="a" unicode="a" horiz-adv-x="576" 
d="M541 0h-152q-21 21 -24 64q-55 -78 -152 -78q-82 0 -128.5 44t-46.5 115q0 133 194 164l126 20v9q0 72 -77 72q-34 0 -55 -12t-21 -33q0 -5 1 -9l-136 -46q-8 27 -8 48q0 67 62.5 109.5t156.5 42.5q227 0 227 -188v-199q0 -75 33 -123zM244 102q51 0 82.5 36.5t31.5 84.5
v9l-106 -18q-68 -11 -68 -60q0 -21 16.5 -36.5t43.5 -15.5z" />
    <glyph glyph-name="b" unicode="b" 
d="M56 0v700h150v-259q64 69 165 69q90 0 158.5 -69.5t68.5 -192.5t-69.5 -192.5t-163.5 -69.5q-100 0 -159 71v-57h-150zM322 124q52 0 88 34.5t36 89.5t-36 89.5t-88 34.5t-88 -34.5t-36 -89.5t36 -89.5t88 -34.5z" />
    <glyph glyph-name="c" unicode="c" horiz-adv-x="561" 
d="M409 210l124 -80q-72 -144 -237 -144q-114 0 -189.5 72.5t-75.5 189.5q0 115 77.5 188.5t187.5 73.5q163 0 231 -135l-121 -81q-36 78 -110 78q-50 0 -81.5 -34t-31.5 -90q0 -57 31 -90.5t81 -33.5q76 0 114 86z" />
    <glyph glyph-name="d" unicode="d" 
d="M573 700v-700h-150v58q-55 -72 -158 -72q-92 0 -163 72.5t-71 189.5t73.5 189.5t173.5 72.5t145 -66v256h150zM307 124q53 0 88.5 35t35.5 89t-35.5 89t-88.5 35t-88.5 -35t-35.5 -89t35.5 -89t88.5 -35z" />
    <glyph glyph-name="e" unicode="e" horiz-adv-x="573" 
d="M540 211h-367q6 -45 39.5 -71t79.5 -26q81 0 126 78l108 -61q-71 -145 -240 -145q-104 0 -179.5 73.5t-75.5 188.5q0 116 75 189t190 73q109 0 176.5 -71t67.5 -177v-51zM293 394q-41 0 -71 -21t-43 -57h226q-9 37 -39 57.5t-73 20.5z" />
    <glyph glyph-name="f" unicode="f" horiz-adv-x="360" 
d="M17 380v116h70v64q0 92 54 141t137 49q35 0 71 -14l-28 -130q-17 6 -35 6q-22 0 -35.5 -15.5t-13.5 -39.5v-61h106v-116h-106v-380h-150v380h-70z" />
    <glyph glyph-name="g" unicode="g" horiz-adv-x="601" 
d="M63 15l143 -44q-5 -10 -5 -24q0 -21 25.5 -35t66.5 -14q48 0 78 26.5t30 76.5v69q-42 -62 -128 -62q-101 0 -171.5 69t-70.5 182q0 114 69 182.5t169 68.5q85 0 132 -57v43h150v-453q0 -127 -66 -194t-190 -67q-121 0 -183.5 46.5t-62.5 124.5q0 37 14 62zM294 376
q-47 0 -80 -31t-33 -86t33 -86t80 -31t79 31t32 86t-32 86t-79 31z" />
    <glyph glyph-name="h" unicode="h" horiz-adv-x="612" 
d="M556 338v-338h-150v265q0 48 -24 75.5t-69 27.5q-47 0 -77 -35.5t-30 -93.5v-239h-150v700h150v-273q65 83 170 83q82 0 131 -46.5t49 -125.5z" />
    <glyph glyph-name="i" unicode="i" horiz-adv-x="262" 
d="M56 0v496h150v-496h-150zM50 554v160h162v-160h-162z" />
    <glyph glyph-name="j" unicode="j" horiz-adv-x="262" 
d="M-60 -198l21 129q19 -8 39 -8q30 0 43 17.5t13 53.5v502h150v-527q0 -87 -47 -133.5t-128 -46.5q-44 0 -91 13zM50 554v160h162v-160h-162z" />
    <glyph glyph-name="k" unicode="k" horiz-adv-x="569" 
d="M206 700v-335l132 131h185l-179 -175l206 -321h-177l-137 215l-30 -30v-185h-150v700h150z" />
    <glyph glyph-name="l" unicode="l" horiz-adv-x="262" 
d="M56 0v700h150v-700h-150z" />
    <glyph glyph-name="m" unicode="m" horiz-adv-x="862" 
d="M806 330v-330h-150v300q0 76 -71 76q-34 0 -56.5 -24.5t-22.5 -70.5v-281h-150v297q0 35 -18 57t-53 22q-32 0 -55.5 -25t-23.5 -70v-281h-150v496h150v-55q55 69 145 69q94 0 137 -75q54 75 156 75q75 0 118.5 -49t43.5 -131z" />
    <glyph glyph-name="n" unicode="n" horiz-adv-x="600" 
d="M544 338v-338h-150v270q0 45 -21.5 71.5t-66.5 26.5q-46 0 -73 -35t-27 -94v-239h-150v496h150v-71q60 85 161 85q83 0 130 -47.5t47 -124.5z" />
    <glyph glyph-name="o" unicode="o" horiz-adv-x="612" 
d="M581 248q0 -124 -81 -193t-194 -69t-194 69t-81 193t81 193t194 69t194 -69t81 -193zM306 128q51 0 87 32.5t36 87.5t-36 87.5t-87 32.5t-87 -32.5t-36 -87.5t36 -87.5t87 -32.5z" />
    <glyph glyph-name="p" unicode="p" 
d="M56 -204v700h150v-57q59 71 164 71q91 0 159.5 -69.5t68.5 -192.5q0 -122 -70 -192t-161 -70q-100 0 -161 66v-256h-150zM322 372q-52 0 -88 -34.5t-36 -89.5t36 -89.5t88 -34.5t88 34.5t36 89.5t-36 89.5t-88 34.5z" />
    <glyph glyph-name="q" unicode="q" 
d="M573 496v-700h-150v262q-47 -72 -152 -72q-96 0 -168 71t-72 191q0 119 73 190.5t168 71.5q104 0 151 -72v58h150zM307 372q-53 0 -88.5 -35t-35.5 -89t35.5 -89t88.5 -35t88.5 35t35.5 89t-35.5 89t-88.5 35z" />
    <glyph glyph-name="r" unicode="r" horiz-adv-x="403" 
d="M391 503l-25 -141q-21 6 -41 6q-56 0 -87.5 -39t-31.5 -104v-225h-150v496h150v-63q46 77 138 77q24 0 47 -7z" />
    <glyph glyph-name="s" unicode="s" horiz-adv-x="510" 
d="M202 370q0 -33 106 -56q89 -20 129 -57.5t40 -101.5q0 -73 -56.5 -121t-146.5 -48q-170 0 -238 155l115 71q40 -104 125 -104q28 0 45.5 10.5t17.5 28.5q0 22 -22.5 34.5t-72.5 22.5q-78 16 -126 55.5t-48 103.5q0 68 54 107.5t134 39.5q82 0 130 -30.5t82 -96.5
l-108 -63q-29 84 -102 84q-58 0 -58 -34z" />
    <glyph glyph-name="t" unicode="t" horiz-adv-x="387" 
d="M22 380v116h72v134h150v-134h103v-116h-103v-196q0 -30 15 -47t40 -17q26 0 47 8l14 -125q-44 -17 -100 -17q-69 0 -117.5 40t-48.5 128v226h-72z" />
    <glyph glyph-name="u" unicode="u" horiz-adv-x="600" 
d="M56 196v300h150v-267q0 -48 23 -74.5t65 -26.5q48 0 74 36t26 93v239h150v-496h-150v72q-24 -41 -59 -63.5t-95 -22.5q-79 0 -131.5 56t-52.5 154z" />
    <glyph glyph-name="v" unicode="v" horiz-adv-x="564" 
d="M558 496l-205 -496h-142l-205 496h162l114 -306l114 306h162z" />
    <glyph glyph-name="w" unicode="w" horiz-adv-x="740" 
d="M442 496l76 -282l66 282h150l-139 -496h-145l-80 302l-80 -302h-145l-139 496h150l66 -282l76 282h144z" />
    <glyph glyph-name="x" unicode="x" horiz-adv-x="519" 
d="M190 496l67 -104l67 104h171l-150 -231l173 -265h-174l-87 146l-89 -146h-169l179 262l-154 234h166z" />
    <glyph glyph-name="y" unicode="y" horiz-adv-x="567" 
d="M77 -199l25 134q27 -12 46 -12q36 0 50 38l15 40l-209 495h170l115 -289l106 289h167l-227 -568q-31 -77 -71 -108t-106 -31q-53 0 -81 12z" />
    <glyph glyph-name="z" unicode="z" horiz-adv-x="504" 
d="M205 116h267v-116h-440v116l250 264h-239v116h412v-116z" />
    <glyph glyph-name="braceleft" unicode="{" horiz-adv-x="407" 
d="M43 217v116q39 0 58 17.5t19 62.5v100q0 99 45 143t134 44h68v-132h-27q-76 0 -76 -87v-93q0 -50 -14.5 -75t-48.5 -38q34 -13 48.5 -38t14.5 -75v-93q0 -87 76 -87h27v-132h-68q-89 0 -134 44t-45 143v100q0 45 -19 62.5t-58 17.5z" />
    <glyph glyph-name="bar" unicode="|" horiz-adv-x="276" 
d="M65 -110v850h146v-850h-146z" />
    <glyph glyph-name="braceright" unicode="}" horiz-adv-x="407" 
d="M364 333v-116q-39 0 -58 -17.5t-19 -62.5v-100q0 -99 -45 -143t-134 -44h-68v132h27q76 0 76 87v93q0 50 14.5 75t48.5 38q-34 13 -48.5 38t-14.5 75v93q0 87 -76 87h-27v132h68q89 0 134 -44t45 -143v-100q0 -45 19 -62.5t58 -17.5z" />
    <glyph glyph-name="asciitilde" unicode="~" horiz-adv-x="473" 
d="M172 305q-23 0 -23 -21q0 -10 7 -20l-103 -19q-17 25 -17 60q0 51 31.5 82t86.5 31q39 0 67.5 -15t47 -29.5t32.5 -14.5q23 0 23 21q0 10 -7 20l103 19q17 -26 17 -60q0 -51 -31.5 -82t-86.5 -31q-39 0 -67.5 15t-47 29.5t-32.5 14.5z" />
    <glyph glyph-name="uni00A0" unicode="&#xa0;" horiz-adv-x="276" 
 />
    <glyph glyph-name="exclamdown" unicode="&#xa1;" horiz-adv-x="292" 
d="M227 53v-257h-162v257l16 223h130zM220 496v-156h-150v156h150z" />
    <glyph glyph-name="cent" unicode="&#xa2;" horiz-adv-x="570" 
d="M245 -110v102q-93 17 -150.5 86t-57.5 170q0 99 58.5 168t149.5 88v116h112v-114q119 -19 176 -131l-121 -81q-22 46 -55 64v-219q36 21 58 71l124 -80q-60 -118 -182 -139v-101h-112zM189 248q0 -81 56 -111v220q-56 -31 -56 -109z" />
    <glyph glyph-name="sterling" unicode="&#xa3;" horiz-adv-x="587" 
d="M25 405h60q-12 45 -12 84q0 106 68 165.5t177 59.5q115 0 175 -52t60 -137q0 -39 -17 -77l-142 27q9 24 9 46q0 28 -23.5 46.5t-61.5 18.5q-42 0 -68.5 -26.5t-26.5 -76.5q0 -35 12 -78h192v-114h-168q2 -24 2 -39q0 -69 -30 -124h320v-128h-490v112q31 35 44 64t13 76
q0 13 -4 39h-89v114z" />
    <glyph glyph-name="currency" unicode="&#xa4;" horiz-adv-x="662" 
d="M553 350q0 -62 -27 -111l84 -85l-83 -83l-85 85q-52 -29 -111 -29t-111 29l-85 -85l-83 83l84 85q-27 49 -27 111t27 111l-84 85l83 83l85 -85q52 29 111 29t111 -29l85 85l83 -83l-84 -85q27 -49 27 -111zM331 243q46 0 74.5 29.5t28.5 77.5t-28.5 77.5t-74.5 29.5
t-74.5 -29.5t-28.5 -77.5t28.5 -77.5t74.5 -29.5z" />
    <glyph glyph-name="yen" unicode="&#xa5;" horiz-adv-x="646" 
d="M404 96v-96h-162v96h-153v122h153v46h-153v122h89l-166 314h180l111 -227q11 -28 20 -52l20 52l112 227h179l-166 -314h89v-122h-153v-46h153v-122h-153z" />
    <glyph glyph-name="brokenbar" unicode="&#xa6;" horiz-adv-x="276" 
d="M211 389h-146v351h146v-351zM65 241h146v-351h-146v351z" />
    <glyph glyph-name="section" unicode="&#xa7;" horiz-adv-x="526" 
d="M475 296q0 -63 -42 -107q37 -41 37 -106q0 -81 -58 -128.5t-145 -47.5q-161 0 -225 142l99 70q44 -102 128 -102q36 0 57 16.5t21 43.5q0 64 -127 89q-77 15 -123 56t-46 108q0 59 42 101q-37 43 -37 107q0 81 58 128.5t145 47.5q161 0 225 -142l-97 -69
q-46 101 -130 101q-35 0 -56.5 -16.5t-21.5 -43.5q0 -64 127 -89q169 -34 169 -159zM241 356q-28 6 -61 19q-13 -13 -13 -31q0 -27 24.5 -45t93.5 -34q37 -10 60 -19q14 16 14 36q0 23 -25 40.5t-93 33.5z" />
    <glyph glyph-name="dieresis" unicode="&#xa8;" horiz-adv-x="440" 
d="M250 564v143h138v-143h-138zM52 564v143h138v-143h-138z" />
    <glyph glyph-name="copyright" unicode="&#xa9;" horiz-adv-x="816" 
d="M44 350q0 151 107 257.5t257 106.5t257 -106.5t107 -257.5t-107 -257.5t-257 -106.5t-257 106.5t-107 257.5zM146 350q0 -110 76.5 -187t185.5 -77t185.5 77t76.5 187t-76.5 187t-185.5 77t-185.5 -77t-76.5 -187zM498 321l96 -63q-55 -112 -184 -112q-89 0 -148 56.5
t-59 147.5q0 90 60.5 147t146.5 57q127 0 179 -105l-94 -63q-28 61 -85 61q-39 0 -63.5 -26.5t-24.5 -70.5q0 -45 24 -70.5t63 -25.5q59 0 89 67z" />
    <glyph glyph-name="ordfeminine" unicode="&#xaa;" horiz-adv-x="401" 
d="M385 300h-103q-13 13 -15 47q-37 -54 -110 -54q-56 0 -88 31t-32 81q0 92 133 114l92 15v4q0 47 -56 47q-24 0 -40.5 -7.5t-16.5 -21.5q0 -4 1 -7l-96 -34q-7 14 -7 32q0 43 43 76.5t114 33.5q82 0 120 -32t38 -98v-139q0 -56 23 -88zM180 374q37 0 59.5 21.5t22.5 62.5
v5l-78 -12q-50 -8 -50 -42q0 -16 12 -25.5t34 -9.5z" />
    <glyph glyph-name="guillemotleft" unicode="&#xab;" 
d="M210 499h162l-174 -224l174 -222h-162l-174 222zM440 499h162l-174 -224l174 -222h-162l-174 222z" />
    <glyph glyph-name="logicalnot" unicode="&#xac;" horiz-adv-x="558" 
d="M502 162h-138v142h-328v122h466v-264z" />
    <glyph glyph-name="registered" unicode="&#xae;" horiz-adv-x="816" 
d="M44 350q0 151 107 257.5t257 106.5t257 -106.5t107 -257.5t-107 -257.5t-257 -106.5t-257 106.5t-107 257.5zM146 350q0 -110 76.5 -187t185.5 -77t185.5 77t76.5 187t-76.5 187t-185.5 77t-185.5 -77t-76.5 -187zM456 151l-88 147h-12v-147h-101v398h172
q69 0 106.5 -34.5t37.5 -91.5q0 -47 -29 -79t-71 -42l94 -151h-109zM357 464v-81h64q51 0 51 40q0 41 -51 41h-64z" />
    <glyph glyph-name="macron" unicode="&#xaf;" horiz-adv-x="336" 
d="M36 584v102h264v-102h-264z" />
    <glyph glyph-name="degree" unicode="&#xb0;" horiz-adv-x="352" 
d="M33 573q0 58 42 99.5t101 41.5t101 -41.5t42 -99.5t-42 -99.5t-101 -41.5t-101 41.5t-42 99.5zM120 573q0 -24 15.5 -39.5t40.5 -15.5t40.5 15.5t15.5 39.5q0 25 -15.5 40.5t-40.5 15.5t-40.5 -15.5t-15.5 -40.5z" />
    <glyph glyph-name="plusminus" unicode="&#xb1;" horiz-adv-x="601" 
d="M239 700h122v-194h194v-122h-194v-194h-122v194h-194v122h194v194zM45 0v122h510v-122h-510z" />
    <glyph glyph-name="twosuperior" unicode="&#xb2;" horiz-adv-x="344" 
d="M51 403l133 127q30 29 30 62q0 16 -10 25.5t-27 9.5q-15 0 -25.5 -10.5t-10.5 -25.5q0 -10 4 -22l-92 -15q-7 17 -7 42q0 45 36.5 78t94.5 33q62 0 97.5 -27t35.5 -76q0 -37 -13 -62t-48 -60l-52 -50h117v-82h-263v53z" />
    <glyph glyph-name="threesuperior" unicode="&#xb3;" horiz-adv-x="354" 
d="M45 491l95 -21q-2 -8 -2 -16q0 -15 12 -23.5t29 -8.5q18 0 29.5 10t11.5 27q0 43 -75 43v67q63 0 63 37q0 27 -33 27q-13 0 -23.5 -8t-10.5 -21q0 -9 3 -15l-92 -12q-5 12 -5 28q0 41 35.5 71.5t94.5 30.5q61 0 92.5 -24t31.5 -65q0 -43 -46 -72q66 -27 66 -88
q0 -53 -39 -84t-106 -31q-65 0 -101.5 31.5t-36.5 79.5q0 21 7 37z" />
    <glyph glyph-name="acute" unicode="&#xb4;" horiz-adv-x="340" 
d="M46 550l66 164h182l-130 -164h-118z" />
    <glyph glyph-name="mu" unicode="&#xb5;" horiz-adv-x="600" 
d="M56 -204v700h150v-267q0 -48 23 -74.5t65 -26.5q48 0 74 36t26 93v239h150v-496h-150v72q-24 -41 -59 -63.5t-95 -22.5q-24 0 -41 4q7 -38 7 -68v-126h-150z" />
    <glyph glyph-name="paragraph" unicode="&#xb6;" horiz-adv-x="687" 
d="M396 570v-690h-130v420h-9q-97 0 -160.5 54.5t-63.5 145.5t63.5 145.5t160.5 54.5h402v-130h-65v-690h-130v690h-68z" />
    <glyph glyph-name="periodcentered" unicode="&#xb7;" horiz-adv-x="226" 
d="M36 280v154h154v-154h-154z" />
    <glyph glyph-name="cedilla" unicode="&#xb8;" horiz-adv-x="290" 
d="M102 -117l-47 37l34 96h80l-40 -66q17 6 34 6q36 0 58 -20.5t22 -57.5q0 -38 -28.5 -60t-69.5 -22q-76 0 -98 62l76 19q4 -17 21 -17q19 0 19 19q0 21 -21 21q-20 0 -40 -17z" />
    <glyph glyph-name="onesuperior" unicode="&#xb9;" horiz-adv-x="261" 
d="M34 564v93q58 0 79 43h96v-350h-100v238q-24 -24 -75 -24z" />
    <glyph glyph-name="ordmasculine" unicode="&#xba;" horiz-adv-x="454" 
d="M418 475q0 -86 -57 -134t-134 -48t-134 48.5t-57 133.5t57 133.5t134 48.5t134 -48t57 -134zM227 392q35 0 60 22.5t25 60.5t-25 61t-60 23t-60.5 -23t-25.5 -61t25 -60.5t61 -22.5z" />
    <glyph glyph-name="guillemotright" unicode="&#xbb;" 
d="M419 51h-162l174 224l-174 222h162l174 -222zM189 51h-162l174 224l-174 222h162l174 -222z" />
    <glyph glyph-name="onequarter" unicode="&#xbc;" horiz-adv-x="715" 
d="M380 52v77l161 221h94v-221h36v-77h-36v-52h-94v52h-161zM541 226l-69 -97h69v97zM34 564v93q58 0 79 43h96v-350h-100v238q-24 -24 -75 -24zM183 -10l-80 55l435 665l80 -55z" />
    <glyph glyph-name="onehalf" unicode="&#xbd;" horiz-adv-x="747" 
d="M34 564v93q58 0 79 43h96v-350h-100v238q-24 -24 -75 -24zM183 -10l-80 55l435 665l80 -55zM443 53l133 127q30 29 30 62q0 16 -10 25.5t-27 9.5q-15 0 -25.5 -10.5t-10.5 -25.5q0 -10 4 -22l-92 -15q-7 17 -7 42q0 45 36.5 78t94.5 33q62 0 97.5 -27t35.5 -76
q0 -37 -13 -62t-48 -60l-52 -50h117v-82h-263v53z" />
    <glyph glyph-name="threequarters" unicode="&#xbe;" horiz-adv-x="784" 
d="M449 52v77l161 221h94v-221h36v-77h-36v-52h-94v52h-161zM610 226l-69 -97h69v97zM242 -10l-80 55l435 665l80 -55zM45 491l95 -21q-2 -8 -2 -16q0 -15 12 -23.5t29 -8.5q18 0 29.5 10t11.5 27q0 43 -75 43v67q63 0 63 37q0 27 -33 27q-13 0 -23.5 -8t-10.5 -21
q0 -9 3 -15l-92 -12q-5 12 -5 28q0 41 35.5 71.5t94.5 30.5q61 0 92.5 -24t31.5 -65q0 -43 -46 -72q66 -27 66 -88q0 -53 -39 -84t-106 -31q-65 0 -101.5 31.5t-36.5 79.5q0 21 7 37z" />
    <glyph glyph-name="questiondown" unicode="&#xbf;" horiz-adv-x="557" 
d="M214 284h146v-16q0 -52 -20 -84.5t-70 -73.5q-78 -63 -78 -117q0 -34 21.5 -55.5t64.5 -21.5q38 0 65 22t27 58q0 20 -7 37l143 31q14 -30 14 -72q0 -83 -66.5 -146.5t-174.5 -63.5q-113 0 -176 52t-63 138q0 116 102 199q41 34 56.5 57.5t15.5 55.5zM362 496v-156h-150
v156h150z" />
    <glyph glyph-name="Agrave" unicode="&#xc0;" horiz-adv-x="732" 
d="M5 0l285 700h152l285 -700h-176l-63 169h-244l-63 -169h-176zM337 421l-42 -114h142l-42 114q-16 41 -29 83zM354 918l66 -164h-118l-130 164h182z" />
    <glyph glyph-name="Aacute" unicode="&#xc1;" horiz-adv-x="732" 
d="M5 0l285 700h152l285 -700h-176l-63 169h-244l-63 -169h-176zM337 421l-42 -114h142l-42 114q-16 41 -29 83zM312 754l66 164h182l-130 -164h-118z" />
    <glyph glyph-name="Acircumflex" unicode="&#xc2;" horiz-adv-x="732" 
d="M5 0l285 700h152l285 -700h-176l-63 169h-244l-63 -169h-176zM337 421l-42 -114h142l-42 114q-16 41 -29 83zM195 754l122 164h98l122 -164h-117l-54 53l-54 -53h-117z" />
    <glyph glyph-name="Atilde" unicode="&#xc3;" horiz-adv-x="732" 
d="M5 0l285 700h152l285 -700h-176l-63 169h-244l-63 -169h-176zM337 421l-42 -114h142l-42 114q-16 41 -29 83zM299 812q-19 0 -19 -19q0 -9 6 -21l-91 -19q-16 23 -16 57q0 45 29.5 72t73.5 27q40 0 69 -16.5t48 -33t34 -16.5q19 0 19 19q0 9 -6 21l91 19q16 -23 16 -57
q0 -45 -29.5 -72t-73.5 -27q-40 0 -69 16.5t-48 33t-34 16.5z" />
    <glyph glyph-name="Adieresis" unicode="&#xc4;" horiz-adv-x="732" 
d="M5 0l285 700h152l285 -700h-176l-63 169h-244l-63 -169h-176zM337 421l-42 -114h142l-42 114q-16 41 -29 83zM396 768v143h138v-143h-138zM198 768v143h138v-143h-138z" />
    <glyph glyph-name="Aring" unicode="&#xc5;" horiz-adv-x="732" 
d="M5 0l285 700h152l285 -700h-176l-63 169h-244l-63 -169h-176zM337 421l-42 -114h142l-42 114q-16 41 -29 83zM264 839q0 42 30 71.5t72 29.5t72 -29.5t30 -71.5t-30 -71.5t-72 -29.5t-72 29.5t-30 71.5zM337 839q0 -13 8 -21t21 -8t21 8t8 21t-8 21t-21 8t-21 -8t-8 -21z
" />
    <glyph glyph-name="AE" unicode="&#xc6;" horiz-adv-x="1017" 
d="M453 0v169h-203l-74 -169h-171l322 700h637v-142h-349v-127h321v-138h-321v-151h352v-142h-514zM421 558l-111 -251h143v251h-32z" />
    <glyph glyph-name="Ccedilla" unicode="&#xc7;" horiz-adv-x="771" 
d="M357 -117l-47 37l25 72q-133 21 -213.5 117.5t-80.5 240.5q0 162 104.5 263t263.5 101q112 0 194 -50.5t119 -133.5l-135 -94q-60 128 -183 128q-84 0 -142.5 -59t-58.5 -155q0 -94 58.5 -154t143.5 -60q65 0 110.5 33t81.5 100l131 -94q-62 -98 -137 -143t-185 -46
l-22 -36q16 6 34 6q36 0 58 -20.5t22 -57.5q0 -38 -28.5 -60t-69.5 -22q-76 0 -98 62l76 19q4 -17 21 -17q19 0 19 19q0 21 -21 21q-20 0 -40 -17z" />
    <glyph glyph-name="Egrave" unicode="&#xc8;" 
d="M65 0v700h511v-142h-349v-127h321v-138h-321v-151h352v-142h-514zM351 918l66 -164h-118l-130 164h182z" />
    <glyph glyph-name="Eacute" unicode="&#xc9;" 
d="M65 0v700h511v-142h-349v-127h321v-138h-321v-151h352v-142h-514zM237 754l66 164h182l-130 -164h-118z" />
    <glyph glyph-name="Ecircumflex" unicode="&#xca;" 
d="M65 0v700h511v-142h-349v-127h321v-138h-321v-151h352v-142h-514zM155 754l122 164h98l122 -164h-117l-54 53l-54 -53h-117z" />
    <glyph glyph-name="Edieresis" unicode="&#xcb;" 
d="M65 0v700h511v-142h-349v-127h321v-138h-321v-151h352v-142h-514zM356 768v143h138v-143h-138zM158 768v143h138v-143h-138z" />
    <glyph glyph-name="Igrave" unicode="&#xcc;" horiz-adv-x="292" 
d="M65 0v700h162v-700h-162zM161 918l66 -164h-118l-130 164h182z" />
    <glyph glyph-name="Iacute" unicode="&#xcd;" horiz-adv-x="292" 
d="M65 0v700h162v-700h-162zM65 754l66 164h182l-130 -164h-118z" />
    <glyph glyph-name="Icircumflex" unicode="&#xce;" horiz-adv-x="292" 
d="M65 0v700h162v-700h-162zM-25 754l122 164h98l122 -164h-117l-54 53l-54 -53h-117z" />
    <glyph glyph-name="Idieresis" unicode="&#xcf;" horiz-adv-x="292" 
d="M65 0v700h162v-700h-162zM176 768v143h138v-143h-138zM-22 768v143h138v-143h-138z" />
    <glyph glyph-name="Eth" unicode="&#xd0;" horiz-adv-x="762" 
d="M30 285v130h75v285h226q175 0 282.5 -89.5t107.5 -260.5t-107.5 -260.5t-282.5 -89.5h-226v285h-75zM346 146q100 0 156.5 53.5t56.5 150.5t-56.5 150.5t-156.5 53.5h-79v-139h151v-130h-151v-139h79z" />
    <glyph glyph-name="Ntilde" unicode="&#xd1;" horiz-adv-x="736" 
d="M65 0v700h162l256 -397q24 -40 30 -55v452h158v-700h-162l-256 400q-24 40 -30 55v-455h-158zM301 812q-19 0 -19 -19q0 -9 6 -21l-91 -19q-16 23 -16 57q0 45 29.5 72t73.5 27q40 0 69 -16.5t48 -33t34 -16.5q19 0 19 19q0 9 -6 21l91 19q16 -23 16 -57q0 -45 -29.5 -72
t-73.5 -27q-40 0 -69 16.5t-48 33t-34 16.5z" />
    <glyph glyph-name="Ograve" unicode="&#xd2;" horiz-adv-x="818" 
d="M777 350q0 -154 -104.5 -259t-263.5 -105t-263.5 105t-104.5 259t104.5 259t263.5 105t263.5 -105t104.5 -259zM409 136q88 0 147 58t59 156t-59 156t-147 58t-147 -58t-59 -156t59 -156t147 -58zM434 918l66 -164h-118l-130 164h182z" />
    <glyph glyph-name="Oacute" unicode="&#xd3;" horiz-adv-x="818" 
d="M777 350q0 -154 -104.5 -259t-263.5 -105t-263.5 105t-104.5 259t104.5 259t263.5 105t263.5 -105t104.5 -259zM409 136q88 0 147 58t59 156t-59 156t-147 58t-147 -58t-59 -156t59 -156t147 -58zM320 754l66 164h182l-130 -164h-118z" />
    <glyph glyph-name="Ocircumflex" unicode="&#xd4;" horiz-adv-x="818" 
d="M777 350q0 -154 -104.5 -259t-263.5 -105t-263.5 105t-104.5 259t104.5 259t263.5 105t263.5 -105t104.5 -259zM409 136q88 0 147 58t59 156t-59 156t-147 58t-147 -58t-59 -156t59 -156t147 -58zM238 754l122 164h98l122 -164h-117l-54 53l-54 -53h-117z" />
    <glyph glyph-name="Otilde" unicode="&#xd5;" horiz-adv-x="818" 
d="M777 350q0 -154 -104.5 -259t-263.5 -105t-263.5 105t-104.5 259t104.5 259t263.5 105t263.5 -105t104.5 -259zM409 136q88 0 147 58t59 156t-59 156t-147 58t-147 -58t-59 -156t59 -156t147 -58zM342 812q-19 0 -19 -19q0 -9 6 -21l-91 -19q-16 23 -16 57q0 45 29.5 72
t73.5 27q40 0 69 -16.5t48 -33t34 -16.5q19 0 19 19q0 9 -6 21l91 19q16 -23 16 -57q0 -45 -29.5 -72t-73.5 -27q-40 0 -69 16.5t-48 33t-34 16.5z" />
    <glyph glyph-name="Odieresis" unicode="&#xd6;" horiz-adv-x="818" 
d="M777 350q0 -154 -104.5 -259t-263.5 -105t-263.5 105t-104.5 259t104.5 259t263.5 105t263.5 -105t104.5 -259zM409 136q88 0 147 58t59 156t-59 156t-147 58t-147 -58t-59 -156t59 -156t147 -58zM439 768v143h138v-143h-138zM241 768v143h138v-143h-138z" />
    <glyph glyph-name="multiply" unicode="&#xd7;" horiz-adv-x="572" 
d="M63 502l86 86l137 -137l137 137l86 -86l-137 -137l137 -137l-86 -86l-137 137l-137 -137l-86 86l137 137z" />
    <glyph glyph-name="Oslash" unicode="&#xd8;" horiz-adv-x="818" 
d="M777 350q0 -154 -104.5 -259t-263.5 -105q-54 0 -112 15l-40 -76l-111 64l37 69q-67 50 -104.5 126.5t-37.5 165.5q0 154 104.5 259t263.5 105q54 0 112 -15l40 76l111 -64l-37 -69q67 -50 104.5 -126.5t37.5 -165.5zM203 350q0 -90 54 -151l191 362q-20 3 -39 3
q-88 0 -147 -58t-59 -156zM409 136q88 0 147 58t59 156q0 90 -54 151l-191 -362q18 -3 39 -3z" />
    <glyph glyph-name="Ugrave" unicode="&#xd9;" horiz-adv-x="712" 
d="M656 700v-424q0 -133 -83.5 -211.5t-216.5 -78.5t-216.5 78.5t-83.5 211.5v424h162v-404q0 -79 38 -119.5t100 -40.5t100 40.5t38 119.5v404h162zM384 918l66 -164h-118l-130 164h182z" />
    <glyph glyph-name="Uacute" unicode="&#xda;" horiz-adv-x="712" 
d="M656 700v-424q0 -133 -83.5 -211.5t-216.5 -78.5t-216.5 78.5t-83.5 211.5v424h162v-404q0 -79 38 -119.5t100 -40.5t100 40.5t38 119.5v404h162zM262 754l66 164h182l-130 -164h-118z" />
    <glyph glyph-name="Ucircumflex" unicode="&#xdb;" horiz-adv-x="712" 
d="M656 700v-424q0 -133 -83.5 -211.5t-216.5 -78.5t-216.5 78.5t-83.5 211.5v424h162v-404q0 -79 38 -119.5t100 -40.5t100 40.5t38 119.5v404h162zM185 754l122 164h98l122 -164h-117l-54 53l-54 -53h-117z" />
    <glyph glyph-name="Udieresis" unicode="&#xdc;" horiz-adv-x="712" 
d="M656 700v-424q0 -133 -83.5 -211.5t-216.5 -78.5t-216.5 78.5t-83.5 211.5v424h162v-404q0 -79 38 -119.5t100 -40.5t100 40.5t38 119.5v404h162zM386 768v143h138v-143h-138zM188 768v143h138v-143h-138z" />
    <glyph glyph-name="Yacute" unicode="&#xdd;" horiz-adv-x="633" 
d="M398 266v-266h-162v266l-233 434h182l112 -223q11 -28 20 -52l20 52l112 223h181zM212 754l66 164h182l-130 -164h-118z" />
    <glyph glyph-name="Thorn" unicode="&#xde;" horiz-adv-x="706" 
d="M65 0v700h162v-119h165q128 0 201 -59t73 -172t-73 -172t-201 -59h-165v-119h-162zM227 447v-194h161q59 0 87.5 26t28.5 71t-28.5 71t-87.5 26h-161z" />
    <glyph glyph-name="germandbls" unicode="&#xdf;" horiz-adv-x="616" 
d="M250 319v127h30q43 0 71 20t28 56q0 31 -20 48.5t-57 17.5t-61 -24.5t-24 -75.5v-488h-142v380h-56v116h56q0 102 66.5 160t167.5 58q99 0 157 -48t58 -123q0 -100 -95 -151q150 -50 150 -206q0 -90 -58 -145t-150 -55q-85 0 -134 41l62 111q26 -24 59 -24q30 0 47 21
t17 59q0 57 -39 91t-106 34h-27z" />
    <glyph glyph-name="agrave" unicode="&#xe0;" horiz-adv-x="576" 
d="M541 0h-152q-21 21 -24 64q-55 -78 -152 -78q-82 0 -128.5 44t-46.5 115q0 133 194 164l126 20v9q0 72 -77 72q-34 0 -55 -12t-21 -33q0 -5 1 -9l-136 -46q-8 27 -8 48q0 67 62.5 109.5t156.5 42.5q227 0 227 -188v-199q0 -75 33 -123zM244 102q51 0 82.5 36.5t31.5 84.5
v9l-106 -18q-68 -11 -68 -60q0 -21 16.5 -36.5t43.5 -15.5zM306 714l66 -164h-118l-130 164h182z" />
    <glyph glyph-name="aacute" unicode="&#xe1;" horiz-adv-x="576" 
d="M541 0h-152q-21 21 -24 64q-55 -78 -152 -78q-82 0 -128.5 44t-46.5 115q0 133 194 164l126 20v9q0 72 -77 72q-34 0 -55 -12t-21 -33q0 -5 1 -9l-136 -46q-8 27 -8 48q0 67 62.5 109.5t156.5 42.5q227 0 227 -188v-199q0 -75 33 -123zM244 102q51 0 82.5 36.5t31.5 84.5
v9l-106 -18q-68 -11 -68 -60q0 -21 16.5 -36.5t43.5 -15.5zM194 550l66 164h182l-130 -164h-118z" />
    <glyph glyph-name="acircumflex" unicode="&#xe2;" horiz-adv-x="576" 
d="M541 0h-152q-21 21 -24 64q-55 -78 -152 -78q-82 0 -128.5 44t-46.5 115q0 133 194 164l126 20v9q0 72 -77 72q-34 0 -55 -12t-21 -33q0 -5 1 -9l-136 -46q-8 27 -8 48q0 67 62.5 109.5t156.5 42.5q227 0 227 -188v-199q0 -75 33 -123zM244 102q51 0 82.5 36.5t31.5 84.5
v9l-106 -18q-68 -11 -68 -60q0 -21 16.5 -36.5t43.5 -15.5zM117 550l122 164h98l122 -164h-117l-54 53l-54 -53h-117z" />
    <glyph glyph-name="atilde" unicode="&#xe3;" horiz-adv-x="576" 
d="M541 0h-152q-21 21 -24 64q-55 -78 -152 -78q-82 0 -128.5 44t-46.5 115q0 133 194 164l126 20v9q0 72 -77 72q-34 0 -55 -12t-21 -33q0 -5 1 -9l-136 -46q-8 27 -8 48q0 67 62.5 109.5t156.5 42.5q227 0 227 -188v-199q0 -75 33 -123zM244 102q51 0 82.5 36.5t31.5 84.5
v9l-106 -18q-68 -11 -68 -60q0 -21 16.5 -36.5t43.5 -15.5zM215 608q-19 0 -19 -19q0 -9 6 -21l-91 -19q-16 23 -16 57q0 45 29.5 72t73.5 27q40 0 69 -16.5t48 -33t34 -16.5q19 0 19 19q0 9 -6 21l91 19q16 -23 16 -57q0 -45 -29.5 -72t-73.5 -27q-40 0 -69 16.5t-48 33
t-34 16.5z" />
    <glyph glyph-name="adieresis" unicode="&#xe4;" horiz-adv-x="576" 
d="M541 0h-152q-21 21 -24 64q-55 -78 -152 -78q-82 0 -128.5 44t-46.5 115q0 133 194 164l126 20v9q0 72 -77 72q-34 0 -55 -12t-21 -33q0 -5 1 -9l-136 -46q-8 27 -8 48q0 67 62.5 109.5t156.5 42.5q227 0 227 -188v-199q0 -75 33 -123zM244 102q51 0 82.5 36.5t31.5 84.5
v9l-106 -18q-68 -11 -68 -60q0 -21 16.5 -36.5t43.5 -15.5zM318 564v143h138v-143h-138zM120 564v143h138v-143h-138z" />
    <glyph glyph-name="aring" unicode="&#xe5;" horiz-adv-x="576" 
d="M541 0h-152q-21 21 -24 64q-55 -78 -152 -78q-82 0 -128.5 44t-46.5 115q0 133 194 164l126 20v9q0 72 -77 72q-34 0 -55 -12t-21 -33q0 -5 1 -9l-136 -46q-8 27 -8 48q0 67 62.5 109.5t156.5 42.5q227 0 227 -188v-199q0 -75 33 -123zM244 102q51 0 82.5 36.5t31.5 84.5
v9l-106 -18q-68 -11 -68 -60q0 -21 16.5 -36.5t43.5 -15.5zM186 635q0 42 30 71.5t72 29.5t72 -29.5t30 -71.5t-30 -71.5t-72 -29.5t-72 29.5t-30 71.5zM259 635q0 -13 8 -21t21 -8t21 8t8 21t-8 21t-21 8t-21 -8t-8 -21z" />
    <glyph glyph-name="ae" unicode="&#xe6;" horiz-adv-x="909" 
d="M281 510q112 0 171 -64q73 64 180 64q109 0 176.5 -71t67.5 -177v-51h-368q6 -45 40 -71t80 -26q81 0 126 78l108 -61q-71 -145 -240 -145q-62 0 -118 28t-91 77q-62 -105 -184 -105q-89 0 -140 44.5t-51 116.5q0 78 65 123.5t172 45.5h83v22q0 72 -77 72q-34 0 -55 -12
t-21 -33q0 -5 1 -9l-136 -46q-8 27 -8 48q0 67 62.5 109.5t156.5 42.5zM247 102q45 0 78 31t33 76v4h-103q-32 0 -51.5 -16t-19.5 -41q0 -24 15.5 -39t47.5 -15zM629 394q-41 0 -71 -21t-43 -57h226q-9 37 -39 57.5t-73 20.5z" />
    <glyph glyph-name="ccedilla" unicode="&#xe7;" horiz-adv-x="561" 
d="M248 -117l-47 37l26 74q-88 21 -142 88.5t-54 165.5q0 115 77.5 188.5t187.5 73.5q163 0 231 -135l-121 -81q-36 78 -110 78q-50 0 -81.5 -34t-31.5 -90q0 -57 31 -90.5t81 -33.5q76 0 114 86l124 -80q-71 -142 -236 -144l-22 -36q17 6 34 6q36 0 58 -20.5t22 -57.5
q0 -38 -28.5 -60t-69.5 -22q-76 0 -98 62l76 19q4 -17 21 -17q19 0 19 19q0 21 -21 21q-20 0 -40 -17z" />
    <glyph glyph-name="egrave" unicode="&#xe8;" horiz-adv-x="573" 
d="M540 211h-367q6 -45 39.5 -71t79.5 -26q81 0 126 78l108 -61q-71 -145 -240 -145q-104 0 -179.5 73.5t-75.5 188.5q0 116 75 189t190 73q109 0 176.5 -71t67.5 -177v-51zM293 394q-41 0 -71 -21t-43 -57h226q-9 37 -39 57.5t-73 20.5zM314 714l66 -164h-118l-130 164h182
z" />
    <glyph glyph-name="eacute" unicode="&#xe9;" horiz-adv-x="573" 
d="M540 211h-367q6 -45 39.5 -71t79.5 -26q81 0 126 78l108 -61q-71 -145 -240 -145q-104 0 -179.5 73.5t-75.5 188.5q0 116 75 189t190 73q109 0 176.5 -71t67.5 -177v-51zM293 394q-41 0 -71 -21t-43 -57h226q-9 37 -39 57.5t-73 20.5zM192 550l66 164h182l-130 -164h-118
z" />
    <glyph glyph-name="ecircumflex" unicode="&#xea;" horiz-adv-x="573" 
d="M540 211h-367q6 -45 39.5 -71t79.5 -26q81 0 126 78l108 -61q-71 -145 -240 -145q-104 0 -179.5 73.5t-75.5 188.5q0 116 75 189t190 73q109 0 176.5 -71t67.5 -177v-51zM293 394q-41 0 -71 -21t-43 -57h226q-9 37 -39 57.5t-73 20.5zM115 550l122 164h98l122 -164h-117
l-54 53l-54 -53h-117z" />
    <glyph glyph-name="edieresis" unicode="&#xeb;" horiz-adv-x="573" 
d="M540 211h-367q6 -45 39.5 -71t79.5 -26q81 0 126 78l108 -61q-71 -145 -240 -145q-104 0 -179.5 73.5t-75.5 188.5q0 116 75 189t190 73q109 0 176.5 -71t67.5 -177v-51zM293 394q-41 0 -71 -21t-43 -57h226q-9 37 -39 57.5t-73 20.5zM316 564v143h138v-143h-138z
M118 564v143h138v-143h-138z" />
    <glyph glyph-name="igrave" unicode="&#xec;" horiz-adv-x="262" 
d="M56 0v496h150v-496h-150zM140 714l66 -164h-118l-130 164h182z" />
    <glyph glyph-name="iacute" unicode="&#xed;" horiz-adv-x="262" 
d="M56 0v496h150v-496h-150zM56 550l66 164h182l-130 -164h-118z" />
    <glyph glyph-name="icircumflex" unicode="&#xee;" horiz-adv-x="262" 
d="M56 0v496h150v-496h-150zM-40 550l122 164h98l122 -164h-117l-54 53l-54 -53h-117z" />
    <glyph glyph-name="idieresis" unicode="&#xef;" horiz-adv-x="262" 
d="M56 0v496h150v-496h-150zM161 557v143h138v-143h-138zM-37 557v143h138v-143h-138z" />
    <glyph glyph-name="eth" unicode="&#xf0;" horiz-adv-x="591" 
d="M216 489l-33 90l49 19q-36 22 -100 49l62 108q102 -43 178 -103l108 42l34 -90l-65 -25q106 -126 106 -289q0 -140 -69 -222t-194 -82q-116 0 -186 67.5t-70 173.5q0 103 70.5 169t172.5 66q76 0 121 -36q-37 62 -79 104zM295 340q-47 0 -81 -31.5t-34 -84.5t34 -84.5
t81 -31.5t81 31.5t34 84.5t-34 84.5t-81 31.5z" />
    <glyph glyph-name="ntilde" unicode="&#xf1;" horiz-adv-x="600" 
d="M544 338v-338h-150v270q0 45 -21.5 71.5t-66.5 26.5q-46 0 -73 -35t-27 -94v-239h-150v496h150v-71q60 85 161 85q83 0 130 -47.5t47 -124.5zM233 608q-19 0 -19 -19q0 -9 6 -21l-91 -19q-16 23 -16 57q0 45 29.5 72t73.5 27q40 0 69 -16.5t48 -33t34 -16.5q19 0 19 19
q0 9 -6 21l91 19q16 -23 16 -57q0 -45 -29.5 -72t-73.5 -27q-40 0 -69 16.5t-48 33t-34 16.5z" />
    <glyph glyph-name="ograve" unicode="&#xf2;" horiz-adv-x="612" 
d="M581 248q0 -124 -81 -193t-194 -69t-194 69t-81 193t81 193t194 69t194 -69t81 -193zM306 128q51 0 87 32.5t36 87.5t-36 87.5t-87 32.5t-87 -32.5t-36 -87.5t36 -87.5t87 -32.5zM304 714l66 -164h-118l-130 164h182z" />
    <glyph glyph-name="oacute" unicode="&#xf3;" horiz-adv-x="612" 
d="M581 248q0 -124 -81 -193t-194 -69t-194 69t-81 193t81 193t194 69t194 -69t81 -193zM306 128q51 0 87 32.5t36 87.5t-36 87.5t-87 32.5t-87 -32.5t-36 -87.5t36 -87.5t87 -32.5zM242 550l66 164h182l-130 -164h-118z" />
    <glyph glyph-name="ocircumflex" unicode="&#xf4;" horiz-adv-x="612" 
d="M581 248q0 -124 -81 -193t-194 -69t-194 69t-81 193t81 193t194 69t194 -69t81 -193zM306 128q51 0 87 32.5t36 87.5t-36 87.5t-87 32.5t-87 -32.5t-36 -87.5t36 -87.5t87 -32.5zM135 550l122 164h98l122 -164h-117l-54 53l-54 -53h-117z" />
    <glyph glyph-name="otilde" unicode="&#xf5;" horiz-adv-x="612" 
d="M581 248q0 -124 -81 -193t-194 -69t-194 69t-81 193t81 193t194 69t194 -69t81 -193zM306 128q51 0 87 32.5t36 87.5t-36 87.5t-87 32.5t-87 -32.5t-36 -87.5t36 -87.5t87 -32.5zM239 608q-19 0 -19 -19q0 -9 6 -21l-91 -19q-16 23 -16 57q0 45 29.5 72t73.5 27
q40 0 69 -16.5t48 -33t34 -16.5q19 0 19 19q0 9 -6 21l91 19q16 -23 16 -57q0 -45 -29.5 -72t-73.5 -27q-40 0 -69 16.5t-48 33t-34 16.5z" />
    <glyph glyph-name="odieresis" unicode="&#xf6;" horiz-adv-x="612" 
d="M581 248q0 -124 -81 -193t-194 -69t-194 69t-81 193t81 193t194 69t194 -69t81 -193zM306 128q51 0 87 32.5t36 87.5t-36 87.5t-87 32.5t-87 -32.5t-36 -87.5t36 -87.5t87 -32.5zM336 564v143h138v-143h-138zM138 564v143h138v-143h-138z" />
    <glyph glyph-name="divide" unicode="&#xf7;" horiz-adv-x="601" 
d="M223 336v154h154v-154h-154zM223 0v154h154v-154h-154zM45 184v122h510v-122h-510z" />
    <glyph glyph-name="oslash" unicode="&#xf8;" horiz-adv-x="612" 
d="M581 248q0 -124 -81 -193t-194 -69q-38 0 -81 10l-25 -43l-99 61l20 34q-90 72 -90 200q0 124 81 193t194 69q38 0 81 -10l25 43l99 -61l-20 -34q90 -72 90 -200zM183 248q0 -36 18 -65l108 185q-53 0 -89.5 -32.5t-36.5 -87.5zM303 128q53 0 89.5 32.5t36.5 87.5
q0 36 -18 65z" />
    <glyph glyph-name="ugrave" unicode="&#xf9;" horiz-adv-x="600" 
d="M56 196v300h150v-267q0 -48 23 -74.5t65 -26.5q48 0 74 36t26 93v239h150v-496h-150v72q-24 -41 -59 -63.5t-95 -22.5q-79 0 -131.5 56t-52.5 154zM328 714l66 -164h-118l-130 164h182z" />
    <glyph glyph-name="uacute" unicode="&#xfa;" horiz-adv-x="600" 
d="M56 196v300h150v-267q0 -48 23 -74.5t65 -26.5q48 0 74 36t26 93v239h150v-496h-150v72q-24 -41 -59 -63.5t-95 -22.5q-79 0 -131.5 56t-52.5 154zM206 550l66 164h182l-130 -164h-118z" />
    <glyph glyph-name="ucircumflex" unicode="&#xfb;" horiz-adv-x="600" 
d="M56 196v300h150v-267q0 -48 23 -74.5t65 -26.5q48 0 74 36t26 93v239h150v-496h-150v72q-24 -41 -59 -63.5t-95 -22.5q-79 0 -131.5 56t-52.5 154zM129 550l122 164h98l122 -164h-117l-54 53l-54 -53h-117z" />
    <glyph glyph-name="udieresis" unicode="&#xfc;" horiz-adv-x="600" 
d="M56 196v300h150v-267q0 -48 23 -74.5t65 -26.5q48 0 74 36t26 93v239h150v-496h-150v72q-24 -41 -59 -63.5t-95 -22.5q-79 0 -131.5 56t-52.5 154zM330 564v143h138v-143h-138zM132 564v143h138v-143h-138z" />
    <glyph glyph-name="yacute" unicode="&#xfd;" horiz-adv-x="567" 
d="M77 -199l25 134q27 -12 46 -12q36 0 50 38l15 40l-209 495h170l115 -289l106 289h167l-227 -568q-31 -77 -71 -108t-106 -31q-53 0 -81 12zM189 550l66 164h182l-130 -164h-118z" />
    <glyph glyph-name="thorn" unicode="&#xfe;" 
d="M56 -204v904h150v-261q59 71 164 71q91 0 159.5 -69.5t68.5 -192.5q0 -122 -70 -192t-161 -70q-100 0 -161 66v-256h-150zM322 372q-52 0 -88 -34.5t-36 -89.5t36 -89.5t88 -34.5t88 34.5t36 89.5t-36 89.5t-88 34.5z" />
    <glyph glyph-name="ydieresis" unicode="&#xff;" horiz-adv-x="567" 
d="M77 -199l25 134q27 -12 46 -12q36 0 50 38l15 40l-209 495h170l115 -289l106 289h167l-227 -568q-31 -77 -71 -108t-106 -31q-53 0 -81 12zM313 564v143h138v-143h-138zM115 564v143h138v-143h-138z" />
    <glyph glyph-name="dotlessi" unicode="&#x131;" horiz-adv-x="262" 
d="M56 0v496h150v-496h-150z" />
    <glyph glyph-name="Lslash" unicode="&#x141;" 
d="M9 110v145l70 44v401h162v-297l151 96v-145l-151 -96v-108h351v-150h-513v154z" />
    <glyph glyph-name="lslash" unicode="&#x142;" horiz-adv-x="302" 
d="M14 128v124l62 39v409h150v-315l62 39v-124l-62 -39v-261h-150v167z" />
    <glyph glyph-name="OE" unicode="&#x152;" horiz-adv-x="1179" 
d="M615 0v68q-76 -82 -206 -82q-159 0 -263.5 105t-104.5 259t104.5 259t263.5 105q133 0 206 -72v58h511v-142h-349v-127h321v-138h-321v-151h352v-142h-514zM409 136q88 0 147 58t59 156t-59 156t-147 58t-147 -58t-59 -156t59 -156t147 -58z" />
    <glyph glyph-name="oe" unicode="&#x153;" horiz-adv-x="988" 
d="M306 510q58 0 113 -22t94 -61q80 83 195 83q109 0 176.5 -71t67.5 -177v-51h-367q6 -45 39.5 -71t79.5 -26q81 0 126 78l108 -61q-71 -145 -240 -145q-112 0 -186 80q-79 -80 -206 -80q-113 0 -194 69t-81 193t81 193t194 69zM306 128q51 0 87 32.5t36 87.5t-36 87.5
t-87 32.5t-87 -32.5t-36 -87.5t36 -87.5t87 -32.5zM705 394q-41 0 -71 -21t-43 -57h226q-9 37 -39 57.5t-73 20.5z" />
    <glyph glyph-name="Scaron" unicode="&#x160;" horiz-adv-x="656" 
d="M219 516q0 -29 37.5 -51t128.5 -41q116 -24 170 -75t54 -138q0 -95 -70 -160t-193 -65q-246 0 -307 227l137 66q20 -75 59.5 -113t110.5 -38q47 0 75.5 20.5t28.5 51.5q0 40 -38 64t-119 39q-220 42 -220 210q0 91 69 146t183 55q199 0 272 -183l-121 -72
q-42 123 -154 123q-45 0 -74 -18t-29 -48zM279 754l-122 164h117l54 -53l54 53h117l-122 -164h-98z" />
    <glyph glyph-name="scaron" unicode="&#x161;" horiz-adv-x="510" 
d="M202 370q0 -33 106 -56q89 -20 129 -57.5t40 -101.5q0 -73 -56.5 -121t-146.5 -48q-170 0 -238 155l115 71q40 -104 125 -104q28 0 45.5 10.5t17.5 28.5q0 22 -22.5 34.5t-72.5 22.5q-78 16 -126 55.5t-48 103.5q0 68 54 107.5t134 39.5q82 0 130 -30.5t82 -96.5
l-108 -63q-29 84 -102 84q-58 0 -58 -34zM206 550l-122 164h117l54 -53l54 53h117l-122 -164h-98z" />
    <glyph glyph-name="Ydieresis" unicode="&#x178;" horiz-adv-x="633" 
d="M398 0v266l232 434h-181l-112 -223q-11 -28 -20 -52l-20 52l-112 223h-182l233 -434v-266h162zM346 768v143h138v-143h-138zM148 768v143h138v-143h-138z" />
    <glyph glyph-name="Zcaron" unicode="&#x17d;" horiz-adv-x="626" 
d="M47 558v142h527v-142l-345 -416h364v-142h-562v140l350 418h-334zM264 754l-122 164h117l54 -53l54 53h117l-122 -164h-98z" />
    <glyph glyph-name="zcaron" unicode="&#x17e;" horiz-adv-x="504" 
d="M205 116h267v-116h-440v116l250 264h-239v116h412v-116zM203 550l-122 164h117l54 -53l54 53h117l-122 -164h-98z" />
    <glyph glyph-name="florin" unicode="&#x192;" horiz-adv-x="374" 
d="M251 380v-412q0 -93 -48.5 -139.5t-131.5 -46.5q-40 0 -76 14l28 130q17 -6 35 -6q43 0 43 50v410h-70v116h70v64q0 92 54 141t137 49q35 0 71 -14l-28 -130q-17 6 -35 6q-22 0 -35.5 -15.5t-13.5 -39.5v-61h106v-116h-106z" />
    <glyph glyph-name="circumflex" unicode="&#x2c6;" horiz-adv-x="424" 
d="M41 550l122 164h98l122 -164h-117l-54 53l-54 -53h-117z" />
    <glyph glyph-name="caron" unicode="&#x2c7;" horiz-adv-x="424" 
d="M163 550l-122 164h117l54 -53l54 53h117l-122 -164h-98z" />
    <glyph glyph-name="breve" unicode="&#x2d8;" horiz-adv-x="300" 
d="M185 682h85q0 -54 -33 -88t-87 -34t-87 34t-33 88h85q0 -42 35 -42t35 42z" />
    <glyph glyph-name="dotaccent" unicode="&#x2d9;" horiz-adv-x="262" 
d="M50 554v160h162v-160h-162z" />
    <glyph glyph-name="ring" unicode="&#x2da;" horiz-adv-x="278" 
d="M37 635q0 42 30 71.5t72 29.5t72 -29.5t30 -71.5t-30 -71.5t-72 -29.5t-72 29.5t-30 71.5zM110 635q0 -13 8 -21t21 -8t21 8t8 21t-8 21t-21 8t-21 -8t-8 -21z" />
    <glyph glyph-name="ogonek" unicode="&#x2db;" horiz-adv-x="232" 
d="M25 -104q0 71 77 118l111 -14q-69 -39 -69 -77q0 -13 9 -20.5t23 -7.5q12 0 23 2l12 -88q-29 -7 -70 -7q-51 0 -83.5 24t-32.5 70z" />
    <glyph glyph-name="tilde" unicode="&#x2dc;" horiz-adv-x="478" 
d="M172 608q-19 0 -19 -19q0 -9 6 -21l-91 -19q-16 23 -16 57q0 45 29.5 72t73.5 27q40 0 69 -16.5t48 -33t34 -16.5q19 0 19 19q0 9 -6 21l91 19q16 -23 16 -57q0 -45 -29.5 -72t-73.5 -27q-40 0 -69 16.5t-48 33t-34 16.5z" />
    <glyph glyph-name="hungarumlaut" unicode="&#x2dd;" horiz-adv-x="554" 
d="M47 550l66 164h182l-130 -164h-118zM259 550l66 164h182l-130 -164h-118z" />
    <glyph glyph-name="pi" unicode="&#x3c0;" horiz-adv-x="702" 
d="M22 496h647v-116h-103v-191q0 -69 57 -69q17 0 38 8l14 -125q-44 -17 -93 -17q-71 0 -118.5 40t-47.5 128v226h-143v-380h-150v380h-101v116z" />
    <glyph glyph-name="endash" unicode="&#x2013;" horiz-adv-x="594" 
d="M36 250v122h522v-122h-522z" />
    <glyph glyph-name="emdash" unicode="&#x2014;" horiz-adv-x="864" 
d="M36 250v122h792v-122h-792z" />
    <glyph glyph-name="quoteleft" unicode="&#x2018;" horiz-adv-x="226" 
d="M183 525v-152h-150v152l142 168l26 -18l-74 -150h56z" />
    <glyph glyph-name="quoteright" unicode="&#x2019;" horiz-adv-x="226" 
d="M43 548v152h150v-152l-142 -168l-26 18l74 150h-56z" />
    <glyph glyph-name="quotesinglbase" unicode="&#x201a;" horiz-adv-x="226" 
d="M43 0v152h150v-152l-142 -168l-26 18l74 150h-56z" />
    <glyph glyph-name="quotedblleft" unicode="&#x201c;" horiz-adv-x="418" 
d="M183 539v-152h-150v152l142 168l26 -18l-74 -150h56zM375 539v-152h-150v152l142 168l26 -18l-74 -150h56z" />
    <glyph glyph-name="quotedblright" unicode="&#x201d;" horiz-adv-x="418" 
d="M235 548v152h150v-152l-142 -168l-26 18l74 150h-56zM43 548v152h150v-152l-142 -168l-26 18l74 150h-56z" />
    <glyph glyph-name="quotedblbase" unicode="&#x201e;" horiz-adv-x="418" 
d="M235 0v152h150v-152l-142 -168l-26 18l74 150h-56zM43 0v152h150v-152l-142 -168l-26 18l74 150h-56z" />
    <glyph glyph-name="dagger" unicode="&#x2020;" horiz-adv-x="484" 
d="M36 374v122h133v244h146v-244h133v-122h-133v-484h-146v484h-133z" />
    <glyph glyph-name="daggerdbl" unicode="&#x2021;" horiz-adv-x="484" 
d="M36 374v122h133v244h146v-244h133v-122h-133v-118h133v-122h-133v-244h-146v244h-133v122h133v118h-133z" />
    <glyph glyph-name="bullet" unicode="&#x2022;" horiz-adv-x="346" 
d="M38 275q0 56 39.5 95.5t95.5 39.5t95.5 -39.5t39.5 -95.5t-39.5 -95.5t-95.5 -39.5t-95.5 39.5t-39.5 95.5z" />
    <glyph glyph-name="ellipsis" unicode="&#x2026;" horiz-adv-x="630" 
d="M36 0v154h154v-154h-154zM238 0v154h154v-154h-154zM440 0v154h154v-154h-154z" />
    <glyph glyph-name="perthousand" unicode="&#x2030;" horiz-adv-x="1111" 
d="M479 161q0 76 49 125.5t126 49.5q73 0 122 -46q49 46 122 46q77 0 126 -49.5t49 -125.5t-49 -125.5t-126 -49.5q-73 0 -122 46q-49 -46 -122 -46q-77 0 -126 49.5t-49 125.5zM38 539q0 76 49 125.5t126 49.5t126 -49.5t49 -125.5t-49 -125.5t-126 -49.5t-126 49.5
t-49 125.5zM585 161q0 -33 19.5 -54t49.5 -21t49.5 21t19.5 54t-19.5 54t-49.5 21t-49.5 -21t-19.5 -54zM829 161q0 -33 19.5 -54t49.5 -21t49.5 21t19.5 54t-19.5 54t-49.5 21t-49.5 -21t-19.5 -54zM144 539q0 -33 19.5 -54t49.5 -21t49.5 21t19.5 54t-19.5 54t-49.5 21
t-49.5 -21t-19.5 -54zM242 -10l-80 55l435 665l80 -55z" />
    <glyph glyph-name="guilsinglleft" unicode="&#x2039;" horiz-adv-x="399" 
d="M210 499h162l-174 -224l174 -222h-162l-174 222z" />
    <glyph glyph-name="guilsinglright" unicode="&#x203a;" horiz-adv-x="399" 
d="M27 499h162l174 -224l-174 -222h-162l174 222z" />
    <glyph glyph-name="fraction" unicode="&#x2044;" horiz-adv-x="545" 
d="M95 -10l-80 55l435 665l80 -55z" />
    <glyph glyph-name="Euro" unicode="&#x20ac;" horiz-adv-x="804" 
d="M503 219h-217q50 -87 163 -87q69 0 109 33.5t64 101.5l141 -50q-85 -231 -316 -231q-120 0 -205 62t-118 171h-93l49 108h25v42h-74l49 108h44q35 110 124 173.5t210 63.5q114 0 186.5 -50.5t112.5 -153.5l-141 -66q-41 124 -163 124q-114 0 -167 -91h266l-49 -108h-248
v-42h297z" />
    <glyph glyph-name="trademark" unicode="&#x2122;" horiz-adv-x="862" 
d="M28 614v86h330v-86h-117v-314h-96v314h-117zM390 300v400h106l110 -278l110 278h106v-400h-94v196l-77 -196h-90l-77 196v-196h-94z" />
    <glyph glyph-name="Omega" unicode="&#x2126;" horiz-adv-x="784" 
d="M736 110v-110h-303v122q70 43 112.5 110.5t42.5 151.5q0 83 -56.5 135.5t-139.5 52.5t-139.5 -52.5t-56.5 -135.5q0 -84 42.5 -151.5t112.5 -110.5v-122h-303v110h131q-138 112 -138 284q0 141 99.5 230.5t251.5 89.5t251.5 -89.5t99.5 -230.5q0 -172 -138 -284h131z" />
    <glyph glyph-name="arrowleft" unicode="&#x2190;" horiz-adv-x="609" 
d="M370 154l-86 -86l-243 243l243 243l86 -86l-100 -100h302v-114h-302z" />
    <glyph glyph-name="arrowup" unicode="&#x2191;" horiz-adv-x="554" 
d="M520 387l-86 -86l-100 100v-302h-114v302l-100 -100l-86 86l244 243z" />
    <glyph glyph-name="arrowright" unicode="&#x2192;" horiz-adv-x="609" 
d="M325 68l-86 86l100 100h-302v114h302l-100 100l86 86l243 -243z" />
    <glyph glyph-name="arrowdown" unicode="&#x2193;" horiz-adv-x="554" 
d="M434 428l86 -86l-242 -243l-244 243l86 86l100 -100v302h114v-302z" />
    <glyph glyph-name="arrowboth" unicode="&#x2194;" horiz-adv-x="813" 
d="M370 154l-86 -86l-243 243l243 243l86 -86l-100 -100h273l-100 100l86 86l243 -243l-243 -243l-86 86l100 100h-273z" />
    <glyph glyph-name="arrowupdn" unicode="&#x2195;" horiz-adv-x="554" 
d="M434 327l86 -86l-243 -243l-243 243l86 86l100 -100v273l-100 -100l-86 86l243 243l243 -243l-86 -86l-100 100v-273z" />
    <glyph glyph-name="uni2196" unicode="&#x2196;" horiz-adv-x="545" 
d="M192 152h-122v344h344v-122h-141l214 -213l-81 -81l-214 214v-142z" />
    <glyph glyph-name="uni2197" unicode="&#x2197;" horiz-adv-x="545" 
d="M477 152h-122v142l-214 -214l-81 81l214 213h-141v122h344v-344z" />
    <glyph glyph-name="uni2198" unicode="&#x2198;" horiz-adv-x="545" 
d="M355 444h122v-344h-344v122h141l-214 213l81 81l214 -214v142z" />
    <glyph glyph-name="uni2199" unicode="&#x2199;" horiz-adv-x="545" 
d="M70 444h122v-142l214 214l81 -81l-214 -213h141v-122h-344v344z" />
    <glyph glyph-name="partialdiff" unicode="&#x2202;" horiz-adv-x="593" 
d="M267 598q-28 0 -47 -11t-19 -32q0 -7 3 -16l-129 -56q-15 29 -15 65q0 66 52.5 116t152.5 50q140 0 216 -111t76 -295q0 -143 -72 -232.5t-199 -89.5q-110 0 -180 64t-70 169t69 174t176 69q85 0 134 -40q-11 77 -53 126.5t-95 49.5zM299 336q-51 0 -82.5 -32.5
t-31.5 -82.5q0 -51 31 -80t77 -29t80 31t34 84q0 49 -31.5 79t-76.5 30z" />
    <glyph glyph-name="Delta" unicode="&#x2206;" horiz-adv-x="732" 
d="M5 0l284 700h154l284 -700h-722zM337 421l-105 -283h268l-105 283q-16 41 -29 83z" />
    <glyph glyph-name="product" unicode="&#x220f;" horiz-adv-x="688" 
d="M65 -204v904h558v-904h-162v754h-234v-754h-162z" />
    <glyph glyph-name="summation" unicode="&#x2211;" horiz-adv-x="584" 
d="M212 290l-175 274v136h512v-136h-328l172 -274l-182 -274h345v-136h-529v136z" />
    <glyph glyph-name="minus" unicode="&#x2212;" horiz-adv-x="582" 
d="M36 304v122h510v-122h-510z" />
    <glyph glyph-name="radical" unicode="&#x221a;" horiz-adv-x="643" 
d="M366 0h-151l-87 230h-104v126h223l47 -142l181 486h151z" />
    <glyph glyph-name="infinity" unicode="&#x221e;" horiz-adv-x="774" 
d="M744 300q0 -81 -49 -130.5t-128 -49.5q-99 0 -180 96q-83 -96 -180 -96q-79 0 -128 49.5t-49 130.5t49 130.5t128 49.5q95 0 180 -96q83 96 180 96q79 0 128 -49.5t49 -130.5zM220 230q46 0 100 70q-56 70 -100 70q-29 0 -49.5 -20.5t-20.5 -49.5t20.5 -49.5t49.5 -20.5z
M624 300q0 29 -20.5 49.5t-49.5 20.5q-44 0 -101 -70q56 -70 101 -70q29 0 49.5 20.5t20.5 49.5z" />
    <glyph glyph-name="integral" unicode="&#x222b;" horiz-adv-x="367" 
d="M251 557v-589q0 -93 -48.5 -139.5t-131.5 -46.5q-40 0 -76 14l28 130q17 -6 35 -6q43 0 43 50v590q0 92 54 141t137 49q35 0 71 -14l-28 -130q-17 6 -35 6q-22 0 -35.5 -15.5t-13.5 -39.5z" />
    <glyph glyph-name="approxequal" unicode="&#x2248;" horiz-adv-x="473" 
d="M172 419q-23 0 -23 -21q0 -10 7 -20l-103 -19q-17 25 -17 60q0 51 31.5 82t86.5 31q39 0 67.5 -15t47 -29.5t32.5 -14.5q23 0 23 21q0 10 -7 20l103 19q17 -26 17 -60q0 -51 -31.5 -82t-86.5 -31q-39 0 -67.5 15t-47 29.5t-32.5 14.5zM172 229q-23 0 -23 -21q0 -10 7 -20
l-103 -19q-17 25 -17 60q0 51 31.5 82t86.5 31q39 0 67.5 -15t47 -29.5t32.5 -14.5q23 0 23 21q0 10 -7 20l103 19q17 -26 17 -60q0 -51 -31.5 -82t-86.5 -31q-39 0 -67.5 15t-47 29.5t-32.5 14.5z" />
    <glyph glyph-name="notequal" unicode="&#x2260;" horiz-adv-x="582" 
d="M36 388v122h280l86 148l106 -61l-51 -87h89v-122h-159l-50 -86h209v-122h-280l-86 -148l-106 61l51 87h-89v122h159l50 86h-209z" />
    <glyph glyph-name="lessequal" unicode="&#x2264;" horiz-adv-x="582" 
d="M36 0v122h510v-122h-510zM64 367v114l455 227v-158l-269 -126l269 -126v-158z" />
    <glyph glyph-name="greaterequal" unicode="&#x2265;" horiz-adv-x="582" 
d="M36 0v122h510v-122h-510zM519 481v-114l-455 -227v158l269 126l-269 126v158z" />
    <glyph glyph-name="lozenge" unicode="&#x25ca;" horiz-adv-x="626" 
d="M605 350l-218 -350h-148l-218 350l218 350h148zM313 132l134 218l-134 218l-134 -218z" />
    <glyph glyph-name="apple" unicode="&#xf8ff;" horiz-adv-x="730" 
d="M661 617v-595q0 -9 -6.5 -15.5t-15.5 -6.5q-3 0 -7 1l-267 77l-267 -77q-4 -1 -7 -1q-9 0 -15.5 6.5t-6.5 15.5v595q0 17 16 22l270 78q6 2 10 2t10 -2l270 -78q16 -5 16 -22zM343 366v303l-230 -67q6 -94 71.5 -161t158.5 -75zM387 669v-303q93 8 158.5 75t71.5 161z
M112 463v-412l231 67v204q-73 6 -134 43.5t-97 97.5zM618 51v412q-37 -60 -97.5 -97.5t-133.5 -43.5v-204z" />
    </font>
</defs>
</svg>
