<?xml version="1.0" standalone="no"?>
<!DOCTYPE svg PUBLIC "-//W3C//DTD SVG 1.1//EN" "http://www.w3.org/Graphics/SVG/1.1/DTD/svg11.dtd" >
<svg xmlns="http://www.w3.org/2000/svg" xmlns:xlink="http://www.w3.org/1999/xlink" version="1.1">
<metadata>
Created by FontForge 20170731 at Sun Nov  6 18:33:15 2016
 By Aleksey,,,
Copyright (c) 2015 by Colophon Foundry. All rights reserved.
</metadata>
<defs>
<font id="BasisGrotesque-Medium" horiz-adv-x="680" >
  <font-face 
    font-family="Basis Grotesque Medium"
    font-weight="500"
    font-stretch="normal"
    units-per-em="1000"
    panose-1="2 0 6 3 3 0 0 2 0 4"
    ascent="800"
    descent="-200"
    x-height="496"
    cap-height="700"
    bbox="-39 -218 1102 934"
    underline-thickness="50"
    underline-position="-200"
    unicode-range="U+000D-FB04"
  />
<missing-glyph horiz-adv-x="774" 
 />
    <glyph glyph-name="ff" unicode="ff" horiz-adv-x="604" 
d="M198 414v-414h-102v414h-75v82h75v87q0 78 44.5 122.5t120.5 44.5q29 0 56 -9l-18 -88q-15 5 -34 5q-31 0 -49 -20t-18 -57v-85h172v87q0 78 44.5 122.5t120.5 44.5q29 0 56 -9l-18 -88q-15 5 -34 5q-31 0 -49 -20t-18 -57v-85h112v-82h-112v-414h-102v414h-172z" />
    <glyph glyph-name="fi" unicode="fi" horiz-adv-x="563" 
d="M392 0v414h-194v-414h-102v414h-75v82h75v87q0 78 44.5 122.5t120.5 44.5q29 0 56 -9l-18 -88q-15 5 -34 5q-31 0 -49 -20t-18 -57v-85h296v-496h-102zM385 575v115h116v-115h-116z" />
    <glyph glyph-name="fl" unicode="fl" horiz-adv-x="564" 
d="M21 414v82h75v87q0 78 44.5 122.5t120.5 44.5q29 0 56 -9l-18 -88q-15 5 -34 5q-31 0 -49 -20t-18 -57v-85h112v-82h-112v-414h-102v414h-75zM392 0v700h102v-700h-102z" />
    <glyph glyph-name="f_f_i" unicode="ffi" horiz-adv-x="837" 
d="M666 0v414h-194v-414h-102v414h-172v-414h-102v414h-75v82h75v87q0 78 44.5 122.5t120.5 44.5q29 0 56 -9l-18 -88q-15 5 -34 5q-31 0 -49 -20t-18 -57v-85h172v87q0 78 44.5 122.5t120.5 44.5q29 0 56 -9l-18 -88q-15 5 -34 5q-31 0 -49 -20t-18 -57v-85h296v-496h-102z
M659 575v115h116v-115h-116z" />
    <glyph glyph-name="f_f_l" unicode="ffl" horiz-adv-x="838" 
d="M198 414v-414h-102v414h-75v82h75v87q0 78 44.5 122.5t120.5 44.5q29 0 56 -9l-18 -88q-15 5 -34 5q-31 0 -49 -20t-18 -57v-85h172v87q0 78 44.5 122.5t120.5 44.5q29 0 56 -9l-18 -88q-15 5 -34 5q-31 0 -49 -20t-18 -57v-85h112v-82h-112v-414h-102v414h-172zM666 0
v700h102v-700h-102z" />
    <glyph glyph-name="f_j" unicode="fj" horiz-adv-x="563" 
d="M284 -202l13 93q19 -8 42 -8q53 0 53 71v460h-194v-414h-102v414h-75v82h75v87q0 78 44.5 122.5t120.5 44.5q29 0 56 -9l-18 -88q-15 5 -34 5q-31 0 -49 -20t-18 -57v-85h296v-541q0 -166 -149 -166q-28 0 -61 9zM385 575v115h116v-115h-116z" />
    <glyph glyph-name="f_f_j" unicode="ffj" horiz-adv-x="837" 
d="M558 -202l13 93q19 -8 42 -8q53 0 53 71v460h-194v-414h-102v414h-172v-414h-102v414h-75v82h75v87q0 78 44.5 122.5t120.5 44.5q29 0 56 -9l-18 -88q-15 5 -34 5q-31 0 -49 -20t-18 -57v-85h172v87q0 78 44.5 122.5t120.5 44.5q29 0 56 -9l-18 -88q-15 5 -34 5
q-31 0 -49 -20t-18 -57v-85h296v-541q0 -166 -149 -166q-28 0 -61 9zM659 575v115h116v-115h-116z" />
    <glyph glyph-name=".notdef" horiz-adv-x="774" 
 />
    <glyph glyph-name=".null" horiz-adv-x="0" 
 />
    <glyph glyph-name="nonmarkingreturn" horiz-adv-x="333" 
 />
    <glyph glyph-name="NULL" horiz-adv-x="0" 
 />
    <glyph glyph-name="NULL" horiz-adv-x="0" 
 />
    <glyph glyph-name="CR" unicode="&#xd;" horiz-adv-x="289" 
 />
    <glyph glyph-name="space" unicode=" " horiz-adv-x="276" 
 />
    <glyph glyph-name="exclam" unicode="!" horiz-adv-x="274" 
d="M83 467v233h108v-233l-13 -269h-82zM81 0v119h112v-119h-112z" />
    <glyph glyph-name="quotedbl" unicode="&#x22;" horiz-adv-x="370" 
d="M213 633v67h100v-67l-14 -161h-72zM57 633v67h100v-67l-14 -161h-72z" />
    <glyph glyph-name="numbersign" unicode="#" horiz-adv-x="663" 
d="M563 700l-39 -213h94v-78h-108l-22 -118h110v-78h-124l-39 -213h-92l39 213h-146l-39 -213h-92l39 213h-94v78h108l22 118h-110v78h124l39 213h92l-39 -213h146l39 213h92zM272 409l-22 -118h146l22 118h-146z" />
    <glyph glyph-name="dollar" unicode="$" horiz-adv-x="653" 
d="M286 -100v90q-99 12 -160 71t-77 146l95 49q24 -144 142 -170v236q-94 22 -149 73.5t-55 131.5q0 75 56.5 125.5t147.5 59.5v88h89v-90q154 -23 207 -170l-86 -50q-35 102 -121 126v-215q112 -22 165.5 -70.5t53.5 -133.5q0 -80 -59.5 -139.5t-159.5 -69.5v-88h-89z
M486 193q0 42 -27 68t-84 42v-219q51 8 81 38t30 71zM184 529q0 -69 102 -105v194q-46 -7 -74 -30t-28 -59z" />
    <glyph glyph-name="percent" unicode="%" horiz-adv-x="881" 
d="M48 539q0 75 48.5 125t123.5 50t123.5 -50t48.5 -125t-48.5 -125t-123.5 -50t-123.5 50t-48.5 125zM127 539q0 -45 25.5 -73t67.5 -28t67.5 28t25.5 73t-25.5 73t-67.5 28t-67.5 -28t-25.5 -73zM489 161q0 75 48.5 125t123.5 50t123.5 -50t48.5 -125t-48.5 -125
t-123.5 -50t-123.5 50t-48.5 125zM568 161q0 -45 25.5 -73t67.5 -28t67.5 28t25.5 73t-25.5 73t-67.5 28t-67.5 -28t-25.5 -73zM254 -4l-62 42l435 666l62 -42z" />
    <glyph glyph-name="ampersand" unicode="&#x26;" horiz-adv-x="653" 
d="M614 0h-119l-37 49q-78 -63 -179 -63q-97 0 -160 60.5t-63 153.5q0 127 134 208q-46 69 -46 141t49 118.5t120 46.5q74 0 118.5 -39t44.5 -103q0 -106 -152 -183l-3 -2l143 -189q31 59 47 144l82 -46q-24 -103 -71 -174zM289 76q66 0 116 44l-165 220q-82 -57 -82 -138
q0 -56 38 -91t93 -35zM236 551q0 -50 37 -101q64 30 89 56t25 61q0 29 -22 47t-51 18q-31 0 -54.5 -22.5t-23.5 -58.5z" />
    <glyph glyph-name="quotesingle" unicode="'" horiz-adv-x="214" 
d="M57 633v67h100v-67l-14 -161h-72z" />
    <glyph glyph-name="parenleft" unicode="(" horiz-adv-x="355" 
d="M271 -148h-95q-106 189 -106 424t106 424h95q-43 -78 -69 -195.5t-26 -228.5t26 -228.5t69 -195.5z" />
    <glyph glyph-name="parenright" unicode=")" horiz-adv-x="355" 
d="M179 -148h-95q43 78 69 195.5t26 228.5t-26 228.5t-69 195.5h95q106 -189 106 -424t-106 -424z" />
    <glyph glyph-name="asterisk" unicode="*" horiz-adv-x="434" 
d="M264 700l-19 -116l91 74l47 -81l-110 -42l110 -42l-47 -81l-91 75l19 -117h-94l19 117l-91 -75l-47 81l110 42l-110 42l47 81l91 -74l-19 116h94z" />
    <glyph glyph-name="plus" unicode="+" horiz-adv-x="535" 
d="M44 324v82h182v182h82v-182h183v-82h-183v-183h-82v183h-182z" />
    <glyph glyph-name="comma" unicode="," horiz-adv-x="202" 
d="M44 0v116h114v-116l-86 -144l-26 11l37 133h-39z" />
    <glyph glyph-name="hyphen" unicode="-" horiz-adv-x="462" 
d="M44 270v82h374v-82h-374z" />
    <glyph glyph-name="period" unicode="." horiz-adv-x="202" 
d="M44 0v116h114v-116h-114z" />
    <glyph glyph-name="slash" unicode="/" horiz-adv-x="518" 
d="M6 -30l400 760h106l-400 -760h-106z" />
    <glyph glyph-name="zero" unicode="0" horiz-adv-x="720" 
d="M670 350q0 -163 -86.5 -263.5t-223.5 -100.5t-223.5 100.5t-86.5 263.5t86.5 263.5t223.5 100.5t223.5 -100.5t86.5 -263.5zM360 84q90 0 146 71.5t56 194.5t-56 194.5t-146 71.5t-146 -71.5t-56 -194.5t56 -194.5t146 -71.5z" />
    <glyph glyph-name="one" unicode="1" horiz-adv-x="381" 
d="M51 516v96q60 0 94.5 21t58.5 67h100v-700h-108v563q-48 -47 -145 -47z" />
    <glyph glyph-name="two" unicode="2" horiz-adv-x="586" 
d="M52 77l269 262q49 48 69 85t20 80q0 53 -34 84.5t-91 31.5q-55 0 -90.5 -32.5t-35.5 -87.5q0 -24 8 -45l-100 -18q-12 31 -12 73q0 82 64.5 143t166.5 61q106 0 167 -55t61 -141q0 -67 -27 -122t-95 -122l-178 -176h302v-98h-464v77z" />
    <glyph glyph-name="three" unicode="3" horiz-adv-x="597" 
d="M66 253l101 -24q-4 -18 -4 -32q0 -50 39 -83.5t98 -33.5q64 0 101 33t37 94q0 65 -51.5 96t-136.5 31v82q80 0 119 31.5t39 82.5q0 43 -31.5 68.5t-83.5 25.5q-48 0 -81 -27t-33 -72q0 -16 5 -29l-98 -19q-9 25 -9 51q0 78 60 132t157 54q103 0 160.5 -48t57.5 -123
q0 -52 -29.5 -96t-78.5 -62q63 -18 102.5 -63t39.5 -113q0 -102 -69.5 -162.5t-176.5 -60.5q-112 0 -178.5 61.5t-66.5 146.5q0 34 11 59z" />
    <glyph glyph-name="four" unicode="4" horiz-adv-x="603" 
d="M45 128v98l343 474h108v-474h75v-98h-75v-128h-108v128h-343zM388 545l-230 -319h230v319z" />
    <glyph glyph-name="five" unicode="5" horiz-adv-x="605" 
d="M59 321l33 379h418v-98h-337l-19 -197q29 35 73.5 54t89.5 19q113 0 175.5 -66t62.5 -175t-71.5 -180t-187.5 -71q-109 0 -174.5 56.5t-65.5 137.5q0 26 9 53l99 -23q-4 -16 -4 -31q0 -48 38 -73.5t98 -25.5q68 0 109.5 42t41.5 115t-40.5 114t-107.5 41q-47 0 -89 -26.5
t-67 -67.5z" />
    <glyph glyph-name="six" unicode="6" horiz-adv-x="614" 
d="M530 490l-100 20q7 18 7 36q0 36 -30 58t-78 22q-74 0 -120.5 -72.5t-53.5 -184.5q31 41 79 65t101 24q101 0 167 -65.5t66 -167.5q0 -101 -72.5 -170t-181.5 -69q-121 0 -192.5 85.5t-71.5 237.5q0 130 41 230q34 83 96.5 129t141.5 46q97 0 153.5 -47t56.5 -124
q0 -27 -9 -53zM314 366q-60 0 -103.5 -39.5t-43.5 -104.5t43.5 -104.5t103.5 -39.5t104 39.5t44 104.5t-44 104.5t-104 39.5z" />
    <glyph glyph-name="seven" unicode="7" horiz-adv-x="543" 
d="M502 608l-272 -608h-106l269 602h-353v98h462v-92z" />
    <glyph glyph-name="eight" unicode="8" horiz-adv-x="586" 
d="M293 -14q-108 0 -175 57.5t-67 150.5q0 62 31.5 108.5t85.5 72.5q-45 24 -70.5 65.5t-25.5 92.5q0 80 63 130.5t158 50.5t158 -50.5t63 -130.5q0 -51 -25.5 -92.5t-70.5 -65.5q54 -26 85.5 -72.5t31.5 -108.5q0 -93 -67 -150.5t-175 -57.5zM293 74q59 0 98.5 36t39.5 91
t-40 91t-98 36t-98 -36t-40 -91t39.5 -91t98.5 -36zM174 524q0 -49 34.5 -79.5t84.5 -30.5t84.5 30.5t34.5 79.5t-35.5 79.5t-83.5 30.5t-83.5 -30.5t-35.5 -79.5z" />
    <glyph glyph-name="nine" unicode="9" horiz-adv-x="619" 
d="M87 208l102 -20q-7 -18 -7 -36q0 -36 31 -57t83 -21q77 0 122 67.5t46 188.5q-22 -38 -69 -63t-101 -25q-104 0 -171.5 65.5t-67.5 167.5q0 101 70.5 170t180.5 69q124 0 193 -83t69 -234q0 -143 -40 -246q-31 -80 -92 -122.5t-144 -42.5q-96 0 -155 47.5t-59 121.5
q0 28 9 53zM306 334q60 0 103.5 39.5t43.5 104.5t-43.5 104.5t-103.5 39.5t-102.5 -39t-42.5 -105t42.5 -105t102.5 -39z" />
    <glyph glyph-name="colon" unicode=":" horiz-adv-x="202" 
d="M44 364v116h114v-116h-114zM44 0v116h114v-116h-114z" />
    <glyph glyph-name="semicolon" unicode=";" horiz-adv-x="202" 
d="M44 364v116h114v-116h-114zM44 0v116h114v-116l-86 -144l-26 11l37 133h-39z" />
    <glyph glyph-name="less" unicode="&#x3c;" horiz-adv-x="521" 
d="M44 267v86l423 208v-102l-315 -149l315 -149v-102z" />
    <glyph glyph-name="equal" unicode="=" horiz-adv-x="541" 
d="M44 209v82h453v-82h-453zM44 404v82h453v-82h-453z" />
    <glyph glyph-name="greater" unicode="&#x3e;" horiz-adv-x="521" 
d="M477 353v-86l-423 -208v102l315 149l-315 149v102z" />
    <glyph glyph-name="question" unicode="?" horiz-adv-x="543" 
d="M315 202h-106v17q0 42 20 77t69 75q53 44 73 75.5t20 74.5q0 45 -33.5 72t-87.5 27q-52 0 -87 -29t-35 -81q0 -20 5 -42l-95 -19q-12 28 -12 69q0 79 62.5 137.5t160.5 58.5q104 0 164 -52t60 -135q0 -62 -27 -107t-100 -107q-29 -24 -40 -49t-11 -62zM206 0v119h112
v-119h-112z" />
    <glyph glyph-name="at" unicode="@" horiz-adv-x="954" 
d="M647 -21l43 -69q-53 -33 -106 -47.5t-131 -14.5q-77 0 -147 25t-128.5 74t-93 132t-34.5 190q0 187 127 316t322 129q80 0 150.5 -23t127 -67t89.5 -117t33 -166q0 -135 -72 -224.5t-173 -89.5q-41 0 -67 21.5t-26 56.5q0 11 1 16l1 6q-22 -45 -63.5 -72.5t-91.5 -27.5
q-77 0 -126.5 57.5t-49.5 153.5q0 72 23 131t59.5 95.5t79.5 56t86 19.5q95 0 125 -71l9 55h84l-55 -369q-1 -8 -1 -18q0 -35 31 -35q52 0 94.5 62.5t42.5 173.5q0 135 -82.5 216.5t-237.5 81.5q-145 0 -248 -105.5t-103 -264.5q0 -161 93 -250.5t229 -89.5q108 0 186 53z
M420 103q68 0 117 70t49 171q0 59 -24.5 89.5t-69.5 30.5q-65 0 -117.5 -64t-52.5 -163q0 -68 27 -101t71 -33z" />
    <glyph glyph-name="A" unicode="A" 
d="M6 0l280 700h108l280 -700h-114l-75 195h-290l-75 -195h-114zM340 577q-10 -31 -24 -67l-85 -221h218l-85 221z" />
    <glyph glyph-name="B" unicode="B" horiz-adv-x="653" 
d="M81 0v700h272q103 0 162.5 -46t59.5 -124q0 -54 -30.5 -92.5t-77.5 -58.5q137 -52 137 -171q0 -94 -71.5 -151t-175.5 -57h-276zM189 324v-230h157q71 0 109.5 29t38.5 86t-38.5 86t-109.5 29h-157zM189 606v-188h156q126 0 126 94t-126 94h-156z" />
    <glyph glyph-name="C" unicode="C" horiz-adv-x="757" 
d="M621 229l83 -59q-58 -94 -128 -139t-178 -45q-150 0 -248.5 102t-98.5 262q0 158 102 261t250 103q104 0 183 -49.5t116 -131.5l-86 -62q-75 145 -215 145q-100 0 -170 -76t-70 -190t68 -190t171 -76q144 0 221 145z" />
    <glyph glyph-name="D" unicode="D" horiz-adv-x="703" 
d="M81 0v700h202q165 0 267 -91.5t102 -258.5t-102 -258.5t-267 -91.5h-202zM285 98q118 0 187.5 64t69.5 188t-69.5 188t-187.5 64h-96v-504h96z" />
    <glyph glyph-name="E" unicode="E" horiz-adv-x="606" 
d="M81 0v700h460v-96h-352v-194h324v-96h-324v-218h355v-96h-463z" />
    <glyph glyph-name="F" unicode="F" horiz-adv-x="608" 
d="M81 0v700h472v-96h-364v-214h334v-96h-334v-294h-108z" />
    <glyph glyph-name="G" unicode="G" horiz-adv-x="773" 
d="M636 0l-26 108q-74 -122 -218 -122q-148 0 -244.5 103t-96.5 261q0 156 103 260t250 104q99 0 179 -46.5t119 -124.5l-82 -57q-75 132 -218 132q-101 0 -171 -74.5t-70 -193.5t64.5 -192.5t168.5 -73.5q91 0 142.5 51.5t63.5 138.5h-236v89h344v-363h-72z" />
    <glyph glyph-name="H" unicode="H" horiz-adv-x="704" 
d="M81 0v700h108v-294h326v294h108v-700h-108v308h-326v-308h-108z" />
    <glyph glyph-name="I" unicode="I" horiz-adv-x="270" 
d="M81 0v700h108v-700h-108z" />
    <glyph glyph-name="J" unicode="J" horiz-adv-x="545" 
d="M484 700v-496q0 -98 -59 -158t-159 -60q-96 0 -157.5 53t-61.5 168l108 -11q4 -112 114 -112q50 0 78.5 31.5t28.5 88.5v496h108z" />
    <glyph glyph-name="K" unicode="K" horiz-adv-x="640" 
d="M81 0v700h108v-294l48 53l226 241h138l-246 -260l264 -440h-126l-216 360l-88 -92v-268h-108z" />
    <glyph glyph-name="L" unicode="L" horiz-adv-x="586" 
d="M81 0v700h108v-604h351v-96h-459z" />
    <glyph glyph-name="M" unicode="M" horiz-adv-x="866" 
d="M81 0v700h115l237 -593l237 593h115v-700h-104v485l-36 -99l-160 -386h-104l-160 386q-30 81 -36 99v-485h-104z" />
    <glyph glyph-name="N" unicode="N" horiz-adv-x="720" 
d="M81 0v700h110l314 -488q24 -38 30 -53v541h104v-700h-110l-314 488q-24 38 -30 53v-541h-104z" />
    <glyph glyph-name="O" unicode="O" horiz-adv-x="800" 
d="M749 350q0 -158 -100 -261t-249 -103t-249 103t-100 261t100 261t249 103t249 -103t100 -261zM400 84q104 0 171.5 73.5t67.5 192.5t-67.5 192.5t-171.5 73.5t-171.5 -73.5t-67.5 -192.5t67.5 -192.5t171.5 -73.5z" />
    <glyph glyph-name="P" unicode="P" horiz-adv-x="689" 
d="M81 0v700h306q116 0 184 -59.5t68 -163.5t-68 -163.5t-184 -59.5h-198v-254h-108zM189 604v-254h194q72 0 110 34t38 93t-38 93t-110 34h-194z" />
    <glyph glyph-name="Q" unicode="Q" horiz-adv-x="800" 
d="M749 350q0 -119 -59 -209t-157 -130q29 -48 83 -97l-79 -69q-67 67 -110 142q-16 -1 -27 -1q-149 0 -249 103t-100 261t100 261t249 103t249 -103t100 -261zM400 84q104 0 171.5 73.5t67.5 192.5t-67.5 192.5t-171.5 73.5t-171.5 -73.5t-67.5 -192.5t67.5 -192.5
t171.5 -73.5z" />
    <glyph glyph-name="R" unicode="R" horiz-adv-x="656" 
d="M490 0l-163 295h-138v-295h-108v700h289q109 0 173 -55t64 -143q0 -74 -44 -125.5t-122 -72.5l174 -304h-125zM189 606v-217h174q136 0 136 108q0 109 -136 109h-174z" />
    <glyph glyph-name="S" unicode="S" horiz-adv-x="651" 
d="M183 529q0 -46 44.5 -75.5t138.5 -47.5q115 -22 170.5 -72t55.5 -137q0 -88 -70.5 -149.5t-185.5 -61.5q-120 0 -194.5 61.5t-92.5 159.5l95 49q31 -176 191 -176q68 0 108.5 32.5t40.5 80.5q0 53 -42 81.5t-136 46.5q-104 20 -164.5 71t-60.5 135q0 83 67 135t173 52
q95 0 162.5 -45.5t96.5 -128.5l-86 -50q-43 130 -174 130q-59 0 -98 -24t-39 -67z" />
    <glyph glyph-name="T" unicode="T" horiz-adv-x="576" 
d="M18 602v98h540v-98h-216v-602h-108v602h-216z" />
    <glyph glyph-name="U" unicode="U" horiz-adv-x="686" 
d="M616 700v-451q0 -124 -75.5 -193.5t-197.5 -69.5t-197.5 69.5t-75.5 193.5v451h108v-448q0 -75 44 -121.5t121 -46.5t121 46.5t44 121.5v448h108z" />
    <glyph glyph-name="V" unicode="V" horiz-adv-x="634" 
d="M261 0l-259 700h114l175 -489q15 -52 26 -89l26 89l175 489h114l-259 -700h-112z" />
    <glyph glyph-name="W" unicode="W" horiz-adv-x="916" 
d="M911 700l-193 -700h-117l-143 552l-143 -552h-117l-193 700h113l124 -485q12 -48 17 -73l17 74l125 484h114l125 -484q12 -49 17 -74l17 73l124 485h113z" />
    <glyph glyph-name="X" unicode="X" horiz-adv-x="597" 
d="M156 700l142 -239l148 239h115l-201 -319l233 -381h-118l-177 290l-175 -290h-120l235 376l-201 324h119z" />
    <glyph glyph-name="Y" unicode="Y" horiz-adv-x="578" 
d="M235 0v281l-231 419h119l144 -273q13 -23 22 -47l22 47l144 273h119l-231 -419v-281h-108z" />
    <glyph glyph-name="Z" unicode="Z" horiz-adv-x="607" 
d="M53 602v98h495v-98l-383 -504h401v-98h-527v96l386 506h-372z" />
    <glyph glyph-name="bracketleft" unicode="[" horiz-adv-x="336" 
d="M81 -150v850h205v-94h-103v-662h103v-94h-205z" />
    <glyph glyph-name="backslash" unicode="\" horiz-adv-x="518" 
d="M112 730l400 -760h-106l-400 760h106z" />
    <glyph glyph-name="bracketright" unicode="]" horiz-adv-x="336" 
d="M255 700v-850h-205v94h103v662h-103v94h205z" />
    <glyph glyph-name="asciicircum" unicode="^" horiz-adv-x="478" 
d="M190 700h98l170 -262h-99l-120 183l-120 -183h-99z" />
    <glyph glyph-name="underscore" unicode="_" horiz-adv-x="475" 
d="M8 -89v82h459v-82h-459z" />
    <glyph glyph-name="grave" unicode="`" horiz-adv-x="313" 
d="M189 703l66 -148h-85l-112 148h131z" />
    <glyph glyph-name="a" unicode="a" horiz-adv-x="555" 
d="M512 0h-102q-26 30 -28 87q-49 -101 -165 -101q-75 0 -122 42.5t-47 110.5q0 70 48.5 110.5t126.5 52.5l157 25v21q0 86 -104 86q-50 0 -76.5 -18.5t-26.5 -46.5q0 -7 2 -15l-91 -31q-8 19 -8 40q0 60 55 103.5t145 43.5q101 0 153.5 -43.5t52.5 -124.5v-218
q0 -74 30 -124zM233 71q66 0 106.5 47.5t40.5 119.5v14l-134 -23q-96 -17 -96 -84q0 -34 22.5 -54t60.5 -20z" />
    <glyph glyph-name="b" unicode="b" horiz-adv-x="616" 
d="M70 0v700h102v-279q27 41 73.5 65t99.5 24q100 0 166 -72.5t66 -189.5t-68 -189.5t-169 -72.5q-57 0 -101 25t-67 62v-73h-102zM319 80q65 0 109.5 47t44.5 121t-44.5 121t-109.5 47t-109.5 -47t-44.5 -121t44.5 -121t109.5 -47z" />
    <glyph glyph-name="c" unicode="c" horiz-adv-x="559" 
d="M445 180l79 -51q-72 -143 -228 -143q-109 0 -183 73.5t-74 188.5q0 114 75 188t182 74q81 0 139 -35.5t85 -99.5l-81 -54q-47 95 -142 95q-65 0 -109.5 -46t-44.5 -122q0 -77 43 -122.5t111 -45.5q53 0 87 25t61 75z" />
    <glyph glyph-name="d" unicode="d" horiz-adv-x="616" 
d="M546 700v-700h-102v80q-54 -94 -164 -94q-104 0 -172.5 72.5t-68.5 189.5q0 115 71.5 188.5t167.5 73.5q119 0 166 -89v279h102zM297 80q65 0 109.5 47t44.5 121t-44.5 121t-109.5 47t-109.5 -47t-44.5 -121t44.5 -121t109.5 -47z" />
    <glyph glyph-name="e" unicode="e" horiz-adv-x="575" 
d="M534 226h-393q3 -67 44.5 -109t106.5 -42q56 0 89.5 26.5t58.5 76.5l79 -47q-70 -145 -230 -145q-104 0 -177 74t-73 188t73.5 188t181.5 74q107 0 173.5 -69.5t66.5 -178.5v-36zM292 428q-55 0 -95.5 -34.5t-55.5 -89.5h296q-6 58 -48 91t-97 33z" />
    <glyph glyph-name="f" unicode="f" horiz-adv-x="330" 
d="M21 414v82h75v87q0 78 44.5 122.5t120.5 44.5q29 0 56 -9l-18 -88q-15 5 -34 5q-31 0 -49 -20t-18 -57v-85h112v-82h-112v-414h-102v414h-75z" />
    <glyph glyph-name="g" unicode="g" horiz-adv-x="593" 
d="M74 -6l99 -28q-8 -16 -8 -36q0 -28 34 -46t90 -18q140 0 140 150v78q-20 -38 -59.5 -62t-91.5 -24q-100 0 -169.5 70t-69.5 181q0 112 69 181.5t167 69.5q50 0 91 -22.5t63 -59.5v68h102v-466q0 -118 -64.5 -183t-177.5 -65q-107 0 -167.5 42.5t-60.5 113.5q0 32 13 56z
M288 419q-64 0 -105.5 -43t-41.5 -117t41.5 -117t105.5 -43t105.5 43t41.5 117t-41.5 117t-105.5 43z" />
    <glyph glyph-name="h" unicode="h" horiz-adv-x="590" 
d="M520 335v-335h-102v304q0 53 -29.5 82.5t-80.5 29.5q-57 0 -96.5 -42.5t-39.5 -111.5v-262h-102v700h102v-287q28 45 73.5 71t98.5 26q76 0 126 -46.5t50 -128.5z" />
    <glyph glyph-name="i" unicode="i" horiz-adv-x="240" 
d="M69 0v496h102v-496h-102zM62 575v115h116v-115h-116z" />
    <glyph glyph-name="j" unicode="j" horiz-adv-x="240" 
d="M-39 -202l13 93q19 -8 42 -8q53 0 53 71v542h102v-541q0 -166 -149 -166q-28 0 -61 9zM62 575v115h116v-115h-116z" />
    <glyph glyph-name="k" unicode="k" horiz-adv-x="518" 
d="M172 700v-371l169 167h125l-175 -172l205 -324h-119l-159 252l-46 -46v-206h-102v700h102z" />
    <glyph glyph-name="l" unicode="l" horiz-adv-x="242" 
d="M70 0v700h102v-700h-102z" />
    <glyph glyph-name="m" unicode="m" horiz-adv-x="835" 
d="M765 363v-363h-102v328q0 92 -86 92q-48 0 -78.5 -36.5t-30.5 -110.5v-273h-102v325q0 43 -21.5 69t-60.5 26q-48 0 -80 -38t-32 -109v-273h-102v496h102v-71q23 39 62 62t84 23q104 0 136 -88q52 88 158 88q70 0 111.5 -40.5t41.5 -106.5z" />
    <glyph glyph-name="n" unicode="n" horiz-adv-x="584" 
d="M514 337v-337h-102v307q0 51 -29 80t-81 29q-55 0 -92.5 -42.5t-37.5 -111.5v-262h-102v496h102v-83q27 44 71.5 70.5t97.5 26.5q76 0 124.5 -46t48.5 -127z" />
    <glyph glyph-name="o" unicode="o" horiz-adv-x="608" 
d="M569 248q0 -122 -79.5 -192t-185.5 -70t-185.5 70t-79.5 192t79.5 192t185.5 70t185.5 -70t79.5 -192zM304 80q67 0 114 47t47 121t-47 121t-114 47t-114 -47t-47 -121t47 -121t114 -47z" />
    <glyph glyph-name="p" unicode="p" horiz-adv-x="616" 
d="M70 -204v700h102v-76q24 38 72 64t104 26q97 0 163 -71.5t66 -190.5q0 -118 -68 -190t-170 -72q-53 0 -98 22t-69 60v-272h-102zM319 416q-65 0 -109.5 -47t-44.5 -121t44.5 -121t109.5 -47t109.5 47t44.5 121t-44.5 121t-109.5 47z" />
    <glyph glyph-name="q" unicode="q" horiz-adv-x="616" 
d="M546 496v-700h-102v279q-23 -41 -65.5 -65t-99.5 -24q-99 0 -169.5 73t-70.5 189q0 118 71 190t170 72q57 0 101 -25.5t63 -64.5v76h102zM297 416q-65 0 -109.5 -47t-44.5 -121t44.5 -121t109.5 -47t109.5 47t44.5 121t-44.5 121t-109.5 47z" />
    <glyph glyph-name="r" unicode="r" horiz-adv-x="367" 
d="M352 505l-17 -97q-19 6 -39 6q-54 0 -89 -43.5t-35 -109.5v-261h-102v496h102v-84q46 98 143 98q15 0 37 -5z" />
    <glyph glyph-name="s" unicode="s" horiz-adv-x="496" 
d="M164 376q0 -30 31 -48.5t93 -30.5q85 -17 126 -53t41 -97q0 -69 -51.5 -115t-140.5 -46q-83 0 -138.5 41.5t-80.5 105.5l83 52q19 -51 54 -81.5t83 -30.5q40 0 67 19.5t27 51.5q0 30 -27.5 47.5t-89.5 29.5q-169 35 -169 150q0 64 52 101.5t125 37.5q77 0 124.5 -30.5
t74.5 -92.5l-75 -44q-35 89 -122 89q-37 0 -62 -15.5t-25 -40.5z" />
    <glyph glyph-name="t" unicode="t" horiz-adv-x="356" 
d="M27 414v82h80v134h102v-134h111v-82h-111v-263q0 -73 68 -73q17 0 37 6l9 -86q-33 -12 -74 -12q-63 0 -102.5 34t-39.5 113v281h-80z" />
    <glyph glyph-name="u" unicode="u" horiz-adv-x="584" 
d="M70 177v319h102v-298q0 -57 28.5 -87.5t81.5 -30.5q55 0 92.5 42t37.5 106v268h102v-496h-102v80q-51 -94 -161 -94q-78 0 -129.5 49t-51.5 142z" />
    <glyph glyph-name="v" unicode="v" horiz-adv-x="514" 
d="M506 496l-200 -496h-98l-200 496h110l139 -369l139 369h110z" />
    <glyph glyph-name="w" unicode="w" horiz-adv-x="700" 
d="M401 496l100 -364l90 364h102l-139 -496h-104l-100 368l-100 -368h-104l-139 496h102l90 -364l100 364h102z" />
    <glyph glyph-name="x" unicode="x" horiz-adv-x="466" 
d="M137 496l95 -151l96 151h120l-156 -229l173 -267h-119l-114 184l-115 -184h-118l179 264l-158 232h117z" />
    <glyph glyph-name="y" unicode="y" horiz-adv-x="520" 
d="M63 -200l16 93q24 -10 45 -10t34 10.5t26 42.5l23 61l-202 499h117l140 -358l139 358h113l-240 -596q-44 -111 -139 -111q-39 0 -72 11z" />
    <glyph glyph-name="z" unicode="z" horiz-adv-x="491" 
d="M156 86h295v-86h-411v86l279 324h-267v86h383v-86z" />
    <glyph glyph-name="braceleft" unicode="{" horiz-adv-x="382" 
d="M53 232v86q38 0 56.5 18.5t18.5 67.5v112q0 98 40.5 141t124.5 43h39v-94h-28q-74 0 -74 -84v-129q0 -52 -15 -77t-52 -41q37 -16 52 -41t15 -77v-129q0 -84 74 -84h28v-94h-39q-84 0 -124.5 43t-40.5 141v112q0 49 -18.5 67.5t-56.5 18.5z" />
    <glyph glyph-name="bar" unicode="|" horiz-adv-x="262" 
d="M81 -110v850h100v-850h-100z" />
    <glyph glyph-name="braceright" unicode="}" horiz-adv-x="382" 
d="M329 318v-86q-38 0 -56.5 -18.5t-18.5 -67.5v-112q0 -98 -40.5 -141t-124.5 -43h-39v94h28q74 0 74 84v129q0 52 15 77t52 41q-37 16 -52 41t-15 77v129q0 84 -74 84h-28v94h39q84 0 124.5 -43t40.5 -141v-112q0 -49 18.5 -67.5t56.5 -18.5z" />
    <glyph glyph-name="asciitilde" unicode="~" horiz-adv-x="453" 
d="M155 324q-12 0 -20 -7t-8 -18q0 -10 7 -24l-77 -15q-13 19 -13 47q0 45 29 71t71 26q32 0 57 -10t38 -22t29 -22t30 -10q12 0 20 7t8 18q0 10 -7 24l77 15q13 -19 13 -47q0 -45 -29 -71t-71 -26q-31 0 -56.5 10t-38.5 22t-28.5 22t-30.5 10z" />
    <glyph glyph-name="uni00A0" unicode="&#xa0;" horiz-adv-x="276" 
 />
    <glyph glyph-name="exclamdown" unicode="&#xa1;" horiz-adv-x="274" 
d="M191 29v-233h-108v233l13 269h82zM193 496v-119h-112v119h112z" />
    <glyph glyph-name="cent" unicode="&#xa2;" horiz-adv-x="570" 
d="M452 180l79 -51q-60 -121 -185 -139v-100h-86v99q-94 14 -154 85t-60 174q0 101 61 172t153 86v114h86v-113q65 -9 111.5 -43.5t69.5 -88.5l-81 -54q-37 73 -100 90v-327q64 16 106 96zM150 248q0 -64 30 -106.5t80 -56.5v325q-49 -14 -79.5 -56.5t-30.5 -105.5z" />
    <glyph glyph-name="sterling" unicode="&#xa3;" horiz-adv-x="571" 
d="M31 308v80h69q-18 60 -18 111q0 98 65.5 156.5t163.5 58.5q100 0 159 -50.5t59 -126.5q0 -36 -15 -69l-97 16q10 26 10 48q0 40 -32.5 66t-85.5 26q-56 0 -89.5 -33.5t-33.5 -91.5q0 -47 18 -111h191v-80h-173q6 -24 6 -61q0 -80 -48 -155h340v-92h-453v76q33 43 46 80.5
t13 86.5q0 37 -6 65h-89z" />
    <glyph glyph-name="currency" unicode="&#xa4;" horiz-adv-x="644" 
d="M544 350q0 -72 -35 -124l71 -72l-62 -62l-72 72q-57 -37 -124 -37t-124 37l-72 -72l-62 62l71 72q-35 52 -35 124t35 124l-71 72l62 62l72 -72q57 37 124 37t124 -37l72 72l62 -62l-71 -72q35 -52 35 -124zM322 209q59 0 96.5 39.5t37.5 101.5t-37.5 101.5t-96.5 39.5
t-96.5 -39.5t-37.5 -101.5t37.5 -101.5t96.5 -39.5z" />
    <glyph glyph-name="yen" unicode="&#xa5;" horiz-adv-x="580" 
d="M89 281v82h103l-177 337h119l134 -273q13 -26 22 -50l22 50l134 273h119l-178 -337h104v-82h-147v-70h147v-82h-147v-129h-108v129h-147v82h147v70h-147z" />
    <glyph glyph-name="brokenbar" unicode="&#xa6;" horiz-adv-x="262" 
d="M181 384h-100v356h100v-356zM81 246h100v-356h-100v356z" />
    <glyph glyph-name="section" unicode="&#xa7;" horiz-adv-x="523" 
d="M464 287q0 -58 -51 -102q47 -45 47 -111q0 -78 -56 -122.5t-138 -44.5q-76 0 -131.5 37.5t-82.5 98.5l74 53q45 -107 142 -107q41 0 70 21.5t29 57.5q0 79 -145 109q-163 34 -163 157q0 59 50 101q-46 44 -46 112q0 78 56 122.5t138 44.5q76 0 131.5 -37.5t82.5 -98.5
l-74 -53q-45 107 -142 107q-41 0 -70 -21.5t-29 -57.5q0 -79 145 -109q163 -34 163 -157zM246 370q-42 9 -73 24q-25 -22 -25 -49q0 -32 29.5 -54.5t99.5 -39.5q39 -10 73 -24q25 22 25 49q0 32 -29.5 54.5t-99.5 39.5z" />
    <glyph glyph-name="dieresis" unicode="&#xa8;" horiz-adv-x="402" 
d="M233 582v108h105v-108h-105zM64 582v108h105v-108h-105z" />
    <glyph glyph-name="copyright" unicode="&#xa9;" horiz-adv-x="838" 
d="M55 350q0 151 107 257.5t257 106.5t257 -106.5t107 -257.5t-107 -257.5t-257 -106.5t-257 106.5t-107 257.5zM129 350q0 -121 84.5 -206.5t205.5 -85.5t205.5 85.5t84.5 206.5t-84.5 206.5t-205.5 85.5t-205.5 -85.5t-84.5 -206.5zM537 297l61 -40q-56 -111 -177 -111
q-86 0 -143.5 57t-57.5 147q0 89 58.5 146.5t142.5 57.5q63 0 108 -28t66 -77l-63 -42q-36 74 -111 74q-51 0 -85.5 -35.5t-34.5 -95.5t34 -95.5t86 -35.5q42 0 68.5 19.5t47.5 58.5z" />
    <glyph glyph-name="ordfeminine" unicode="&#xaa;" horiz-adv-x="392" 
d="M372 300h-76q-18 22 -19 59q-34 -66 -114 -66q-50 0 -83.5 30.5t-33.5 76.5q0 48 36 77t92 38l102 16v10q0 61 -71 61q-33 0 -51.5 -12t-18.5 -31q0 -5 1 -10l-68 -24q-5 11 -5 27q0 42 39 73.5t104 31.5q145 0 145 -120v-149q0 -56 21 -88zM178 357q45 0 71.5 30.5
t26.5 78.5v10l-92 -15q-63 -10 -63 -56q0 -23 16 -35.5t41 -12.5z" />
    <glyph glyph-name="guillemotleft" unicode="&#xab;" horiz-adv-x="552" 
d="M402 481h117l-159 -206l159 -206h-117l-163 206zM207 481h117l-159 -206l159 -206h-117l-163 206z" />
    <glyph glyph-name="logicalnot" unicode="&#xac;" horiz-adv-x="542" 
d="M472 187h-98v137h-330v82h428v-219z" />
    <glyph glyph-name="registered" unicode="&#xae;" horiz-adv-x="838" 
d="M55 350q0 151 107 257.5t257 106.5t257 -106.5t107 -257.5t-107 -257.5t-257 -106.5t-257 106.5t-107 257.5zM492 151l-95 164h-46v-164h-74v398h166q61 0 96.5 -32.5t35.5 -82.5q0 -44 -25.5 -74t-71.5 -43l96 -166h-82zM351 486v-110h82q35 0 52.5 15.5t17.5 39.5
t-17.5 39.5t-52.5 15.5h-82zM129 350q0 -121 84.5 -206.5t205.5 -85.5t205.5 85.5t84.5 206.5t-84.5 206.5t-205.5 85.5t-205.5 -85.5t-84.5 -206.5z" />
    <glyph glyph-name="macron" unicode="&#xaf;" horiz-adv-x="322" 
d="M44 594v82h234v-82h-234z" />
    <glyph glyph-name="degree" unicode="&#xb0;" horiz-adv-x="358" 
d="M41 577q0 57 39.5 97t98.5 40t98.5 -40t39.5 -97t-39.5 -97t-98.5 -40t-98.5 40t-39.5 97zM112 577q0 -30 18.5 -49t48.5 -19t48.5 19t18.5 49t-18.5 49t-48.5 19t-48.5 -19t-18.5 -49z" />
    <glyph glyph-name="plusminus" unicode="&#xb1;" horiz-adv-x="535" 
d="M44 354v82h182v182h82v-182h183v-82h-183v-183h-82v183h-182zM44 0v82h447v-82h-447z" />
    <glyph glyph-name="twosuperior" unicode="&#xb2;" horiz-adv-x="340" 
d="M58 397l130 127q40 39 40 77q0 20 -13.5 33t-37.5 13q-22 0 -37 -13.5t-15 -36.5q0 -14 4 -23l-66 -9q-6 15 -6 37q0 41 33.5 73t86.5 32q57 0 89.5 -28t32.5 -75q0 -58 -64 -122l-72 -71h139v-61h-244v47z" />
    <glyph glyph-name="threesuperior" unicode="&#xb3;" horiz-adv-x="347" 
d="M54 480l68 -14q-3 -9 -3 -19q0 -20 16.5 -31.5t41.5 -11.5q26 0 42 13.5t16 38.5q0 54 -88 54v53q73 0 73 48q0 18 -13.5 28.5t-34.5 10.5t-35.5 -11t-14.5 -30q0 -6 2 -16l-61 -9q-5 14 -5 31q0 38 31.5 65t82.5 27q55 0 86 -24t31 -62q0 -47 -48 -77q29 -10 47 -33
t18 -57q0 -50 -36 -80.5t-94 -30.5q-57 0 -92.5 30t-35.5 73q0 20 6 34z" />
    <glyph glyph-name="acute" unicode="&#xb4;" horiz-adv-x="313" 
d="M58 555l66 148h131l-112 -148h-85z" />
    <glyph glyph-name="mu" unicode="&#xb5;" horiz-adv-x="584" 
d="M70 -204v700h102v-298q0 -57 28.5 -87.5t81.5 -30.5q55 0 92.5 42t37.5 106v268h102v-496h-102v80q-23 -43 -65.5 -68.5t-95.5 -25.5q-47 0 -82 19q3 -33 3 -71v-138h-102z" />
    <glyph glyph-name="paragraph" unicode="&#xb6;" horiz-adv-x="638" 
d="M374 612v-732h-98v430h-19q-95 0 -155.5 53t-60.5 142t60.5 142t155.5 53h347v-88h-58v-732h-98v732h-74z" />
    <glyph glyph-name="periodcentered" unicode="&#xb7;" horiz-adv-x="202" 
d="M44 300v116h114v-116h-114z" />
    <glyph glyph-name="cedilla" unicode="&#xb8;" horiz-adv-x="300" 
d="M100 -108l-34 31l33 93h62l-38 -69q17 9 41 9q33 0 55 -21.5t22 -55.5q0 -39 -27 -61t-66 -22q-34 0 -58 16t-31 44l57 15q7 -24 33 -24q13 0 21 8.5t8 22.5q0 32 -33 32q-25 0 -45 -18z" />
    <glyph glyph-name="onesuperior" unicode="&#xb9;" horiz-adv-x="253" 
d="M42 592v65q59 0 79 43h68v-350h-72v262q-25 -20 -75 -20z" />
    <glyph glyph-name="ordmasculine" unicode="&#xba;" horiz-adv-x="458" 
d="M413 475q0 -84 -55 -133t-129 -49t-129 49t-55 133t55 133t129 49t129 -49t55 -133zM229 365q44 0 74.5 31.5t30.5 78.5t-30.5 78.5t-74.5 31.5t-75 -31.5t-31 -78.5t31 -78.5t75 -31.5z" />
    <glyph glyph-name="guillemotright" unicode="&#xbb;" horiz-adv-x="552" 
d="M33 481h117l163 -206l-163 -206h-117l159 206zM228 481h117l163 -206l-163 -206h-117l159 206z" />
    <glyph glyph-name="onequarter" unicode="&#xbc;" horiz-adv-x="738" 
d="M410 62v59l164 229h73v-229h37v-59h-37v-62h-73v62h-164zM574 251l-94 -130h94v130zM42 592v65q59 0 79 43h68v-350h-72v262q-25 -20 -75 -20zM179 -3l-62 42l435 665l62 -42z" />
    <glyph glyph-name="onehalf" unicode="&#xbd;" horiz-adv-x="765" 
d="M42 592v65q59 0 79 43h68v-350h-72v262q-25 -20 -75 -20zM179 -3l-62 42l435 665l62 -42zM470 47l130 127q40 39 40 77q0 20 -13.5 33t-37.5 13q-22 0 -37 -13.5t-15 -36.5q0 -14 4 -23l-66 -9q-6 15 -6 37q0 41 33.5 73t86.5 32q57 0 89.5 -28t32.5 -75q0 -58 -64 -122
l-72 -71h139v-61h-244v47z" />
    <glyph glyph-name="threequarters" unicode="&#xbe;" horiz-adv-x="807" 
d="M479 62v59l164 229h73v-229h37v-59h-37v-62h-73v62h-164zM643 251l-94 -130h94v130zM238 -3l-62 42l435 665l62 -42zM54 480l68 -14q-3 -9 -3 -19q0 -20 16.5 -31.5t41.5 -11.5q26 0 42 13.5t16 38.5q0 54 -88 54v53q73 0 73 48q0 18 -13.5 28.5t-34.5 10.5t-35.5 -11
t-14.5 -30q0 -6 2 -16l-61 -9q-5 14 -5 31q0 38 31.5 65t82.5 27q55 0 86 -24t31 -62q0 -47 -48 -77q29 -10 47 -33t18 -57q0 -50 -36 -80.5t-94 -30.5q-57 0 -92.5 30t-35.5 73q0 20 6 34z" />
    <glyph glyph-name="questiondown" unicode="&#xbf;" horiz-adv-x="543" 
d="M228 294h106v-17q0 -42 -20 -77t-69 -75q-53 -44 -73 -75.5t-20 -74.5q0 -45 33.5 -72t87.5 -27q52 0 87 29t35 81q0 20 -5 42l95 19q12 -28 12 -69q0 -79 -62.5 -137.5t-160.5 -58.5q-104 0 -164 52t-60 135q0 62 27 107t100 107q29 24 40 49t11 62zM337 496v-119h-112
v119h112z" />
    <glyph glyph-name="Agrave" unicode="&#xc0;" 
d="M6 0l280 700h108l280 -700h-114l-75 195h-290l-75 -195h-114zM340 577q-10 -31 -24 -67l-85 -221h218l-85 221zM314 907l66 -148h-85l-112 148h131z" />
    <glyph glyph-name="Aacute" unicode="&#xc1;" 
d="M6 0l280 700h108l280 -700h-114l-75 195h-290l-75 -195h-114zM340 577q-10 -31 -24 -67l-85 -221h218l-85 221zM301 759l66 148h131l-112 -148h-85z" />
    <glyph glyph-name="Acircumflex" unicode="&#xc2;" 
d="M6 0l280 700h108l280 -700h-114l-75 195h-290l-75 -195h-114zM340 577q-10 -31 -24 -67l-85 -221h218l-85 221zM196 759l104 148h80l105 -148h-82l-63 65l-63 -65h-81z" />
    <glyph glyph-name="Atilde" unicode="&#xc3;" 
d="M6 0l280 700h108l280 -700h-114l-75 195h-290l-75 -195h-114zM340 577q-10 -31 -24 -67l-85 -221h218l-85 221zM266 826q-25 0 -25 -24q0 -12 7 -26l-67 -14q-13 22 -13 51q0 39 27.5 62t65.5 23q32 0 56.5 -10.5t37 -22.5t28 -22.5t31.5 -10.5q25 0 25 24q0 12 -7 26
l67 14q13 -22 13 -51q0 -39 -27.5 -62t-65.5 -23q-32 0 -56.5 10.5t-37 22.5t-28 22.5t-31.5 10.5z" />
    <glyph glyph-name="Adieresis" unicode="&#xc4;" 
d="M6 0l280 700h108l280 -700h-114l-75 195h-290l-75 -195h-114zM340 577q-10 -31 -24 -67l-85 -221h218l-85 221zM372 786v108h105v-108h-105zM203 786v108h105v-108h-105z" />
    <glyph glyph-name="Aring" unicode="&#xc5;" 
d="M6 0l280 700h108l280 -700h-114l-75 195h-290l-75 -195h-114zM340 577q-10 -31 -24 -67l-85 -221h218l-85 221zM244 839q0 40 28 67.5t68 27.5t68 -27.5t28 -67.5t-28 -67.5t-68 -27.5t-68 27.5t-28 67.5zM301 839q0 -17 11 -28.5t28 -11.5t28 11.5t11 28.5t-11 28.5
t-28 11.5t-28 -11.5t-11 -28.5z" />
    <glyph glyph-name="AE" unicode="&#xc6;" horiz-adv-x="959" 
d="M434 0v195h-230l-85 -195h-113l314 700h574v-96h-352v-194h324v-96h-324v-218h355v-96h-463zM384 604l-138 -315h188v315h-50z" />
    <glyph glyph-name="Ccedilla" unicode="&#xc7;" horiz-adv-x="757" 
d="M353 -108l-34 31l24 67q-130 19 -211 117.5t-81 242.5q0 158 102 261t250 103q104 0 183 -49.5t116 -131.5l-86 -62q-75 145 -215 145q-100 0 -170 -76t-70 -190t68 -190t171 -76q144 0 221 145l83 -59q-58 -94 -128 -139t-178 -45l-22 -39q16 9 41 9q33 0 55 -21.5
t22 -55.5q0 -39 -27 -61t-66 -22q-34 0 -58 16t-31 44l57 15q7 -24 33 -24q13 0 21 8.5t8 22.5q0 32 -33 32q-25 0 -45 -18z" />
    <glyph glyph-name="Egrave" unicode="&#xc8;" horiz-adv-x="606" 
d="M81 0v700h460v-96h-352v-194h324v-96h-324v-218h355v-96h-463zM322 907l66 -148h-85l-112 148h131z" />
    <glyph glyph-name="Eacute" unicode="&#xc9;" horiz-adv-x="606" 
d="M81 0v700h460v-96h-352v-194h324v-96h-324v-218h355v-96h-463zM244 759l66 148h131l-112 -148h-85z" />
    <glyph glyph-name="Ecircumflex" unicode="&#xca;" horiz-adv-x="606" 
d="M81 0v700h460v-96h-352v-194h324v-96h-324v-218h355v-96h-463zM171 759l104 148h80l105 -148h-82l-63 65l-63 -65h-81z" />
    <glyph glyph-name="Edieresis" unicode="&#xcb;" horiz-adv-x="606" 
d="M81 0v700h460v-96h-352v-194h324v-96h-324v-218h355v-96h-463zM347 786v108h105v-108h-105zM178 786v108h105v-108h-105z" />
    <glyph glyph-name="Igrave" unicode="&#xcc;" horiz-adv-x="270" 
d="M81 0v700h108v-700h-108zM123 907l66 -148h-85l-112 148h131z" />
    <glyph glyph-name="Iacute" unicode="&#xcd;" horiz-adv-x="270" 
d="M81 0v700h108v-700h-108zM81 759l66 148h131l-112 -148h-85z" />
    <glyph glyph-name="Icircumflex" unicode="&#xce;" horiz-adv-x="270" 
d="M81 0v700h108v-700h-108zM-9 759l104 148h80l105 -148h-82l-63 65l-63 -65h-81z" />
    <glyph glyph-name="Idieresis" unicode="&#xcf;" horiz-adv-x="270" 
d="M81 0v700h108v-700h-108zM167 786v108h105v-108h-105zM-2 786v108h105v-108h-105z" />
    <glyph glyph-name="Eth" unicode="&#xd0;" horiz-adv-x="736" 
d="M37 305v90h77v305h202q165 0 267 -91.5t102 -258.5t-102 -258.5t-267 -91.5h-202v305h-77zM318 98q118 0 187.5 64t69.5 188t-69.5 188t-187.5 64h-96v-207h154v-90h-154v-207h96z" />
    <glyph glyph-name="Ntilde" unicode="&#xd1;" horiz-adv-x="720" 
d="M81 0v700h110l314 -488q24 -38 30 -53v541h104v-700h-110l-314 488q-24 38 -30 53v-541h-104zM286 826q-25 0 -25 -24q0 -12 7 -26l-67 -14q-13 22 -13 51q0 39 27.5 62t65.5 23q32 0 56.5 -10.5t37 -22.5t28 -22.5t31.5 -10.5q25 0 25 24q0 12 -7 26l67 14
q13 -22 13 -51q0 -39 -27.5 -62t-65.5 -23q-32 0 -56.5 10.5t-37 22.5t-28 22.5t-31.5 10.5z" />
    <glyph glyph-name="Ograve" unicode="&#xd2;" horiz-adv-x="800" 
d="M749 350q0 -158 -100 -261t-249 -103t-249 103t-100 261t100 261t249 103t249 -103t100 -261zM400 84q104 0 171.5 73.5t67.5 192.5t-67.5 192.5t-171.5 73.5t-171.5 -73.5t-67.5 -192.5t67.5 -192.5t171.5 -73.5zM403 907l66 -148h-85l-112 148h131z" />
    <glyph glyph-name="Oacute" unicode="&#xd3;" horiz-adv-x="800" 
d="M749 350q0 -158 -100 -261t-249 -103t-249 103t-100 261t100 261t249 103t249 -103t100 -261zM400 84q104 0 171.5 73.5t67.5 192.5t-67.5 192.5t-171.5 73.5t-171.5 -73.5t-67.5 -192.5t67.5 -192.5t171.5 -73.5zM332 759l66 148h131l-112 -148h-85z" />
    <glyph glyph-name="Ocircumflex" unicode="&#xd4;" horiz-adv-x="800" 
d="M749 350q0 -158 -100 -261t-249 -103t-249 103t-100 261t100 261t249 103t249 -103t100 -261zM400 84q104 0 171.5 73.5t67.5 192.5t-67.5 192.5t-171.5 73.5t-171.5 -73.5t-67.5 -192.5t67.5 -192.5t171.5 -73.5zM256 759l104 148h80l105 -148h-82l-63 65l-63 -65h-81z
" />
    <glyph glyph-name="Otilde" unicode="&#xd5;" horiz-adv-x="800" 
d="M749 350q0 -158 -100 -261t-249 -103t-249 103t-100 261t100 261t249 103t249 -103t100 -261zM400 84q104 0 171.5 73.5t67.5 192.5t-67.5 192.5t-171.5 73.5t-171.5 -73.5t-67.5 -192.5t67.5 -192.5t171.5 -73.5zM326 826q-25 0 -25 -24q0 -12 7 -26l-67 -14
q-13 22 -13 51q0 39 27.5 62t65.5 23q32 0 56.5 -10.5t37 -22.5t28 -22.5t31.5 -10.5q25 0 25 24q0 12 -7 26l67 14q13 -22 13 -51q0 -39 -27.5 -62t-65.5 -23q-32 0 -56.5 10.5t-37 22.5t-28 22.5t-31.5 10.5z" />
    <glyph glyph-name="Odieresis" unicode="&#xd6;" horiz-adv-x="800" 
d="M749 350q0 -158 -100 -261t-249 -103t-249 103t-100 261t100 261t249 103t249 -103t100 -261zM400 84q104 0 171.5 73.5t67.5 192.5t-67.5 192.5t-171.5 73.5t-171.5 -73.5t-67.5 -192.5t67.5 -192.5t171.5 -73.5zM432 786v108h105v-108h-105zM263 786v108h105v-108h-105
z" />
    <glyph glyph-name="multiply" unicode="&#xd7;" horiz-adv-x="532" 
d="M137 178l-58 58l129 128l-129 129l58 58l129 -129l129 130l58 -58l-129 -130l129 -129l-58 -58l-129 130z" />
    <glyph glyph-name="Oslash" unicode="&#xd8;" horiz-adv-x="800" 
d="M749 350q0 -158 -100 -261t-249 -103q-66 0 -126 23l-30 -57l-81 45l29 56q-66 49 -103.5 126t-37.5 171q0 158 100 261t249 103q66 0 126 -23l30 57l81 -45l-29 -56q66 -49 103.5 -126t37.5 -171zM161 350q0 -130 80 -204l239 457q-36 13 -80 13q-104 0 -171.5 -73.5
t-67.5 -192.5zM400 84q104 0 171.5 73.5t67.5 192.5q0 130 -80 204l-239 -457q36 -13 80 -13z" />
    <glyph glyph-name="Ugrave" unicode="&#xd9;" horiz-adv-x="686" 
d="M616 700v-451q0 -124 -75.5 -193.5t-197.5 -69.5t-197.5 69.5t-75.5 193.5v451h108v-448q0 -75 44 -121.5t121 -46.5t121 46.5t44 121.5v448h108zM346 907l66 -148h-85l-112 148h131z" />
    <glyph glyph-name="Uacute" unicode="&#xda;" horiz-adv-x="686" 
d="M616 700v-451q0 -124 -75.5 -193.5t-197.5 -69.5t-197.5 69.5t-75.5 193.5v451h108v-448q0 -75 44 -121.5t121 -46.5t121 46.5t44 121.5v448h108zM275 759l66 148h131l-112 -148h-85z" />
    <glyph glyph-name="Ucircumflex" unicode="&#xdb;" horiz-adv-x="686" 
d="M616 700v-451q0 -124 -75.5 -193.5t-197.5 -69.5t-197.5 69.5t-75.5 193.5v451h108v-448q0 -75 44 -121.5t121 -46.5t121 46.5t44 121.5v448h108zM199 759l104 148h80l105 -148h-82l-63 65l-63 -65h-81z" />
    <glyph glyph-name="Udieresis" unicode="&#xdc;" horiz-adv-x="686" 
d="M616 700v-451q0 -124 -75.5 -193.5t-197.5 -69.5t-197.5 69.5t-75.5 193.5v451h108v-448q0 -75 44 -121.5t121 -46.5t121 46.5t44 121.5v448h108zM375 786v108h105v-108h-105zM206 786v108h105v-108h-105z" />
    <glyph glyph-name="Yacute" unicode="&#xdd;" horiz-adv-x="578" 
d="M235 0v281l-231 419h119l144 -273q13 -23 22 -47l22 47l144 273h119l-231 -419v-281h-108zM211 759l66 148h131l-112 -148h-85z" />
    <glyph glyph-name="Thorn" unicode="&#xde;" horiz-adv-x="689" 
d="M81 0v700h108v-127h198q116 0 184 -59.5t68 -163.5t-68 -163.5t-184 -59.5h-198v-127h-108zM189 477v-254h194q72 0 110 34t38 93t-38 93t-110 34h-194z" />
    <glyph glyph-name="germandbls" unicode="&#xdf;" horiz-adv-x="598" 
d="M248 339v86h29q58 0 93.5 29.5t35.5 80.5q0 41 -30 66t-74 25q-46 0 -78 -31.5t-32 -90.5v-504h-102v414h-67v82h67v14q0 98 62.5 151t149.5 53q90 0 146 -47.5t56 -118.5q0 -112 -111 -156q159 -52 159 -202q0 -89 -54 -146.5t-139 -57.5q-86 0 -147 48l47 82
q40 -40 92 -40q42 0 70.5 31.5t28.5 84.5q0 69 -51 108t-124 39h-27z" />
    <glyph glyph-name="agrave" unicode="&#xe0;" horiz-adv-x="555" 
d="M512 0h-102q-26 30 -28 87q-49 -101 -165 -101q-75 0 -122 42.5t-47 110.5q0 70 48.5 110.5t126.5 52.5l157 25v21q0 86 -104 86q-50 0 -76.5 -18.5t-26.5 -46.5q0 -7 2 -15l-91 -31q-8 19 -8 40q0 60 55 103.5t145 43.5q101 0 153.5 -43.5t52.5 -124.5v-218
q0 -74 30 -124zM233 71q66 0 106.5 47.5t40.5 119.5v14l-134 -23q-96 -17 -96 -84q0 -34 22.5 -54t60.5 -20zM270 704l66 -148h-85l-112 148h131z" />
    <glyph glyph-name="aacute" unicode="&#xe1;" horiz-adv-x="555" 
d="M512 0h-102q-26 30 -28 87q-49 -101 -165 -101q-75 0 -122 42.5t-47 110.5q0 70 48.5 110.5t126.5 52.5l157 25v21q0 86 -104 86q-50 0 -76.5 -18.5t-26.5 -46.5q0 -7 2 -15l-91 -31q-8 19 -8 40q0 60 55 103.5t145 43.5q101 0 153.5 -43.5t52.5 -124.5v-218
q0 -74 30 -124zM233 71q66 0 106.5 47.5t40.5 119.5v14l-134 -23q-96 -17 -96 -84q0 -34 22.5 -54t60.5 -20zM209 556l66 148h131l-112 -148h-85z" />
    <glyph glyph-name="acircumflex" unicode="&#xe2;" horiz-adv-x="555" 
d="M512 0h-102q-26 30 -28 87q-49 -101 -165 -101q-75 0 -122 42.5t-47 110.5q0 70 48.5 110.5t126.5 52.5l157 25v21q0 86 -104 86q-50 0 -76.5 -18.5t-26.5 -46.5q0 -7 2 -15l-91 -31q-8 19 -8 40q0 60 55 103.5t145 43.5q101 0 153.5 -43.5t52.5 -124.5v-218
q0 -74 30 -124zM233 71q66 0 106.5 47.5t40.5 119.5v14l-134 -23q-96 -17 -96 -84q0 -34 22.5 -54t60.5 -20zM133 555l104 148h80l105 -148h-82l-63 65l-63 -65h-81z" />
    <glyph glyph-name="atilde" unicode="&#xe3;" horiz-adv-x="555" 
d="M512 0h-102q-26 30 -28 87q-49 -101 -165 -101q-75 0 -122 42.5t-47 110.5q0 70 48.5 110.5t126.5 52.5l157 25v21q0 86 -104 86q-50 0 -76.5 -18.5t-26.5 -46.5q0 -7 2 -15l-91 -31q-8 19 -8 40q0 60 55 103.5t145 43.5q101 0 153.5 -43.5t52.5 -124.5v-218
q0 -74 30 -124zM233 71q66 0 106.5 47.5t40.5 119.5v14l-134 -23q-96 -17 -96 -84q0 -34 22.5 -54t60.5 -20zM197 622q-25 0 -25 -24q0 -12 7 -26l-67 -14q-13 22 -13 51q0 39 27.5 62t65.5 23q32 0 56.5 -10.5t37 -22.5t28 -22.5t31.5 -10.5q25 0 25 24q0 12 -7 26l67 14
q13 -22 13 -51q0 -39 -27.5 -62t-65.5 -23q-32 0 -56.5 10.5t-37 22.5t-28 22.5t-31.5 10.5z" />
    <glyph glyph-name="adieresis" unicode="&#xe4;" horiz-adv-x="555" 
d="M512 0h-102q-26 30 -28 87q-49 -101 -165 -101q-75 0 -122 42.5t-47 110.5q0 70 48.5 110.5t126.5 52.5l157 25v21q0 86 -104 86q-50 0 -76.5 -18.5t-26.5 -46.5q0 -7 2 -15l-91 -31q-8 19 -8 40q0 60 55 103.5t145 43.5q101 0 153.5 -43.5t52.5 -124.5v-218
q0 -74 30 -124zM233 71q66 0 106.5 47.5t40.5 119.5v14l-134 -23q-96 -17 -96 -84q0 -34 22.5 -54t60.5 -20zM309 582v108h105v-108h-105zM140 582v108h105v-108h-105z" />
    <glyph glyph-name="aring" unicode="&#xe5;" horiz-adv-x="555" 
d="M512 0h-102q-26 30 -28 87q-49 -101 -165 -101q-75 0 -122 42.5t-47 110.5q0 70 48.5 110.5t126.5 52.5l157 25v21q0 86 -104 86q-50 0 -76.5 -18.5t-26.5 -46.5q0 -7 2 -15l-91 -31q-8 19 -8 40q0 60 55 103.5t145 43.5q101 0 153.5 -43.5t52.5 -124.5v-218
q0 -74 30 -124zM233 71q66 0 106.5 47.5t40.5 119.5v14l-134 -23q-96 -17 -96 -84q0 -34 22.5 -54t60.5 -20zM181 635q0 40 28 67.5t68 27.5t68 -27.5t28 -67.5t-28 -67.5t-68 -27.5t-68 27.5t-28 67.5zM238 635q0 -17 11 -28.5t28 -11.5t28 11.5t11 28.5t-11 28.5t-28 11.5
t-28 -11.5t-11 -28.5z" />
    <glyph glyph-name="ae" unicode="&#xe6;" horiz-adv-x="918" 
d="M877 226h-393q3 -67 44.5 -109t106.5 -42q56 0 89.5 26.5t58.5 76.5l79 -47q-70 -145 -228 -145q-67 0 -123.5 32t-88.5 88q-28 -60 -81.5 -90t-115.5 -30q-76 0 -126.5 42t-50.5 108q0 77 57.5 122.5t157.5 45.5h117v29q0 53 -26 77t-78 24q-50 0 -77 -18.5t-27 -46.5
q0 -7 2 -15l-91 -31q-8 19 -8 40q0 60 54.5 103.5t146.5 43.5q124 0 174 -82q74 82 187 82q107 0 173.5 -69.5t66.5 -178.5v-36zM233 71q67 0 107 42t40 105v8h-102q-128 0 -128 -83q0 -34 22.5 -53t60.5 -19zM635 428q-55 0 -96 -34.5t-55 -89.5h296q-6 58 -48 91t-97 33z
" />
    <glyph glyph-name="ccedilla" unicode="&#xe7;" horiz-adv-x="559" 
d="M252 -108l-34 31l24 69q-90 17 -146.5 86.5t-56.5 169.5q0 114 75 188t182 74q81 0 139 -35.5t85 -99.5l-81 -54q-47 95 -142 95q-65 0 -109.5 -46t-44.5 -122q0 -77 43 -122.5t111 -45.5q53 0 87 25t61 75l79 -51q-72 -143 -228 -143l-21 -39q17 9 41 9q33 0 55 -21.5
t22 -55.5q0 -39 -27 -61t-66 -22q-34 0 -58 16t-31 44l57 15q7 -24 33 -24q13 0 21 8.5t8 22.5q0 32 -33 32q-25 0 -45 -18z" />
    <glyph glyph-name="egrave" unicode="&#xe8;" horiz-adv-x="575" 
d="M534 226h-393q3 -67 44.5 -109t106.5 -42q56 0 89.5 26.5t58.5 76.5l79 -47q-70 -145 -230 -145q-104 0 -177 74t-73 188t73.5 188t181.5 74q107 0 173.5 -69.5t66.5 -178.5v-36zM292 428q-55 0 -95.5 -34.5t-55.5 -89.5h296q-6 58 -48 91t-97 33zM290 703l66 -148h-85
l-112 148h131z" />
    <glyph glyph-name="eacute" unicode="&#xe9;" horiz-adv-x="575" 
d="M534 226h-393q3 -67 44.5 -109t106.5 -42q56 0 89.5 26.5t58.5 76.5l79 -47q-70 -145 -230 -145q-104 0 -177 74t-73 188t73.5 188t181.5 74q107 0 173.5 -69.5t66.5 -178.5v-36zM292 428q-55 0 -95.5 -34.5t-55.5 -89.5h296q-6 58 -48 91t-97 33zM219 555l66 148h131
l-112 -148h-85z" />
    <glyph glyph-name="ecircumflex" unicode="&#xea;" horiz-adv-x="575" 
d="M534 226h-393q3 -67 44.5 -109t106.5 -42q56 0 89.5 26.5t58.5 76.5l79 -47q-70 -145 -230 -145q-104 0 -177 74t-73 188t73.5 188t181.5 74q107 0 173.5 -69.5t66.5 -178.5v-36zM292 428q-55 0 -95.5 -34.5t-55.5 -89.5h296q-6 58 -48 91t-97 33zM143 555l104 148h80
l105 -148h-82l-63 65l-63 -65h-81z" />
    <glyph glyph-name="edieresis" unicode="&#xeb;" horiz-adv-x="575" 
d="M534 226h-393q3 -67 44.5 -109t106.5 -42q56 0 89.5 26.5t58.5 76.5l79 -47q-70 -145 -230 -145q-104 0 -177 74t-73 188t73.5 188t181.5 74q107 0 173.5 -69.5t66.5 -178.5v-36zM292 428q-55 0 -95.5 -34.5t-55.5 -89.5h296q-6 58 -48 91t-97 33zM319 582v108h105v-108
h-105zM150 582v108h105v-108h-105z" />
    <glyph glyph-name="igrave" unicode="&#xec;" horiz-adv-x="240" 
d="M69 0v496h102v-496h-102zM105 703l66 -148h-85l-112 148h131z" />
    <glyph glyph-name="iacute" unicode="&#xed;" horiz-adv-x="240" 
d="M69 0v496h102v-496h-102zM69 555l66 148h131l-112 -148h-85z" />
    <glyph glyph-name="icircumflex" unicode="&#xee;" horiz-adv-x="240" 
d="M69 0v496h102v-496h-102zM-24 555l104 148h80l105 -148h-82l-63 65l-63 -65h-81z" />
    <glyph glyph-name="idieresis" unicode="&#xef;" horiz-adv-x="240" 
d="M69 0v496h102v-496h-102zM152 582v108h105v-108h-105zM-17 582v108h105v-108h-105z" />
    <glyph glyph-name="eth" unicode="&#xf0;" horiz-adv-x="585" 
d="M225 504l-27 71l72 28q-57 40 -120 67l47 76q107 -52 172 -105l102 40l28 -71l-71 -27q112 -125 112 -304q0 -141 -69 -217t-179 -76q-104 0 -175.5 65t-71.5 173q0 109 71 173.5t166 64.5q49 0 89.5 -18.5t62.5 -47.5q-22 79 -96 152zM293 74q58 0 101.5 40t43.5 110
t-43.5 110t-101.5 40q-59 0 -102.5 -40t-43.5 -110t43.5 -110t102.5 -40z" />
    <glyph glyph-name="ntilde" unicode="&#xf1;" horiz-adv-x="584" 
d="M514 337v-337h-102v307q0 51 -29 80t-81 29q-55 0 -92.5 -42.5t-37.5 -111.5v-262h-102v496h102v-83q27 44 71.5 70.5t97.5 26.5q76 0 124.5 -46t48.5 -127zM218 622q-25 0 -25 -24q0 -12 7 -26l-67 -14q-13 22 -13 51q0 39 27.5 62t65.5 23q32 0 56.5 -10.5t37 -22.5
t28 -22.5t31.5 -10.5q25 0 25 24q0 12 -7 26l67 14q13 -22 13 -51q0 -39 -27.5 -62t-65.5 -23q-32 0 -56.5 10.5t-37 22.5t-28 22.5t-31.5 10.5z" />
    <glyph glyph-name="ograve" unicode="&#xf2;" horiz-adv-x="608" 
d="M569 248q0 -122 -79.5 -192t-185.5 -70t-185.5 70t-79.5 192t79.5 192t185.5 70t185.5 -70t79.5 -192zM304 80q67 0 114 47t47 121t-47 121t-114 47t-114 -47t-47 -121t47 -121t114 -47zM290 703l66 -148h-85l-112 148h131z" />
    <glyph glyph-name="oacute" unicode="&#xf3;" horiz-adv-x="608" 
d="M569 248q0 -122 -79.5 -192t-185.5 -70t-185.5 70t-79.5 192t79.5 192t185.5 70t185.5 -70t79.5 -192zM304 80q67 0 114 47t47 121t-47 121t-114 47t-114 -47t-47 -121t47 -121t114 -47zM253 555l66 148h131l-112 -148h-85z" />
    <glyph glyph-name="ocircumflex" unicode="&#xf4;" horiz-adv-x="608" 
d="M569 248q0 -122 -79.5 -192t-185.5 -70t-185.5 70t-79.5 192t79.5 192t185.5 70t185.5 -70t79.5 -192zM304 80q67 0 114 47t47 121t-47 121t-114 47t-114 -47t-47 -121t47 -121t114 -47zM160 555l104 148h80l105 -148h-82l-63 65l-63 -65h-81z" />
    <glyph glyph-name="otilde" unicode="&#xf5;" horiz-adv-x="608" 
d="M569 248q0 -122 -79.5 -192t-185.5 -70t-185.5 70t-79.5 192t79.5 192t185.5 70t185.5 -70t79.5 -192zM304 80q67 0 114 47t47 121t-47 121t-114 47t-114 -47t-47 -121t47 -121t114 -47zM230 622q-25 0 -25 -24q0 -12 7 -26l-67 -14q-13 22 -13 51q0 39 27.5 62t65.5 23
q32 0 56.5 -10.5t37 -22.5t28 -22.5t31.5 -10.5q25 0 25 24q0 12 -7 26l67 14q13 -22 13 -51q0 -39 -27.5 -62t-65.5 -23q-32 0 -56.5 10.5t-37 22.5t-28 22.5t-31.5 10.5z" />
    <glyph glyph-name="odieresis" unicode="&#xf6;" horiz-adv-x="608" 
d="M569 248q0 -122 -79.5 -192t-185.5 -70t-185.5 70t-79.5 192t79.5 192t185.5 70t185.5 -70t79.5 -192zM304 80q67 0 114 47t47 121t-47 121t-114 47t-114 -47t-47 -121t47 -121t114 -47zM336 582v108h105v-108h-105zM167 582v108h105v-108h-105z" />
    <glyph glyph-name="divide" unicode="&#xf7;" horiz-adv-x="535" 
d="M210 364v116h114v-116h-114zM210 0v116h114v-116h-114zM44 199v82h447v-82h-447z" />
    <glyph glyph-name="oslash" unicode="&#xf8;" horiz-adv-x="608" 
d="M569 248q0 -122 -79.5 -192t-185.5 -70q-49 0 -97 17l-24 -41l-70 43l22 37q-96 74 -96 206q0 122 79.5 192t185.5 70q49 0 97 -17l24 41l70 -43l-22 -37q96 -74 96 -206zM143 248q0 -71 44 -118l164 279q-21 7 -47 7q-67 0 -114 -47t-47 -121zM304 80q67 0 114 47
t47 121q0 71 -44 118l-164 -279q21 -7 47 -7z" />
    <glyph glyph-name="ugrave" unicode="&#xf9;" horiz-adv-x="584" 
d="M70 177v319h102v-298q0 -57 28.5 -87.5t81.5 -30.5q55 0 92.5 42t37.5 106v268h102v-496h-102v80q-51 -94 -161 -94q-78 0 -129.5 49t-51.5 142zM295 703l66 -148h-85l-112 148h131z" />
    <glyph glyph-name="uacute" unicode="&#xfa;" horiz-adv-x="584" 
d="M70 177v319h102v-298q0 -57 28.5 -87.5t81.5 -30.5q55 0 92.5 42t37.5 106v268h102v-496h-102v80q-51 -94 -161 -94q-78 0 -129.5 49t-51.5 142zM224 555l66 148h131l-112 -148h-85z" />
    <glyph glyph-name="ucircumflex" unicode="&#xfb;" horiz-adv-x="584" 
d="M70 177v319h102v-298q0 -57 28.5 -87.5t81.5 -30.5q55 0 92.5 42t37.5 106v268h102v-496h-102v80q-51 -94 -161 -94q-78 0 -129.5 49t-51.5 142zM148 555l104 148h80l105 -148h-82l-63 65l-63 -65h-81z" />
    <glyph glyph-name="udieresis" unicode="&#xfc;" horiz-adv-x="584" 
d="M70 177v319h102v-298q0 -57 28.5 -87.5t81.5 -30.5q55 0 92.5 42t37.5 106v268h102v-496h-102v80q-51 -94 -161 -94q-78 0 -129.5 49t-51.5 142zM324 582v108h105v-108h-105zM155 582v108h105v-108h-105z" />
    <glyph glyph-name="yacute" unicode="&#xfd;" horiz-adv-x="520" 
d="M63 -200l16 93q24 -10 45 -10t34 10.5t26 42.5l23 61l-202 499h117l140 -358l139 358h113l-240 -596q-44 -111 -139 -111q-39 0 -72 11zM192 555l66 148h131l-112 -148h-85z" />
    <glyph glyph-name="thorn" unicode="&#xfe;" horiz-adv-x="616" 
d="M70 -204v904h102v-280q24 38 72 64t104 26q97 0 163 -71.5t66 -190.5q0 -118 -68 -190t-170 -72q-53 0 -98 22t-69 60v-272h-102zM319 416q-65 0 -109.5 -47t-44.5 -121t44.5 -121t109.5 -47t109.5 47t44.5 121t-44.5 121t-109.5 47z" />
    <glyph glyph-name="ydieresis" unicode="&#xff;" horiz-adv-x="520" 
d="M63 -200l16 93q24 -10 45 -10t34 10.5t26 42.5l23 61l-202 499h117l140 -358l139 358h113l-240 -596q-44 -111 -139 -111q-39 0 -72 11zM292 582v108h105v-108h-105zM123 582v108h105v-108h-105z" />
    <glyph glyph-name="dotlessi" unicode="&#x131;" horiz-adv-x="240" 
d="M69 0v496h102v-496h-102z" />
    <glyph glyph-name="Lslash" unicode="&#x141;" horiz-adv-x="596" 
d="M11 143v103l80 51v403h108v-335l158 101v-103l-158 -101v-166h351v-96h-459v194z" />
    <glyph glyph-name="lslash" unicode="&#x142;" horiz-adv-x="274" 
d="M86 0v195l-69 -44v94l69 44v411h102v-346l69 44v-94l-69 -44v-260h-102z" />
    <glyph glyph-name="OE" unicode="&#x152;" horiz-adv-x="1164" 
d="M639 0v106q-89 -120 -239 -120q-149 0 -249 103t-100 261t100 261t249 103q158 0 239 -109v95h460v-96h-352v-194h324v-96h-324v-218h355v-96h-463zM400 84q104 0 171.5 73.5t67.5 192.5t-67.5 192.5t-171.5 73.5t-171.5 -73.5t-67.5 -192.5t67.5 -192.5t171.5 -73.5z
" />
    <glyph glyph-name="oe" unicode="&#x153;" horiz-adv-x="1005" 
d="M964 226h-393q3 -67 44.5 -109t106.5 -42q56 0 89.5 26.5t58.5 76.5l79 -47q-70 -145 -230 -145q-61 0 -113.5 27t-87.5 75q-37 -49 -94.5 -75.5t-119.5 -26.5q-106 0 -185.5 70t-79.5 192t79.5 192t185.5 70q62 0 119.5 -26.5t94.5 -76.5q76 103 206 103
q107 0 173.5 -69.5t66.5 -178.5v-36zM304 80q67 0 114 47t47 121t-47 121t-114 47t-114 -47t-47 -121t47 -121t114 -47zM722 428q-55 0 -96 -34.5t-55 -89.5h296q-6 58 -48 91t-97 33z" />
    <glyph glyph-name="Scaron" unicode="&#x160;" horiz-adv-x="651" 
d="M183 529q0 -46 44.5 -75.5t138.5 -47.5q115 -22 170.5 -72t55.5 -137q0 -88 -70.5 -149.5t-185.5 -61.5q-120 0 -194.5 61.5t-92.5 159.5l95 49q31 -176 191 -176q68 0 108.5 32.5t40.5 80.5q0 53 -42 81.5t-136 46.5q-104 20 -164.5 71t-60.5 135q0 83 67 135t173 52
q95 0 162.5 -45.5t96.5 -128.5l-86 -50q-43 130 -174 130q-59 0 -98 -24t-39 -67zM285 759l-104 148h81l63 -65l63 65h82l-105 -148h-80z" />
    <glyph glyph-name="scaron" unicode="&#x161;" horiz-adv-x="496" 
d="M164 376q0 -30 31 -48.5t93 -30.5q85 -17 126 -53t41 -97q0 -69 -51.5 -115t-140.5 -46q-83 0 -138.5 41.5t-80.5 105.5l83 52q19 -51 54 -81.5t83 -30.5q40 0 67 19.5t27 51.5q0 30 -27.5 47.5t-89.5 29.5q-169 35 -169 150q0 64 52 101.5t125 37.5q77 0 124.5 -30.5
t74.5 -92.5l-75 -44q-35 89 -122 89q-37 0 -62 -15.5t-25 -40.5zM208 555l-104 148h81l63 -65l63 65h82l-105 -148h-80z" />
    <glyph glyph-name="Ydieresis" unicode="&#x178;" horiz-adv-x="578" 
d="M235 0v281l-231 419h119l144 -273q13 -23 22 -47l22 47l144 273h119l-231 -419v-281h-108zM321 786v108h105v-108h-105zM152 786v108h105v-108h-105z" />
    <glyph glyph-name="Zcaron" unicode="&#x17d;" horiz-adv-x="607" 
d="M53 602v98h495v-98l-383 -504h401v-98h-527v96l386 506h-372zM263 759l-104 148h81l63 -65l63 65h82l-105 -148h-80z" />
    <glyph glyph-name="zcaron" unicode="&#x17e;" horiz-adv-x="491" 
d="M156 86h295v-86h-411v86l279 324h-267v86h383v-86zM205 555l-104 148h81l63 -65l63 65h82l-105 -148h-80z" />
    <glyph glyph-name="florin" unicode="&#x192;" horiz-adv-x="335" 
d="M26 414v82h75v87q0 78 44.5 122.5t120.5 44.5q29 0 56 -9l-18 -88q-15 5 -34 5q-31 0 -49 -20t-18 -57v-85h112v-82h-112v-465q0 -81 -39 -124t-112 -43q-31 0 -58 9l18 88q15 -5 34 -5q55 0 55 71v469h-75z" />
    <glyph glyph-name="circumflex" unicode="&#x2c6;" horiz-adv-x="391" 
d="M51 555l104 148h80l105 -148h-82l-63 65l-63 -65h-81z" />
    <glyph glyph-name="caron" unicode="&#x2c7;" horiz-adv-x="391" 
d="M155 555l-104 148h81l63 -65l63 65h82l-105 -148h-80z" />
    <glyph glyph-name="breve" unicode="&#x2d8;" horiz-adv-x="290" 
d="M183 674h70q0 -47 -29.5 -77.5t-78.5 -30.5t-78.5 30.5t-29.5 77.5h70q0 -20 10 -31.5t28 -11.5t28 11.5t10 31.5z" />
    <glyph glyph-name="dotaccent" unicode="&#x2d9;" horiz-adv-x="240" 
d="M62 575v115h116v-115h-116z" />
    <glyph glyph-name="ring" unicode="&#x2da;" horiz-adv-x="284" 
d="M46 635q0 40 28 67.5t68 27.5t68 -27.5t28 -67.5t-28 -67.5t-68 -27.5t-68 27.5t-28 67.5zM103 635q0 -17 11 -28.5t28 -11.5t28 11.5t11 28.5t-11 28.5t-28 11.5t-28 -11.5t-11 -28.5z" />
    <glyph glyph-name="ogonek" unicode="&#x2db;" horiz-adv-x="216" 
d="M31 -105q0 72 77 115l80 -10q-71 -39 -71 -80q0 -19 12.5 -30t32.5 -11q3 0 21 2l9 -73q-25 -6 -52 -6q-44 0 -76.5 25t-32.5 68z" />
    <glyph glyph-name="tilde" unicode="&#x2dc;" horiz-adv-x="472" 
d="M162 622q-25 0 -25 -24q0 -12 7 -26l-67 -14q-13 22 -13 51q0 39 27.5 62t65.5 23q32 0 56.5 -10.5t37 -22.5t28 -22.5t31.5 -10.5q25 0 25 24q0 12 -7 26l67 14q13 -22 13 -51q0 -39 -27.5 -62t-65.5 -23q-32 0 -56.5 10.5t-37 22.5t-28 22.5t-31.5 10.5z" />
    <glyph glyph-name="hungarumlaut" unicode="&#x2dd;" horiz-adv-x="489" 
d="M59 555l66 148h131l-112 -148h-85zM233 555l66 148h131l-112 -148h-85z" />
    <glyph glyph-name="pi" unicode="&#x3c0;" horiz-adv-x="667" 
d="M234 0h-102v414h-104v82h603v-82h-104v-266q0 -70 61 -70q17 0 37 6l9 -86q-34 -12 -77 -12q-60 0 -96 34.5t-36 108.5v285h-191v-414z" />
    <glyph glyph-name="endash" unicode="&#x2013;" horiz-adv-x="547" 
d="M44 270v82h459v-82h-459z" />
    <glyph glyph-name="emdash" unicode="&#x2014;" horiz-adv-x="822" 
d="M44 270v82h734v-82h-734z" />
    <glyph glyph-name="quoteleft" unicode="&#x2018;" horiz-adv-x="205" 
d="M152 707l22 -16l-65 -125h46v-116h-114v116z" />
    <glyph glyph-name="quoteright" unicode="&#x2019;" horiz-adv-x="205" 
d="M53 443l-22 16l65 125h-46v116h114v-116z" />
    <glyph glyph-name="quotesinglbase" unicode="&#x201a;" horiz-adv-x="205" 
d="M53 -141l-22 16l65 125h-46v116h114v-116z" />
    <glyph glyph-name="quotedblleft" unicode="&#x201c;" horiz-adv-x="363" 
d="M152 707l22 -16l-65 -125h46v-116h-114v116zM310 707l22 -16l-65 -125h46v-116h-114v116z" />
    <glyph glyph-name="quotedblright" unicode="&#x201d;" horiz-adv-x="363" 
d="M211 443l-22 16l65 125h-46v116h114v-116zM53 443l-22 16l65 125h-46v116h114v-116z" />
    <glyph glyph-name="quotedblbase" unicode="&#x201e;" horiz-adv-x="363" 
d="M211 -141l-22 16l65 125h-46v116h114v-116zM53 -141l-22 16l65 125h-46v116h114v-116z" />
    <glyph glyph-name="dagger" unicode="&#x2020;" horiz-adv-x="464" 
d="M45 410v86h136v244h102v-244h138v-86h-138v-520h-102v520h-136z" />
    <glyph glyph-name="daggerdbl" unicode="&#x2021;" horiz-adv-x="464" 
d="M45 410v86h136v244h102v-244h138v-86h-138v-190h138v-86h-138v-244h-102v244h-136v86h136v190h-136z" />
    <glyph glyph-name="bullet" unicode="&#x2022;" horiz-adv-x="308" 
d="M48 275q0 43 31 74.5t75 31.5t75 -31.5t31 -74.5t-31 -74.5t-75 -31.5t-75 31.5t-31 74.5z" />
    <glyph glyph-name="ellipsis" unicode="&#x2026;" horiz-adv-x="582" 
d="M44 0v116h114v-116h-114zM234 0v116h114v-116h-114zM424 0v116h114v-116h-114z" />
    <glyph glyph-name="perthousand" unicode="&#x2030;" horiz-adv-x="1146" 
d="M489 161q0 75 48.5 125t123.5 50q83 0 132 -60q50 60 133 60q75 0 123.5 -50t48.5 -125t-48.5 -125t-123.5 -50q-83 0 -133 60q-49 -60 -132 -60q-75 0 -123.5 50t-48.5 125zM48 539q0 75 48.5 125t123.5 50t123.5 -50t48.5 -125t-48.5 -125t-123.5 -50t-123.5 50
t-48.5 125zM127 539q0 -45 25.5 -73t67.5 -28t67.5 28t25.5 73t-25.5 73t-67.5 28t-67.5 -28t-25.5 -73zM568 161q0 -45 25.5 -73t67.5 -28t67.5 28t25.5 73t-25.5 73t-67.5 28t-67.5 -28t-25.5 -73zM833 161q0 -45 25.5 -73t67.5 -28t67.5 28t25.5 73t-25.5 73t-67.5 28
t-67.5 -28t-25.5 -73zM250 -3l-62 42l435 665l62 -42z" />
    <glyph glyph-name="guilsinglleft" unicode="&#x2039;" horiz-adv-x="357" 
d="M207 481h117l-159 -206l159 -206h-117l-163 206z" />
    <glyph glyph-name="guilsinglright" unicode="&#x203a;" horiz-adv-x="357" 
d="M33 481h117l163 -206l-163 -206h-117l159 206z" />
    <glyph glyph-name="fraction" unicode="&#x2044;" horiz-adv-x="535" 
d="M81 -3l-62 42l435 665l62 -42z" />
    <glyph glyph-name="Euro" unicode="&#x20ac;" horiz-adv-x="775" 
d="M483 236h-247q24 -75 74.5 -113.5t120.5 -38.5q76 0 124 38.5t73 116.5l96 -36q-35 -104 -109 -160.5t-183 -56.5q-115 0 -196 67t-110 183h-87l36 78h38q-1 12 -1 36t1 36h-74l36 78h51q31 114 115.5 182t194.5 68q223 0 285 -195l-92 -42q-27 73 -74 106t-120 33
q-69 0 -122 -39t-77 -113h283l-36 -78h-262q-1 -12 -1 -36q0 -25 1 -36h298z" />
    <glyph glyph-name="trademark" unicode="&#x2122;" horiz-adv-x="855" 
d="M35 638v62h307v-62h-118v-338h-70v338h-119zM391 300v400h74l133 -321l133 321h74v-400h-67v255l-106 -255h-68l-106 255v-255h-67z" />
    <glyph glyph-name="Omega" unicode="&#x2126;" horiz-adv-x="786" 
d="M719 85v-85h-273v104q75 38 128 109.5t53 167.5q0 102 -66 168.5t-168 66.5t-168 -66.5t-66 -168.5q0 -96 53 -167.5t128 -109.5v-104h-273v85h147q-66 43 -114.5 124t-48.5 178q0 141 98 234t244 93t244 -93t98 -234q0 -97 -48.5 -178t-114.5 -124h147z" />
    <glyph glyph-name="arrowleft" unicode="&#x2190;" horiz-adv-x="579" 
d="M330 154l-61 -61l-218 217l218 217l61 -61l-115 -115h318v-82h-318z" />
    <glyph glyph-name="arrowup" unicode="&#x2191;" horiz-adv-x="518" 
d="M476 393l-61 -61l-115 115v-318h-82v318l-115 -115l-61 61l217 218z" />
    <glyph glyph-name="arrowright" unicode="&#x2192;" horiz-adv-x="579" 
d="M310 93l-61 61l115 115h-318v82h318l-115 115l61 61l218 -217z" />
    <glyph glyph-name="arrowdown" unicode="&#x2193;" horiz-adv-x="518" 
d="M415 408l61 -61l-217 -218l-217 218l61 61l115 -115v318h82v-318z" />
    <glyph glyph-name="arrowboth" unicode="&#x2194;" horiz-adv-x="784" 
d="M330 154l-61 -61l-218 217l218 217l61 -61l-115 -115h354l-115 115l61 61l218 -217l-218 -217l-61 61l115 115h-354z" />
    <glyph glyph-name="arrowupdn" unicode="&#x2195;" horiz-adv-x="518" 
d="M415 288l61 -61l-217 -218l-217 218l61 61l115 -115v354l-115 -115l-61 61l217 218l217 -218l-61 -61l-115 115v-354z" />
    <glyph glyph-name="uni2196" unicode="&#x2196;" horiz-adv-x="529" 
d="M172 173h-87v307h307v-87h-162l224 -224l-58 -58l-224 224v-162z" />
    <glyph glyph-name="uni2197" unicode="&#x2197;" horiz-adv-x="529" 
d="M444 173h-87v162l-224 -224l-58 58l224 224h-162v87h307v-307z" />
    <glyph glyph-name="uni2198" unicode="&#x2198;" horiz-adv-x="529" 
d="M357 426h87v-307h-307v87h162l-224 224l58 58l224 -224v162z" />
    <glyph glyph-name="uni2199" unicode="&#x2199;" horiz-adv-x="529" 
d="M85 426h87v-162l224 224l58 -58l-224 -224h162v-87h-307v307z" />
    <glyph glyph-name="partialdiff" unicode="&#x2202;" horiz-adv-x="588" 
d="M543 298q0 -137 -69 -224.5t-191 -87.5q-100 0 -169 62.5t-69 168.5q0 103 69 174t174 71q52 0 93.5 -19.5t61.5 -47.5q-7 98 -55 166t-127 68q-40 0 -65.5 -18t-25.5 -42q0 -12 5 -22l-86 -37q-14 23 -14 52q0 60 49.5 106t137.5 46q138 0 209.5 -114.5t71.5 -301.5z
M286 74q63 0 108 46t45 117q0 65 -41 101t-100 36q-66 0 -108.5 -46.5t-42.5 -109.5q0 -69 41.5 -106.5t97.5 -37.5z" />
    <glyph glyph-name="Delta" unicode="&#x2206;" 
d="M6 0l280 700h108l280 -700h-668zM316 510l-160 -416h368l-160 416l-24 67q-10 -31 -24 -67z" />
    <glyph glyph-name="product" unicode="&#x220f;" 
d="M81 -204v904h518v-904h-110v806h-298v-806h-110z" />
    <glyph glyph-name="summation" unicode="&#x2211;" horiz-adv-x="578" 
d="M241 290l-198 312v98h489v-98h-366l198 -312l-208 -312h387v-98h-510v98z" />
    <glyph glyph-name="minus" unicode="&#x2212;" horiz-adv-x="535" 
d="M44 324v82h447v-82h-447z" />
    <glyph glyph-name="radical" unicode="&#x221a;" horiz-adv-x="612" 
d="M332 0h-102l-100 274h-100v82h181l72 -213l206 557h102z" />
    <glyph glyph-name="infinity" unicode="&#x221e;" horiz-adv-x="774" 
d="M47 300q0 72 45.5 118t117.5 46q55 0 96.5 -27.5t80.5 -75.5q82 103 178 103q72 0 117.5 -46t45.5 -118t-45.5 -118t-117.5 -46q-56 0 -97.5 27t-80.5 75q-81 -102 -177 -102q-72 0 -117.5 46t-45.5 118zM554 386q-34 0 -61.5 -22t-58.5 -64q31 -42 58.5 -64t61.5 -22
q38 0 62.5 25t24.5 61t-24.5 61t-62.5 25zM134 300q0 -36 24 -61t62 -25q33 0 60.5 22t59.5 64q-32 42 -59.5 64t-60.5 22q-38 0 -62 -25t-24 -61z" />
    <glyph glyph-name="integral" unicode="&#x222b;" horiz-adv-x="327" 
d="M101 -55v638q0 78 44.5 122.5t120.5 44.5q29 0 56 -9l-18 -88q-15 5 -34 5q-31 0 -49 -20t-18 -57v-632q0 -81 -39 -124t-112 -43q-31 0 -58 9l18 88q15 -5 34 -5q55 0 55 71z" />
    <glyph glyph-name="approxequal" unicode="&#x2248;" horiz-adv-x="453" 
d="M155 261q-12 0 -20 -7t-8 -18q0 -10 7 -24l-77 -15q-13 19 -13 47q0 45 29 71t71 26q32 0 57 -10t38 -22t29 -22t30 -10q12 0 20 7t8 18q0 10 -7 24l77 15q13 -19 13 -47q0 -45 -29 -71t-71 -26q-31 0 -56.5 10t-38.5 22t-28.5 22t-30.5 10zM155 421q-12 0 -20 -7t-8 -18
q0 -10 7 -24l-77 -15q-13 19 -13 47q0 45 29 71t71 26q32 0 57 -10t38 -22t29 -22t30 -10q12 0 20 7t8 18q0 10 -7 24l77 15q13 -19 13 -47q0 -45 -29 -71t-71 -26q-31 0 -56.5 10t-38.5 22t-28.5 22t-30.5 10z" />
    <glyph glyph-name="notequal" unicode="&#x2260;" horiz-adv-x="541" 
d="M44 404v82h259l83 142l71 -41l-59 -101h99v-82h-147l-65 -113h212v-82h-259l-83 -142l-71 41l59 101h-99v82h147l65 113h-212z" />
    <glyph glyph-name="lessequal" unicode="&#x2264;" horiz-adv-x="535" 
d="M56 357v86l423 208v-102l-315 -149l315 -149v-102zM44 0v82h447v-82h-447z" />
    <glyph glyph-name="greaterequal" unicode="&#x2265;" horiz-adv-x="535" 
d="M479 443v-86l-423 -208v102l315 149l-315 149v102zM44 0v82h447v-82h-447z" />
    <glyph glyph-name="lozenge" unicode="&#x25ca;" horiz-adv-x="594" 
d="M568 350l-217 -350h-108l-217 350l217 350h108zM297 87l163 263l-163 262l-163 -262z" />
    <glyph glyph-name="apple" unicode="&#xf8ff;" horiz-adv-x="764" 
d="M678 617v-595q0 -9 -6.5 -15.5t-15.5 -6.5q-3 0 -7 1l-267 77l-267 -77q-4 -1 -7 -1q-9 0 -15.5 6.5t-6.5 15.5v595q0 17 16 22l270 78q6 2 10 2t10 -2l270 -78q16 -5 16 -22zM360 366v303l-230 -67q6 -94 71.5 -161t158.5 -75zM404 669v-303q93 8 158.5 75t71.5 161z
M129 463v-412l231 67v204q-73 6 -134 43.5t-97 97.5zM635 51v412q-37 -60 -97.5 -97.5t-133.5 -43.5v-204z" />
    </font>
</defs>
</svg>
