<?xml version="1.0" standalone="no"?>
<!DOCTYPE svg PUBLIC "-//W3C//DTD SVG 1.1//EN" "http://www.w3.org/Graphics/SVG/1.1/DTD/svg11.dtd" >
<svg xmlns="http://www.w3.org/2000/svg" xmlns:xlink="http://www.w3.org/1999/xlink" version="1.1">
<metadata>
Created by FontForge 20170731 at Sun Nov  6 18:34:14 2016
 By Aleksey,,,
Copyright (c) 2015 by Colophon Foundry. All rights reserved.
</metadata>
<defs>
<font id="BasisGrotesque-BlackItalic" horiz-adv-x="633" >
  <font-face 
    font-family="Basis Grotesque Black"
    font-weight="900"
    font-style="italic"
    font-stretch="normal"
    units-per-em="1000"
    panose-1="2 0 5 3 4 0 0 9 0 4"
    ascent="800"
    descent="-200"
    x-height="496"
    cap-height="700"
    bbox="-156 -218 1204 940"
    underline-thickness="50"
    underline-position="-200"
    slope="-11"
    unicode-range="U+000D-FB04"
  />
<missing-glyph horiz-adv-x="500" 
 />
    <glyph glyph-name="ff" unicode="ff" horiz-adv-x="651" 
d="M254 380l-73 -380h-152l73 380h-69l23 116h69l12 64q35 190 220 190q43 0 75 -13l-27 -135q-27 10 -50 10q-56 0 -66 -54l-12 -62h139l12 64q35 190 220 190q42 0 75 -13l-27 -135q-27 10 -50 10q-56 0 -66 -54l-12 -62h105l-23 -116h-105l-73 -380h-152l73 380h-139z
" />
    <glyph glyph-name="fi" unicode="fi" horiz-adv-x="623" 
d="M358 0l73 380h-177l-73 -380h-152l73 380h-69l23 116h69l12 64q35 190 220 190q43 0 75 -13l-27 -135q-27 10 -50 10q-56 0 -66 -54l-12 -62h329l-96 -496h-152zM459 554l31 160h164l-31 -160h-164z" />
    <glyph glyph-name="fl" unicode="fl" horiz-adv-x="623" 
d="M33 380l23 116h69l12 64q35 190 220 190q43 0 75 -13l-27 -135q-27 10 -50 10q-56 0 -66 -54l-12 -62h105l-23 -116h-105l-73 -380h-152l73 380h-69zM358 0l136 700h152l-136 -700h-152z" />
    <glyph glyph-name="f_f_i" unicode="ffi" horiz-adv-x="916" 
d="M651 0l73 380h-177l-73 -380h-152l73 380h-141l-73 -380h-152l73 380h-69l23 116h69l12 64q35 190 220 190q43 0 75 -13l-27 -135q-27 10 -50 10q-56 0 -66 -54l-12 -62h141l12 64q35 190 220 190q42 0 75 -13l-27 -135q-27 10 -50 10q-56 0 -66 -54l-12 -62h329
l-96 -496h-152zM752 554l31 160h164l-31 -160h-164z" />
    <glyph glyph-name="f_f_l" unicode="ffl" horiz-adv-x="916" 
d="M33 380l23 116h69l12 64q35 190 220 190q43 0 75 -13l-27 -135q-27 10 -50 10q-56 0 -66 -54l-12 -62h142l12 64q35 190 220 190q43 0 75 -13l-27 -135q-27 10 -50 10q-56 0 -66 -54l-12 -62h105l-23 -116h-105l-73 -380h-152l73 380h-142l-73 -380h-152l73 380h-69z
M651 0l136 700h152l-136 -700h-152z" />
    <glyph glyph-name="f_j" unicode="fj" horiz-adv-x="623" 
d="M205 -197l41 130q17 -10 43 -10q54 0 68 74l74 383h-177l-73 -380h-152l73 380h-69l23 116h69l12 64q35 190 220 190q43 0 75 -13l-27 -135q-27 10 -50 10q-56 0 -66 -54l-12 -62h329l-102 -526q-35 -181 -210 -181q-49 0 -89 14zM459 554l31 160h164l-31 -160h-164z" />
    <glyph glyph-name="f_f_j" unicode="ffj" horiz-adv-x="916" 
d="M498 -197l41 130q17 -10 43 -10q54 0 68 74l74 383h-177l-73 -380h-152l73 380h-141l-73 -380h-152l73 380h-69l23 116h69l12 64q35 190 220 190q43 0 75 -13l-27 -135q-27 10 -50 10q-56 0 -66 -54l-12 -62h141l12 64q35 190 220 190q42 0 75 -13l-27 -135
q-27 10 -50 10q-56 0 -66 -54l-12 -62h329l-102 -526q-35 -181 -210 -181q-49 0 -89 14zM752 554l31 160h164l-31 -160h-164z" />
    <glyph glyph-name=".notdef" horiz-adv-x="500" 
 />
    <glyph glyph-name=".null" horiz-adv-x="0" 
 />
    <glyph glyph-name="nonmarkingreturn" horiz-adv-x="333" 
 />
    <glyph glyph-name="NULL" horiz-adv-x="0" 
 />
    <glyph glyph-name="NULL" horiz-adv-x="0" 
 />
    <glyph glyph-name="CR" unicode="&#xd;" horiz-adv-x="289" 
 />
    <glyph glyph-name="space" unicode=" " horiz-adv-x="276" 
 />
    <glyph glyph-name="exclam" unicode="!" horiz-adv-x="292" 
d="M93 443l50 257h162l-50 -257l-60 -223h-130zM13 0l31 156h150l-31 -156h-150z" />
    <glyph glyph-name="quotedbl" unicode="&#x22;" horiz-adv-x="416" 
d="M291 607l18 93h140l-18 -93l-48 -171h-110zM107 607l18 93h140l-18 -93l-48 -171h-110z" />
    <glyph glyph-name="numbersign" unicode="#" horiz-adv-x="666" 
d="M579 700l-37 -199h88v-104h-107l-17 -94h104v-104h-123l-36 -199h-120l36 199h-120l-36 -199h-120l36 199h-87v104h106l17 94h-103v104h122l37 199h120l-37 -199h120l37 199h120zM283 397l-17 -94h120l17 94h-120z" />
    <glyph glyph-name="dollar" unicode="$" horiz-adv-x="656" 
d="M206 -100l18 94q-83 19 -133.5 78.5t-61.5 140.5l142 67q15 -107 82 -139l32 166q-70 20 -121.5 69t-51.5 127q0 86 67 144.5t185 65.5l17 87h112l-19 -96q120 -33 163 -173l-125 -71q-23 67 -66 98l-27 -137q87 -25 131.5 -69.5t44.5 -117.5q0 -106 -70.5 -171.5
t-189.5 -74.5l-17 -88h-112zM264 515q0 -39 50 -61l24 126q-35 -5 -54.5 -22t-19.5 -43zM431 212q0 36 -41 59l-27 -138q68 17 68 79z" />
    <glyph glyph-name="percent" unicode="%" horiz-adv-x="867" 
d="M80 521q0 78 55.5 135.5t143.5 57.5q69 0 114 -41.5t45 -111.5q0 -82 -56.5 -139.5t-143.5 -57.5q-66 0 -112 44t-46 113zM271 614q-37 0 -60 -26t-23 -61q0 -28 17.5 -45.5t45.5 -17.5q33 0 56 23.5t23 62.5q0 29 -16 46.5t-43 17.5zM453 143q0 78 55.5 135.5
t143.5 57.5q69 0 114 -41.5t45 -111.5q0 -82 -56.5 -139.5t-143.5 -57.5q-66 0 -112 44t-46 113zM644 236q-37 0 -60 -26t-23 -61q0 -28 17.5 -45.5t45.5 -17.5q33 0 56 23.5t23 62.5q0 29 -16 46.5t-43 17.5zM200 -10l-70 61l564 659l70 -61z" />
    <glyph glyph-name="ampersand" unicode="&#x26;" horiz-adv-x="679" 
d="M33 189q0 150 162 226q-15 48 -15 98q0 83 52 142t148 59q82 0 129 -38.5t47 -108.5q0 -119 -169 -199l71 -116q28 50 55 125l117 -71q-36 -112 -93 -184l75 -122h-171l-16 25q-75 -39 -164 -39q-102 0 -165 58t-63 145zM287 124q37 0 69 17l-101 167q-65 -42 -65 -96
q0 -39 25.5 -63.5t71.5 -24.5zM312 531q0 -35 17 -66q52 22 75 44.5t23 49.5q0 21 -13 33t-36 12q-29 0 -47.5 -21.5t-18.5 -51.5z" />
    <glyph glyph-name="quotesingle" unicode="'" horiz-adv-x="232" 
d="M105 607l18 93h140l-18 -93l-48 -171h-110z" />
    <glyph glyph-name="parenleft" unicode="(" horiz-adv-x="362" 
d="M212 -148h-128q-44 118 -44 281q0 147 55.5 302t153.5 265h128q-194 -279 -194 -574q0 -172 29 -274z" />
    <glyph glyph-name="parenright" unicode=")" horiz-adv-x="362" 
d="M141 700h128q44 -118 44 -281q0 -147 -55.5 -302t-153.5 -265h-128q194 279 194 574q0 172 -29 274z" />
    <glyph glyph-name="asterisk" unicode="*" horiz-adv-x="438" 
d="M356 700l-37 -100l92 63l41 -100l-103 -33l81 -32l-62 -106l-75 68l-4 -102h-116l37 100l-85 -58l-49 94l104 35l-85 34l63 107l78 -70l4 100h116z" />
    <glyph glyph-name="plus" unicode="+" horiz-adv-x="582" 
d="M291 620h124l-38 -194h193l-23 -122h-193l-38 -194h-124l38 194h-193l23 122h193z" />
    <glyph glyph-name="comma" unicode="," horiz-adv-x="226" 
d="M-22 0l30 154h154l-30 -154l-144 -167l-29 21l69 146h-50z" />
    <glyph glyph-name="hyphen" unicode="-" horiz-adv-x="484" 
d="M27 250l23 122h412l-23 -122h-412z" />
    <glyph glyph-name="period" unicode="." horiz-adv-x="226" 
d="M-21 0l29 154h154l-29 -154h-154z" />
    <glyph glyph-name="slash" unicode="/" horiz-adv-x="562" 
d="M-58 -30l546 760h157l-546 -760h-157z" />
    <glyph glyph-name="zero" unicode="0" horiz-adv-x="728" 
d="M704 414q0 -113 -44 -209t-134.5 -157.5t-211.5 -61.5q-123 0 -200 81.5t-77 225.5q0 72 24.5 145t70.5 135.5t121.5 101.5t167.5 39q126 0 204.5 -79t78.5 -221zM341 136q89 0 144 75.5t55 188.5q0 80 -34 122t-94 42q-51 0 -93 -25t-67 -64.5t-38 -84.5t-13 -89
q0 -79 37 -122t103 -43z" />
    <glyph glyph-name="one" unicode="1" horiz-adv-x="413" 
d="M72 462l29 150q124 0 176 88h152l-137 -700h-162l100 511q-53 -49 -158 -49z" />
    <glyph glyph-name="two" unicode="2" horiz-adv-x="591" 
d="M13 110l314 255q78 63 78 132q0 36 -22.5 57.5t-61.5 21.5q-43 0 -69 -26t-26 -65q0 -15 6 -33l-161 -30q-7 16 -7 47q0 105 70.5 175t190.5 70q109 0 175.5 -54t66.5 -144q0 -127 -134 -239l-163 -135h232l-27 -142h-483z" />
    <glyph glyph-name="three" unicode="3" horiz-adv-x="604" 
d="M63 272l141 -37q-11 -20 -11 -46q0 -33 25.5 -54t71.5 -21q48 0 78.5 30.5t30.5 79.5q0 96 -145 96l21 108q71 0 113.5 23.5t42.5 72.5q0 68 -81 68q-38 0 -63.5 -21.5t-25.5 -59.5q0 -9 3 -20l-151 -26q-4 26 -4 39q0 89 69 149.5t185 60.5q108 0 166.5 -50.5
t58.5 -124.5q0 -56 -31 -97.5t-83 -60.5q89 -50 89 -154q0 -106 -75 -173.5t-213 -67.5q-110 0 -174.5 57t-64.5 135q0 54 27 94z" />
    <glyph glyph-name="four" unicode="4" horiz-adv-x="626" 
d="M3 108l25 130l419 462h164l-88 -452h67l-28 -140h-67l-21 -108h-157l21 108h-335zM412 486l-207 -238h161z" />
    <glyph glyph-name="five" unicode="5" horiz-adv-x="618" 
d="M54 314l108 386h453l-27 -140h-339l-41 -130q60 48 146 48q105 0 161.5 -56t56.5 -158q0 -125 -83 -201.5t-220 -76.5q-111 0 -177.5 54t-66.5 130q0 60 18 88l145 -37q-6 -16 -6 -32q0 -28 25 -48.5t70 -20.5q63 0 100.5 38t37.5 97q0 50 -29.5 75.5t-76.5 25.5
q-89 0 -138 -72z" />
    <glyph glyph-name="six" unicode="6" horiz-adv-x="624" 
d="M585 476l-136 34q10 18 10 35q0 21 -20.5 34t-56.5 13q-62 0 -110.5 -51.5t-66.5 -141.5q26 27 67.5 43t83.5 16q99 0 162 -54t63 -147q0 -122 -80 -196.5t-211 -74.5q-116 0 -184.5 78t-68.5 209q0 98 31.5 188t90.5 152q96 101 237 101q93 0 152.5 -45t59.5 -108
q0 -48 -23 -85zM319 336q-55 0 -90 -37t-35 -89q0 -47 31.5 -74.5t75.5 -27.5q54 0 91 35.5t37 89.5q0 48 -30 75.5t-80 27.5z" />
    <glyph glyph-name="seven" unicode="7" horiz-adv-x="557" 
d="M577 566l-362 -566h-169l361 560h-323l28 140h492z" />
    <glyph glyph-name="eight" unicode="8" horiz-adv-x="606" 
d="M275 -14q-115 0 -181.5 56t-66.5 139q0 70 41 123t109 78q-30 19 -50.5 54t-20.5 76q0 90 71.5 146t189.5 56q101 0 162 -47.5t61 -117.5q0 -63 -33.5 -110t-90.5 -70q38 -21 65.5 -61.5t27.5 -85.5q0 -110 -80.5 -173t-203.5 -63zM289 118q49 0 81 27.5t32 76.5
q0 38 -27 61t-68 23q-53 0 -84.5 -29.5t-31.5 -76.5q0 -36 28.5 -59t69.5 -23zM354 592q-43 0 -69.5 -25t-26.5 -63q0 -33 23 -52.5t56 -19.5q41 0 68.5 24t27.5 64q0 34 -21 53t-58 19z" />
    <glyph glyph-name="nine" unicode="9" horiz-adv-x="632" 
d="M56 224l137 -33q-6 -13 -6 -31q0 -22 19.5 -37t56.5 -15q64 0 109.5 49t62.5 140q-58 -55 -143 -55q-104 0 -166 61.5t-62 146.5q0 120 80 192t212 72q124 0 188.5 -68.5t64.5 -189.5q0 -61 -11.5 -123.5t-39 -125.5t-67.5 -111.5t-102.5 -79t-138.5 -30.5
q-95 0 -155 44.5t-60 111.5q0 48 21 82zM324 364q54 0 93.5 34.5t39.5 89.5q0 45 -29 74.5t-77 29.5q-59 0 -97 -36t-38 -93q0 -45 30 -72t78 -27z" />
    <glyph glyph-name="colon" unicode=":" horiz-adv-x="226" 
d="M44 336l30 154h154l-30 -154h-154zM-20 0l29 154h154l-30 -154h-153z" />
    <glyph glyph-name="semicolon" unicode=";" horiz-adv-x="226" 
d="M44 336l30 154h154l-30 -154h-154zM-21 0l30 154h154l-30 -154l-144 -167l-29 21l69 146h-50z" />
    <glyph glyph-name="less" unicode="&#x3c;" horiz-adv-x="535" 
d="M25 253l23 114l499 227l-32 -164l-293 -126l244 -126l-30 -152z" />
    <glyph glyph-name="equal" unicode="=" horiz-adv-x="582" 
d="M9 174l24 122h510l-24 -122h-510zM50 382l24 122h510l-24 -122h-510z" />
    <glyph glyph-name="greater" unicode="&#x3e;" horiz-adv-x="535" 
d="M513 367l-23 -114l-499 -227l32 164l293 126l-244 126l30 152z" />
    <glyph glyph-name="question" unicode="?" horiz-adv-x="557" 
d="M327 212h-146l3 16q10 55 35.5 86.5t85.5 71.5q56 38 78 63.5t22 62.5q0 28 -20.5 48t-57.5 20q-44 0 -72.5 -26.5t-28.5 -65.5q0 -15 2 -25l-149 -31q-5 17 -5 40q0 104 70 173t195 69q104 0 163.5 -48t59.5 -129q0 -123 -141 -212q-47 -30 -67 -54.5t-27 -58.5zM138 0
l30 156h150l-30 -156h-150z" />
    <glyph glyph-name="at" unicode="@" horiz-adv-x="956" 
d="M630 7l48 -96q-111 -63 -266 -63q-60 0 -114.5 14.5t-102.5 45t-83 75.5t-55.5 110t-20.5 143q0 127 59.5 236t172 175.5t253.5 66.5q180 0 286.5 -92t106.5 -257q0 -145 -75.5 -241.5t-195.5 -96.5q-45 0 -70 21t-27 58q-56 -79 -153 -79q-82 0 -129.5 58t-47.5 153
q0 52 17.5 104.5t49.5 97t85 72.5t118 28q74 0 111 -54l8 38h113l-72 -348q-2 -10 -2 -19q0 -31 30 -31q53 0 85 65.5t32 167.5q0 249 -282 249q-153 0 -252 -108.5t-99 -259.5q0 -140 73.5 -214t197.5 -74q59 0 101 12.5t100 42.5zM421 126q61 0 102.5 62.5t41.5 145.5
q0 105 -87 105q-61 0 -100 -62.5t-39 -140.5q0 -53 22 -81.5t60 -28.5z" />
    <glyph glyph-name="A" unicode="A" horiz-adv-x="732" 
d="M-53 0l417 700h159l145 -700h-172l-30 169h-244l-96 -169h-179zM364 421l-64 -114h142l-20 114q-8 41 -13 83z" />
    <glyph glyph-name="B" unicode="B" horiz-adv-x="668" 
d="M7 0l136 700h289q96 0 154.5 -43.5t58.5 -112.5q0 -63 -28.5 -101.5t-84.5 -65.5q81 -44 81 -142q0 -102 -85.5 -168.5t-211.5 -66.5h-309zM228 304l-33 -170h143q55 0 86.5 25.5t31.5 70.5q0 74 -90 74h-138zM280 574l-27 -138h135q44 0 72 20.5t28 56.5q0 61 -76 61
h-132z" />
    <glyph glyph-name="C" unicode="C" horiz-adv-x="771" 
d="M574 265l132 -88q-69 -101 -151 -146t-195 -45q-135 0 -225.5 86t-90.5 229q0 112 48.5 205t144.5 150.5t222 57.5q114 0 187.5 -51.5t110.5 -134.5l-142 -88q-48 124 -180 124q-99 0 -163 -74t-64 -173q0 -81 47 -131t122 -50q62 0 113 36t84 93z" />
    <glyph glyph-name="D" unicode="D" horiz-adv-x="728" 
d="M7 0l136 700h226q153 0 240 -75.5t87 -219.5q0 -181 -117.5 -293t-337.5 -112h-234zM276 146q115 1 185.5 69.5t70.5 169.5q0 169 -177 169h-79l-79 -408h79z" />
    <glyph glyph-name="E" unicode="E" horiz-adv-x="629" 
d="M7 0l136 700h507l-28 -142h-345l-25 -127h317l-27 -138h-317l-29 -151h348l-28 -142h-509z" />
    <glyph glyph-name="F" unicode="F" horiz-adv-x="639" 
d="M222 273l-53 -273h-162l136 700h526l-28 -142h-364l-29 -147h335l-26 -138h-335z" />
    <glyph glyph-name="G" unicode="G" horiz-adv-x="783" 
d="M566 0l-11 85q-89 -99 -218 -99q-126 0 -209.5 84.5t-83.5 227.5q0 82 28.5 156.5t81.5 132.5t135 92.5t182 34.5q107 0 181.5 -48.5t104.5 -126.5l-134 -86q-19 53 -63 86t-107 33q-105 0 -175 -73t-70 -189q0 -84 44.5 -133t117.5 -49q69 0 118.5 36.5t70.5 93.5h-207
l24 122h367l-74 -380h-103z" />
    <glyph glyph-name="H" unicode="H" horiz-adv-x="720" 
d="M7 0l136 700h162l-53 -268h266l53 268h162l-137 -700h-162l55 282h-265l-55 -282h-162z" />
    <glyph glyph-name="I" unicode="I" horiz-adv-x="292" 
d="M7 0l136 700h162l-136 -700h-162z" />
    <glyph glyph-name="J" unicode="J" horiz-adv-x="570" 
d="M599 700l-94 -481q-23 -118 -89.5 -175.5t-179.5 -57.5q-95 0 -156 50.5t-61 136.5q0 33 7 64l157 -18q-2 -16 -2 -24q0 -30 17.5 -48.5t50.5 -18.5q77 0 97 103l91 469h162z" />
    <glyph glyph-name="K" unicode="K" horiz-adv-x="682" 
d="M735 700l-303 -262l174 -438h-177l-128 328l-83 -73l-49 -255h-162l136 700h162l-45 -233l49 45l213 188h213z" />
    <glyph glyph-name="L" unicode="L" horiz-adv-x="615" 
d="M545 150l-30 -150h-508l136 700h162l-107 -550h347z" />
    <glyph glyph-name="M" unicode="M" horiz-adv-x="894" 
d="M7 0l136 700h172l105 -511l306 511h181l-137 -700h-157l74 383l-54 -105l-167 -278h-151l-62 278q-12 87 -14 105l-75 -383h-157z" />
    <glyph glyph-name="N" unicode="N" horiz-adv-x="736" 
d="M9 0l136 700h164l172 -401q17 -40 20 -55l89 456h157l-137 -700h-164l-171 405q-16 40 -19 55l-90 -460h-157z" />
    <glyph glyph-name="O" unicode="O" horiz-adv-x="818" 
d="M786 397q0 -178 -115.5 -294.5t-300.5 -116.5q-143 0 -235 92.5t-92 228.5q0 108 46.5 199.5t142 149.5t223.5 58q152 0 241.5 -88.5t89.5 -228.5zM393 136q99 0 164 71.5t65 176.5q0 82 -52 131t-134 49q-99 0 -164 -72.5t-65 -177.5q0 -83 54 -130.5t132 -47.5z" />
    <glyph glyph-name="P" unicode="P" horiz-adv-x="706" 
d="M7 0l136 700h311q114 0 181.5 -54t67.5 -156q0 -122 -90 -187t-232 -65h-166l-46 -238h-162zM278 566l-37 -194h159q63 0 101 28.5t38 79.5q0 42 -27 64t-75 22h-159z" />
    <glyph glyph-name="Q" unicode="Q" horiz-adv-x="818" 
d="M786 397q0 -136 -70 -239t-191 -146q23 -45 68 -89l-135 -104q-68 72 -98 167q-139 4 -228 95.5t-89 225.5q0 108 46.5 199.5t142 149.5t223.5 58q152 0 241.5 -88.5t89.5 -228.5zM393 136q99 0 164 71.5t65 176.5q0 82 -52 131t-134 49q-99 0 -164 -72.5t-65 -177.5
q0 -83 54 -130.5t132 -47.5z" />
    <glyph glyph-name="R" unicode="R" horiz-adv-x="677" 
d="M423 0l-103 276h-98l-53 -276h-162l136 700h298q109 0 171 -48t62 -135q0 -172 -195 -227l106 -290h-162zM279 568l-31 -160h153q51 0 81 23.5t30 66.5q0 70 -82 70h-151z" />
    <glyph glyph-name="S" unicode="S" horiz-adv-x="656" 
d="M368 582q-46 0 -75 -18t-29 -49q0 -30 29.5 -49.5t101.5 -37.5q98 -24 148.5 -70t50.5 -124q0 -114 -81 -181t-216 -67q-113 0 -186.5 65t-86.5 162l142 72q10 -72 47.5 -114.5t100.5 -42.5q51 0 83.5 22t32.5 62q0 34 -31 54t-103 38q-73 19 -128.5 68t-55.5 131
q0 91 72.5 151t196.5 60q196 0 249 -175l-122 -78q-40 121 -140 121z" />
    <glyph glyph-name="T" unicode="T" horiz-adv-x="604" 
d="M66 558l28 142h572l-28 -142h-205l-109 -558h-162l109 558h-205z" />
    <glyph glyph-name="U" unicode="U" horiz-adv-x="712" 
d="M732 700l-83 -424q-29 -149 -116 -219.5t-238 -70.5q-101 0 -173.5 62t-72.5 169q0 33 9 83l78 400h162l-79 -404q-6 -32 -6 -48q0 -55 31.5 -83.5t85.5 -28.5q130 0 161 160l79 404h162z" />
    <glyph glyph-name="V" unicode="V" horiz-adv-x="688" 
d="M205 0l-125 700h176l59 -393q5 -54 8 -91l41 91l214 393h186l-399 -700h-160z" />
    <glyph glyph-name="W" unicode="W" horiz-adv-x="968" 
d="M137 0l-55 700h167l18 -390v-79l33 80l174 389h168l22 -389v-80l33 79l170 390h175l-329 -700h-174l-26 457l-205 -457h-171z" />
    <glyph glyph-name="X" unicode="X" horiz-adv-x="652" 
d="M291 700l82 -193l151 193h181l-271 -335l154 -365h-176l-92 234l-181 -234h-190l308 382l-143 318h177z" />
    <glyph glyph-name="Y" unicode="Y" 
d="M391 266l-52 -266h-162l52 266l-148 434h179l69 -223q6 -28 10 -52l30 52l155 223h184z" />
    <glyph glyph-name="Z" unicode="Z" horiz-adv-x="626" 
d="M99 558l28 142h527l-28 -142l-418 -416h356l-28 -142h-561l28 140l422 418h-326z" />
    <glyph glyph-name="bracketleft" unicode="[" horiz-adv-x="356" 
d="M-22 -150l164 850h251l-26 -132h-107l-113 -586h107l-26 -132h-250z" />
    <glyph glyph-name="backslash" unicode="\" horiz-adv-x="566" 
d="M240 730l253 -760h-150l-253 760h150z" />
    <glyph glyph-name="bracketright" unicode="]" horiz-adv-x="356" 
d="M369 700l-165 -850h-250l26 132h106l113 586h-107l26 132h251z" />
    <glyph glyph-name="asciicircum" unicode="^" horiz-adv-x="526" 
d="M272 700h130l127 -278h-143l-69 156l-129 -156h-152z" />
    <glyph glyph-name="underscore" unicode="_" horiz-adv-x="534" 
d="M-76 -129l22 122h522l-23 -122h-521z" />
    <glyph glyph-name="grave" unicode="`" horiz-adv-x="340" 
d="M290 714l35 -164h-116l-99 164h180z" />
    <glyph glyph-name="a" unicode="a" 
d="M463 496h152l-97 -496h-152l11 54q-56 -68 -150 -68q-91 0 -148.5 64t-57.5 164q0 78 31 144t96 109t153 43q96 0 150 -66zM291 124q57 0 95.5 39.5t38.5 99.5q0 51 -30 80t-80 29q-61 0 -99 -41.5t-38 -97.5q0 -51 32 -80t81 -29z" />
    <glyph glyph-name="b" unicode="b" horiz-adv-x="627" 
d="M-2 0l135 700h152l-49 -255q58 65 152 65q88 0 147 -62.5t59 -160.5q0 -134 -78.5 -217.5t-203.5 -83.5q-102 0 -152 71l-11 -57h-151zM299 124q60 0 99 39t39 101q0 49 -30.5 78.5t-80.5 29.5q-65 0 -102.5 -42.5t-37.5 -99.5q0 -50 32 -78t81 -28z" />
    <glyph glyph-name="c" unicode="c" horiz-adv-x="561" 
d="M404 203l118 -78q-46 -76 -108 -107.5t-146 -31.5q-102 0 -173.5 66t-71.5 170q0 120 80 204t227 84q76 0 134 -36t81 -99l-129 -76q-28 73 -105 73q-58 0 -94.5 -39t-36.5 -95q0 -51 28.5 -82.5t76.5 -31.5q76 0 119 79z" />
    <glyph glyph-name="d" unicode="d" horiz-adv-x="637" 
d="M659 700l-136 -700h-152l10 54q-57 -68 -145 -68q-93 0 -154 66t-61 166q0 118 76.5 205t209.5 87q96 0 150 -66l50 256h152zM294 124q55 0 95.5 39.5t40.5 100.5q0 50 -31.5 79t-81.5 29q-63 0 -101 -40.5t-38 -94.5q0 -50 33 -81.5t83 -31.5z" />
    <glyph glyph-name="e" unicode="e" horiz-adv-x="573" 
d="M529 211h-368q3 -46 30 -71.5t70 -25.5q92 0 135 73l106 -67q-43 -67 -102.5 -100.5t-146.5 -33.5q-105 0 -168.5 64.5t-63.5 168.5q0 119 82 205t212 86q106 0 166.5 -54.5t60.5 -138.5q0 -33 -8 -77zM311 394q-45 0 -79 -21t-49 -57h229q-4 39 -31 58.5t-70 19.5z" />
    <glyph glyph-name="f" unicode="f" horiz-adv-x="360" 
d="M33 380l23 116h69l12 64q35 190 220 190q43 0 75 -13l-27 -135q-27 10 -50 10q-56 0 -66 -54l-12 -62h105l-23 -116h-105l-73 -380h-152l73 380h-69z" />
    <glyph glyph-name="g" unicode="g" horiz-adv-x="601" 
d="M14 15l134 -44q-10 -16 -10 -31q0 -19 21.5 -30.5t61.5 -11.5q107 0 129 114l12 58q-46 -62 -131 -62q-87 0 -148 58t-61 159q0 118 76 201.5t201 83.5q90 0 136 -63l10 49h152l-92 -470q-25 -131 -98 -187.5t-197 -56.5q-103 0 -163.5 44t-60.5 107q0 47 28 82zM303 376
q-59 0 -94 -41t-35 -95q0 -47 29 -72.5t70 -25.5q52 0 88 41t36 100q0 42 -27 67.5t-67 25.5z" />
    <glyph glyph-name="h" unicode="h" horiz-adv-x="612" 
d="M564 333l-65 -333h-152l52 265q4 20 4 27q0 36 -20.5 56t-59.5 20q-101 0 -127 -129l-46 -239h-152l136 700h152l-54 -273q26 37 72 60t99 23q77 0 120.5 -39.5t43.5 -103.5q0 -15 -3 -34z" />
    <glyph glyph-name="i" unicode="i" horiz-adv-x="262" 
d="M-3 0l96 496h152l-96 -496h-152zM98 554l31 160h164l-31 -160h-164z" />
    <glyph glyph-name="j" unicode="j" horiz-adv-x="262" 
d="M-156 -197l41 130q17 -10 43 -10q54 0 68 74l97 499h152l-102 -526q-35 -181 -210 -181q-49 0 -89 14zM98 554l31 160h164l-31 -160h-164z" />
    <glyph glyph-name="k" unicode="k" horiz-adv-x="569" 
d="M286 700l-65 -327l143 123h198l-213 -175l140 -321h-162l-96 223l-46 -38l-35 -185h-152l136 700h152z" />
    <glyph glyph-name="l" unicode="l" horiz-adv-x="262" 
d="M-3 0l136 700h152l-136 -700h-152z" />
    <glyph glyph-name="m" unicode="m" horiz-adv-x="862" 
d="M-3 0l96 496h152l-10 -55q58 69 149 69q94 0 130 -75q63 75 157 75q65 0 106.5 -38.5t41.5 -98.5q0 -16 -7 -49l-63 -324h-152l58 300q2 12 2 19q0 26 -15.5 41.5t-45.5 15.5q-34 0 -58.5 -24t-33.5 -71l-55 -281h-152l58 297q2 12 2 22q0 57 -60 57q-33 0 -58.5 -24.5
t-34.5 -70.5l-55 -281h-152z" />
    <glyph glyph-name="n" unicode="n" horiz-adv-x="600" 
d="M551 327l-64 -327h-152l53 270q4 20 4 30q0 68 -73 68q-48 0 -80 -33.5t-44 -95.5l-46 -239h-152l96 496h152l-12 -66q23 36 67 58t92 22q81 0 122.5 -40.5t41.5 -99.5q0 -16 -5 -43z" />
    <glyph glyph-name="o" unicode="o" horiz-adv-x="612" 
d="M579 275q0 -126 -87 -207.5t-225 -81.5q-102 0 -174 65.5t-72 160.5q0 129 85 213.5t223 84.5q111 0 180.5 -62t69.5 -173zM286 128q59 0 97.5 38.5t38.5 97.5q0 48 -31 76t-81 28q-59 0 -95.5 -40t-36.5 -93q0 -50 32.5 -78.5t75.5 -28.5z" />
    <glyph glyph-name="p" unicode="p" horiz-adv-x="629" 
d="M-41 -204l135 700h152l-10 -54q21 29 62 48.5t94 19.5q87 0 145 -59t58 -168q0 -127 -79 -212t-201 -85q-51 0 -92.5 19.5t-63.5 51.5l-51 -261h-149zM327 372q-62 0 -102 -41t-40 -99q0 -49 32.5 -78.5t81.5 -29.5q56 0 97.5 38.5t41.5 100.5q0 49 -31.5 79t-79.5 30z
" />
    <glyph glyph-name="q" unicode="q" horiz-adv-x="629" 
d="M614 496l-136 -700h-152l51 262q-53 -72 -147 -72q-93 0 -153.5 62t-60.5 165q0 75 31 141t97.5 111t155.5 45q105 0 151 -72l11 58h152zM313 372q-61 0 -100.5 -42t-39.5 -100q0 -48 31.5 -77t79.5 -29q59 0 100 43t41 101q0 47 -32.5 75.5t-79.5 28.5z" />
    <glyph glyph-name="r" unicode="r" horiz-adv-x="403" 
d="M425 503l-53 -141q-20 6 -39 6q-53 0 -89 -37.5t-50 -105.5l-44 -225h-152l96 496h152l-12 -63q22 36 60.5 56.5t84.5 20.5q27 0 46 -7z" />
    <glyph glyph-name="s" unicode="s" horiz-adv-x="510" 
d="M268 404q-26 0 -43 -9.5t-17 -27.5q0 -35 93 -56q76 -17 114 -52t38 -94q0 -80 -60.5 -129.5t-169.5 -49.5q-82 0 -141.5 44t-75.5 111l122 67q24 -100 115 -100q27 0 47.5 11t20.5 31q0 36 -98 60q-59 15 -100 51.5t-41 95.5q0 64 55.5 108.5t148.5 44.5q156 0 203 -127
l-110 -56q-33 77 -101 77z" />
    <glyph glyph-name="t" unicode="t" horiz-adv-x="387" 
d="M38 380l23 116h71l26 134h152l-26 -134h102l-23 -116h-102l-38 -196q-2 -14 -2 -22q0 -42 44 -42q27 0 49 8l-11 -125q-48 -17 -103 -17q-59 0 -97 37t-38 105q0 19 5 49l39 203h-71z" />
    <glyph glyph-name="u" unicode="u" horiz-adv-x="600" 
d="M33 192l59 304h152l-52 -270q-4 -22 -4 -33q0 -31 21 -48t57 -17q44 0 75 34t43 95l46 239h152l-96 -496h-152l12 66q-52 -80 -152 -80q-81 0 -124.5 44.5t-43.5 104.5q0 21 7 57z" />
    <glyph glyph-name="v" unicode="v" horiz-adv-x="564" 
d="M597 496l-299 -496h-149l-104 496h162l50 -299l172 299h168z" />
    <glyph glyph-name="w" unicode="w" horiz-adv-x="740" 
d="M476 496l21 -282l122 282h152l-231 -496h-144l-27 302l-136 -302h-148l-42 496h146l12 -282l129 282h146z" />
    <glyph glyph-name="x" unicode="x" horiz-adv-x="519" 
d="M225 496l43 -108l87 108h174l-195 -231l117 -265h-162l-59 148l-112 -148h-179l228 275l-104 221h162z" />
    <glyph glyph-name="y" unicode="y" horiz-adv-x="567" 
d="M-22 -199l47 135q25 -13 53 -13q30 0 52 38l20 34l-110 501h164l59 -295l168 295h169l-337 -568q-46 -78 -90.5 -108.5t-115.5 -30.5q-53 0 -79 12z" />
    <glyph glyph-name="z" unicode="z" horiz-adv-x="504" 
d="M178 116h259l-23 -116h-439l22 116l296 264h-234l23 116h412l-23 -116z" />
    <glyph glyph-name="braceleft" unicode="{" horiz-adv-x="407" 
d="M26 217l23 116q39 0 61 17.5t31 62.5l20 100q19 101 70 144t145 43h68l-26 -132h-27q-75 0 -92 -87l-20 -99q-10 -48 -28.5 -71t-54.5 -36q47 -20 47 -69q0 -12 -6 -44l-19 -93q-3 -18 -3 -30q0 -57 63 -57h27l-26 -132h-68q-61 0 -104.5 35t-43.5 101q0 27 5 51l20 100
q3 13 3 24q0 56 -65 56z" />
    <glyph glyph-name="bar" unicode="|" horiz-adv-x="276" 
d="M-14 -110l164 850h146l-165 -850h-145z" />
    <glyph glyph-name="braceright" unicode="}" horiz-adv-x="407" 
d="M370 333l-23 -116q-39 0 -61 -17.5t-31 -62.5l-20 -100q-19 -101 -70 -144t-145 -43h-68l26 132h27q75 0 92 87l20 99q10 48 28.5 71t54.5 36q-47 20 -47 69q0 12 6 44l19 93q3 18 3 30q0 57 -63 57h-27l26 132h68q61 0 104.5 -35t43.5 -101q0 -27 -5 -51l-20 -100
q-3 -13 -3 -24q0 -56 65 -56z" />
    <glyph glyph-name="asciitilde" unicode="~" horiz-adv-x="473" 
d="M167 305q-10 0 -18.5 -7t-8.5 -19q0 -7 3 -15l-106 -19q-8 18 -8 45q0 54 34.5 91t99.5 37q39 0 66.5 -15t45.5 -29.5t32 -14.5q10 0 18.5 7t8.5 19q0 7 -3 15l106 19q8 -18 8 -45q0 -128 -137 -128q-37 0 -64 15t-44.5 29.5t-32.5 14.5z" />
    <glyph glyph-name="uni00A0" unicode="&#xa0;" horiz-adv-x="276" 
 />
    <glyph glyph-name="exclamdown" unicode="&#xa1;" horiz-adv-x="292" 
d="M178 53l-50 -257h-162l50 257l60 223h130zM258 496l-31 -156h-150l31 156h150z" />
    <glyph glyph-name="cent" unicode="&#xa2;" horiz-adv-x="570" 
d="M408 203l118 -78q-43 -71 -99 -102.5t-131 -35.5l-18 -97h-112l21 110q-72 24 -116 83t-44 139q0 109 67 189.5t191 95.5l22 113h112l-23 -117q55 -13 94.5 -46t58.5 -82l-129 -76q-17 42 -52 61l-44 -231q51 15 84 74zM184 238q0 -55 32 -87l40 208q-33 -16 -52.5 -49
t-19.5 -72z" />
    <glyph glyph-name="sterling" unicode="&#xa3;" horiz-adv-x="587" 
d="M40 405h59q-2 28 -2 49q0 69 27 126t90 95.5t154 38.5q104 0 165.5 -47.5t61.5 -126.5q0 -44 -24 -96l-141 30q13 31 13 51q0 27 -22.5 44t-58.5 17q-58 0 -85.5 -39.5t-27.5 -105.5q0 -19 1 -36h192l-22 -114h-168q-9 -100 -60 -163h320l-25 -128h-489l21 112
q43 41 65 81t23 98h-89z" />
    <glyph glyph-name="currency" unicode="&#xa4;" horiz-adv-x="662" 
d="M553 350q0 -62 -27 -111l84 -85l-83 -83l-85 85q-52 -29 -111 -29t-111 29l-85 -85l-83 83l84 85q-27 49 -27 111t27 111l-84 85l83 83l85 -85q52 29 111 29t111 -29l85 85l83 -83l-84 -85q27 -49 27 -111zM331 243q46 0 74.5 29.5t28.5 77.5t-28.5 77.5t-74.5 29.5
t-74.5 -29.5t-28.5 -77.5t28.5 -77.5t74.5 -29.5z" />
    <glyph glyph-name="yen" unicode="&#xa5;" horiz-adv-x="646" 
d="M364 96l-19 -96h-162l19 96h-153l24 122h153l9 46h-153l23 122h89l-104 314h174l66 -227q6 -28 10 -52l30 52l157 227h185l-228 -314h89l-23 -122h-153l-9 -46h153l-24 -122h-153z" />
    <glyph glyph-name="brokenbar" unicode="&#xa6;" horiz-adv-x="276" 
d="M228 389h-146l68 351h146zM53 241h146l-68 -351h-145z" />
    <glyph glyph-name="section" unicode="&#xa7;" horiz-adv-x="526" 
d="M475 310q0 -82 -69 -132q23 -38 23 -81q0 -80 -59.5 -135t-167.5 -55q-83 0 -136.5 39t-74.5 103l106 71q30 -103 118 -103q37 0 62 17t25 49q0 29 -25.5 49t-85.5 34t-99.5 54t-39.5 94q0 81 66 129q-22 36 -22 81q0 80 58.5 135t164.5 55q83 0 139 -38.5t76 -103.5
l-106 -71q-30 103 -119 103q-37 0 -61.5 -17t-24.5 -49q0 -59 111 -83q141 -31 141 -145zM249 356q-27 6 -58 22q-20 -20 -20 -40q0 -27 21 -41t84 -32q28 -9 54 -21q24 16 24 43q0 24 -22 38.5t-83 30.5z" />
    <glyph glyph-name="dieresis" unicode="&#xa8;" horiz-adv-x="440" 
d="M297 564l27 143h138l-27 -143h-138zM99 564l27 143h138l-27 -143h-138z" />
    <glyph glyph-name="copyright" unicode="&#xa9;" horiz-adv-x="816" 
d="M44 350q0 151 107 257.5t257 106.5t257 -106.5t107 -257.5t-107 -257.5t-257 -106.5t-257 106.5t-107 257.5zM146 350q0 -110 76.5 -187t185.5 -77t185.5 77t76.5 187t-76.5 187t-185.5 77t-185.5 -77t-76.5 -187zM498 321l96 -63q-55 -112 -184 -112q-89 0 -148 56.5
t-59 147.5q0 90 60.5 147t146.5 57q127 0 179 -105l-94 -63q-28 61 -85 61q-39 0 -63.5 -26.5t-24.5 -70.5q0 -45 24 -70.5t63 -25.5q59 0 89 67z" />
    <glyph glyph-name="ordfeminine" unicode="&#xaa;" horiz-adv-x="401" 
d="M372 300h-103q-6 9 -6 29q0 9 1 18q-35 -54 -106 -54q-50 0 -81.5 29.5t-31.5 75.5q0 48 36 80.5t107 41.5l107 14l1 4q1 5 1 10q0 37 -55 37q-56 0 -56 -36l-103 -34q-2 8 -2 23q0 56 48.5 87.5t121.5 31.5q70 0 107 -30.5t37 -81.5q0 -13 -3 -28l-25 -129
q-5 -28 -5 -43q0 -25 10 -45zM185 374q78 0 96 89l-81 -9q-55 -7 -55 -46q0 -16 11.5 -25t28.5 -9z" />
    <glyph glyph-name="guillemotleft" unicode="&#xab;" horiz-adv-x="621" 
d="M256 499h171l-223 -230l127 -216h-162l-131 222zM478 499h171l-223 -230l127 -216h-162l-131 222z" />
    <glyph glyph-name="logicalnot" unicode="&#xac;" horiz-adv-x="558" 
d="M475 162h-140l27 142h-326l24 122h466z" />
    <glyph glyph-name="registered" unicode="&#xae;" horiz-adv-x="816" 
d="M44 350q0 151 107 257.5t257 106.5t257 -106.5t107 -257.5t-107 -257.5t-257 -106.5t-257 106.5t-107 257.5zM146 350q0 -110 76.5 -187t185.5 -77t185.5 77t76.5 187t-76.5 187t-185.5 77t-185.5 -77t-76.5 -187zM456 151l-88 147h-12v-147h-101v398h172
q69 0 106.5 -34.5t37.5 -91.5q0 -47 -29 -79t-71 -42l94 -151h-109zM357 464v-81h64q51 0 51 40q0 41 -51 41h-64z" />
    <glyph glyph-name="macron" unicode="&#xaf;" horiz-adv-x="336" 
d="M93 584l19 102h264l-19 -102h-264z" />
    <glyph glyph-name="degree" unicode="&#xb0;" horiz-adv-x="352" 
d="M87 573q0 58 42 99.5t101 41.5t101 -41.5t42 -99.5t-42 -99.5t-101 -41.5t-101 41.5t-42 99.5zM174 573q0 -24 15.5 -39.5t40.5 -15.5t40.5 15.5t15.5 39.5q0 25 -15.5 40.5t-40.5 15.5t-40.5 -15.5t-15.5 -40.5z" />
    <glyph glyph-name="plusminus" unicode="&#xb1;" horiz-adv-x="601" 
d="M313 700h124l-38 -194h193l-23 -122h-193l-38 -194h-124l38 194h-193l23 122h193zM-14 0l23 122h510l-23 -122h-510z" />
    <glyph glyph-name="twosuperior" unicode="&#xb2;" horiz-adv-x="344" 
d="M59 403l157 127q39 31 39 62q0 35 -36 35q-17 0 -29 -11.5t-12 -30.5q0 -8 2 -16l-95 -12q-3 13 -3 27q0 52 39 87.5t103 35.5q56 0 93 -26.5t37 -73.5q0 -63 -75 -125l-60 -50h109l-16 -82h-263z" />
    <glyph glyph-name="threesuperior" unicode="&#xb3;" horiz-adv-x="354" 
d="M89 492l90 -21q-4 -11 -4 -21q0 -13 10 -20.5t26 -7.5q22 0 34.5 11.5t12.5 30.5q0 38 -68 38l13 67q71 0 71 38q0 26 -32 26q-16 0 -26.5 -9t-10.5 -25q0 -6 1 -10l-94 -12q-2 8 -2 22q0 50 40 79t100 29q55 0 88 -23.5t33 -56.5q0 -57 -53 -84q41 -21 41 -73
q0 -59 -41 -93t-113 -34q-57 0 -93.5 30t-36.5 70q0 30 14 49z" />
    <glyph glyph-name="acute" unicode="&#xb4;" horiz-adv-x="340" 
d="M108 550l95 164h184l-159 -164h-120z" />
    <glyph glyph-name="mu" unicode="&#xb5;" horiz-adv-x="600" 
d="M-43 -204l135 700h152l-52 -270q-3 -16 -3 -27q0 -71 77 -71q44 0 75 34t43 95l46 239h152l-96 -496h-152l12 66q-52 -80 -152 -80q-33 0 -55 7q0 -39 -6 -71l-24 -126h-152z" />
    <glyph glyph-name="paragraph" unicode="&#xb6;" horiz-adv-x="684" 
d="M443 570l-134 -690h-130l81 420h-9q-79 0 -134 48.5t-55 129.5q0 96 72 159t195 63h402l-25 -130h-65l-134 -690h-130l134 690h-68z" />
    <glyph glyph-name="periodcentered" unicode="&#xb7;" horiz-adv-x="226" 
d="M35 280l29 154h154l-29 -154h-154z" />
    <glyph glyph-name="cedilla" unicode="&#xb8;" horiz-adv-x="290" 
d="M45 -117l-40 37l53 96h80l-53 -66q18 6 35 6q29 0 48 -18t19 -47q0 -45 -30.5 -70t-77.5 -25q-76 0 -94 62l80 19q2 -17 20 -17q21 0 21 22q0 18 -21 18q-20 0 -40 -17z" />
    <glyph glyph-name="onesuperior" unicode="&#xb9;" horiz-adv-x="261" 
d="M78 564l18 93q58 0 87 43h98l-69 -350h-102l47 238q-27 -24 -79 -24z" />
    <glyph glyph-name="ordmasculine" unicode="&#xba;" horiz-adv-x="454" 
d="M441 502q0 -87 -59.5 -148t-158.5 -61q-71 0 -121.5 41t-50.5 120q0 81 58.5 142t159.5 61q69 0 120.5 -39.5t51.5 -115.5zM237 392q40 0 68 28.5t28 69.5q0 33 -22 51t-56 18q-43 0 -70 -28t-27 -68q0 -34 22.5 -52.5t56.5 -18.5z" />
    <glyph glyph-name="guillemotright" unicode="&#xbb;" horiz-adv-x="621" 
d="M371 53h-171l223 230l-127 216h162l131 -222zM149 53h-171l223 230l-127 216h162l131 -222z" />
    <glyph glyph-name="onequarter" unicode="&#xbc;" horiz-adv-x="732" 
d="M357 52l15 77l204 221h94l-43 -221h36l-15 -77h-36l-11 -52h-94l11 52h-161zM549 217l-81 -88h65zM122 -10l-70 61l564 659l70 -61zM72 564l18 93q58 0 87 43h98l-69 -350h-102l47 238q-27 -24 -79 -24z" />
    <glyph glyph-name="onehalf" unicode="&#xbd;" horiz-adv-x="732" 
d="M110 -10l-70 61l564 659l70 -61zM60 564l18 93q58 0 87 43h98l-69 -350h-102l47 238q-27 -24 -79 -24zM410 53l157 127q39 31 39 62q0 35 -36 35q-17 0 -29 -11.5t-12 -30.5q0 -8 2 -16l-95 -12q-3 13 -3 27q0 52 39 87.5t103 35.5q56 0 93 -26.5t37 -73.5
q0 -63 -75 -125l-60 -50h109l-16 -82h-263z" />
    <glyph glyph-name="threequarters" unicode="&#xbe;" horiz-adv-x="762" 
d="M408 52l15 77l204 221h94l-43 -221h36l-15 -77h-36l-11 -52h-94l11 52h-161zM600 217l-81 -88h65zM159 -10l-70 61l564 659l70 -61zM56 492l90 -21q-4 -11 -4 -21q0 -13 10 -20.5t26 -7.5q22 0 34.5 11.5t12.5 30.5q0 38 -68 38l13 67q71 0 71 38q0 26 -32 26
q-16 0 -26.5 -9t-10.5 -25q0 -6 1 -10l-94 -12q-2 8 -2 22q0 50 40 79t100 29q55 0 88 -23.5t33 -56.5q0 -57 -53 -84q41 -21 41 -73q0 -59 -41 -93t-113 -34q-57 0 -93.5 30t-36.5 70q0 30 14 49z" />
    <glyph glyph-name="questiondown" unicode="&#xbf;" horiz-adv-x="557" 
d="M212 284h146l-3 -16q-10 -55 -35.5 -86.5t-85.5 -71.5q-56 -38 -78 -63.5t-22 -62.5q0 -28 20.5 -48t57.5 -20q44 0 72.5 26.5t28.5 65.5q0 15 -2 25l149 31q5 -17 5 -40q0 -104 -70 -173t-195 -69q-104 0 -163.5 48t-59.5 129q0 123 141 212q47 30 67 54.5t27 58.5z
M401 496l-30 -156h-150l30 156h150z" />
    <glyph glyph-name="Agrave" unicode="&#xc0;" horiz-adv-x="732" 
d="M-53 0l417 700h159l145 -700h-172l-30 169h-244l-96 -169h-179zM364 421l-64 -114h142l-20 114q-8 41 -13 83zM473 918l35 -164h-116l-99 164h180z" />
    <glyph glyph-name="Aacute" unicode="&#xc1;" horiz-adv-x="732" 
d="M-53 0l417 700h159l145 -700h-172l-30 169h-244l-96 -169h-179zM364 421l-64 -114h142l-20 114q-8 41 -13 83zM386 754l95 164h184l-159 -164h-120z" />
    <glyph glyph-name="Acircumflex" unicode="&#xc2;" horiz-adv-x="732" 
d="M-53 0l417 700h159l145 -700h-172l-30 169h-244l-96 -169h-179zM364 421l-64 -114h142l-20 114q-8 41 -13 83zM270 754l150 164h101l90 -164h-113l-45 53l-64 -53h-119z" />
    <glyph glyph-name="Atilde" unicode="&#xc3;" horiz-adv-x="732" 
d="M-53 0l417 700h159l145 -700h-172l-30 169h-244l-96 -169h-179zM364 421l-64 -114h142l-20 114q-8 41 -13 83zM379 812q-10 0 -16.5 -7t-6.5 -18q0 -7 3 -15l-95 -19q-7 16 -7 38q0 50 33 84t91 34q31 0 54.5 -10.5t34.5 -22.5t24 -22.5t25 -10.5q24 0 24 23q0 10 -3 17
l95 19q7 -16 7 -44q0 -45 -33.5 -78.5t-90.5 -33.5q-30 0 -53 10.5t-34.5 22.5t-25 22.5t-26.5 10.5z" />
    <glyph glyph-name="Adieresis" unicode="&#xc4;" horiz-adv-x="732" 
d="M-53 0l417 700h159l145 -700h-172l-30 169h-244l-96 -169h-179zM364 421l-64 -114h142l-20 114q-8 41 -13 83zM486 768l27 143h138l-27 -143h-138zM288 768l27 143h138l-27 -143h-138z" />
    <glyph glyph-name="Aring" unicode="&#xc5;" horiz-adv-x="732" 
d="M-53 0l417 700h159l145 -700h-172l-30 169h-244l-96 -169h-179zM364 421l-64 -114h142l-20 114q-8 41 -13 83zM354 839q0 42 30 71.5t72 29.5t72 -29.5t30 -71.5t-30 -71.5t-72 -29.5t-72 29.5t-30 71.5zM427 839q0 -13 8 -21t21 -8t21 8t8 21t-8 21t-21 8t-21 -8t-8 -21
z" />
    <glyph glyph-name="AE" unicode="&#xc6;" horiz-adv-x="1021" 
d="M394 0l33 169h-196l-107 -169h-177l453 700h642l-28 -142h-349l-25 -127h321l-27 -138h-321l-29 -151h352l-28 -142h-514zM478 558l-160 -251h136l49 251h-25z" />
    <glyph glyph-name="Ccedilla" unicode="&#xc7;" horiz-adv-x="771" 
d="M309 -117l-40 37l38 70q-116 16 -189.5 99.5t-73.5 211.5q0 112 48.5 205t144.5 150.5t222 57.5q114 0 187.5 -51.5t110.5 -134.5l-142 -88q-48 124 -180 124q-99 0 -163 -74t-64 -173q0 -81 47 -131t122 -50q62 0 113 36t84 93l132 -88q-66 -98 -144 -142.5t-184 -47.5
l-29 -37q18 6 35 6q29 0 48 -18t19 -47q0 -45 -30.5 -70t-77.5 -25q-76 0 -94 62l80 19q2 -17 20 -17q21 0 21 22q0 18 -21 18q-20 0 -40 -17z" />
    <glyph glyph-name="Egrave" unicode="&#xc8;" horiz-adv-x="629" 
d="M7 0l136 700h507l-28 -142h-345l-25 -127h317l-27 -138h-317l-29 -151h348l-28 -142h-509zM436 918l35 -164h-116l-99 164h180z" />
    <glyph glyph-name="Eacute" unicode="&#xc9;" horiz-adv-x="629" 
d="M7 0l136 700h507l-28 -142h-345l-25 -127h317l-27 -138h-317l-29 -151h348l-28 -142h-509zM309 754l95 164h184l-159 -164h-120z" />
    <glyph glyph-name="Ecircumflex" unicode="&#xca;" horiz-adv-x="629" 
d="M7 0l136 700h507l-28 -142h-345l-25 -127h317l-27 -138h-317l-29 -151h348l-28 -142h-509zM234 754l150 164h101l90 -164h-113l-45 53l-64 -53h-119z" />
    <glyph glyph-name="Edieresis" unicode="&#xcb;" horiz-adv-x="629" 
d="M7 0l136 700h507l-28 -142h-345l-25 -127h317l-27 -138h-317l-29 -151h348l-28 -142h-509zM440 768l27 143h138l-27 -143h-138zM242 768l27 143h138l-27 -143h-138z" />
    <glyph glyph-name="Igrave" unicode="&#xcc;" horiz-adv-x="292" 
d="M7 0l136 700h162l-136 -700h-162zM267 918l35 -164h-116l-99 164h180z" />
    <glyph glyph-name="Iacute" unicode="&#xcd;" horiz-adv-x="292" 
d="M7 0l136 700h162l-136 -700h-162zM160 754l95 164h184l-159 -164h-120z" />
    <glyph glyph-name="Icircumflex" unicode="&#xce;" horiz-adv-x="292" 
d="M7 0l136 700h162l-136 -700h-162zM60 754l150 164h101l90 -164h-113l-45 53l-64 -53h-119z" />
    <glyph glyph-name="Idieresis" unicode="&#xcf;" horiz-adv-x="292" 
d="M7 0l136 700h162l-136 -700h-162zM265 768l27 143h138l-27 -143h-138zM67 768l27 143h138l-27 -143h-138z" />
    <glyph glyph-name="Eth" unicode="&#xd0;" horiz-adv-x="768" 
d="M47 0l55 285h-75l25 130h75l56 285h226q153 0 240 -75.5t87 -219.5q0 -181 -117.5 -293t-337.5 -112h-234zM316 146q115 1 185.5 69.5t70.5 169.5q0 169 -177 169h-79l-27 -139h151l-25 -130h-151l-27 -139h79z" />
    <glyph glyph-name="Ntilde" unicode="&#xd1;" horiz-adv-x="736" 
d="M9 0l136 700h164l172 -401q17 -40 20 -55l89 456h157l-137 -700h-164l-171 405q-16 40 -19 55l-90 -460h-157zM397 812q-10 0 -16.5 -7t-6.5 -18q0 -7 3 -15l-95 -19q-7 16 -7 38q0 50 33 84t91 34q31 0 54.5 -10.5t34.5 -22.5t24 -22.5t25 -10.5q24 0 24 23q0 10 -3 17
l95 19q7 -16 7 -44q0 -45 -33.5 -78.5t-90.5 -33.5q-30 0 -53 10.5t-34.5 22.5t-25 22.5t-26.5 10.5z" />
    <glyph glyph-name="Ograve" unicode="&#xd2;" horiz-adv-x="818" 
d="M786 397q0 -178 -115.5 -294.5t-300.5 -116.5q-143 0 -235 92.5t-92 228.5q0 108 46.5 199.5t142 149.5t223.5 58q152 0 241.5 -88.5t89.5 -228.5zM393 136q99 0 164 71.5t65 176.5q0 82 -52 131t-134 49q-99 0 -164 -72.5t-65 -177.5q0 -83 54 -130.5t132 -47.5z
M500 918l35 -164h-116l-99 164h180z" />
    <glyph glyph-name="Oacute" unicode="&#xd3;" horiz-adv-x="818" 
d="M786 397q0 -178 -115.5 -294.5t-300.5 -116.5q-143 0 -235 92.5t-92 228.5q0 108 46.5 199.5t142 149.5t223.5 58q152 0 241.5 -88.5t89.5 -228.5zM393 136q99 0 164 71.5t65 176.5q0 82 -52 131t-134 49q-99 0 -164 -72.5t-65 -177.5q0 -83 54 -130.5t132 -47.5z
M398 754l95 164h184l-159 -164h-120z" />
    <glyph glyph-name="Ocircumflex" unicode="&#xd4;" horiz-adv-x="818" 
d="M786 397q0 -178 -115.5 -294.5t-300.5 -116.5q-143 0 -235 92.5t-92 228.5q0 108 46.5 199.5t142 149.5t223.5 58q152 0 241.5 -88.5t89.5 -228.5zM393 136q99 0 164 71.5t65 176.5q0 82 -52 131t-134 49q-99 0 -164 -72.5t-65 -177.5q0 -83 54 -130.5t132 -47.5z
M293 754l150 164h101l90 -164h-113l-45 53l-64 -53h-119z" />
    <glyph glyph-name="Otilde" unicode="&#xd5;" horiz-adv-x="818" 
d="M786 397q0 -178 -115.5 -294.5t-300.5 -116.5q-143 0 -235 92.5t-92 228.5q0 108 46.5 199.5t142 149.5t223.5 58q152 0 241.5 -88.5t89.5 -228.5zM393 136q99 0 164 71.5t65 176.5q0 82 -52 131t-134 49q-99 0 -164 -72.5t-65 -177.5q0 -83 54 -130.5t132 -47.5z
M409 812q-10 0 -16.5 -7t-6.5 -18q0 -7 3 -15l-95 -19q-7 16 -7 38q0 50 33 84t91 34q31 0 54.5 -10.5t34.5 -22.5t24 -22.5t25 -10.5q24 0 24 23q0 10 -3 17l95 19q7 -16 7 -44q0 -45 -33.5 -78.5t-90.5 -33.5q-30 0 -53 10.5t-34.5 22.5t-25 22.5t-26.5 10.5z" />
    <glyph glyph-name="Odieresis" unicode="&#xd6;" horiz-adv-x="818" 
d="M786 397q0 -178 -115.5 -294.5t-300.5 -116.5q-143 0 -235 92.5t-92 228.5q0 108 46.5 199.5t142 149.5t223.5 58q152 0 241.5 -88.5t89.5 -228.5zM393 136q99 0 164 71.5t65 176.5q0 82 -52 131t-134 49q-99 0 -164 -72.5t-65 -177.5q0 -83 54 -130.5t132 -47.5z
M498 768l27 143h138l-27 -143h-138zM300 768l27 143h138l-27 -143h-138z" />
    <glyph glyph-name="multiply" unicode="&#xd7;" horiz-adv-x="572" 
d="M107 502l101 84l106 -133l166 139l74 -92l-165 -139l109 -135l-101 -84l-109 135l-164 -137l-74 92l164 137z" />
    <glyph glyph-name="Oslash" unicode="&#xd8;" horiz-adv-x="818" 
d="M786 397q0 -178 -115.5 -294.5t-300.5 -116.5q-66 0 -126 22l-61 -85l-101 73l57 79q-96 91 -96 232q0 108 46.5 199.5t142 149.5t223.5 58q67 0 130 -21l61 84l101 -73l-54 -75q93 -88 93 -232zM393 136q99 0 164 71.5t65 176.5q0 59 -30 105l-251 -347q24 -6 52 -6z
M207 314q0 -56 30 -103l251 347q-25 6 -52 6q-99 0 -164 -72.5t-65 -177.5z" />
    <glyph glyph-name="Ugrave" unicode="&#xd9;" horiz-adv-x="712" 
d="M732 700l-83 -424q-29 -149 -116 -219.5t-238 -70.5q-101 0 -173.5 62t-72.5 169q0 33 9 83l78 400h162l-79 -404q-6 -32 -6 -48q0 -55 31.5 -83.5t85.5 -28.5q130 0 161 160l79 404h162zM482 918l35 -164h-116l-99 164h180z" />
    <glyph glyph-name="Uacute" unicode="&#xda;" horiz-adv-x="712" 
d="M732 700l-83 -424q-29 -149 -116 -219.5t-238 -70.5q-101 0 -173.5 62t-72.5 169q0 33 9 83l78 400h162l-79 -404q-6 -32 -6 -48q0 -55 31.5 -83.5t85.5 -28.5q130 0 161 160l79 404h162zM360 754l95 164h184l-159 -164h-120z" />
    <glyph glyph-name="Ucircumflex" unicode="&#xdb;" horiz-adv-x="712" 
d="M732 700l-83 -424q-29 -149 -116 -219.5t-238 -70.5q-101 0 -173.5 62t-72.5 169q0 33 9 83l78 400h162l-79 -404q-6 -32 -6 -48q0 -55 31.5 -83.5t85.5 -28.5q130 0 161 160l79 404h162zM274 754l150 164h101l90 -164h-113l-45 53l-64 -53h-119z" />
    <glyph glyph-name="Udieresis" unicode="&#xdc;" horiz-adv-x="712" 
d="M732 700l-83 -424q-29 -149 -116 -219.5t-238 -70.5q-101 0 -173.5 62t-72.5 169q0 33 9 83l78 400h162l-79 -404q-6 -32 -6 -48q0 -55 31.5 -83.5t85.5 -28.5q130 0 161 160l79 404h162zM476 768l27 143h138l-27 -143h-138zM278 768l27 143h138l-27 -143h-138z" />
    <glyph glyph-name="Yacute" unicode="&#xdd;" 
d="M391 266l-52 -266h-162l52 266l-148 434h179l69 -223q6 -28 10 -52l30 52l155 223h184zM326 754l95 164h184l-159 -164h-120z" />
    <glyph glyph-name="Thorn" unicode="&#xde;" horiz-adv-x="706" 
d="M7 0l136 700h162l-24 -119h150q114 0 181.5 -54t67.5 -156q0 -122 -90 -187t-232 -65h-166l-23 -119h-162zM255 447l-37 -194h159q63 0 101 28.5t38 79.5q0 42 -27 64t-75 22h-159z" />
    <glyph glyph-name="germandbls" unicode="&#xdf;" horiz-adv-x="611" 
d="M253 319l25 127h30q51 0 82.5 21.5t31.5 59.5q0 28 -17.5 44.5t-51.5 16.5q-81 0 -100 -100l-95 -488h-142l75 380h-56l22 116h56q20 106 87.5 162t173.5 56q93 0 146.5 -47t53.5 -112q0 -118 -117 -165q105 -54 105 -175q0 -94 -66 -161.5t-174 -67.5q-76 0 -138 41
l79 113q29 -26 62 -26q37 0 58.5 26t21.5 68q0 49 -34.5 80t-90.5 31h-27z" />
    <glyph glyph-name="agrave" unicode="&#xe0;" 
d="M463 496h152l-97 -496h-152l11 54q-56 -68 -150 -68q-91 0 -148.5 64t-57.5 164q0 78 31 144t96 109t153 43q96 0 150 -66zM291 124q57 0 95.5 39.5t38.5 99.5q0 51 -30 80t-80 29q-61 0 -99 -41.5t-38 -97.5q0 -51 32 -80t81 -29zM391 714l35 -164h-116l-99 164h180z
" />
    <glyph glyph-name="aacute" unicode="&#xe1;" 
d="M463 496h152l-97 -496h-152l11 54q-56 -68 -150 -68q-91 0 -148.5 64t-57.5 164q0 78 31 144t96 109t153 43q96 0 150 -66zM291 124q57 0 95.5 39.5t38.5 99.5q0 51 -30 80t-80 29q-61 0 -99 -41.5t-38 -97.5q0 -51 32 -80t81 -29zM277 550l95 164h184l-159 -164h-120z
" />
    <glyph glyph-name="acircumflex" unicode="&#xe2;" 
d="M463 496h152l-97 -496h-152l11 54q-56 -68 -150 -68q-91 0 -148.5 64t-57.5 164q0 78 31 144t96 109t153 43q96 0 150 -66zM291 124q57 0 95.5 39.5t38.5 99.5q0 51 -30 80t-80 29q-61 0 -99 -41.5t-38 -97.5q0 -51 32 -80t81 -29zM176 550l150 164h101l90 -164h-113
l-45 53l-64 -53h-119z" />
    <glyph glyph-name="atilde" unicode="&#xe3;" 
d="M463 496h152l-97 -496h-152l11 54q-56 -68 -150 -68q-91 0 -148.5 64t-57.5 164q0 78 31 144t96 109t153 43q96 0 150 -66zM291 124q57 0 95.5 39.5t38.5 99.5q0 51 -30 80t-80 29q-61 0 -99 -41.5t-38 -97.5q0 -51 32 -80t81 -29zM298 608q-10 0 -16.5 -7t-6.5 -18
q0 -7 3 -15l-95 -19q-7 16 -7 38q0 50 33 84t91 34q31 0 54.5 -10.5t34.5 -22.5t24 -22.5t25 -10.5q24 0 24 23q0 10 -3 17l95 19q7 -16 7 -44q0 -45 -33.5 -78.5t-90.5 -33.5q-30 0 -53 10.5t-34.5 22.5t-25 22.5t-26.5 10.5z" />
    <glyph glyph-name="adieresis" unicode="&#xe4;" 
d="M463 496h152l-97 -496h-152l11 54q-56 -68 -150 -68q-91 0 -148.5 64t-57.5 164q0 78 31 144t96 109t153 43q96 0 150 -66zM291 124q57 0 95.5 39.5t38.5 99.5q0 51 -30 80t-80 29q-61 0 -99 -41.5t-38 -97.5q0 -51 32 -80t81 -29zM385 564l27 143h138l-27 -143h-138z
M187 564l27 143h138l-27 -143h-138z" />
    <glyph glyph-name="aring" unicode="&#xe5;" 
d="M463 496h152l-97 -496h-152l11 54q-56 -68 -150 -68q-91 0 -148.5 64t-57.5 164q0 78 31 144t96 109t153 43q96 0 150 -66zM291 124q57 0 95.5 39.5t38.5 99.5q0 51 -30 80t-80 29q-61 0 -99 -41.5t-38 -97.5q0 -51 32 -80t81 -29zM250 635q0 42 30 71.5t72 29.5
t72 -29.5t30 -71.5t-30 -71.5t-72 -29.5t-72 29.5t-30 71.5zM323 635q0 -13 8 -21t21 -8t21 8t8 21t-8 21t-21 8t-21 -8t-8 -21z" />
    <glyph glyph-name="ae" unicode="&#xe6;" horiz-adv-x="977" 
d="M933 211h-368q3 -46 30 -71.5t70 -25.5q92 0 135 73l106 -67q-43 -67 -102.5 -100.5t-146.5 -33.5q-79 0 -132 51l-7 -37h-152l11 54q-56 -68 -150 -68q-91 0 -148.5 64t-57.5 164q0 78 31 144t96 109t153 43q96 0 150 -66l12 52h152l-6 -30q54 44 131 44q93 0 149.5 -56
t56.5 -137q0 -33 -8 -77zM291 124q57 0 95.5 39.5t38.5 99.5q0 51 -30 80t-80 29q-61 0 -99 -41.5t-38 -97.5q0 -51 32 -80t81 -29zM715 394q-45 0 -79 -21t-49 -57h229q-4 39 -31 58.5t-70 19.5z" />
    <glyph glyph-name="ccedilla" unicode="&#xe7;" horiz-adv-x="561" 
d="M205 -117l-40 37l40 73q-80 18 -131 80t-51 149q0 120 80 204t227 84q76 0 134 -36t81 -99l-129 -76q-28 73 -105 73q-58 0 -94.5 -39t-36.5 -95q0 -51 28.5 -82.5t76.5 -31.5q76 0 119 79l118 -78q-46 -75 -106.5 -106.5t-141.5 -32.5l-29 -36q18 6 35 6q29 0 48 -18
t19 -47q0 -45 -30.5 -70t-77.5 -25q-76 0 -94 62l80 19q2 -17 20 -17q21 0 21 22q0 18 -21 18q-20 0 -40 -17z" />
    <glyph glyph-name="egrave" unicode="&#xe8;" horiz-adv-x="573" 
d="M529 211h-368q3 -46 30 -71.5t70 -25.5q92 0 135 73l106 -67q-43 -67 -102.5 -100.5t-146.5 -33.5q-105 0 -168.5 64.5t-63.5 168.5q0 119 82 205t212 86q106 0 166.5 -54.5t60.5 -138.5q0 -33 -8 -77zM311 394q-45 0 -79 -21t-49 -57h229q-4 39 -31 58.5t-70 19.5z
M359 714l35 -164h-116l-99 164h180z" />
    <glyph glyph-name="eacute" unicode="&#xe9;" horiz-adv-x="573" 
d="M529 211h-368q3 -46 30 -71.5t70 -25.5q92 0 135 73l106 -67q-43 -67 -102.5 -100.5t-146.5 -33.5q-105 0 -168.5 64.5t-63.5 168.5q0 119 82 205t212 86q106 0 166.5 -54.5t60.5 -138.5q0 -33 -8 -77zM311 394q-45 0 -79 -21t-49 -57h229q-4 39 -31 58.5t-70 19.5z
M243 550l95 164h184l-159 -164h-120z" />
    <glyph glyph-name="ecircumflex" unicode="&#xea;" horiz-adv-x="573" 
d="M529 211h-368q3 -46 30 -71.5t70 -25.5q92 0 135 73l106 -67q-43 -67 -102.5 -100.5t-146.5 -33.5q-105 0 -168.5 64.5t-63.5 168.5q0 119 82 205t212 86q106 0 166.5 -54.5t60.5 -138.5q0 -33 -8 -77zM311 394q-45 0 -79 -21t-49 -57h229q-4 39 -31 58.5t-70 19.5z
M152 550l150 164h101l90 -164h-113l-45 53l-64 -53h-119z" />
    <glyph glyph-name="edieresis" unicode="&#xeb;" horiz-adv-x="573" 
d="M529 211h-368q3 -46 30 -71.5t70 -25.5q92 0 135 73l106 -67q-43 -67 -102.5 -100.5t-146.5 -33.5q-105 0 -168.5 64.5t-63.5 168.5q0 119 82 205t212 86q106 0 166.5 -54.5t60.5 -138.5q0 -33 -8 -77zM311 394q-45 0 -79 -21t-49 -57h229q-4 39 -31 58.5t-70 19.5z
M353 564l27 143h138l-27 -143h-138zM155 564l27 143h138l-27 -143h-138z" />
    <glyph glyph-name="igrave" unicode="&#xec;" horiz-adv-x="262" 
d="M-3 0l96 496h152l-96 -496h-152zM207 714l35 -164h-116l-99 164h180z" />
    <glyph glyph-name="iacute" unicode="&#xed;" horiz-adv-x="262" 
d="M-3 0l96 496h152l-96 -496h-152zM113 550l95 164h184l-159 -164h-120z" />
    <glyph glyph-name="icircumflex" unicode="&#xee;" horiz-adv-x="262" 
d="M-3 0l96 496h152l-96 -496h-152zM1 550l150 164h101l90 -164h-113l-45 53l-64 -53h-119z" />
    <glyph glyph-name="idieresis" unicode="&#xef;" horiz-adv-x="262" 
d="M-3 0l96 496h152l-96 -496h-152zM211 564l27 143h138l-27 -143h-138zM13 564l27 143h138l-27 -143h-138z" />
    <glyph glyph-name="eth" unicode="&#xf0;" horiz-adv-x="591" 
d="M275 493l-29 86l59 21q-39 27 -95 50l71 105q96 -41 162 -105l122 44l30 -86l-92 -33q66 -104 66 -241q0 -157 -82 -252.5t-235 -95.5q-100 0 -163 60.5t-63 151.5q0 113 79 188.5t200 75.5q74 0 128 -39q-20 60 -55 107zM304 340q-58 0 -95.5 -39.5t-37.5 -94.5
q0 -42 30.5 -70t73.5 -28q55 0 93.5 38.5t38.5 94.5q0 47 -29.5 73t-73.5 26z" />
    <glyph glyph-name="ntilde" unicode="&#xf1;" horiz-adv-x="600" 
d="M551 327l-64 -327h-152l53 270q4 20 4 30q0 68 -73 68q-48 0 -80 -33.5t-44 -95.5l-46 -239h-152l96 496h152l-12 -66q23 36 67 58t92 22q81 0 122.5 -40.5t41.5 -99.5q0 -16 -5 -43zM292 608q-10 0 -16.5 -7t-6.5 -18q0 -7 3 -15l-95 -19q-7 16 -7 38q0 50 33 84t91 34
q31 0 54.5 -10.5t34.5 -22.5t24 -22.5t25 -10.5q24 0 24 23q0 10 -3 17l95 19q7 -16 7 -44q0 -45 -33.5 -78.5t-90.5 -33.5q-30 0 -53 10.5t-34.5 22.5t-25 22.5t-26.5 10.5z" />
    <glyph glyph-name="ograve" unicode="&#xf2;" horiz-adv-x="612" 
d="M579 275q0 -126 -87 -207.5t-225 -81.5q-102 0 -174 65.5t-72 160.5q0 129 85 213.5t223 84.5q111 0 180.5 -62t69.5 -173zM286 128q59 0 97.5 38.5t38.5 97.5q0 48 -31 76t-81 28q-59 0 -95.5 -40t-36.5 -93q0 -50 32.5 -78.5t75.5 -28.5zM372 714l35 -164h-116l-99 164
h180z" />
    <glyph glyph-name="oacute" unicode="&#xf3;" horiz-adv-x="612" 
d="M579 275q0 -126 -87 -207.5t-225 -81.5q-102 0 -174 65.5t-72 160.5q0 129 85 213.5t223 84.5q111 0 180.5 -62t69.5 -173zM286 128q59 0 97.5 38.5t38.5 97.5q0 48 -31 76t-81 28q-59 0 -95.5 -40t-36.5 -93q0 -50 32.5 -78.5t75.5 -28.5zM274 550l95 164h184l-159 -164
h-120z" />
    <glyph glyph-name="ocircumflex" unicode="&#xf4;" horiz-adv-x="612" 
d="M579 275q0 -126 -87 -207.5t-225 -81.5q-102 0 -174 65.5t-72 160.5q0 129 85 213.5t223 84.5q111 0 180.5 -62t69.5 -173zM286 128q59 0 97.5 38.5t38.5 97.5q0 48 -31 76t-81 28q-59 0 -95.5 -40t-36.5 -93q0 -50 32.5 -78.5t75.5 -28.5zM170 550l150 164h101l90 -164
h-113l-45 53l-64 -53h-119z" />
    <glyph glyph-name="otilde" unicode="&#xf5;" horiz-adv-x="612" 
d="M579 275q0 -126 -87 -207.5t-225 -81.5q-102 0 -174 65.5t-72 160.5q0 129 85 213.5t223 84.5q111 0 180.5 -62t69.5 -173zM286 128q59 0 97.5 38.5t38.5 97.5q0 48 -31 76t-81 28q-59 0 -95.5 -40t-36.5 -93q0 -50 32.5 -78.5t75.5 -28.5zM282 608q-10 0 -16.5 -7
t-6.5 -18q0 -7 3 -15l-95 -19q-7 16 -7 38q0 50 33 84t91 34q31 0 54.5 -10.5t34.5 -22.5t24 -22.5t25 -10.5q24 0 24 23q0 10 -3 17l95 19q7 -16 7 -44q0 -45 -33.5 -78.5t-90.5 -33.5q-30 0 -53 10.5t-34.5 22.5t-25 22.5t-26.5 10.5z" />
    <glyph glyph-name="odieresis" unicode="&#xf6;" horiz-adv-x="612" 
d="M579 275q0 -126 -87 -207.5t-225 -81.5q-102 0 -174 65.5t-72 160.5q0 129 85 213.5t223 84.5q111 0 180.5 -62t69.5 -173zM286 128q59 0 97.5 38.5t38.5 97.5q0 48 -31 76t-81 28q-59 0 -95.5 -40t-36.5 -93q0 -50 32.5 -78.5t75.5 -28.5zM374 564l27 143h138l-27 -143
h-138zM176 564l27 143h138l-27 -143h-138z" />
    <glyph glyph-name="divide" unicode="&#xf7;" horiz-adv-x="601" 
d="M226 336l30 154h154l-30 -154h-154zM162 0l29 154h154l-30 -154h-153zM20 184l23 122h510l-23 -122h-510z" />
    <glyph glyph-name="oslash" unicode="&#xf8;" horiz-adv-x="612" 
d="M579 275q0 -126 -87 -207.5t-225 -81.5q-46 0 -92 16l-38 -49l-85 64l33 42q-64 64 -64 153q0 129 85 213.5t223 84.5q52 0 97 -15l37 48l85 -64l-31 -39q62 -64 62 -165zM178 235q0 -25 9 -45l138 177q-5 1 -15 1q-59 0 -95.5 -40t-36.5 -93zM286 128q59 0 97.5 38.5
t38.5 97.5q0 23 -8 42l-140 -178h12z" />
    <glyph glyph-name="ugrave" unicode="&#xf9;" horiz-adv-x="600" 
d="M33 192l59 304h152l-52 -270q-4 -22 -4 -33q0 -31 21 -48t57 -17q44 0 75 34t43 95l46 239h152l-96 -496h-152l12 66q-52 -80 -152 -80q-81 0 -124.5 44.5t-43.5 104.5q0 21 7 57zM387 714l35 -164h-116l-99 164h180z" />
    <glyph glyph-name="uacute" unicode="&#xfa;" horiz-adv-x="600" 
d="M33 192l59 304h152l-52 -270q-4 -22 -4 -33q0 -31 21 -48t57 -17q44 0 75 34t43 95l46 239h152l-96 -496h-152l12 66q-52 -80 -152 -80q-81 0 -124.5 44.5t-43.5 104.5q0 21 7 57zM265 550l95 164h184l-159 -164h-120z" />
    <glyph glyph-name="ucircumflex" unicode="&#xfb;" horiz-adv-x="600" 
d="M33 192l59 304h152l-52 -270q-4 -22 -4 -33q0 -31 21 -48t57 -17q44 0 75 34t43 95l46 239h152l-96 -496h-152l12 66q-52 -80 -152 -80q-81 0 -124.5 44.5t-43.5 104.5q0 21 7 57zM176 550l150 164h101l90 -164h-113l-45 53l-64 -53h-119z" />
    <glyph glyph-name="udieresis" unicode="&#xfc;" horiz-adv-x="600" 
d="M33 192l59 304h152l-52 -270q-4 -22 -4 -33q0 -31 21 -48t57 -17q44 0 75 34t43 95l46 239h152l-96 -496h-152l12 66q-52 -80 -152 -80q-81 0 -124.5 44.5t-43.5 104.5q0 21 7 57zM377 564l27 143h138l-27 -143h-138zM179 564l27 143h138l-27 -143h-138z" />
    <glyph glyph-name="yacute" unicode="&#xfd;" horiz-adv-x="567" 
d="M-22 -199l47 135q25 -13 53 -13q30 0 52 38l20 34l-110 501h164l59 -295l168 295h169l-337 -568q-46 -78 -90.5 -108.5t-115.5 -30.5q-53 0 -79 12zM244 550l95 164h184l-159 -164h-120z" />
    <glyph glyph-name="thorn" unicode="&#xfe;" horiz-adv-x="629" 
d="M-41 -204l174 904h152l-49 -255q57 65 153 65q89 0 147.5 -59t58.5 -168q0 -127 -79 -212t-201 -85q-51 0 -92.5 19.5t-63.5 51.5l-51 -261h-149zM327 372q-62 0 -102 -41t-40 -99q0 -49 32.5 -78.5t81.5 -29.5q56 0 97.5 38.5t41.5 100.5q0 49 -31.5 79t-79.5 30z" />
    <glyph glyph-name="ydieresis" unicode="&#xff;" horiz-adv-x="567" 
d="M-22 -199l47 135q25 -13 53 -13q30 0 52 38l20 34l-110 501h164l59 -295l168 295h169l-337 -568q-46 -78 -90.5 -108.5t-115.5 -30.5q-53 0 -79 12zM361 564l27 143h138l-27 -143h-138zM163 564l27 143h138l-27 -143h-138z" />
    <glyph glyph-name="dotlessi" unicode="&#x131;" horiz-adv-x="262" 
d="M-3 0l96 496h152l-96 -496h-152z" />
    <glyph glyph-name="Lslash" unicode="&#x141;" horiz-adv-x="629" 
d="M-24 105l30 153l77 44l78 398h162l-57 -294l169 96l-30 -153l-169 -96l-20 -103h347l-30 -150h-508l29 149z" />
    <glyph glyph-name="lslash" unicode="&#x142;" horiz-adv-x="302" 
d="M-19 121l26 133l68 39l80 407h152l-61 -313l69 39l-25 -133l-70 -39l-50 -254h-152l32 160z" />
    <glyph glyph-name="OE" unicode="&#x152;" horiz-adv-x="1183" 
d="M556 0l14 68q-79 -82 -200 -82q-143 0 -235 92.5t-92 228.5q0 108 46.5 199.5t142 149.5t223.5 58q145 0 220 -100l18 86h511l-28 -142h-349l-25 -127h321l-27 -138h-321l-29 -151h352l-28 -142h-514zM393 136q99 0 164 71.5t65 176.5q0 82 -52 131t-134 49
q-99 0 -164 -72.5t-65 -177.5q0 -83 54 -130.5t132 -47.5z" />
    <glyph glyph-name="oe" unicode="&#x153;" horiz-adv-x="991" 
d="M947 211h-368q3 -46 30 -71.5t70 -25.5q92 0 135 73l106 -67q-43 -67 -102.5 -100.5t-146.5 -33.5q-115 0 -182 95q-46 -49 -98 -72t-124 -23q-102 0 -174 65.5t-72 160.5q0 129 85 213.5t223 84.5q127 0 198 -91q77 91 206 91q106 0 166.5 -54.5t60.5 -138.5
q0 -33 -8 -77zM286 128q59 0 97.5 38.5t38.5 97.5q0 48 -31 76t-81 28q-59 0 -95.5 -40t-36.5 -93q0 -50 32.5 -78.5t75.5 -28.5zM729 394q-45 0 -79 -21t-49 -57h229q-4 39 -31 58.5t-70 19.5z" />
    <glyph glyph-name="Scaron" unicode="&#x160;" horiz-adv-x="656" 
d="M368 582q-46 0 -75 -18t-29 -49q0 -30 29.5 -49.5t101.5 -37.5q98 -24 148.5 -70t50.5 -124q0 -114 -81 -181t-216 -67q-113 0 -186.5 65t-86.5 162l142 72q10 -72 47.5 -114.5t100.5 -42.5q51 0 83.5 22t32.5 62q0 34 -31 54t-103 38q-73 19 -128.5 68t-55.5 131
q0 91 72.5 151t196.5 60q196 0 249 -175l-122 -78q-40 121 -140 121zM591 918l-150 -164h-101l-90 164h113l45 -53l64 53h119z" />
    <glyph glyph-name="scaron" unicode="&#x161;" horiz-adv-x="510" 
d="M268 404q-26 0 -43 -9.5t-17 -27.5q0 -35 93 -56q76 -17 114 -52t38 -94q0 -80 -60.5 -129.5t-169.5 -49.5q-82 0 -141.5 44t-75.5 111l122 67q24 -100 115 -100q27 0 47.5 11t20.5 31q0 36 -98 60q-59 15 -100 51.5t-41 95.5q0 64 55.5 108.5t148.5 44.5q156 0 203 -127
l-110 -56q-33 77 -101 77zM488 714l-150 -164h-101l-90 164h113l45 -53l64 53h119z" />
    <glyph glyph-name="Ydieresis" unicode="&#x178;" 
d="M339 0l52 266l317 434h-184l-155 -223q-16 -28 -30 -52l-10 52l-69 223h-179l148 -434l-52 -266h162zM433 768l27 143h138l-27 -143h-138zM235 768l27 143h138l-27 -143h-138z" />
    <glyph glyph-name="Zcaron" unicode="&#x17d;" horiz-adv-x="626" 
d="M99 558l28 142h527l-28 -142l-418 -416h356l-28 -142h-561l28 140l422 418h-326zM576 918l-150 -164h-101l-90 164h113l45 -53l64 53h119z" />
    <glyph glyph-name="zcaron" unicode="&#x17e;" horiz-adv-x="504" 
d="M178 116h259l-23 -116h-439l22 116l296 264h-234l23 116h412l-23 -116zM499 714l-150 -164h-101l-90 164h113l45 -53l64 53h119z" />
    <glyph glyph-name="florin" unicode="&#x192;" horiz-adv-x="374" 
d="M269 380l-80 -412q-36 -186 -210 -186q-41 0 -74 14l44 130q16 -6 37 -6q42 0 51 49l80 411h-69l23 116h69l12 64q18 95 75.5 142.5t145.5 47.5q39 0 76 -14l-43 -132q-21 8 -44 8q-22 0 -38.5 -15t-21.5 -43l-10 -58h105l-23 -116h-105z" />
    <glyph glyph-name="circumflex" unicode="&#x2c6;" horiz-adv-x="424" 
d="M80 550l150 164h101l90 -164h-113l-45 53l-64 -53h-119z" />
    <glyph glyph-name="caron" unicode="&#x2c7;" horiz-adv-x="424" 
d="M456 714l-150 -164h-101l-90 164h113l45 -53l64 53h119z" />
    <glyph glyph-name="breve" unicode="&#x2d8;" horiz-adv-x="300" 
d="M251 682h85q-10 -63 -43 -92.5t-96 -29.5q-46 0 -74.5 27t-28.5 71q0 13 2 24h85q-1 -5 -1 -11q0 -31 28 -31q35 0 43 42z" />
    <glyph glyph-name="dotaccent" unicode="&#x2d9;" horiz-adv-x="262" 
d="M97 554l31 160h164l-31 -160h-164z" />
    <glyph glyph-name="ring" unicode="&#x2da;" horiz-adv-x="278" 
d="M99 635q0 42 30 71.5t72 29.5t72 -29.5t30 -71.5t-30 -71.5t-72 -29.5t-72 29.5t-30 71.5zM172 635q0 -13 8 -21t21 -8t21 8t8 21t-8 21t-21 8t-21 -8t-8 -21z" />
    <glyph glyph-name="ogonek" unicode="&#x2db;" horiz-adv-x="232" 
d="M-67 -110q0 81 102 124l108 -14q-29 -12 -56.5 -34t-27.5 -44q0 -27 28 -27q9 0 22 2l-5 -88q-31 -7 -61 -7q-48 0 -79 23t-31 65z" />
    <glyph glyph-name="tilde" unicode="&#x2dc;" horiz-adv-x="478" 
d="M227 608q-10 0 -16.5 -7t-6.5 -18q0 -7 3 -15l-95 -19q-7 16 -7 38q0 50 33 84t91 34q31 0 54.5 -10.5t34.5 -22.5t24 -22.5t25 -10.5q24 0 24 23q0 10 -3 17l95 19q7 -16 7 -44q0 -45 -33.5 -78.5t-90.5 -33.5q-30 0 -53 10.5t-34.5 22.5t-25 22.5t-26.5 10.5z" />
    <glyph glyph-name="hungarumlaut" unicode="&#x2dd;" horiz-adv-x="554" 
d="M101 550l93 164h179l-157 -164h-115zM313 550l93 164h179l-157 -164h-115z" />
    <glyph glyph-name="pi" unicode="&#x3c0;" horiz-adv-x="702" 
d="M60 496h647l-22 -116h-102l-38 -191q-2 -14 -2 -20q0 -24 12 -36.5t33 -12.5q18 0 40 8l-11 -125q-43 -17 -96 -17q-59 0 -98.5 34.5t-39.5 92.5q0 19 8 61l40 206h-141l-74 -380h-152l74 380h-100z" />
    <glyph glyph-name="endash" unicode="&#x2013;" horiz-adv-x="594" 
d="M27 250l23 122h522l-23 -122h-522z" />
    <glyph glyph-name="emdash" unicode="&#x2014;" horiz-adv-x="864" 
d="M27 250l23 122h792l-23 -122h-792z" />
    <glyph glyph-name="quoteleft" unicode="&#x2018;" horiz-adv-x="226" 
d="M233 539l-30 -152h-150l30 152l175 168l21 -21l-102 -147h56z" />
    <glyph glyph-name="quoteright" unicode="&#x2019;" horiz-adv-x="226" 
d="M85 548l30 152h150l-30 -152l-175 -168l-21 21l102 147h-56z" />
    <glyph glyph-name="quotesinglbase" unicode="&#x201a;" horiz-adv-x="226" 
d="M-20 0l30 152h150l-30 -152l-175 -168l-21 21l102 147h-56z" />
    <glyph glyph-name="quotedblleft" unicode="&#x201c;" horiz-adv-x="418" 
d="M233 539l-30 -152h-150l30 152l175 168l21 -21l-102 -147h56zM425 539l-30 -152h-150l30 152l175 168l21 -21l-102 -147h56z" />
    <glyph glyph-name="quotedblright" unicode="&#x201d;" horiz-adv-x="418" 
d="M277 548l30 152h150l-30 -152l-175 -168l-21 21l102 147h-56zM85 548l30 152h150l-30 -152l-175 -168l-21 21l102 147h-56z" />
    <glyph glyph-name="quotedblbase" unicode="&#x201e;" horiz-adv-x="418" 
d="M172 0l30 152h150l-30 -152l-175 -168l-21 21l102 147h-56zM-20 0l30 152h150l-30 -152l-175 -168l-21 21l102 147h-56z" />
    <glyph glyph-name="dagger" unicode="&#x2020;" horiz-adv-x="484" 
d="M50 374l24 122h133l47 244h146l-47 -244h133l-24 -122h-133l-94 -484h-146l94 484h-133z" />
    <glyph glyph-name="daggerdbl" unicode="&#x2021;" horiz-adv-x="484" 
d="M50 374l24 122h133l47 244h146l-47 -244h133l-24 -122h-133l-23 -118h133l-24 -122h-133l-47 -244h-146l47 244h-133l24 122h133l23 118h-133z" />
    <glyph glyph-name="bullet" unicode="&#x2022;" horiz-adv-x="346" 
d="M38 275q0 56 39.5 95.5t95.5 39.5t95.5 -39.5t39.5 -95.5t-39.5 -95.5t-95.5 -39.5t-95.5 39.5t-39.5 95.5z" />
    <glyph glyph-name="ellipsis" unicode="&#x2026;" horiz-adv-x="630" 
d="M-21 0l29 154h154l-29 -154h-154zM181 0l29 154h154l-29 -154h-154zM383 0l29 154h154l-29 -154h-154z" />
    <glyph glyph-name="perthousand" unicode="&#x2030;" horiz-adv-x="1116" 
d="M453 143q0 78 55.5 135.5t143.5 57.5q74 0 118 -46q54 46 131 46q69 0 114 -41.5t45 -111.5q0 -82 -56.5 -139.5t-143.5 -57.5q-71 0 -116 47q-53 -47 -133 -47q-66 0 -112 44t-46 113zM80 521q0 78 55.5 135.5t143.5 57.5q69 0 114 -41.5t45 -111.5q0 -82 -56.5 -139.5
t-143.5 -57.5q-66 0 -112 44t-46 113zM644 236q-37 0 -60 -26t-23 -61q0 -28 17.5 -45.5t45.5 -17.5q33 0 56 23.5t23 62.5q0 29 -16 46.5t-43 17.5zM893 236q-37 0 -60 -26t-23 -61q0 -28 17.5 -45.5t45.5 -17.5q33 0 56 23.5t23 62.5q0 29 -16 46.5t-43 17.5zM271 614
q-37 0 -60 -26t-23 -61q0 -28 17.5 -45.5t45.5 -17.5q33 0 56 23.5t23 62.5q0 29 -16 46.5t-43 17.5zM200 -10l-70 61l564 659l70 -61z" />
    <glyph glyph-name="guilsinglleft" unicode="&#x2039;" horiz-adv-x="399" 
d="M256 499h171l-223 -230l127 -216h-162l-131 222z" />
    <glyph glyph-name="guilsinglright" unicode="&#x203a;" horiz-adv-x="399" 
d="M149 53h-171l223 230l-127 216h162l131 -222z" />
    <glyph glyph-name="fraction" unicode="&#x2044;" horiz-adv-x="545" 
d="M34 -10l-70 61l564 659l70 -61z" />
    <glyph glyph-name="Euro" unicode="&#x20ac;" horiz-adv-x="804" 
d="M488 219h-210q38 -87 139 -87q70 0 114 35.5t75 99.5l132 -50q-53 -121 -133.5 -176t-202.5 -55q-113 0 -188 64.5t-98 168.5h-100l70 108h22q2 28 4 42h-67l70 108h27q45 106 138 171.5t223 65.5q115 0 187.5 -53t99.5 -151l-145 -60q-30 118 -166 118q-115 0 -175 -91
h283l-70 -108h-251q-4 -28 -4 -42h296z" />
    <glyph glyph-name="trademark" unicode="&#x2122;" horiz-adv-x="862" 
d="M89 614l16 86h330l-16 -86h-117l-61 -314h-96l61 314h-117zM390 300l77 400h101l60 -276l159 276h112l-77 -400h-94l37 190l-109 -190h-90l-44 196l-38 -196h-94z" />
    <glyph glyph-name="Omega" unicode="&#x2126;" horiz-adv-x="784" 
d="M693 110l-21 -110h-303l24 122q95 41 153.5 115t58.5 163q0 77 -51.5 124.5t-128.5 47.5q-100 0 -161 -63.5t-61 -162.5q0 -141 108 -224l-24 -122h-302l21 110h136q-96 106 -96 240q0 70 25.5 134.5t73.5 116t124.5 82.5t170.5 31q142 0 232 -78.5t90 -202.5
q0 -97 -52.5 -179.5t-139.5 -143.5h123z" />
    <glyph glyph-name="arrowleft" unicode="&#x2190;" horiz-adv-x="609" 
d="M335 152l-97 -84l-195 243l290 243l71 -88l-117 -98h298l-23 -114h-311z" />
    <glyph glyph-name="arrowup" unicode="&#x2191;" horiz-adv-x="554" 
d="M537 387l-97 -81l-84 106l-61 -313h-114l59 302l-120 -100l-69 86l291 243z" />
    <glyph glyph-name="arrowright" unicode="&#x2192;" horiz-adv-x="609" 
d="M278 470l97 84l195 -243l-290 -243l-71 88l117 98h-298l23 114h311z" />
    <glyph glyph-name="arrowdown" unicode="&#x2193;" horiz-adv-x="554" 
d="M42 342l97 81l84 -106l61 313h114l-59 -302l120 100l69 -86l-291 -243z" />
    <glyph glyph-name="arrowboth" unicode="&#x2194;" horiz-adv-x="813" 
d="M335 152l-97 -84l-195 243l290 243l71 -88l-117 -98h279l-84 102l97 84l195 -243l-291 -243l-70 88l117 98h-279z" />
    <glyph glyph-name="arrowupdn" unicode="&#x2195;" horiz-adv-x="554" 
d="M439 327l69 -86l-291 -243l-195 243l97 81l84 -106l55 284l-120 -100l-69 86l291 243l195 -243l-97 -81l-84 106l-55 -284z" />
    <glyph glyph-name="uni2196" unicode="&#x2196;" horiz-adv-x="545" 
d="M163 152h-122l67 344h344l-24 -122h-141l172 -212l-96 -82l-172 214z" />
    <glyph glyph-name="uni2197" unicode="&#x2197;" horiz-adv-x="545" 
d="M448 152h-122l28 142l-256 -214l-69 85l250 209h-132l24 122h344z" />
    <glyph glyph-name="uni2198" unicode="&#x2198;" horiz-adv-x="545" 
d="M383 444h122l-67 -344h-344l24 122h141l-172 212l96 82l172 -214z" />
    <glyph glyph-name="uni2199" unicode="&#x2199;" horiz-adv-x="545" 
d="M99 444h122l-28 -142l256 214l69 -85l-250 -209h132l-24 -122h-344z" />
    <glyph glyph-name="partialdiff" unicode="&#x2202;" horiz-adv-x="593" 
d="M314 598q-68 0 -72 -43q0 -10 1 -16l-133 -55q-11 24 -11 51q0 82 62.5 130.5t159.5 48.5q130 0 185 -84t55 -258q0 -175 -76.5 -280.5t-231.5 -105.5q-99 0 -163.5 61.5t-64.5 154.5q0 111 78.5 185.5t193.5 74.5q87 0 133 -48q-2 84 -30.5 134t-85.5 50zM302 336
q-58 0 -92.5 -37t-34.5 -90q0 -44 29 -70.5t71 -26.5q53 0 89 36.5t36 91.5q0 44 -28 70t-70 26z" />
    <glyph glyph-name="Delta" unicode="&#x2206;" horiz-adv-x="732" 
d="M668 0h-721l417 700h159zM364 421l-160 -283h267l-49 283q-8 41 -13 83z" />
    <glyph glyph-name="product" unicode="&#x220f;" horiz-adv-x="688" 
d="M-32 -204l174 904h558l-175 -904h-162l146 754h-234l-145 -754h-162z" />
    <glyph glyph-name="summation" unicode="&#x2211;" horiz-adv-x="584" 
d="M213 290l-122 274l26 136h512l-26 -136h-330l119 -283l-234 -265h345l-26 -136h-528l26 136z" />
    <glyph glyph-name="minus" unicode="&#x2212;" horiz-adv-x="582" 
d="M34 304l23 122h510l-23 -122h-510z" />
    <glyph glyph-name="radical" unicode="&#x221a;" horiz-adv-x="643" 
d="M310 0h-152l-39 230h-111l25 126h223l19 -142l275 486h157z" />
    <glyph glyph-name="infinity" unicode="&#x221e;" horiz-adv-x="774" 
d="M748 322q0 -90 -59 -146t-157 -56q-86 0 -148 88q-90 -88 -193 -88q-76 0 -121 43.5t-45 115.5q0 81 56 141t149 60q58 0 96 -26t70 -73q93 99 190 99q75 0 118.5 -43.5t43.5 -114.5zM217 230q42 0 108 71q-46 69 -96 69q-33 0 -56.5 -23.5t-23.5 -56.5q0 -28 17.5 -44
t50.5 -16zM540 230q31 0 58 24.5t27 58.5q0 25 -16 41t-42 16q-27 0 -53 -21t-60 -62q40 -57 86 -57z" />
    <glyph glyph-name="integral" unicode="&#x222b;" horiz-adv-x="374" 
d="M302 554l-113 -586q-36 -186 -210 -186q-41 0 -74 14l44 130q16 -6 37 -6q42 0 51 49l115 591q18 95 75.5 142.5t145.5 47.5q39 0 76 -14l-43 -132q-21 8 -44 8q-22 0 -38.5 -15t-21.5 -43z" />
    <glyph glyph-name="approxequal" unicode="&#x2248;" horiz-adv-x="473" 
d="M194 419q-10 0 -18.5 -7t-8.5 -19q0 -7 3 -15l-106 -19q-8 18 -8 45q0 54 34.5 91t99.5 37q39 0 66.5 -15t45.5 -29.5t32 -14.5q10 0 18.5 7t8.5 19q0 7 -3 15l106 19q8 -18 8 -45q0 -128 -137 -128q-37 0 -64 15t-44.5 29.5t-32.5 14.5zM162 229q-10 0 -18.5 -7
t-8.5 -19q0 -7 3 -15l-106 -19q-8 18 -8 45q0 54 34.5 91t99.5 37q39 0 66.5 -15t45.5 -29.5t32 -14.5q10 0 18.5 7t8.5 19q0 7 -3 15l106 19q8 -18 8 -45q0 -128 -137 -128q-37 0 -64 15t-44.5 29.5t-32.5 14.5z" />
    <glyph glyph-name="notequal" unicode="&#x2260;" horiz-adv-x="582" 
d="M563 388h-152l-68 -86h203l-24 -122h-276l-121 -152l-94 78l59 74h-78l24 122h151l68 86h-202l24 122h276l121 152l94 -78l-59 -74h78z" />
    <glyph glyph-name="lessequal" unicode="&#x2264;" horiz-adv-x="582" 
d="M-19 0l23 122h510l-23 -122h-510zM55 367l23 114l499 227l-32 -164l-293 -126l244 -126l-30 -152z" />
    <glyph glyph-name="greaterequal" unicode="&#x2265;" horiz-adv-x="582" 
d="M-19 0l23 122h510l-23 -122h-510zM570 481l-23 -114l-499 -227l32 164l293 126l-244 126l30 152z" />
    <glyph glyph-name="lozenge" unicode="&#x25ca;" horiz-adv-x="626" 
d="M615 350l-287 -350h-148l-149 350l286 350h148zM275 134l183 223l-88 209l-182 -223z" />
    <glyph glyph-name="apple" unicode="&#xf8ff;" horiz-adv-x="730" 
d="M661 617v-595q0 -9 -6.5 -15.5t-15.5 -6.5q-3 0 -7 1l-267 77l-267 -77q-4 -1 -7 -1q-9 0 -15.5 6.5t-6.5 15.5v595q0 17 16 22l270 78q6 2 10 2t10 -2l270 -78q16 -5 16 -22zM343 366v303l-230 -67q6 -94 71.5 -161t158.5 -75zM387 669v-303q93 8 158.5 75t71.5 161z
M112 463v-412l231 67v204q-73 6 -134 43.5t-97 97.5zM618 51v412q-37 -60 -97.5 -97.5t-133.5 -43.5v-204z" />
    </font>
</defs>
</svg>
